<?xml version="1.0" standalone="no"?>
<!DOCTYPE svg PUBLIC "-//W3C//DTD SVG 1.1//EN" "http://www.w3.org/Graphics/SVG/1.1/DTD/svg11.dtd" >
<svg xmlns="http://www.w3.org/2000/svg" xmlns:xlink="http://www.w3.org/1999/xlink" version="1.1">
<metadata>
Created by FontForge 20170924 at Sun Jul  2 19:27:09 2017
 By www-data
Copyright \(c\) 2017 by The Refinery LLC. All rights reserved.
</metadata>
<defs>
<font id="ClarikaGrotesque-Bold" horiz-adv-x="0" >
  <font-face 
    font-family="Clarika Grotesque"
    font-weight="700"
    font-stretch="normal"
    units-per-em="1000"
    panose-1="0 0 8 0 0 0 0 0 0 0"
    ascent="800"
    descent="-200"
    x-height="462.35"
    cap-height="640"
    bbox="-634.5 -279.51 1242.76 993.631"
    underline-thickness="50"
    underline-position="-100"
    stemh="119"
    stemv="136"
    unicode-range="U+000D-FB02"
  />
<missing-glyph horiz-adv-x="248" 
d="M123.64 84.5703c25.96 0 47.29 -22.25 47.29 -49.1396c0 -27.8203 -21.3301 -50.0703 -47.29 -50.0703s-46.3604 22.25 -46.3604 50.0703c0 26.8896 20.4004 49.1396 46.3604 49.1396z" />
    <glyph glyph-name="f_f" unicode="ff" horiz-adv-x="672" 
d="M592.16 585.66c-32.6699 0 -49.2314 -25.8779 -49.2314 -65.6982v-57.5h92.0801v-102.98h-92.0801v-359.47h-136.15v359.47h-180.55v-359.47h-136.15v359.47h-59.1904v102.98h59.1904v40.5c0 130.77 72.1104 197.649 166.11 197.649
c40.75 0 77.5303 -7.71973 118.891 -32.3096l-55.3203 -98.9805c-15.7598 12.9199 -30.2793 16.3398 -44.3096 16.3398c-32.6699 0 -49.21 -25.8799 -49.21 -65.7002v-57.5h180.55v40.5c0 130.77 72.1104 197.649 166.11 197.649c40.75 0 77.5303 -7.71973 118.891 -32.3096
l-55.3203 -98.9805c-15.7598 12.9199 -30.2793 16.3398 -44.3096 16.3398z" />
    <glyph glyph-name="f_f_i" unicode="ffi" horiz-adv-x="932" 
d="M596.73 585.66c-32.6699 0 -49.2305 -25.8887 -49.2305 -65.709v-57.5h91.2803v-102.98h-91.2803v-359.47h-136.15v359.47h-185.12v-359.47h-136.15v359.47h-59.1904v102.98h59.1904v40.5c0 130.77 72.1104 197.649 166.11 197.649
c40.75 0 77.5303 -7.71973 118.891 -32.3096l-55.3203 -98.9805c-15.7598 12.9199 -30.2793 16.3398 -44.3096 16.3398c-32.6699 0 -49.21 -25.8799 -49.21 -65.7002v-57.5h185.12v40.5c0 130.77 72.1104 197.649 166.11 197.649c38.6602 0 67.21 -7.95996 94.5303 -22.7803
l-37.6797 -101.43c-11.1602 6.41016 -24.3604 9.27051 -37.5908 9.27051zM801.32 534.501c-42.96 0 -77.79 33.7197 -77.79 75.3096s34.8301 75.3096 77.79 75.3096c42.9697 0 77.7998 -33.7197 77.7998 -75.3096s-34.8301 -75.3096 -77.7998 -75.3096zM729.91 -0.00878906
v462.71h134.83v-462.71h-134.83z" />
    <glyph glyph-name="f_f_l" unicode="ffl" horiz-adv-x="931" 
d="M592.34 581.89c-32.6699 0 -49.2207 -25.8691 -49.2207 -65.6895v-53.7305h91.9004v-102.98h-91.9004v-359.47h-136.15v359.47h-180.73v-359.47h-136.15v359.47h-59.1904v102.98h59.1904v36.7305c0 130.76 72.1104 197.64 166.11 197.64
c40.75 0 77.5303 -7.71973 118.891 -32.3096l-55.3203 -98.9805c-15.7598 12.9199 -30.2793 16.3496 -44.3096 16.3496c-32.6699 0 -49.21 -25.8896 -49.21 -65.71v-53.7305h180.73v36.7305c0 130.76 72.1104 197.64 166.11 197.64
c38.6504 0 67.2002 -7.95996 94.5205 -22.7803l-37.6797 -101.43c-11.1602 6.41016 -24.3604 9.27051 -37.5908 9.27051zM732.56 680.021h136.15v-680h-136.15v680z" />
    <glyph glyph-name="f_t" unicode="ft" horiz-adv-x="652" 
d="M615.84 111.19l14.4287 -108.25s-39.7305 -13.5 -91.9404 -13.5c-68.4297 0 -152.949 30.0303 -152.949 164.141v205.9h-157.55v-359.47h-136.15v359.47h-60.75v102.98h60.75v40.5c0 130.77 72.1104 197.649 166.11 197.649c38.6504 0 67.21 -7.95996 94.5303 -22.7803
l-37.6797 -101.43c-11.1602 6.41016 -24.3604 9.27051 -37.5908 9.27051c-32.6699 0 -49.21 -25.8799 -49.21 -65.7002v-57.5h157.52v71.9102l136.15 62.2598l0.150391 -134.18h96.6299v-102.98h-96.5195l0.200195 -185.83c0 -51.5703 23.7598 -69.5107 55.96 -69.5107
c23.0498 0 37.9102 7.0498 37.9102 7.0498z" />
    <glyph glyph-name="fi" unicode="fi" horiz-adv-x="606" 
d="M272.76 585.66c-32.6699 0 -49.1992 -25.8896 -49.1992 -65.71v-57.5h91.9004v-102.98h-91.9004v-359.47h-136.15v359.47h-56.5v102.98h56.5v40.5c0 130.77 72.1104 197.649 166.11 197.649c38.6504 0 67.2002 -7.95996 94.5205 -22.7803l-37.6904 -101.43
c-11.1602 6.41016 -24.3604 9.27051 -37.5908 9.27051zM476.24 535c-42.96 0 -77.79 33.7197 -77.79 75.3096s34.8301 75.3096 77.79 75.3096c42.9697 0 77.7998 -33.7197 77.7998 -75.3096s-34.8301 -75.3096 -77.7998 -75.3096zM404.83 0v462.71h134.83v-462.71h-134.83z
" />
    <glyph glyph-name="fl" unicode="fl" horiz-adv-x="624" 
d="M275.79 585.66c-32.6699 0 -49.21 -25.8779 -49.21 -65.6982v-57.5h92.0801v-102.98h-92.0801v-359.47h-136.15v359.47h-59.5195v102.98h59.5195v40.5c0 130.77 72.1104 197.649 166.11 197.649c38.6504 0 67.2002 -7.95996 94.5205 -22.7803l-35.0703 -103.15
c-11.6504 7.55957 -26.1699 10.9795 -40.2002 10.9795zM425.39 680.002h136.15v-680h-136.15v680z" />
    <glyph glyph-name="t_t" unicode="tt" horiz-adv-x="671" 
d="M639.45 111.19l14.3779 -108.25s-39.7305 -13.5 -91.9404 -13.5c-68.4297 0 -152.96 30.0303 -152.96 164.141v205.9h-173.71l0.200195 -185.83c0 -51.5703 23.7598 -69.5107 55.96 -69.5107c23.0596 0 37.9199 7.0498 37.9199 7.0498l14.4902 -108.25
s-39.7305 -13.5 -91.9404 -13.5c-68.4297 0 -152.96 30.0303 -152.96 164.141v205.9h-60.5996v102.98h60.5801v134.18h136.15l0.150391 -134.18h173.8v134.18h136.15l0.150391 -134.18h96.6299v-102.98h-96.5195l0.200195 -185.83
c0 -51.5703 23.7598 -69.5107 55.96 -69.5107c23.0498 0 37.9102 7.0498 37.9102 7.0498z" />
    <glyph glyph-name="onehalf" unicode="&#x31;&#x2f;&#x32;" horiz-adv-x="837" 
d="M546.13 640.38h91.5703l-408.95 -640h-91.5703zM161.65 260l0.0107422 269.371l-75.4102 -44.1104l-38.9502 78.9697l127.21 75.7695h91.2598l-0.379883 -380h-103.74zM609.711 79.4111l180.199 -0.00976562v-79.4199h-318.4v23.8896c0 137.25 193 150.33 193 227.23
c0 22.79 -12.0098 43.6797 -43.4297 43.6797c-32.7998 0 -53.8799 -27.71 -73.8398 -52.0498l-71 61.96c30.5703 37.4297 80.6006 85.2998 163.681 85.2998c79.2002 0 141.92 -45.8604 141.92 -121.9c0 -104.91 -134.88 -136.91 -172.13 -188.68z" />
    <glyph glyph-name="uni2153" unicode="&#x31;&#x2f;&#x33;" horiz-adv-x="850" 
d="M546.13 640.38h91.5703l-408.95 -640h-91.5703zM161.65 260l0.0107422 269.371l-75.4102 -44.1104l-38.9502 78.9697l127.21 75.7695h91.2598l-0.379883 -380h-103.74zM679.661 222.781c62.21 -0.889648 123.181 -36.9824 122.721 -111.442
c-0.410156 -71.5996 -61.9102 -118.199 -160.43 -120.039c-66.4102 -1.29004 -115.75 17.5596 -157.96 49.9395l44.6104 75.8203c25.79 -22.4805 55.6396 -42.8701 96.0195 -42.4902c36.8398 0.339844 59.3799 17.6299 60.6797 42.0801
c1.15039 19.9404 -6.48926 34.6807 -29.8896 43.751c-20.29 7.67969 -48.5801 5.58008 -75.5205 -3.34961l-25.3701 52.96l92.71 87.71h-138.88v82.2803h277.75v-50.5996z" />
    <glyph glyph-name="uni2154" unicode="&#x32;&#x2f;&#x33;" horiz-adv-x="936" 
d="M365.68 339.42l-0.0107422 -79.4297h-318.4v23.8896c0 137.25 193 150.33 193 227.23c0 22.79 -12.0098 43.6797 -43.4297 43.6797c-32.7998 0 -53.8799 -27.71 -73.8301 -52.0498l-71 61.96c30.5703 37.4297 80.6006 85.2998 163.681 85.2998
c79.2002 0 141.92 -45.8604 141.92 -121.9c0 -104.91 -134.88 -136.91 -172.13 -188.68h180.2zM632.739 640.37h91.5703l-408.95 -640h-91.5703zM766.25 222.78c62.21 -0.889648 123.17 -36.9824 122.71 -111.442c-0.410156 -71.5996 -61.9102 -118.199 -160.43 -120.039
c-66.4102 -1.29004 -115.75 17.5596 -157.96 49.9395l44.6104 75.8203c25.79 -22.4805 55.6396 -42.8701 96.0195 -42.4902c36.8398 0.339844 59.3799 17.6299 60.6797 42.0801c1.15039 19.9404 -6.48926 34.6807 -29.8789 43.751
c-20.29 7.67969 -48.5801 5.58008 -75.5205 -3.34961l-25.3701 52.96l92.71 87.71h-138.88v82.2803h277.75v-50.5996z" />
    <glyph glyph-name="onequarter" unicode="&#x31;&#x2f;&#x34;" horiz-adv-x="796" 
d="M546.13 640.38h91.5703l-408.95 -640h-91.5703zM161.65 260l0.0107422 269.371l-75.4102 -44.1104l-38.9502 78.9697l127.21 75.7695h91.2598l-0.379883 -380h-103.74zM749.051 149.761l0.00976562 -83.7803h-45.25v-66h-100l1.82031 66h-180.17l-23.9102 65.1504
l143.9 248.86h114.04l-143.33 -230.23h91.7803l2.08984 75.7803h93.7695v-75.7803h45.25z" />
    <glyph glyph-name="threequarters" unicode="&#x33;&#x2f;&#x34;" horiz-adv-x="864" 
d="M613.68 640.38h91.5596l-408.95 -640h-91.5596zM365.659 371.34c-0.410156 -71.5996 -61.9092 -118.183 -160.429 -120.022c-66.4102 -1.29004 -115.75 17.5596 -157.96 49.9297l44.6104 75.8203c25.79 -22.4805 55.6396 -42.8701 96.0195 -42.4902
c36.8398 0.339844 59.3799 17.6299 60.6797 42.0801c1.15039 19.9404 -6.47949 34.6807 -29.8799 43.751c-20.29 7.67969 -48.5801 5.58008 -75.5205 -3.34961l-25.3701 52.96l92.71 87.71h-138.88v82.2803h277.75v-50.5996l-106.44 -106.62
c62.21 -0.889648 123.17 -36.9893 122.71 -111.449zM816.57 149.797l0.00976562 -83.7803h-45.25v-66h-100l1.82031 66h-180.17l-23.9102 65.1504l143.9 248.86h114.04l-143.33 -230.23h91.7803l2.08984 75.7803h93.7695v-75.7803h45.25z" />
    <glyph glyph-name="oneeighth" unicode="&#x31;&#x2f;&#x38;" horiz-adv-x="836" 
d="M546.13 640.38h91.5703l-408.95 -640h-91.5703zM161.65 260l0.0107422 269.371l-75.4102 -44.1104l-38.9502 78.9697l127.21 75.7695h91.2598l-0.379883 -380h-103.74zM720.852 205.891c37.7803 -14.3301 68 -49.8613 68 -97.6514
c0 -56.8701 -42.5898 -118.26 -159.439 -118.26c-116.86 0 -159.79 61.3896 -159.79 118.26c0 47.7305 30.3701 83.2305 68.1699 97.5908c-26.5498 12.4004 -52.0996 40.04 -52.0996 81.2305c0 57.1299 50.9404 102.93 143.71 102.93
c91.9404 0 142.46 -45.7998 142.46 -102.93c0 -41.1299 -24.9004 -68.75 -51.0107 -81.1699zM629.421 317.219c-23.79 0 -43.0703 -15.7803 -43.0703 -39.0605c0 -22.9805 19.2803 -39.2705 43.0703 -39.2705c23.0996 0 41.8301 16.29 41.8301 39.2705
c0 23.2803 -18.7305 39.0605 -41.8301 39.0605zM629.421 63.9785c29.3701 0 53.21 20.5596 53.21 48.46c0 28.0303 -24.3799 48.2002 -53.2002 48.2002c-29.0195 0 -53.5498 -19.96 -53.5498 -48.2002c0 -27.9004 23.9697 -48.46 53.54 -48.46z" />
    <glyph glyph-name="threeeighths" unicode="&#x33;&#x2f;&#x38;" horiz-adv-x="899" 
d="M609.15 640.38h91.5703l-408.95 -640h-91.5703zM365.671 371.34c-0.410156 -71.5996 -61.9092 -118.183 -160.429 -120.022c-66.4102 -1.29004 -115.75 17.5596 -157.96 49.9297l44.6104 75.8203c25.79 -22.4805 55.6396 -42.8701 96.0195 -42.4902
c36.8398 0.339844 59.3799 17.6299 60.6797 42.0801c1.15039 19.9404 -6.47949 34.6807 -29.8799 43.751c-20.29 7.67969 -48.5801 5.58008 -75.5205 -3.34961l-25.3701 52.96l92.71 87.71h-138.88v82.2803h277.75v-50.5996l-106.44 -106.62
c62.21 -0.889648 123.17 -36.9893 122.71 -111.449zM783.862 205.927c37.7803 -14.3301 68 -49.8613 68 -97.6514c0 -56.8701 -42.5898 -118.26 -159.439 -118.26c-116.86 0 -159.79 61.3896 -159.79 118.26c0 47.7305 30.3701 83.2305 68.1699 97.5908
c-26.5498 12.4004 -52.0996 40.04 -52.0996 81.2305c0 57.1299 50.9404 102.93 143.71 102.93c91.9404 0 142.46 -45.7998 142.46 -102.93c0 -41.1299 -24.9004 -68.75 -51.0107 -81.1699zM692.432 317.255c-23.79 0 -43.0703 -15.7803 -43.0703 -39.0605
c0 -22.9805 19.2803 -39.2705 43.0703 -39.2705c23.0996 0 41.8301 16.29 41.8301 39.2705c0 23.2803 -18.7305 39.0605 -41.8301 39.0605zM692.432 64.0146c29.3701 0 53.2002 20.5596 53.2002 48.46c0 28.0303 -24.3799 48.2002 -53.2002 48.2002
c-29.0098 0 -53.54 -19.96 -53.54 -48.2002c0 -27.9004 23.9697 -48.46 53.54 -48.46z" />
    <glyph glyph-name="fiveeighths" unicode="&#x35;&#x2f;&#x38;" horiz-adv-x="896" 
d="M606.41 640.38h91.5703l-408.95 -640h-91.5703zM193.761 332.54l0.000976562 0.0507812c42.5498 -0.269531 63.6699 24.8906 63.6699 50.1104c0 28.9102 -21.4502 46.5098 -52.1904 46.5098c-34.96 0.110352 -53.2197 -19.7197 -53.2197 -19.7197l-77.1201 36.9102
l33.6699 193.59h231v-82.2803h-151.9l-13.0195 -68.5498c14.5898 7.33984 32.8994 12.1396 55.2695 12.0293c84.1797 -0.360352 136.229 -49.7207 136.229 -119.801c0 -67.3799 -56.7197 -131.38 -155.319 -131.38c-66.5098 0 -122.12 23.0195 -163.54 51.8594
l43.46 76.4004c24.6104 -20.8496 57.71 -45.4795 103.01 -45.7295zM781.122 205.961c37.7803 -14.3301 68 -49.8613 68 -97.6514c0 -56.8701 -42.5898 -118.26 -159.439 -118.26c-116.86 0 -159.79 61.3896 -159.79 118.26c0 47.7305 30.3701 83.2305 68.1699 97.5908
c-26.5498 12.4004 -52.0996 40.04 -52.0996 81.2305c0 57.1299 50.9404 102.93 143.71 102.93c91.9404 0 142.46 -45.7998 142.46 -102.93c0 -41.1299 -24.9004 -68.75 -51.0107 -81.1699zM689.691 317.289c-23.79 0 -43.0703 -15.7803 -43.0703 -39.0605
c0 -22.9805 19.2803 -39.2705 43.0703 -39.2705c23.0996 0 41.8301 16.29 41.8301 39.2705c0 23.2803 -18.7305 39.0605 -41.8301 39.0605zM689.691 64.0488c29.3701 0 53.21 20.5596 53.21 48.46c0 28.0303 -24.3799 48.2002 -53.2002 48.2002
c-29.0195 0 -53.5498 -19.96 -53.5498 -48.2002c0 -27.9004 23.9697 -48.46 53.54 -48.46z" />
    <glyph glyph-name="seveneighths" unicode="&#x37;&#x2f;&#x38;" horiz-adv-x="789" 
d="M499.15 640.38h91.5703l-408.95 -640h-91.5703zM97.3008 260c0 104.88 37.9717 194.439 115.472 295.859h-165.48v84.1504h295.51v-59.5498c-102.23 -114.79 -135.641 -203.49 -135.641 -320.46h-109.86zM673.853 205.91
c37.7803 -14.3301 67.9902 -49.8613 67.9902 -97.6514c0 -56.8701 -42.5898 -118.26 -159.439 -118.26c-116.86 0 -159.79 61.3896 -159.79 118.26c0 47.7305 30.3701 83.2305 68.1797 97.5908c-26.5498 12.4004 -52.0996 40.04 -52.0996 81.2305
c0 57.1299 50.9404 102.93 143.71 102.93c91.9404 0 142.46 -45.7998 142.46 -102.93c0 -41.1299 -24.9004 -68.75 -51.0107 -81.1699zM582.412 317.238c-23.79 0 -43.0703 -15.7803 -43.0703 -39.0605c0 -22.9805 19.2803 -39.2705 43.0703 -39.2705
c23.0996 0 41.8301 16.29 41.8301 39.2705c0 23.2803 -18.7305 39.0605 -41.8301 39.0605zM582.412 63.998c29.3701 0 53.2002 20.5596 53.2002 48.46c0 28.0303 -24.3799 48.2002 -53.2002 48.2002c-29.0098 0 -53.54 -19.96 -53.54 -48.2002
c0 -27.9004 23.9697 -48.46 53.54 -48.46z" />
    <glyph glyph-name="arrowup" unicode="&#x3c;__" horiz-adv-x="677" 
d="M635.15 295.74l-73 -73l-168.59 168.59v-399.17h-109.58v399.17l-168.59 -168.59l-73 73l223.38 223.38v0.0898438l73 73v-0.0898438v0.0898438l73 -73v-0.0898438z" />
    <glyph glyph-name="uni2197" unicode="_&#x2d;&#x3e;" horiz-adv-x="677" 
d="M591.37 540.41l0.00976562 -103.229h-0.129883v-315.91h-103.23v236.85l-343.38 -343.38l-79.4199 79.4199l343.02 343.02h-236.14v103.23h315.91v0.129883h103.23v-0.129883h0.129883z" />
    <glyph glyph-name="arrowright" unicode="&#x2d;&#x2d;&#x3e;" horiz-adv-x="677" 
d="M652.65 286.82v-0.0898438v-0.0898438l-73 -73v0.0898438l-223.38 -223.38l-73 73l168.59 168.59h-399.17v109.58h399.17l-168.59 168.59l73 73l223.38 -223.38v0.0898438z" />
    <glyph glyph-name="uni2198" unicode="&#x2d;_&#x3e;" horiz-adv-x="677" 
d="M590.98 124.75l0.000976562 -103.24h-0.129883v-0.129883h-103.23v0.129883h-315.91v103.23h236.85l-343.38 343.38l79.4199 79.4199l343.02 -343.02v236.14h103.23v-315.91h0.129883z" />
    <glyph glyph-name="arrowdown" unicode="__&#x3e;" horiz-adv-x="677" 
d="M635.17 288.48l-223.38 -223.38v-0.0898438l-73 -73v0.0898438v-0.0898438l-73 73v0.0898438l-223.38 223.38l73 73l168.59 -168.59v399.17h109.58v-399.17l168.59 168.59z" />
    <glyph glyph-name="uni2199" unicode="&#x3c;_&#x2d;" horiz-adv-x="677" 
d="M612.98 467.65l-343.029 -343.021h236.14v-103.23h-315.91v-0.129883h-103.23v0.129883h-0.129883v103.23h0.129883v315.91h103.23v-236.85l343.38 343.38z" />
    <glyph glyph-name="arrowleft" unicode="&#x3c;&#x2d;&#x2d;" horiz-adv-x="677" 
d="M624.4 341.52v-109.58h-399.17l168.59 -168.59l-73 -73l-223.38 223.38v-0.0898438l-73 73v0.0898438v0.0898438l73 73v-0.0898438l223.38 223.38l73 -73l-168.59 -168.59h399.17z" />
    <glyph glyph-name="uni2196" unicode="&#x3c;&#x2d;_" horiz-adv-x="677" 
d="M611.9 94.79l-79.4102 -79.4209l-343.03 343.03v-236.14h-103.23v315.91h-0.129883v103.23h0.129883v0.129883h103.23v-0.129883h315.91v-103.23h-236.85z" />
    <glyph glyph-name="arrowboth" unicode="&#x3c;&#x2d;&#x2d;&#x3e;" horiz-adv-x="967" 
d="M927.38 286.54v-0.0898438v-0.0898438l-73 -73v0.0898438l-223.38 -223.38l-73 73l168.59 168.59h-485.66l168.59 -168.59l-73 -73l-223.38 223.38v-0.0898438l-73 73v0.0898438v0.0898438l73 73v-0.0898438l223.38 223.38l73 -73l-168.59 -168.59h485.66l-168.59 168.59
l73 73l223.38 -223.38v0.0898438z" />
    <glyph glyph-name="arrowupdn" unicode="&#x3c;__&#x3e;" horiz-adv-x="677" 
d="M562.18 236.06l73 -73l-223.38 -223.38v-0.0898438l-73 -73v0.0898438v-0.0898438l-73 73v0.0898438l-223.38 223.38l73 73l168.59 -168.59v485.66l-168.59 -168.59l-73 73l223.38 223.38v0.0898438l73 73v-0.0898438v0.0898438l73 -73v-0.0898438l223.38 -223.38
l-73 -73l-168.59 168.59v-485.66z" />
    <glyph glyph-name=".notdef" horiz-adv-x="248" 
d="M123.64 84.5703c25.96 0 47.29 -22.25 47.29 -49.1396c0 -27.8203 -21.3301 -50.0703 -47.29 -50.0703s-46.3604 22.25 -46.3604 50.0703c0 26.8896 20.4004 49.1396 46.3604 49.1396z" />
    <glyph glyph-name="A" unicode="A" horiz-adv-x="649" 
d="M494.7 0l-47.1602 135.87l-246.22 -0.219727l-47.0596 -135.65h-156.98l252.4 640h149.64l252.36 -640h-156.98zM236.32 236.53h176.29l-88.1504 254.04z" />
    <glyph glyph-name="Aacute" unicode="&#xc1;" horiz-adv-x="649" 
d="M385.74 742.43c-47.1797 -49.1504 -74.2295 -52.4395 -111.229 -52.4395h-40.9102l133.66 164.15l109.26 -17.7305zM494.681 -0.00878906l-47.1602 135.87l-246.22 -0.219727l-47.0596 -135.65h-156.98l252.4 640h149.64l252.36 -640h-156.98zM236.301 236.521h176.29
l-88.1504 254.04z" />
    <glyph glyph-name="Abreve" unicode="&#x102;" horiz-adv-x="649" 
d="M324.25 690c-100.41 0 -154.25 47.8799 -156.49 119.75h70.9404c4.16016 -30.0098 30.7002 -55.2598 85.5498 -55.2598s81.3896 25.25 85.5498 55.25h70.9404c-2.23047 -71.8701 -56.0801 -119.74 -156.49 -119.74zM494.71 0.00976562l-47.1602 135.87l-246.22 -0.219727
l-47.0596 -135.65h-156.98l252.4 640h149.64l252.36 -640h-156.98zM236.33 236.54h176.29l-88.1504 254.04z" />
    <glyph glyph-name="uni1EAE" unicode="&#x1eae;" horiz-adv-x="649" 
d="M380.52 835.02c-17 -17.5195 -37.6895 -21.999 -70.2695 -21.999h-38.2305l100.7 133.56l97.9199 -18.4902zM324.26 690.001c-100.41 0 -154.25 47.8799 -156.49 119.75h70.9404c4.16016 -30.0098 30.7002 -55.2598 85.5498 -55.2598s81.3896 25.25 85.5498 55.25
h70.9404c-2.23047 -71.8701 -56.0801 -119.74 -156.49 -119.74zM494.72 0.0107422l-47.1602 135.87l-246.22 -0.219727l-47.0596 -135.65h-156.98l252.4 640h149.64l252.36 -640h-156.98zM236.34 236.541h176.29l-88.1504 254.04z" />
    <glyph glyph-name="uni1EB6" unicode="&#x1eb6;" horiz-adv-x="649" 
d="M324.25 690c-100.41 0 -154.25 47.8799 -156.49 119.75h70.9404c4.16016 -30.0098 30.7002 -55.2598 85.5498 -55.2598s81.3896 25.25 85.5498 55.25h70.9404c-2.23047 -71.8701 -56.0801 -119.74 -156.49 -119.74zM651.689 0.00976562l-156.99 0.00976562
l-47.1504 135.86l-246.22 -0.219727l-47.0596 -135.65h-156.98l252.4 640h149.64zM236.329 236.55h176.29l-88.1504 254.04zM324.949 -56.4307c38.6797 0 70.04 -30.3604 70.04 -67.8105s-31.3604 -67.8105 -70.04 -67.8105s-70.04 30.3604 -70.04 67.8105
s31.3604 67.8105 70.04 67.8105z" />
    <glyph glyph-name="uni1EB0" unicode="&#x1eb0;" horiz-adv-x="649" 
d="M335.49 813.03c-32.5801 0 -53.2803 4.47949 -70.2803 21.999l-90.1201 93.0703l97.9199 18.4902l100.7 -133.56h-38.2197zM324.26 689.999c-100.41 0 -154.25 47.8799 -156.49 119.75h70.9404c4.16016 -30.0098 30.7002 -55.2598 85.5498 -55.2598
s81.3896 25.25 85.5498 55.25h70.9404c-2.23047 -71.8701 -56.0801 -119.74 -156.49 -119.74zM494.72 0.00878906l-47.1602 135.87l-246.22 -0.219727l-47.0596 -135.65h-156.98l252.4 640h149.64l252.36 -640h-156.98zM236.34 236.539h176.29l-88.1504 254.04z" />
    <glyph glyph-name="uni1EB4" unicode="&#x1eb4;" horiz-adv-x="649" 
d="M270.75 887.75c-29.96 0 -44.7998 -20.9805 -55.1797 -38.7402l-56.9297 37c18.2305 26.4102 45.1602 69.8301 102.86 69.8301c56.0596 0 81.9893 -44.7197 121.869 -44.7197c26.3896 0 40.8193 20.7197 51.0596 41.3398l58.6504 -35.5098
c-16.3398 -30.3701 -42.4502 -73.2998 -103.601 -73.2998c-53.9199 0 -77.5195 44.0996 -118.729 44.0996zM324.25 754.48c54.8496 0 81.3994 25.2598 85.5596 55.2598h70.9404c-2.23047 -71.8701 -56.0801 -119.74 -156.49 -119.74s-154.26 47.8701 -156.5 119.74h70.9404
c4.16016 -30.0098 30.7002 -55.2598 85.5498 -55.2598zM494.71 0.00976562l-47.1602 135.87l-246.22 -0.219727l-47.0596 -135.65h-156.98l252.4 640h149.64l252.36 -640h-156.98zM236.33 236.54h176.29l-88.1504 254.04z" />
    <glyph glyph-name="uni01CD" unicode="&#x1cd;" horiz-adv-x="649" 
d="M377.99 690.3h-107.48l-112.01 119.74h70.04c28.3799 0 36.8096 -6.86035 60.3398 -29.7207l35.3604 -34.5195l35.0195 34.1299c23.9102 23.1699 32.2705 30.1104 60.6504 30.1104h70.04zM494.689 -0l-47.1602 135.87l-246.22 -0.219727l-47.0596 -135.65h-156.98
l252.4 640h149.64l252.36 -640h-156.98zM236.31 236.53h176.29l-88.1504 254.04z" />
    <glyph glyph-name="Acircumflex" unicode="&#xc2;" horiz-adv-x="649" 
d="M287.96 720.27c-23.9102 -23.1699 -32.2598 -30.1104 -60.6396 -30.1104h-70.04l111.96 119.74h107.47l112.01 -119.74h-70.04c-28.3799 0 -36.8096 6.86035 -60.3398 29.7207l-35.3604 34.5195zM494.701 -0l-47.1602 135.87l-246.22 -0.219727l-47.0596 -135.65h-156.98
l252.4 640h149.64l252.36 -640h-156.98zM236.321 236.53h176.29l-88.1504 254.04z" />
    <glyph glyph-name="uni1EA4" unicode="&#x1ea4;" horiz-adv-x="649" 
d="M562.41 774.3c-17 -17.5195 -37.6895 -21.999 -70.2695 -21.999h-38.2305l100.7 133.56l97.9199 -18.4902zM287.98 720.271c-23.9102 -23.1699 -32.2598 -30.1104 -60.6396 -30.1104h-70.04l111.96 119.74h107.47l112.01 -119.74h-70.04
c-28.3799 0 -36.8096 6.86035 -60.3398 29.7207l-35.3604 34.5195zM249.711 640.001l149.63 0.00976562l252.36 -640h-156.98l-47.1504 135.86l-246.22 -0.219727l-47.0596 -135.65h-156.98zM236.341 236.541h176.29l-88.1504 254.04z" />
    <glyph glyph-name="uni1EAC" unicode="&#x1eac;" horiz-adv-x="649" 
d="M287.96 720.27c-23.9102 -23.1699 -32.2598 -30.1104 -60.6396 -30.1104h-70.04l111.96 119.74h107.47l112.01 -119.74h-70.04c-28.3799 0 -36.8096 6.86035 -60.3398 29.7207l-35.3604 34.5195zM651.681 -0l-156.99 0.00976562l-47.1504 135.86l-246.22 -0.219727
l-47.0596 -135.65h-156.98l252.4 640h149.64zM236.32 236.54h176.29l-88.1504 254.04zM324.94 -56.4404c38.6797 0 70.04 -30.3604 70.04 -67.8105s-31.3604 -67.8105 -70.04 -67.8105s-70.04 30.3604 -70.04 67.8105s31.3604 67.8105 70.04 67.8105z" />
    <glyph glyph-name="uni1EA6" unicode="&#x1ea6;" horiz-adv-x="649" 
d="M152.12 752.3c-32.5801 0 -53.29 4.47949 -70.29 21.999l-90.1201 93.0703l97.9297 18.4902l100.7 -133.56h-38.2197zM227.32 690.159h-70.0293l111.96 119.74h107.47l112.01 -119.74h-70.04c-28.3799 0 -36.8096 6.86035 -60.3398 29.7207l-35.3604 34.5195
l-35.0195 -34.1299c-23.9102 -23.1699 -32.2705 -30.1104 -60.6504 -30.1104zM494.711 -0.000976562l-47.1602 135.87l-246.22 -0.219727l-47.0596 -135.65h-156.98l252.4 640h149.64l252.36 -640h-156.98zM236.331 236.529h176.29l-88.1504 254.04z" />
    <glyph glyph-name="uni1EAA" unicode="&#x1eaa;" horiz-adv-x="649" 
d="M270.75 885.13c-29.96 0 -44.79 -20.9805 -55.1699 -38.7402l-56.9297 37c18.2305 26.4102 45.1602 69.8301 102.86 69.8301c56.0596 0 81.9893 -44.7197 121.869 -44.7197c26.3896 0 40.8193 20.7197 51.0693 41.3398l58.6504 -35.5098
c-16.3398 -30.3701 -42.4502 -73.2998 -103.601 -73.2998c-53.9297 0 -77.5293 44.0996 -118.749 44.0996zM287.979 720.27c-23.9102 -23.1699 -32.2598 -30.1104 -60.6396 -30.1104h-70.04l111.96 119.74h107.47l112.01 -119.74h-70.04
c-28.3799 0 -36.8096 6.86035 -60.3398 29.7207l-35.3604 34.5195zM494.721 -0l-47.1602 135.87l-246.22 -0.219727l-47.0596 -135.65h-156.98l252.4 640h149.64l252.36 -640h-156.98zM236.341 236.53h176.29l-88.1504 254.04z" />
    <glyph glyph-name="Adieresis" unicode="&#xc4;" horiz-adv-x="649" 
d="M221.37 697.77c-34 0 -60.71 27.9902 -60.71 62.9707c0 33.8096 26.71 61.79 60.71 61.79c33.9805 0 61.9004 -27.9805 61.9004 -61.7803c0 -35 -27.9199 -62.9805 -61.9004 -62.9805zM426.37 697.779c-34 0 -60.71 27.9902 -60.71 62.9707
c0 33.8096 26.71 61.79 60.71 61.79c33.9805 0 61.9004 -27.9805 61.9004 -61.7803c0 -35 -27.9199 -62.9805 -61.9004 -62.9805zM494.69 0.0195312l-47.1602 135.87l-246.22 -0.219727l-47.0596 -135.65h-156.98l252.4 640h149.64l252.36 -640h-156.98zM236.311 236.55
h176.29l-88.1504 254.04z" />
    <glyph glyph-name="uni01DE" unicode="&#x1de;" horiz-adv-x="649" 
d="M477.79 926.6v-66.9404h-307.09v66.9404h307.09zM221.14 687.679c-34 0 -60.71 27.9902 -60.71 62.9707c0 33.8096 26.71 61.79 60.71 61.79c33.9902 0 61.9102 -27.9805 61.9102 -61.7803c0 -35 -27.9199 -62.9805 -61.9102 -62.9805zM426.14 812.448
c33.9805 0 61.9004 -27.9707 61.9004 -61.7705c0 -35 -27.9199 -62.9805 -61.9004 -62.9805c-34 0 -60.71 27.9805 -60.71 62.9609c0 33.8096 26.71 61.79 60.71 61.79zM494.68 0.0175781l-47.1602 135.87l-246.22 -0.219727l-47.0596 -135.65h-156.98l252.4 640h149.64
l252.36 -640h-156.98zM236.3 236.548h176.29l-88.1504 254.04z" />
    <glyph glyph-name="uni1EA0" unicode="&#x1ea0;" horiz-adv-x="649" 
d="M651.68 0l-156.99 0.00976562l-47.1504 135.86l-246.22 -0.219727l-47.0596 -135.65h-156.98l252.4 640h149.64zM236.319 236.54h176.29l-88.1504 254.04zM324.939 -56.4404c38.6797 0 70.04 -30.3604 70.04 -67.8105s-31.3604 -67.8105 -70.04 -67.8105
s-70.04 30.3604 -70.04 67.8105s31.3604 67.8105 70.04 67.8105z" />
    <glyph glyph-name="Agrave" unicode="&#xc0;" horiz-adv-x="649" 
d="M390.56 690c-37 0 -64.0498 3.28906 -111.229 52.4395l-90.7803 93.9805l109.26 17.7305l133.66 -164.15h-40.9102zM494.689 0.00878906l-47.1602 135.87l-246.22 -0.219727l-47.0596 -135.65h-156.98l252.4 640h149.64l252.36 -640h-156.98zM236.31 236.539h176.29
l-88.1504 254.04z" />
    <glyph glyph-name="Amacron" unicode="&#x100;" horiz-adv-x="649" 
d="M477.79 787.13v-66.9404h-307.09v66.9404h307.09zM494.69 0.00976562l-47.1602 135.87l-246.22 -0.219727l-47.0596 -135.65h-156.98l252.4 640h149.64l252.36 -640h-156.98zM236.311 236.54h176.29l-88.1504 254.04z" />
    <glyph glyph-name="Aogonek" unicode="&#x104;" horiz-adv-x="649" 
d="M573.08 -9.58984c-110.11 -56.1602 -91.541 -150 8.86914 -109.44l22.5596 -58.3496c-71.0596 -40.1396 -156.68 -25.3496 -180.35 31.9307c-21.9502 52.6699 5.95996 105.16 70.4004 145.8l-47.0303 135.52l-246.22 -0.219727l-47.0596 -135.65h-156.98l252.4 640
h149.64l252.36 -640h-60.0801zM236.319 236.521h176.29l-88.1504 254.04z" />
    <glyph glyph-name="Aring" unicode="&#xc5;" horiz-adv-x="649" 
d="M324.26 667.66c-72.1396 0 -123.689 53.0098 -123.689 118.41s51.5498 118.42 123.689 118.42c72.1504 0 124.29 -53.0195 124.29 -118.42s-52.1396 -118.41 -124.29 -118.41zM324.26 840.25c-32.8301 0 -55.2998 -24.25 -55.2998 -54.1699
s22.4697 -54.1699 55.2998 -54.1699c32.8496 0 55.8994 24.25 55.8994 54.1699s-23.0498 54.1699 -55.8994 54.1699zM494.7 0l-47.1602 135.87l-246.22 -0.219727l-47.0596 -135.65h-156.98l252.4 640h149.64l252.36 -640h-156.98zM236.32 236.53h176.29l-88.1504 254.04z
" />
    <glyph glyph-name="Aringacute" unicode="&#x1fa;" horiz-adv-x="649" 
d="M380.52 843.02c-17 -17.5195 -37.71 -21.999 -70.29 -21.999h-38.2197l100.7 133.56l97.9297 -18.4902zM324.25 558.181c-72.1396 0 -123.689 53.0195 -123.689 118.42s51.5498 118.42 123.689 118.42c72.1504 0 124.29 -53.0195 124.29 -118.42
s-52.1396 -118.42 -124.29 -118.42zM324.25 730.771c-32.8301 0 -55.2998 -24.25 -55.2998 -54.1699s22.4697 -54.1699 55.2998 -54.1699c32.8496 0 55.8994 24.25 55.8994 54.1699s-23.0498 54.1699 -55.8994 54.1699zM494.69 0.0107422l-47.1602 114.3l-246.22 -0.179688
l-47.0596 -114.12h-156.98l252.4 538.45h149.64l252.36 -538.45h-156.98zM236.311 199.001h176.29l-88.1504 213.73z" />
    <glyph glyph-name="Atilde" unicode="&#xc3;" horiz-adv-x="649" 
d="M269.31 736.1c-29.96 0 -44.7998 -20.9902 -55.1797 -38.7402l-56.9297 37c18.2305 26.4102 45.1602 69.8301 102.86 69.8301c56.0596 0 81.9893 -44.7197 121.869 -44.7197c26.3896 0 40.8193 20.7197 51.0596 41.3398l58.6504 -35.5098
c-16.3398 -30.3701 -42.4502 -73.2998 -103.601 -73.2998c-53.9199 0 -77.5195 44.0996 -118.729 44.0996zM494.689 -0.00976562l-47.1602 135.87l-246.22 -0.219727l-47.0596 -135.65h-156.98l252.4 640h149.64l252.36 -640h-156.98zM236.31 236.521h176.29
l-88.1504 254.04z" />
    <glyph glyph-name="AE" unicode="&#xc6;" horiz-adv-x="814" 
d="M766.82 523.36l-339.37 0.0107422l42.7695 -152.93h246.6v-100.87h-218.39l42.0498 -150.38h226.34v-119.19h-328.14l-32.5801 129.2h-213.43l-42.29 -129.2h-153.1l253.43 642.55h516.11v-119.19zM226.96 233.941h152.74l-66.46 263.56z" />
    <glyph glyph-name="AEacute" unicode="&#x1fc;" horiz-adv-x="814" 
d="M501.95 732.43c-47.1797 -49.1504 -74.2295 -52.4395 -111.229 -52.4395h-40.9102l133.65 164.15l109.27 -17.7305zM766.811 523.351l-339.37 0.0107422l42.7695 -152.93h246.6v-100.87h-218.39l42.0498 -150.38h226.34v-119.19h-328.14l-32.5801 129.2h-213.43
l-42.29 -129.2h-153.1l253.43 642.55h516.11v-119.19zM226.95 233.932h152.74l-66.46 263.56z" />
    <glyph glyph-name="B" unicode="B" horiz-adv-x="670" 
d="M462.26 351.02c101.83 -15.0801 160.811 -77.5205 160.811 -167.65c0 -111.71 -90.6396 -183.37 -232.949 -183.37h-312.82v640h282.88c125.81 0 202.92 -59.0996 202.92 -154.989c0 -65.8701 -35.6904 -113.36 -100.841 -133.99zM427.811 466.149
c0 48.3096 -32.4297 72.4805 -91.9492 72.4805h-112.55v-148.69h109.55c59.4297 0 94.9492 27.1396 94.9492 76.21zM358.091 101.351l-0.15918 -0.000976562c72.2803 0 115.05 37.4404 115.05 97.2207s-45.4805 95.5801 -117.891 95.5801h-131.77v-192.8h134.77z" />
    <glyph glyph-name="uni1E04" unicode="&#x1e04;" horiz-adv-x="670" 
d="M462.26 351.02c101.83 -15.0801 160.811 -77.5205 160.811 -167.65c0 -111.71 -90.6396 -183.37 -232.949 -183.37h-312.82v640h282.88c125.81 0 202.92 -59.0996 202.92 -154.989c0 -65.8701 -35.6904 -113.36 -100.841 -133.99zM427.811 466.149
c0 48.3096 -32.4297 72.4805 -91.9492 72.4805h-112.55v-148.69h109.55c59.4297 0 94.9492 27.1396 94.9492 76.21zM358.091 101.351l-0.15918 -0.000976562c72.2803 0 115.05 37.4404 115.05 97.2207s-45.4805 95.5801 -117.891 95.5801h-131.77v-192.8h134.77z
M334.542 -56.46c38.6797 0 70.04 -30.3604 70.04 -67.8105s-31.3604 -67.8105 -70.04 -67.8105s-70.04 30.3604 -70.04 67.8105s31.3604 67.8105 70.04 67.8105z" />
    <glyph glyph-name="uni0243" unicode="&#x243;" horiz-adv-x="670" 
d="M462.26 351.02c101.83 -15.0801 160.811 -77.5215 160.811 -167.651c0 -111.71 -90.6396 -183.37 -232.949 -183.37h-312.82v168.33h-40.25v60.2305h40.25v411.44h282.88c125.81 0 202.92 -59.0996 202.92 -154.989c0 -65.8701 -35.6904 -113.36 -100.841 -133.99z
M427.811 466.148c0 48.3096 -32.4297 72.4805 -91.9492 72.4805h-112.55v-148.69h109.55c59.4297 0 94.9492 27.1396 94.9492 76.21zM358.091 101.35l-0.15918 -0.000976562c72.2803 0 115.05 37.4404 115.05 97.2207s-45.4805 95.5801 -117.891 95.5801h-131.77v-65.5996
h135.14v-60.2305h-135.14v-66.9697h134.77z" />
    <glyph glyph-name="C" unicode="C" horiz-adv-x="625" 
d="M391.18 -14.4902c-207.72 0 -343.899 149.96 -343.899 335.93c0 186.07 136.18 335.431 343.899 335.431c80.4805 0 150.7 -22.6904 206.96 -62.5801l-77.2197 -114.18c-33.1396 29.8301 -77.9893 47.4697 -127.869 47.4697c-121.12 0 -195.771 -96.79 -195.771 -206.73
c0 -108.71 74.6504 -206.06 195.771 -206.06c49.8799 0 94.7295 18.1504 127.869 47.9502l77.2197 -114.13c-56.2598 -39.8604 -126.479 -63.1006 -206.96 -63.1006z" />
    <glyph glyph-name="Cacute" unicode="&#x106;" horiz-adv-x="625" 
d="M442.23 742.43c-47.1797 -49.1504 -74.2295 -52.4395 -111.229 -52.4395h-40.9102l133.66 164.15l109.26 -17.7305zM391.171 -14.499c-207.72 0 -343.899 149.96 -343.899 335.93c0 186.07 136.18 335.431 343.899 335.431c80.4805 0 150.7 -22.6904 206.96 -62.5801
l-77.2197 -114.18c-33.1396 29.8301 -77.9893 47.4697 -127.869 47.4697c-121.12 0 -195.771 -96.79 -195.771 -206.73c0 -108.71 74.6504 -206.06 195.771 -206.06c49.8799 0 94.7295 18.1504 127.869 47.9502l77.2197 -114.13
c-56.2598 -39.8604 -126.479 -63.1006 -206.96 -63.1006z" />
    <glyph glyph-name="Ccaron" unicode="&#x10c;" horiz-adv-x="625" 
d="M434.47 690.3h-107.471l-112.02 119.74h70.04c28.3799 0 36.8096 -6.86035 60.3398 -29.7207l35.3604 -34.5195l35.0195 34.1299c23.9102 23.1699 32.2705 30.1104 60.6504 30.1104h70.04zM393.049 114.79c49.8799 0 94.7295 18.1602 127.869 47.96l77.2197 -114.13
c-56.2598 -39.8604 -126.479 -63.1006 -206.96 -63.1006c-207.72 0 -343.899 149.95 -343.899 335.92c0 186.07 136.18 335.431 343.899 335.431c80.4805 0 150.7 -22.6904 206.96 -62.5801l-77.2197 -114.18c-33.1396 29.8301 -77.9893 47.4697 -127.869 47.4697
c-121.12 0 -195.771 -96.79 -195.771 -206.73c0 -108.71 74.6504 -206.06 195.771 -206.06z" />
    <glyph glyph-name="Ccedilla" unicode="&#xc7;" horiz-adv-x="625" 
d="M598.14 48.6201c-53.21 -37.7002 -118.908 -60.5322 -193.958 -62.9023l-28.9004 -33.0898s15.4297 9.44043 46.96 4.44043c30.5098 -4.7002 70.6494 -27.79 69.5596 -77.4902c-1.04004 -47.54 -45.9199 -80.1396 -111.41 -82.8301
c-73.3301 -3.66992 -119.771 21.3701 -119.771 21.3701l26.4805 52.2305s34.6299 -17.8799 73.5801 -17.7803c33.8896 -0.110352 44.4697 16.8701 43.8799 32.6797c-1.11035 27.9102 -48.1504 31.6904 -76.04 17.2803l-35.21 28.3604l43.8301 58.1602
c-176.98 23.6201 -289.86 163.08 -289.86 332.4c0 186.07 136.18 335.431 343.899 335.431c80.4805 0 150.7 -22.6904 206.96 -62.5801l-77.2197 -114.18c-33.1396 29.8301 -77.9893 47.4697 -127.869 47.4697c-121.12 0 -195.771 -96.79 -195.771 -206.73
c0 -108.71 74.6504 -206.06 195.771 -206.06c49.8799 0 94.7295 18.1504 127.869 47.9502z" />
    <glyph glyph-name="Ccircumflex" unicode="&#x108;" horiz-adv-x="625" 
d="M344.45 720.27c-23.9102 -23.1699 -32.2598 -30.1104 -60.6396 -30.1104h-70.04l111.96 119.74h107.47l112.01 -119.74h-70.04c-28.3799 0 -36.8096 6.86035 -60.3398 29.7207l-35.3604 34.5195zM393.061 114.789c49.8799 0 94.7295 18.1602 127.869 47.96
l77.2197 -114.13c-56.2598 -39.8604 -126.479 -63.1006 -206.96 -63.1006c-207.72 0 -343.899 149.95 -343.899 335.92c0 186.07 136.18 335.431 343.899 335.431c80.4805 0 150.7 -22.6904 206.96 -62.5801l-77.2197 -114.18
c-33.1396 29.8301 -77.9893 47.4697 -127.869 47.4697c-121.12 0 -195.771 -96.79 -195.771 -206.73c0 -108.71 74.6504 -206.06 195.771 -206.06z" />
    <glyph glyph-name="Cdotaccent" unicode="&#x10a;" horiz-adv-x="625" 
d="M381.43 695.17c-38.6797 0 -70.04 30.3604 -70.04 67.8105s31.3604 67.8105 70.04 67.8105s70.04 -30.3604 70.04 -67.8105s-31.3604 -67.8105 -70.04 -67.8105zM391.18 -14.4902c-207.72 0 -343.899 149.96 -343.899 335.93c0 186.07 136.18 335.431 343.899 335.431
c80.4805 0 150.7 -22.6904 206.96 -62.5801l-77.2197 -114.18c-33.1396 29.8301 -77.9893 47.4697 -127.869 47.4697c-121.12 0 -195.771 -96.79 -195.771 -206.73c0 -108.71 74.6504 -206.06 195.771 -206.06c49.8799 0 94.7295 18.1504 127.869 47.9502l77.2197 -114.13
c-56.2598 -39.8604 -126.479 -63.1006 -206.96 -63.1006z" />
    <glyph glyph-name="D" unicode="D" horiz-adv-x="693" 
d="M300.7 640c215.91 0 345.391 -136.641 345.391 -319.74c0 -183.26 -129.48 -320.26 -345.391 -320.26h-223.42v640h223.42zM285.58 121.27c129.86 0 210.511 71.46 210.511 198.979c0 127.36 -80.6504 198.45 -210.511 198.45h-62.2998v-397.43h62.2998z" />
    <glyph glyph-name="uni0189" unicode="&#x189;" horiz-adv-x="693" 
d="M300.7 640c215.91 0 345.391 -136.65 345.391 -319.75c0 -183.26 -129.48 -320.26 -345.391 -320.26h-223.42v291.89h-51.71v60.2305h51.71v287.89h223.42zM285.58 121.26c129.86 0 210.511 71.46 210.511 198.979c0 127.36 -80.6504 198.45 -210.511 198.45h-62.2998
v-166.6h123.69v-60.2305h-123.69v-170.6h62.2998z" />
    <glyph glyph-name="Eth" unicode="&#xd0;" horiz-adv-x="693" 
d="M300.7 640c215.91 0 345.391 -136.65 345.391 -319.75c0 -183.26 -129.48 -320.26 -345.391 -320.26h-223.42v291.89h-51.71v60.2305h51.71v287.89h223.42zM285.58 121.26c129.86 0 210.511 71.46 210.511 198.979c0 127.36 -80.6504 198.45 -210.511 198.45h-62.2998
v-166.6h123.69v-60.2305h-123.69v-170.6h62.2998z" />
    <glyph glyph-name="Dcaron" unicode="&#x10e;" horiz-adv-x="693" 
d="M368.76 690.3h-107.48l-112.01 119.74h70.04c28.3799 0 36.8096 -6.86035 60.3398 -29.7207l35.3604 -34.5195l35.0195 34.1299c23.9102 23.1699 32.2705 30.1104 60.6504 30.1104h70.04zM300.699 640c215.91 0 345.391 -136.641 345.391 -319.74
c0 -183.26 -129.48 -320.26 -345.391 -320.26h-223.42v640h223.42zM285.579 121.27c129.86 0 210.511 71.46 210.511 198.979c0 127.36 -80.6504 198.45 -210.511 198.45h-62.2998v-397.43h62.2998z" />
    <glyph glyph-name="uni1E12" unicode="&#x1e12;" horiz-adv-x="693" 
d="M300.7 640c215.91 0 345.391 -136.641 345.391 -319.74c0 -183.26 -129.48 -320.26 -345.391 -320.26h-223.42v640h223.42zM285.58 121.27c129.86 0 210.511 71.46 210.511 198.979c0 127.36 -80.6504 198.45 -210.511 198.45h-62.2998v-397.43h62.2998zM261.26 -49.3105
h107.471l112.02 -119.74h-70.04c-28.3799 0 -36.8096 6.86035 -60.3398 29.7207l-35.3604 34.5195l-35.0195 -34.1299c-23.9102 -23.1699 -32.2705 -30.1104 -60.6504 -30.1104h-70.04z" />
    <glyph glyph-name="Dcroat" unicode="&#x110;" horiz-adv-x="693" 
d="M300.7 640c215.91 0 345.391 -136.65 345.391 -319.75c0 -183.26 -129.48 -320.26 -345.391 -320.26h-223.42v291.89h-51.71v60.2305h51.71v287.89h223.42zM285.58 121.26c129.86 0 210.511 71.46 210.511 198.979c0 127.36 -80.6504 198.45 -210.511 198.45h-62.2998
v-166.6h123.69v-60.2305h-123.69v-170.6h62.2998z" />
    <glyph glyph-name="uni1E0C" unicode="&#x1e0c;" horiz-adv-x="693" 
d="M300.7 640c215.91 0 345.391 -136.641 345.391 -319.74c0 -183.26 -129.48 -320.26 -345.391 -320.26h-223.42v640h223.42zM285.58 121.27c129.86 0 210.511 71.46 210.511 198.979c0 127.36 -80.6504 198.45 -210.511 198.45h-62.2998v-397.43h62.2998zM315.72 -56.4805
c38.6797 0 70.04 -30.3604 70.04 -67.8105s-31.3604 -67.8105 -70.04 -67.8105s-70.04 30.3604 -70.04 67.8105s31.3604 67.8105 70.04 67.8105z" />
    <glyph glyph-name="uni1E0E" unicode="&#x1e0e;" horiz-adv-x="693" 
d="M300.7 640c215.91 0 345.391 -136.641 345.391 -319.74c0 -183.26 -129.48 -320.26 -345.391 -320.26h-223.42v640h223.42zM285.58 121.27c129.86 0 210.511 71.46 210.511 198.979c0 127.36 -80.6504 198.45 -210.511 198.45h-62.2998v-397.43h62.2998zM161.47 -141.721
v66.9404h307.1v-66.9404h-307.1z" />
    <glyph glyph-name="E" unicode="E" horiz-adv-x="586" 
d="M539.13 520.81l-315.85 0.0107422v-150.38h265.85v-100.87h-265.85v-150.38h315.85v-119.19h-461.85v640h461.85v-119.19z" />
    <glyph glyph-name="Eacute" unicode="&#xc9;" horiz-adv-x="586" 
d="M374.45 742.43c-47.1797 -49.1504 -74.2295 -52.4395 -111.229 -52.4395h-40.9102l133.66 164.15l109.26 -17.7305zM539.12 520.801l-315.85 0.0107422v-150.38h265.85v-100.87h-265.85v-150.38h315.85v-119.19h-461.85v640h461.85v-119.19z" />
    <glyph glyph-name="Ebreve" unicode="&#x114;" horiz-adv-x="586" 
d="M312.96 690c-100.41 0 -154.26 47.8799 -156.49 119.75h70.9404c4.16016 -30.0098 30.7002 -55.2598 85.5498 -55.2598s81.3896 25.25 85.5498 55.25h70.9404c-2.23047 -71.8701 -56.0801 -119.74 -156.49 -119.74zM539.13 520.819l-315.85 0.0107422v-150.38h265.85
v-100.87h-265.85v-150.38h315.85v-119.19h-461.85v640h461.85v-119.19z" />
    <glyph glyph-name="Ecaron" unicode="&#x11a;" horiz-adv-x="586" 
d="M366.7 690.3h-107.471l-112.02 119.74h70.04c28.3799 0 36.8096 -6.86035 60.3398 -29.7207l35.3604 -34.5195l35.0195 34.1299c23.9102 23.1699 32.2705 30.1104 60.6504 30.1104h70.04zM539.14 520.81l-315.85 0.0107422v-150.38h265.85v-100.87h-265.85v-150.38
h315.85v-119.19h-461.85v640h461.85v-119.19z" />
    <glyph glyph-name="uni0228" unicode="&#x228;" horiz-adv-x="586" 
d="M539.13 520.81l-315.838 0.000976562v-150.38h265.85v-100.87h-265.85v-150.38h315.85v-119.19h-191.41l-37.5703 -43.0195s15.4297 9.44043 46.96 4.44043c30.5098 -4.7002 70.6396 -27.79 69.5498 -77.4902c-1.04004 -47.54 -45.9199 -80.1396 -111.41 -82.8301
c-73.3301 -3.66992 -119.771 21.3701 -119.771 21.3701l26.4805 52.2305s34.6299 -17.8799 73.5801 -17.7803c33.8896 -0.110352 44.4697 16.8701 43.8799 32.6797c-1.11035 27.9102 -48.1504 31.6797 -76.04 17.2793l-35.21 28.3604l48.8096 64.7695h-199.71v640h461.85
v-119.19z" />
    <glyph glyph-name="Ecircumflex" unicode="&#xca;" horiz-adv-x="586" 
d="M276.68 720.27c-23.9102 -23.1699 -32.2598 -30.1104 -60.6396 -30.1104h-70.04l111.96 119.74h107.47l112.01 -119.74h-70.04c-28.3799 0 -36.8096 6.86035 -60.3398 29.7207l-35.3604 34.5195zM539.15 520.81l-315.85 0.0107422v-150.38h265.85v-100.87h-265.85
v-150.38h315.85v-119.19h-461.85v640h461.85v-119.19z" />
    <glyph glyph-name="uni1EBE" unicode="&#x1ebe;" horiz-adv-x="586" 
d="M554.42 886.61l97.9297 -18.4893l-90.1201 -93.0703c-17 -17.5195 -37.71 -22 -70.29 -22h-38.2197zM284.729 719.141c-23.9102 -23.1699 -32.2695 -30.1104 -60.6494 -30.1104h-70.04l111.96 119.74h107.47l112.02 -119.74h-70.04
c-28.3799 0 -36.8096 6.86035 -60.3398 29.7207l-35.3604 34.5195zM539.141 640.001v-119.18h-315.85v-150.38h265.85v-100.87h-265.85v-150.38h315.85v-119.19h-461.85v640h461.85z" />
    <glyph glyph-name="uni1EC6" unicode="&#x1ec6;" horiz-adv-x="586" 
d="M276.68 720.27c-23.9102 -23.1699 -32.2598 -30.1104 -60.6396 -30.1104h-70.04l111.96 119.74h107.47l112.01 -119.74h-70.04c-28.3799 0 -36.8096 6.86035 -60.3398 29.7207l-35.3604 34.5195zM539.15 520.81l-315.85 0.0107422v-150.38h265.85v-100.87h-265.85
v-150.38h315.85v-119.19h-461.85v640h461.85v-119.19zM313.681 -56.4395c38.6797 0 70.04 -30.3604 70.04 -67.8105s-31.3604 -67.8105 -70.04 -67.8105s-70.04 30.3604 -70.04 67.8105s31.3604 67.8105 70.04 67.8105z" />
    <glyph glyph-name="uni1EC0" unicode="&#x1ec0;" horiz-adv-x="586" 
d="M169.73 753.06l-38.2197 -0.000976562c-32.5801 0 -53.29 4.48047 -70.29 22l-90.1201 93.0703l97.9297 18.4902zM224.081 689.028h-70.0391l111.96 119.74h107.47l112.02 -119.74h-70.04c-28.3799 0 -36.8096 6.86035 -60.3398 29.7207l-35.3604 34.5195
l-35.0195 -34.1299c-23.9102 -23.1699 -32.2705 -30.1104 -60.6504 -30.1104zM539.142 520.809l-315.85 0.0107422v-150.38h265.85v-100.87h-265.85v-150.38h315.85v-119.19h-461.85v640h461.85v-119.19z" />
    <glyph glyph-name="uni1EC4" unicode="&#x1ec4;" horiz-adv-x="586" 
d="M267.5 884c-29.96 0 -44.79 -20.9902 -55.1699 -38.7402l-56.9297 37c18.2402 26.4102 45.1699 69.8301 102.87 69.8301c56.0596 0 81.9893 -44.7197 121.869 -44.7197c26.3896 0 40.8193 20.7197 51.0596 41.3398l58.6504 -35.5098
c-16.3496 -30.3701 -42.46 -73.2998 -103.61 -73.2998c-53.9297 0 -77.5293 44.0996 -118.739 44.0996zM284.729 719.13c-23.9102 -23.1699 -32.2695 -30.1104 -60.6494 -30.1104h-70.04l111.96 119.74h107.47l112.02 -119.74h-70.04
c-28.3799 0 -36.8096 6.86035 -60.3398 29.7207l-35.3604 34.5195zM539.141 520.8l-315.85 0.0107422v-150.38h265.85v-100.87h-265.85v-150.38h315.85v-119.19h-461.85v640h461.85v-119.19z" />
    <glyph glyph-name="Edieresis" unicode="&#xcb;" horiz-adv-x="586" 
d="M210.08 697.77c-34 0 -60.71 27.9902 -60.71 62.9707c0 33.8096 26.71 61.79 60.71 61.79c33.9805 0 61.9004 -27.9805 61.9004 -61.7803c0 -35 -27.9199 -62.9805 -61.9004 -62.9805zM415.08 697.779c-34 0 -60.71 27.9902 -60.71 62.9707
c0 33.8096 26.71 61.79 60.71 61.79c33.9805 0 61.9004 -27.9805 61.9004 -61.7803c0 -35 -27.9199 -62.9805 -61.9004 -62.9805zM539.12 520.829l-315.85 0.0107422v-150.38h265.85v-100.87h-265.85v-150.38h315.85v-119.19h-461.85v640h461.85v-119.19z" />
    <glyph glyph-name="Edotaccent" unicode="&#x116;" horiz-adv-x="586" 
d="M313.66 695.17c-38.6797 0 -70.04 30.3604 -70.04 67.8105s31.3604 67.8105 70.04 67.8105s70.04 -30.3604 70.04 -67.8105s-31.3604 -67.8105 -70.04 -67.8105zM539.13 520.81l-315.85 0.0107422v-150.38h265.85v-100.87h-265.85v-150.38h315.85v-119.19h-461.85v640
h461.85v-119.19z" />
    <glyph glyph-name="uni1EB8" unicode="&#x1eb8;" horiz-adv-x="586" 
d="M539.13 520.81l-315.85 0.0107422v-150.38h265.85v-100.87h-265.85v-150.38h315.85v-119.19h-461.85v640h461.85v-119.19zM313.66 -56.4395c38.6797 0 70.04 -30.3604 70.04 -67.8105s-31.3604 -67.8105 -70.04 -67.8105s-70.04 30.3604 -70.04 67.8105
s31.3604 67.8105 70.04 67.8105z" />
    <glyph glyph-name="Egrave" unicode="&#xc8;" horiz-adv-x="586" 
d="M379.27 690c-37 0 -64.0498 3.28906 -111.229 52.4395l-90.7803 93.9805l109.26 17.7305l133.66 -164.15h-40.9102zM539.12 520.818l-315.85 0.0107422v-150.38h265.85v-100.87h-265.85v-150.38h315.85v-119.19h-461.85v640h461.85v-119.19z" />
    <glyph glyph-name="Emacron" unicode="&#x112;" horiz-adv-x="586" 
d="M466.51 787.13v-66.9404h-307.09v66.9404h307.09zM539.14 520.819l-315.85 0.0107422v-150.38h265.85v-100.87h-265.85v-150.38h315.85v-119.19h-461.85v640h461.85v-119.19z" />
    <glyph glyph-name="Eogonek" unicode="&#x118;" horiz-adv-x="586" 
d="M528.3 -119.02l22.5693 -58.3486c-71.0596 -40.1396 -156.68 -25.3496 -180.35 31.9199c-21.8896 52.5195 5.80078 104.869 69.8604 145.459h-363.08v640h461.85v-119.19h-315.85v-150.38h265.85v-100.87h-265.85v-150.38h315.85v-119.19h-1.20996l-18.5195 -9.58984
c-110.11 -56.1602 -91.5303 -150 8.87988 -109.43z" />
    <glyph glyph-name="uni1EBC" unicode="&#x1ebc;" horiz-adv-x="586" 
d="M258.02 736.1c-29.96 0 -44.79 -20.9902 -55.1699 -38.7402l-56.9297 37c18.2305 26.4102 45.1602 69.8301 102.86 69.8301c56.0596 0 81.9893 -44.7197 121.869 -44.7197c26.3896 0 40.8193 20.7197 51.0596 41.3398l58.6504 -35.5098
c-16.3398 -30.3701 -42.4502 -73.2998 -103.601 -73.2998c-53.9297 0 -77.5293 44.0996 -118.739 44.0996zM539.14 520.8l-315.85 0.0107422v-150.38h265.85v-100.87h-265.85v-150.38h315.85v-119.19h-461.85v640h461.85v-119.19z" />
    <glyph glyph-name="F" unicode="F" horiz-adv-x="536" 
d="M539.13 520.88l-315.85 -0.0498047v-151.38h265.85v-100.87h-265.85v-268.63h-146v640.07h118.58v0.0498047h343.27v-119.19z" />
    <glyph glyph-name="G" unicode="G" horiz-adv-x="707" 
d="M377.93 360.06l281.808 0.0185547v-308.17s-90.3896 -66.3799 -264.09 -66.3799c-226.31 0 -348.359 158.54 -348.359 334.771c0 180.45 124.74 336.59 351.48 336.59c94.6299 0 164.729 -23.5596 224.6 -60.04l-67.0195 -113.36
c-20.96 13.6904 -78.6396 46.9707 -152.05 46.6104c-114.8 -0.5 -207.01 -78.4199 -207.01 -209.81c0 -121.29 77.1504 -209.68 202.091 -210.96c49.54 -0.44043 93.1104 8.33984 122.45 22.0703v127.04h-143.9v101.62z" />
    <glyph glyph-name="Gbreve" unicode="&#x11e;" horiz-adv-x="707" 
d="M394.11 690c-100.41 0 -154.25 47.8799 -156.49 119.75h70.9404c4.16016 -30.0098 30.7002 -55.2598 85.5498 -55.2598s81.3896 25.25 85.5498 55.25h70.9404c-2.23047 -71.8701 -56.0801 -119.74 -156.49 -119.74zM377.94 360.069l281.808 0.0185547v-308.17
s-90.3896 -66.3799 -264.09 -66.3799c-226.31 0 -348.359 158.54 -348.359 334.771c0 180.45 124.74 336.59 351.48 336.59c94.6299 0 164.729 -23.5596 224.6 -60.04l-67.0195 -113.36c-20.96 13.6904 -78.6396 46.9707 -152.05 46.6104
c-114.8 -0.5 -207.01 -78.4199 -207.01 -209.81c0 -121.29 77.1504 -209.68 202.091 -210.96c49.54 -0.44043 93.1104 8.33984 122.45 22.0703v127.04h-143.9v101.62z" />
    <glyph glyph-name="Gcaron" unicode="&#x1e6;" horiz-adv-x="707" 
d="M447.85 690.3h-107.471l-112.02 119.74h70.04c28.3799 0 36.8096 -6.86035 60.3398 -29.7207l35.3604 -34.5195l35.0195 34.1299c23.9102 23.1699 32.2705 30.1104 60.6504 30.1104h70.04zM377.929 360.05l281.808 0.0185547v-308.17s-90.3896 -66.3799 -264.09 -66.3799
c-226.31 0 -348.359 158.54 -348.359 334.771c0 180.45 124.74 336.59 351.48 336.59c94.6299 0 164.729 -23.5596 224.6 -60.04l-67.0195 -113.36c-20.96 13.6904 -78.6396 46.9707 -152.05 46.6104c-114.8 -0.5 -207.01 -78.4199 -207.01 -209.81
c0 -121.29 77.1504 -209.68 202.091 -210.96c49.54 -0.44043 93.1104 8.33984 122.45 22.0703v127.04h-143.9v101.62z" />
    <glyph glyph-name="Gcircumflex" unicode="&#x11c;" horiz-adv-x="707" 
d="M357.83 720.27c-23.9102 -23.1699 -32.2695 -30.1104 -60.6494 -30.1104h-70.04l111.96 119.74h107.47l112.02 -119.74h-70.04c-28.3799 0 -36.8096 6.86035 -60.3398 29.7207l-35.3604 34.5195zM377.931 360.05l281.808 0.0185547v-308.17
s-90.3896 -66.3799 -264.09 -66.3799c-226.31 0 -348.359 158.54 -348.359 334.771c0 180.45 124.74 336.59 351.48 336.59c94.6299 0 164.729 -23.5596 224.6 -60.04l-67.0195 -113.36c-20.96 13.6904 -78.6396 46.9707 -152.05 46.6104
c-114.8 -0.5 -207.01 -78.4199 -207.01 -209.81c0 -121.29 77.1504 -209.68 202.091 -210.96c49.54 -0.44043 93.1104 8.33984 122.45 22.0703v127.04h-143.9v101.62z" />
    <glyph glyph-name="Gcommaaccent" unicode="&#x122;" horiz-adv-x="707" 
d="M377.93 360.06l281.808 0.0185547v-308.17s-90.3896 -66.3799 -264.09 -66.3799c-226.31 0 -348.359 158.54 -348.359 334.771c0 180.45 124.74 336.59 351.48 336.59c94.6299 0 164.729 -23.5596 224.6 -60.04l-67.0195 -113.36
c-20.96 13.6904 -78.6396 46.9707 -152.05 46.6104c-114.8 -0.5 -207.01 -78.4199 -207.01 -209.81c0 -121.29 77.1504 -209.68 202.091 -210.96c49.54 -0.44043 93.1104 8.33984 122.45 22.0703v127.04h-143.9v101.62zM394.268 -57.3516
c42.7305 -4.2998 64.46 -41.8096 60.2295 -84.8398c-5.49023 -54.71 -45.7402 -109.53 -110.32 -132.32l-16.4502 42.5703c31.9902 14.8398 53.0703 38.1602 57.0508 64.1299c-32.2305 -3.58984 -60.6406 21.6904 -57.2002 57.6406
c3.45996 33.8496 30.6104 56.3896 66.6904 52.8193z" />
    <glyph glyph-name="Gdotaccent" unicode="&#x120;" horiz-adv-x="707" 
d="M394.81 695.17c-38.6797 0 -70.04 30.3604 -70.04 67.8105s31.3604 67.8105 70.04 67.8105s70.04 -30.3604 70.04 -67.8105s-31.3604 -67.8105 -70.04 -67.8105zM377.93 360.06l281.808 0.0185547v-308.17s-90.3896 -66.3799 -264.09 -66.3799
c-226.31 0 -348.359 158.54 -348.359 334.771c0 180.45 124.74 336.59 351.48 336.59c94.6299 0 164.729 -23.5596 224.6 -60.04l-67.0195 -113.36c-20.96 13.6904 -78.6396 46.9707 -152.05 46.6104c-114.8 -0.5 -207.01 -78.4199 -207.01 -209.81
c0 -121.29 77.1504 -209.68 202.091 -210.96c49.54 -0.44043 93.1104 8.33984 122.45 22.0703v127.04h-143.9v101.62z" />
    <glyph glyph-name="H" unicode="H" horiz-adv-x="722" 
d="M499.19 640h146v-640h-146v267.68h-275.9v-267.68h-146v640h146v-254.64h275.9v254.64z" />
    <glyph glyph-name="Hbar" unicode="&#x126;" horiz-adv-x="692" 
d="M499.19 640h146v-640h-146v267.68h-275.9v-267.68h-146v640h146v-103.2h275.9v103.2zM223.29 385.36h275.9v77.0303h-275.9v-77.0303z" />
    <glyph glyph-name="Hcircumflex" unicode="&#x124;" horiz-adv-x="722" 
d="M325.02 720.27c-23.9102 -23.1699 -32.2598 -30.1104 -60.6396 -30.1104h-70.04l111.96 119.74h107.47l112.01 -119.74h-70.04c-28.3799 0 -36.8096 6.86035 -60.3398 29.7207l-35.3604 34.5195zM499.2 640h146v-640h-146v267.68h-275.9v-267.68h-146v640h146v-254.64
h275.9v254.64z" />
    <glyph glyph-name="uni1E24" unicode="&#x1e24;" horiz-adv-x="722" 
d="M499.19 640h146v-640h-146v267.68h-275.9v-267.68h-146v640h146v-254.64h275.9v254.64zM362.011 -56.4502c38.6797 0 70.04 -30.3604 70.04 -67.8105s-31.3604 -67.8105 -70.04 -67.8105s-70.04 30.3604 -70.04 67.8105s31.3604 67.8105 70.04 67.8105z" />
    <glyph glyph-name="I" unicode="I" horiz-adv-x="301" 
d="M223.28 640v-640h-146v640h146z" />
    <glyph glyph-name="Iacute" unicode="&#xcd;" horiz-adv-x="301" 
d="M211.32 742.43c-47.1797 -49.1504 -74.2295 -52.4395 -111.229 -52.4395h-40.9102l133.66 164.15l109.26 -17.7305zM223.271 639.991v-640h-146v640h146z" />
    <glyph glyph-name="Ibreve" unicode="&#x12c;" horiz-adv-x="301" 
d="M149.83 690c-100.41 0 -154.25 47.8799 -156.48 119.75h70.9404c4.16016 -30.0098 30.7002 -55.2598 85.5498 -55.2598s81.3896 25.25 85.5498 55.25h70.9404c-2.24023 -71.8701 -56.0898 -119.74 -156.5 -119.74zM223.29 640.01v-640h-146v640h146z" />
    <glyph glyph-name="uni01CF" unicode="&#x1cf;" horiz-adv-x="301" 
d="M203.57 690.3h-107.471l-112.02 119.74h70.04c28.3799 0 36.8096 -6.86035 60.3398 -29.7207l35.3604 -34.5195l35.0195 34.1299c23.9102 23.1699 32.2705 30.1104 60.6504 30.1104h70.04zM77.29 -0v640h146v-640h-146z" />
    <glyph glyph-name="Icircumflex" unicode="&#xce;" horiz-adv-x="301" 
d="M202.29 809.9l112.021 -119.74h-70.04c-28.3799 0 -36.8096 6.86035 -60.3398 29.7207l-35.3604 34.5195l-35.0195 -34.1299c-23.9102 -23.1699 -32.2705 -30.1104 -60.6504 -30.1104h-70.04l111.96 119.74h107.47zM77.291 0v640h146v-640h-146z" />
    <glyph glyph-name="Idieresis" unicode="&#xcf;" horiz-adv-x="301" 
d="M46.9502 822.53c33.9805 0 61.9004 -27.9707 61.9004 -61.7705c0 -35 -27.9199 -62.9805 -61.9004 -62.9805c-34 0 -60.71 27.9805 -60.71 62.9609c0 33.8096 26.71 61.79 60.71 61.79zM251.95 822.54c33.9805 0 61.9004 -27.9707 61.9004 -61.7705
c0 -35 -27.9199 -62.9805 -61.9004 -62.9805c-34 0 -60.71 27.9805 -60.71 62.9609c0 33.8096 26.71 61.79 60.71 61.79zM223.28 640.02v-640h-146v640h146z" />
    <glyph glyph-name="uni1E2E" unicode="&#x1e2e;" horiz-adv-x="301" 
d="M211.32 881.91c-47.1797 -49.1504 -74.2295 -52.4297 -111.229 -52.4297h-40.9102l133.66 164.15l109.26 -17.7402zM46.7109 812.441c33.9805 0 61.9004 -27.9707 61.9004 -61.7705c0 -35 -27.9199 -62.9805 -61.9004 -62.9805c-34 0 -60.71 27.9805 -60.71 62.9609
c0 33.8096 26.71 61.79 60.71 61.79zM251.711 812.451c33.9902 0 61.9102 -27.9707 61.9102 -61.7705c0 -35 -27.9199 -62.9805 -61.9102 -62.9805c-34 0 -60.71 27.9805 -60.71 62.9609c0 33.8096 26.71 61.79 60.71 61.79zM223.261 640.021v-640h-146v640h146z" />
    <glyph glyph-name="Idotaccent" unicode="&#x130;" horiz-adv-x="301" 
d="M150.53 695.17c-38.6904 0 -70.04 30.3604 -70.04 67.8105s31.3604 67.8105 70.04 67.8105s70.04 -30.3604 70.04 -67.8105s-31.3604 -67.8105 -70.04 -67.8105zM223.291 640v-640h-146v640h146z" />
    <glyph glyph-name="uni1ECA" unicode="&#x1eca;" horiz-adv-x="301" 
d="M223.28 640v-640h-146v640h146zM150.73 -192.06c-38.6904 0 -70.0508 30.3604 -70.0508 67.8105s31.3604 67.8105 70.0508 67.8105c38.6797 0 70.04 -30.3604 70.04 -67.8105s-31.3604 -67.8105 -70.04 -67.8105z" />
    <glyph glyph-name="Igrave" unicode="&#xcc;" horiz-adv-x="301" 
d="M104.91 742.43l-90.79 93.9893l109.26 17.7305l133.66 -164.15h-40.9102c-37 0 -64.04 3.28027 -111.22 52.4307zM223.271 639.999v-640h-146v640h146z" />
    <glyph glyph-name="Imacron" unicode="&#x12a;" horiz-adv-x="301" 
d="M-3.71973 720.18v66.9404h307.09v-66.9404h-307.09zM223.28 639.99v-640h-146v640h146z" />
    <glyph glyph-name="Iogonek" unicode="&#x12e;" horiz-adv-x="301" 
d="M216.63 -119.02l22.5684 -58.3594c-71.0596 -40.1396 -156.68 -25.3496 -180.35 31.9199c-21.8896 52.5195 5.80078 104.869 69.8604 145.459h-51.4199v640h146v-639.22l2.98047 -0.780273l-18.5195 -9.58984c-110.11 -56.1602 -91.5303 -150 8.87988 -109.43z" />
    <glyph glyph-name="uni0197" unicode="&#x197;" horiz-adv-x="301" 
d="M310.73 405.04v-60.2305h-87.4502v-344.81h-146v344.81h-87.9502v60.2305h87.9502v234.96h146v-234.96h87.4502z" />
    <glyph glyph-name="Itilde" unicode="&#x128;" horiz-adv-x="301" 
d="M213.63 692c-53.9199 0 -77.5098 44.0898 -118.729 44.0898c-29.96 0 -44.7998 -20.9805 -55.1797 -38.7305l-56.9297 37c18.2305 26.4102 45.1602 69.8301 102.86 69.8301c56.0596 0 81.9893 -44.7197 121.869 -44.7197c26.3896 0 40.8193 20.7197 51.0693 41.3398
l58.6504 -35.5098c-16.3496 -30.3701 -42.46 -73.2998 -103.61 -73.2998zM223.29 639.99v-640h-146v640h146z" />
    <glyph glyph-name="J" unicode="J" horiz-adv-x="320" 
d="M56.0801 -209.24c-24.4004 0 -50.2998 2.75 -76.0801 9.08984l20.4199 126.12c13.0996 -3.12012 22.0498 -5.99023 39.8398 -5.91016c37.9199 0.179688 56.3604 27.4297 56.3604 80.8799v639.07h146v-624.77c0 -164.7 -80.71 -224.48 -186.54 -224.48z" />
    <glyph glyph-name="Jacute" horiz-adv-x="320" 
d="M229.25 732.43c-47.1797 -49.1504 -74.2295 -52.4395 -111.229 -52.4395h-40.9102l133.66 164.15l109.26 -17.7305zM56.0703 -209.259c-24.4004 0 -50.2998 2.75 -76.0801 9.08984l20.4199 126.12c13.0996 -3.12012 22.0498 -5.99023 39.8398 -5.91016
c37.9199 0.179688 56.3604 27.4297 56.3604 80.8799v639.07h146v-624.77c0 -164.7 -80.71 -224.48 -186.54 -224.48z" />
    <glyph glyph-name="Jcircumflex" unicode="&#x134;" horiz-adv-x="320" 
d="M220.22 799.9l112.021 -119.74h-70.04c-28.3799 0 -36.8096 6.86035 -60.3398 29.7207l-35.3604 34.5195l-35.0195 -34.1299c-23.9102 -23.1699 -32.2705 -30.1104 -60.6504 -30.1104h-70.04l111.96 119.74h107.47zM96.6299 0.929688l0.000976562 639.08h146v-624.77
c0 -164.7 -80.71 -224.48 -186.54 -224.48c-24.4004 0 -50.3008 2.74023 -76.0811 9.08008l20.4199 126.12c13.0996 -3.12012 22.0498 -5.99023 39.8398 -5.91016c37.9199 0.179688 56.3604 27.4297 56.3604 80.8799z" />
    <glyph glyph-name="K" unicode="K" horiz-adv-x="659" 
d="M471.26 0l-180.359 262.93l-67.6201 -75.8496v-187.08h-146v640h146v-259.31l217.26 259.31h186.55l-241.87 -271.29l271.85 -368.71h-185.81z" />
    <glyph glyph-name="Kcommaaccent" unicode="&#x136;" horiz-adv-x="659" 
d="M385.22 368.71l271.84 -368.71h-185.81l-180.35 262.93l-67.6201 -75.8496v-187.08h-146v640h146v-259.31l217.26 259.31h186.55zM345.449 -57.3701c42.7305 -4.2998 64.4707 -41.8096 60.2402 -84.8398c-5.49023 -54.71 -45.7402 -109.53 -110.32 -132.32
l-16.4502 42.5703c31.9902 14.8398 53.0703 38.1602 57.04 64.1299c-32.2305 -3.58984 -60.6406 21.6904 -57.2002 57.6406c3.45996 33.8496 30.6104 56.3896 66.6904 52.8193z" />
    <glyph glyph-name="L" unicode="L" horiz-adv-x="523" 
d="M223.28 122.93l282.08 0.00976562v-122.93h-428.08v640h146v-517.08z" />
    <glyph glyph-name="Lacute" unicode="&#x139;" horiz-adv-x="523" 
d="M216.75 742.43c-47.1797 -49.1504 -74.2295 -52.4395 -111.229 -52.4395h-40.9102l133.66 164.15l109.26 -17.7305zM223.271 122.911l282.08 0.00976562v-122.93h-428.08v640h146v-517.08z" />
    <glyph glyph-name="Lcaron" unicode="&#x13d;" horiz-adv-x="523" 
d="M353.9 558.32c-32.2305 -3.58984 -60.6201 21.6904 -57.1797 57.6504c3.45996 33.8496 30.6104 56.3896 66.6904 52.8193c42.7305 -4.2998 64.4502 -41.8193 60.2197 -84.8496c-5.49023 -54.71 -45.7402 -109.53 -110.32 -132.32l-16.4502 42.5703
c31.9902 14.8398 53.0703 38.1602 57.04 64.1299zM223.301 122.931l282.08 0.00976562v-122.93h-428.08v640h146v-517.08z" />
    <glyph glyph-name="uni1E3C" unicode="&#x1e3c;" horiz-adv-x="523" 
d="M223.28 122.93l282.08 0.00976562v-122.93h-428.08v640h146v-517.08zM231.4 -49.2803h107.48l112.01 -119.74h-70.04c-28.3799 0 -36.8096 6.86035 -60.3398 29.7207l-35.3604 34.5195l-35.0195 -34.1299c-23.9102 -23.1699 -32.2705 -30.1104 -60.6504 -30.1104h-70.04z
" />
    <glyph glyph-name="Lcommaaccent" unicode="&#x13b;" horiz-adv-x="523" 
d="M223.28 122.93l282.08 0.00976562v-122.93h-428.08v640h146v-517.08zM285.311 -57.3604c42.7305 -4.2998 64.4404 -41.8096 60.21 -84.8398c-5.49023 -54.71 -45.7402 -109.53 -110.32 -132.32l-16.4404 42.5703c31.9902 14.8398 53.0703 38.1602 57.0508 64.1299
c-32.2305 -3.58984 -60.6309 21.6904 -57.1904 57.6406c3.45996 33.8496 30.6104 56.3896 66.6904 52.8193z" />
    <glyph glyph-name="Ldot" unicode="&#x13f;" horiz-adv-x="479" 
d="M223.28 122.93l282.08 0.00976562v-122.93h-428.08v640h146v-517.08zM363.04 313.31c-38.6797 0 -70.04 30.3604 -70.04 67.8105s31.3604 67.8105 70.04 67.8105s70.04 -30.3604 70.04 -67.8105s-31.3604 -67.8105 -70.04 -67.8105z" />
    <glyph glyph-name="uni1E36" unicode="&#x1e36;" horiz-adv-x="523" 
d="M223.28 122.93l282.08 0.00976562v-122.93h-428.08v640h146v-517.08zM285.86 -56.4404c38.6797 0 70.04 -30.3604 70.04 -67.8105s-31.3604 -67.8105 -70.04 -67.8105s-70.04 30.3604 -70.04 67.8105s31.3604 67.8105 70.04 67.8105z" />
    <glyph glyph-name="Lslash" unicode="&#x141;" horiz-adv-x="523" 
d="M223.28 122.93l282.08 0.00976562v-122.93h-428.08v212.89l-61.5195 -47.4902v102.62l61.5195 47.4902v324.48h146v-211.78l65.25 50.3701v-102.62l-65.25 -50.3701v-202.67z" />
    <glyph glyph-name="M" unicode="M" horiz-adv-x="844" 
d="M637.95 640h128.669v-640h-141.02v342.09l-160.75 -342.09h-85.79l-160.75 342.09v-342.09h-141.02v640h128.66l216 -464.41z" />
    <glyph glyph-name="uni1E3E" unicode="&#x1e3e;" horiz-adv-x="844" 
d="M481.93 742.44c-47.1797 -49.1504 -74.2295 -52.4297 -111.229 -52.4297h-40.9102l133.66 164.15l109.26 -17.7402zM637.939 640.001h128.669v-640h-141.02v342.09l-160.75 -342.09h-85.79l-160.75 342.09v-342.09h-141.02v640h128.66l216 -464.41z" />
    <glyph glyph-name="N" unicode="N" horiz-adv-x="724" 
d="M506.12 640h140.25v-640h-134.66l-294.17 414.01v-414.01h-140.26v640h134.67l294.17 -415v415z" />
    <glyph glyph-name="Nacute" unicode="&#x143;" horiz-adv-x="724" 
d="M423.33 742.63c-47.1797 -49.1504 -74.2295 -52.4297 -111.229 -52.4297h-40.9102l133.66 164.15l109.26 -17.7402zM506.11 640.001h140.25v-640h-134.66l-294.17 414.01v-414.01h-140.26v640h134.67l294.17 -415v415z" />
    <glyph glyph-name="Ncaron" unicode="&#x147;" horiz-adv-x="724" 
d="M415.57 690.5h-107.48l-112.01 119.74h70.04c28.3799 0 36.8096 -6.86035 60.3398 -29.7207l35.3604 -34.5195l35.0195 34.1299c23.9102 23.1699 32.2705 30.1104 60.6504 30.1104h70.04zM506.109 640h140.25v-640h-134.66l-294.17 414.01v-414.01h-140.26v640h134.67
l294.17 -415v415z" />
    <glyph glyph-name="uni1E4A" unicode="&#x1e4a;" horiz-adv-x="724" 
d="M506.12 640h140.25v-640h-134.66l-294.17 414.01v-414.01h-140.26v640h134.67l294.17 -415v415zM308.061 -49.29h107.48l112.01 -119.74h-70.04c-28.3799 0 -36.8096 6.86035 -60.3398 29.7207l-35.3604 34.5195l-35.0195 -34.1299
c-23.9102 -23.1699 -32.2705 -30.1104 -60.6504 -30.1104h-70.04z" />
    <glyph glyph-name="Ncommaaccent" unicode="&#x145;" horiz-adv-x="724" 
d="M506.12 640h140.25v-640h-134.66l-294.17 414.01v-414.01h-140.26v640h134.67l294.17 -415v415zM361.97 -57.3701c42.7305 -4.2998 64.4404 -41.8096 60.21 -84.8398c-5.49023 -54.71 -45.7402 -109.53 -110.32 -132.32l-16.4404 42.5703
c31.9902 14.8398 53.0703 38.1602 57.0508 64.1299c-32.2305 -3.58984 -60.6309 21.6904 -57.1904 57.6406c3.45996 33.8496 30.6104 56.3896 66.6904 52.8193z" />
    <glyph glyph-name="uni1E44" unicode="&#x1e44;" horiz-adv-x="724" 
d="M362.54 695.36c-38.6797 0 -70.04 30.3604 -70.04 67.8105s31.3604 67.8105 70.04 67.8105s70.04 -30.3604 70.04 -67.8105s-31.3604 -67.8105 -70.04 -67.8105zM506.13 640h140.25v-640h-134.66l-294.17 414.01v-414.01h-140.26v640h134.67l294.17 -415v415z" />
    <glyph glyph-name="uni1E46" unicode="&#x1e46;" horiz-adv-x="724" 
d="M506.12 640h140.25v-640h-134.66l-294.17 414.01v-414.01h-140.26v640h134.67l294.17 -415v415zM362.521 -56.4502c38.6797 0 70.04 -30.3604 70.04 -67.8105s-31.3604 -67.8105 -70.04 -67.8105s-70.04 30.3604 -70.04 67.8105s31.3604 67.8105 70.04 67.8105z" />
    <glyph glyph-name="Eng" unicode="&#x14a;" horiz-adv-x="724" 
d="M506.12 640l140.271 -0.000976562v-640h-3.74023v-20.5596c0 -244.42 -252.74 -179.15 -252.74 -179.15l13.1104 120.21s102.59 -32 103.09 55.75v23.8398l-128.57 188.73l-160 225.19v-414.01h-140.26v640h134.67l294.17 -415v415z" />
    <glyph glyph-name="uni019D" unicode="&#x19d;" horiz-adv-x="724" 
d="M506.12 640l140.25 0.000976562v-640h-134.66l-294.17 414.01v-434.57c0 -244.42 -251.6 -179.15 -251.6 -179.15l17.2305 120.21s97.3496 -32 97.8496 55.75v23.75h-3.74023v640h134.67l294.17 -415v415z" />
    <glyph glyph-name="Ntilde" unicode="&#xd1;" horiz-adv-x="724" 
d="M306.9 736.29c-29.96 0 -44.79 -20.9805 -55.1699 -38.7402l-56.9297 37c18.2305 26.4102 45.1602 69.8301 102.86 69.8301c56.0596 0 81.9893 -44.7197 121.869 -44.7197c26.3896 0 40.8193 20.7197 51.0596 41.3398l58.6504 -35.5098
c-16.3398 -30.3701 -42.4502 -73.2998 -103.601 -73.2998c-53.9199 0 -77.5195 44.0996 -118.739 44.0996zM506.13 640h140.25v-640h-134.66l-294.17 414.01v-414.01h-140.26v640h134.67l294.17 -415v415z" />
    <glyph glyph-name="O" unicode="O" horiz-adv-x="793" 
d="M396.54 -14.4902c-210.97 0 -349.24 150.19 -349.24 336.16c0 186.12 138.28 335.2 349.25 335.2c210.74 0 349.25 -149.08 349.25 -335.2c0 -185.97 -138.52 -336.16 -349.26 -336.16zM396.55 114.79c122.82 0 199.25 97.8896 199.25 206.87
c0 109.84 -75.96 205.92 -199.25 205.92s-199.25 -96.0801 -199.25 -205.92c0 -108.98 75.96 -206.87 199.25 -206.87z" />
    <glyph glyph-name="Oacute" unicode="&#xd3;" horiz-adv-x="793" 
d="M458.04 742.43c-47.1797 -49.1504 -74.2295 -52.4395 -111.229 -52.4395h-40.9102l133.66 164.15l109.26 -17.7305zM396.53 -14.499c-210.97 0 -349.24 150.19 -349.24 336.16c0 186.12 138.28 335.2 349.25 335.2c210.74 0 349.25 -149.08 349.25 -335.2
c0 -185.97 -138.52 -336.16 -349.26 -336.16zM396.54 114.781c122.82 0 199.25 97.8896 199.25 206.87c0 109.84 -75.96 205.92 -199.25 205.92s-199.25 -96.0801 -199.25 -205.92c0 -108.98 75.96 -206.87 199.25 -206.87z" />
    <glyph glyph-name="Obreve" unicode="&#x14e;" horiz-adv-x="793" 
d="M396.54 690c-100.41 0 -154.25 47.8799 -156.49 119.75h70.9404c4.16016 -30.0098 30.7002 -55.2598 85.5498 -55.2598s81.3896 25.25 85.5498 55.25h70.9404c-2.23047 -71.8701 -56.0801 -119.74 -156.49 -119.74zM396.55 -14.4805
c-210.97 0 -349.24 150.19 -349.24 336.16c0 186.12 138.28 335.2 349.25 335.2c210.74 0 349.25 -149.08 349.25 -335.2c0 -185.97 -138.52 -336.16 -349.26 -336.16zM396.56 114.8c122.82 0 199.25 97.8896 199.25 206.87c0 109.84 -75.96 205.92 -199.25 205.92
s-199.25 -96.0801 -199.25 -205.92c0 -108.98 75.96 -206.87 199.25 -206.87z" />
    <glyph glyph-name="uni01D1" unicode="&#x1d1;" horiz-adv-x="793" 
d="M450.28 690.3h-107.48l-112.01 119.74h70.04c28.3799 0 36.8096 -6.86035 60.3398 -29.7207l35.3604 -34.5195l35.0195 34.1299c23.9102 23.1699 32.2705 30.1104 60.6504 30.1104h70.04zM396.54 656.859c210.74 0 349.26 -149.08 349.26 -335.2
c0 -185.97 -138.52 -336.16 -349.26 -336.16c-210.97 0 -349.25 150.19 -349.25 336.16c0 186.12 138.28 335.2 349.25 335.2zM396.55 114.779c122.82 0 199.25 97.8896 199.25 206.87c0 109.84 -75.96 205.92 -199.25 205.92s-199.25 -96.0801 -199.25 -205.92
c0 -108.98 75.96 -206.87 199.25 -206.87z" />
    <glyph glyph-name="Ocircumflex" unicode="&#xd4;" horiz-adv-x="793" 
d="M360.26 720.27c-23.9102 -23.1699 -32.2695 -30.1104 -60.6494 -30.1104h-70.04l111.96 119.74h107.47l112.02 -119.74h-70.04c-28.3799 0 -36.8096 6.86035 -60.3398 29.7207l-35.3604 34.5195zM396.541 656.859c210.74 0 349.26 -149.08 349.26 -335.2
c0 -185.97 -138.52 -336.16 -349.26 -336.16c-210.97 0 -349.25 150.19 -349.25 336.16c0 186.12 138.28 335.2 349.25 335.2zM396.551 114.779c122.82 0 199.25 97.8896 199.25 206.87c0 109.84 -75.96 205.92 -199.25 205.92s-199.25 -96.0801 -199.25 -205.92
c0 -108.98 75.96 -206.87 199.25 -206.87z" />
    <glyph glyph-name="uni1ED0" unicode="&#x1ed0;" horiz-adv-x="793" 
d="M634.7 774.3c-17 -17.5195 -37.6992 -21.999 -70.2793 -21.999h-38.2305l100.7 133.56l97.9297 -18.4902zM360.261 720.271c-23.9102 -23.1699 -32.2695 -30.1104 -60.6494 -30.1104h-70.04l111.96 119.74h107.47l112.02 -119.74h-70.04
c-28.3799 0 -36.8096 6.86035 -60.3398 29.7207l-35.3604 34.5195zM396.542 656.86c210.74 0 349.26 -149.08 349.26 -335.2c0 -185.97 -138.52 -336.16 -349.26 -336.16c-210.97 0 -349.25 150.19 -349.25 336.16c0 186.12 138.28 335.2 349.25 335.2zM396.552 114.78
c122.82 0 199.25 97.8896 199.25 206.87c0 109.84 -75.96 205.92 -199.25 205.92s-199.25 -96.0801 -199.25 -205.92c0 -108.98 75.96 -206.87 199.25 -206.87z" />
    <glyph glyph-name="uni1ED8" unicode="&#x1ed8;" horiz-adv-x="793" 
d="M360.26 720.27c-23.9102 -23.1699 -32.2695 -30.1104 -60.6494 -30.1104h-70.04l111.96 119.74h107.47l112.02 -119.74h-70.04c-28.3799 0 -36.8096 6.86035 -60.3398 29.7207l-35.3604 34.5195zM396.541 656.859c210.74 0 349.26 -149.08 349.26 -335.2
c0 -185.97 -138.52 -336.16 -349.26 -336.16c-210.97 0 -349.25 150.19 -349.25 336.16c0 186.12 138.28 335.2 349.25 335.2zM396.551 114.779c122.82 0 199.25 97.8896 199.25 206.87c0 109.84 -75.96 205.92 -199.25 205.92s-199.25 -96.0801 -199.25 -205.92
c0 -108.98 75.96 -206.87 199.25 -206.87zM397.24 -56.4707c38.6797 0 70.04 -30.3604 70.04 -67.8105s-31.3604 -67.8105 -70.04 -67.8105s-70.04 30.3604 -70.04 67.8105s31.3604 67.8105 70.04 67.8105z" />
    <glyph glyph-name="uni1ED2" unicode="&#x1ed2;" horiz-adv-x="793" 
d="M224.41 752.3c-32.5801 0 -53.2695 4.47949 -70.2695 21.999l-90.1201 93.0703l97.9199 18.4902l100.7 -133.56h-38.2305zM299.631 690.159h-70.0391l111.96 119.74h107.47l112.02 -119.74h-70.04c-28.3799 0 -36.8096 6.86035 -60.3398 29.7207l-35.3604 34.5195
l-35.0195 -34.1299c-23.9102 -23.1699 -32.2705 -30.1104 -60.6504 -30.1104zM396.562 656.859c210.74 0 349.26 -149.08 349.26 -335.2c0 -185.97 -138.52 -336.16 -349.26 -336.16c-210.97 0 -349.25 150.19 -349.25 336.16c0 186.12 138.28 335.2 349.25 335.2z
M396.571 114.779c122.82 0 199.25 97.8896 199.25 206.87c0 109.84 -75.96 205.92 -199.25 205.92s-199.25 -96.0801 -199.25 -205.92c0 -108.98 75.96 -206.87 199.25 -206.87z" />
    <glyph glyph-name="uni1ED6" unicode="&#x1ed6;" horiz-adv-x="793" 
d="M343.04 885.13c-29.96 0 -44.7998 -20.9805 -55.1797 -38.7402l-56.9297 37c18.2402 26.4102 45.1699 69.8301 102.87 69.8301c56.0596 0 81.9893 -44.7197 121.869 -44.7197c26.3896 0 40.8193 20.7197 51.0693 41.3398l58.6504 -35.5098
c-16.3496 -30.3701 -42.46 -73.2998 -103.61 -73.2998c-53.9199 0 -77.5195 44.0996 -118.739 44.0996zM360.26 720.27c-23.9102 -23.1699 -32.2695 -30.1104 -60.6494 -30.1104h-70.04l111.96 119.74h107.47l112.02 -119.74h-70.04
c-28.3799 0 -36.8096 6.86035 -60.3398 29.7207l-35.3604 34.5195zM396.541 656.859c210.74 0 349.26 -149.08 349.26 -335.2c0 -185.97 -138.52 -336.16 -349.26 -336.16c-210.97 0 -349.25 150.19 -349.25 336.16c0 186.12 138.28 335.2 349.25 335.2zM396.551 114.779
c122.82 0 199.25 97.8896 199.25 206.87c0 109.84 -75.96 205.92 -199.25 205.92s-199.25 -96.0801 -199.25 -205.92c0 -108.98 75.96 -206.87 199.25 -206.87z" />
    <glyph glyph-name="Odieresis" unicode="&#xd6;" horiz-adv-x="793" 
d="M293.66 822.53c33.9902 0 61.9102 -27.9707 61.9102 -61.7705c0 -35 -27.9199 -62.9805 -61.9102 -62.9805c-34 0 -60.71 27.9805 -60.71 62.9609c0 33.8096 26.71 61.79 60.71 61.79zM498.66 822.54c33.9902 0 61.9102 -27.9707 61.9102 -61.7705
c0 -35 -27.9199 -62.9805 -61.9102 -62.9805c-34 0 -60.71 27.9805 -60.71 62.9609c0 33.8096 26.71 61.79 60.71 61.79zM396.53 -14.4697c-210.97 0 -349.24 150.19 -349.24 336.16c0 186.12 138.28 335.2 349.25 335.2c210.74 0 349.25 -149.08 349.25 -335.2
c0 -185.97 -138.52 -336.16 -349.26 -336.16zM396.54 114.811c122.82 0 199.25 97.8896 199.25 206.87c0 109.84 -75.96 205.92 -199.25 205.92s-199.25 -96.0801 -199.25 -205.92c0 -108.98 75.96 -206.87 199.25 -206.87z" />
    <glyph glyph-name="uni022A" unicode="&#x22a;" horiz-adv-x="793" 
d="M243 859.66v66.9404h307.09v-66.9404h-307.09zM293.45 812.44c33.9805 0 61.9004 -27.9707 61.9004 -61.7705c0 -35 -27.9199 -62.9805 -61.9004 -62.9805c-34 0 -60.71 27.9805 -60.71 62.9609c0 33.8096 26.71 61.79 60.71 61.79zM498.45 812.45
c33.9805 0 61.9004 -27.9707 61.9004 -61.7705c0 -35 -27.9199 -62.9805 -61.9004 -62.9805c-34 0 -60.71 27.9805 -60.71 62.9609c0 33.8096 26.71 61.79 60.71 61.79zM396.55 -14.4697c-210.97 0 -349.24 150.19 -349.24 336.16c0 186.12 138.28 335.2 349.25 335.2
c210.74 0 349.25 -149.08 349.25 -335.2c0 -185.97 -138.52 -336.16 -349.26 -336.16zM396.56 114.811c122.82 0 199.25 97.8896 199.25 206.87c0 109.84 -75.96 205.92 -199.25 205.92s-199.25 -96.0801 -199.25 -205.92c0 -108.98 75.96 -206.87 199.25 -206.87z" />
    <glyph glyph-name="uni1ECC" unicode="&#x1ecc;" horiz-adv-x="793" 
d="M396.54 -14.4902c-210.97 0 -349.24 150.19 -349.24 336.16c0 186.12 138.28 335.2 349.25 335.2c210.74 0 349.25 -149.08 349.25 -335.2c0 -185.97 -138.52 -336.16 -349.26 -336.16zM396.55 114.79c122.82 0 199.25 97.8896 199.25 206.87
c0 109.84 -75.96 205.92 -199.25 205.92s-199.25 -96.0801 -199.25 -205.92c0 -108.98 75.96 -206.87 199.25 -206.87zM397.239 -192.06c-38.6797 0 -70.04 30.3604 -70.04 67.8105s31.3604 67.8105 70.04 67.8105s70.04 -30.3604 70.04 -67.8105
s-31.3604 -67.8105 -70.04 -67.8105z" />
    <glyph glyph-name="Ograve" unicode="&#xd2;" horiz-adv-x="793" 
d="M351.62 742.43l-90.79 93.9893l109.26 17.7305l133.66 -164.15h-40.9102c-37 0 -64.04 3.28027 -111.22 52.4307zM396.521 -14.4912c-210.97 0 -349.24 150.19 -349.24 336.16c0 186.12 138.28 335.2 349.25 335.2c210.74 0 349.25 -149.08 349.25 -335.2
c0 -185.97 -138.52 -336.16 -349.26 -336.16zM396.53 114.789c122.82 0 199.25 97.8896 199.25 206.87c0 109.84 -75.96 205.92 -199.25 205.92s-199.25 -96.0801 -199.25 -205.92c0 -108.98 75.96 -206.87 199.25 -206.87z" />
    <glyph glyph-name="Ohungarumlaut" unicode="&#x150;" horiz-adv-x="793" 
d="M376.26 742.43c-47.1797 -49.1504 -74.2295 -52.4395 -111.229 -52.4395h-40.9102l133.66 164.15l109.26 -17.7305zM551.67 742.421c-47.1797 -49.1504 -74.2295 -52.4395 -111.229 -52.4395h-40.9102l133.66 164.15l109.26 -17.7305zM396.521 -14.5078
c-210.97 0 -349.24 150.19 -349.24 336.16c0 186.12 138.28 335.2 349.25 335.2c210.74 0 349.25 -149.08 349.25 -335.2c0 -185.97 -138.52 -336.16 -349.26 -336.16zM396.53 114.772c122.82 0 199.25 97.8896 199.25 206.87c0 109.84 -75.96 205.92 -199.25 205.92
s-199.25 -96.0801 -199.25 -205.92c0 -108.98 75.96 -206.87 199.25 -206.87z" />
    <glyph glyph-name="Omacron" unicode="&#x14c;" horiz-adv-x="793" 
d="M243 720.18v66.9404h307.09v-66.9404h-307.09zM396.55 -14.5c-210.97 0 -349.24 150.19 -349.24 336.16c0 186.12 138.28 335.2 349.25 335.2c210.74 0 349.25 -149.08 349.25 -335.2c0 -185.97 -138.52 -336.16 -349.26 -336.16zM396.56 114.78
c122.82 0 199.25 97.8896 199.25 206.87c0 109.84 -75.96 205.92 -199.25 205.92s-199.25 -96.0801 -199.25 -205.92c0 -108.98 75.96 -206.87 199.25 -206.87z" />
    <glyph glyph-name="uni1E52" unicode="&#x1e52;" horiz-adv-x="793" 
d="M344.31 803.37l100.721 133.561l97.9199 -18.4902l-90.1201 -93.0703c-17 -17.5195 -37.71 -22 -70.29 -22h-38.2305zM249.38 692.301v66.9404h307.09v-66.9404h-307.09zM396.55 -14.4893c-210.97 0 -349.24 150.19 -349.24 336.16c0 186.12 138.28 335.2 349.25 335.2
c210.74 0 349.25 -149.08 349.25 -335.2c0 -185.97 -138.52 -336.16 -349.26 -336.16zM396.56 114.791c122.82 0 199.25 97.8896 199.25 206.87c0 109.84 -75.96 205.92 -199.25 205.92s-199.25 -96.0801 -199.25 -205.92c0 -108.98 75.96 -206.87 199.25 -206.87z" />
    <glyph glyph-name="uni1E50" unicode="&#x1e50;" horiz-adv-x="793" 
d="M446 803.37l-38.21 -0.000976562c-32.5801 0 -53.29 4.48047 -70.29 22l-90.1201 93.0703l97.9199 18.4902zM249.37 692.289v66.9404h307.09v-66.9404h-307.09zM396.54 -14.501c-210.97 0 -349.24 150.19 -349.24 336.16c0 186.12 138.28 335.2 349.25 335.2
c210.74 0 349.25 -149.08 349.25 -335.2c0 -185.97 -138.52 -336.16 -349.26 -336.16zM396.55 114.779c122.82 0 199.25 97.8896 199.25 206.87c0 109.84 -75.96 205.92 -199.25 205.92s-199.25 -96.0801 -199.25 -205.92c0 -108.98 75.96 -206.87 199.25 -206.87z" />
    <glyph glyph-name="uni01EA" unicode="&#x1ea;" horiz-adv-x="793" 
d="M477.58 -9.58984c-110.11 -56.1602 -91.5107 -150.002 8.89941 -109.432l22.5498 -58.3496c-71.0596 -40.1396 -156.68 -25.3496 -180.35 31.9199c-19.4297 46.6201 0.200195 93.1006 49.6602 131.341c-200.68 8.37988 -331.04 155.21 -331.04 335.78
c0 186.12 138.28 335.2 349.25 335.2c210.74 0 349.25 -149.08 349.25 -335.2c0 -157.68 -99.5801 -289.64 -258.33 -326.14zM197.31 321.658c0 -108.98 75.9492 -206.87 199.239 -206.87c122.82 0 199.261 97.8896 199.261 206.87c0 109.84 -75.96 205.92 -199.25 205.92
s-199.25 -96.0801 -199.25 -205.92z" />
    <glyph glyph-name="Oslash" unicode="&#xd8;" horiz-adv-x="793" 
d="M652.84 556.4c59.3203 -60.3203 92.96 -143.04 92.96 -234.74c0 -185.97 -138.52 -336.16 -349.26 -336.16c-80.3604 0 -150.17 21.79 -205.81 59.0498l-77.2598 -85.5703l-49.5703 44.0596l75.79 83.9502c-59 60.5303 -92.4004 143.28 -92.4004 234.67
c0 186.12 138.28 335.2 349.25 335.2c79.96 0 149.52 -21.46 205.06 -58.2598l78.0098 86.4102l49.5703 -44.0596zM197.29 321.65c0 -46.6699 13.9307 -91.2998 39.541 -127.08l271.43 300.64c-30.4902 20.3604 -68.1504 32.3604 -111.721 32.3604
c-123.29 0 -199.25 -96.0801 -199.25 -205.92zM396.551 114.78c122.82 0 199.251 97.8994 199.251 206.88c0 47.2002 -14.0303 91.8604 -39.8105 127.45l-271.8 -301.05c30.5996 -20.8799 68.4795 -33.2803 112.359 -33.2803z" />
    <glyph glyph-name="Oslashacute" unicode="&#x1fe;" horiz-adv-x="793" 
d="M454.04 742.43c-47.1797 -49.1504 -74.2295 -52.4395 -111.229 -52.4395h-40.9102l133.66 164.15l109.26 -17.7305zM652.84 556.391c59.3203 -60.3203 92.96 -143.04 92.96 -234.74c0 -185.97 -138.52 -336.16 -349.26 -336.16c-80.3604 0 -150.17 21.79 -205.81 59.0498
l-77.2598 -85.5703l-49.5703 44.0596l75.79 83.9502c-59 60.5303 -92.4004 143.28 -92.4004 234.67c0 186.12 138.28 335.2 349.25 335.2c79.96 0 149.52 -21.46 205.06 -58.2598l78.0098 86.4102l49.5703 -44.0596zM197.29 321.641
c0 -46.6699 13.9307 -91.2998 39.541 -127.08l271.43 300.64c-30.4902 20.3604 -68.1504 32.3604 -111.721 32.3604c-123.29 0 -199.25 -96.0801 -199.25 -205.92zM396.551 114.771c122.82 0 199.251 97.8994 199.251 206.88c0 47.2002 -14.0303 91.8604 -39.8105 127.45
l-271.8 -301.05c30.5996 -20.8799 68.4795 -33.2803 112.359 -33.2803z" />
    <glyph glyph-name="Otilde" unicode="&#xd5;" horiz-adv-x="793" 
d="M460.35 692c-53.9199 0 -77.5293 44.0898 -118.749 44.0898c-29.96 0 -44.7998 -20.9805 -55.1797 -38.7305l-56.9297 37c18.2402 26.4102 45.1699 69.8301 102.87 69.8301c56.0596 0 81.9893 -44.7197 121.869 -44.7197c26.3896 0 40.8193 20.7197 51.0693 41.3398
l58.6504 -35.5098c-16.3398 -30.3701 -42.4502 -73.2998 -103.601 -73.2998zM396.53 -14.5c-210.97 0 -349.24 150.19 -349.24 336.16c0 186.12 138.28 335.2 349.25 335.2c210.74 0 349.25 -149.08 349.25 -335.2c0 -185.97 -138.52 -336.16 -349.26 -336.16z
M396.54 114.78c122.82 0 199.25 97.8896 199.25 206.87c0 109.84 -75.96 205.92 -199.25 205.92s-199.25 -96.0801 -199.25 -205.92c0 -108.98 75.96 -206.87 199.25 -206.87z" />
    <glyph glyph-name="uni1E4C" unicode="&#x1e4c;" horiz-adv-x="793" 
d="M344.31 830.06l100.721 133.561l97.9199 -18.4902l-90.1201 -93.0703c-17 -17.5195 -37.71 -22 -70.29 -22h-38.2305zM460.36 692.01c-53.9199 0 -77.5293 44.0898 -118.749 44.0898c-29.96 0 -44.7998 -20.9805 -55.1797 -38.7305l-56.9297 37
c18.2402 26.4102 45.1699 69.8301 102.87 69.8301c56.0596 0 81.9893 -44.7197 121.869 -44.7197c26.3896 0 40.8193 20.7197 51.0693 41.3398l58.6504 -35.5098c-16.3398 -30.3701 -42.4502 -73.2998 -103.601 -73.2998zM396.541 -14.4902
c-210.97 0 -349.24 150.19 -349.24 336.16c0 186.12 138.28 335.2 349.25 335.2c210.74 0 349.25 -149.08 349.25 -335.2c0 -185.97 -138.52 -336.16 -349.26 -336.16zM396.551 114.79c122.82 0 199.25 97.8896 199.25 206.87c0 109.84 -75.96 205.92 -199.25 205.92
s-199.25 -96.0801 -199.25 -205.92c0 -108.98 75.96 -206.87 199.25 -206.87z" />
    <glyph glyph-name="OE" unicode="&#x152;" horiz-adv-x="1069" 
d="M1059.42 520.81l-315.859 0.0107422v-150.38h265.85v-100.87h-265.85v-150.38h315.85v-119.19h-461.85v41.4805c-54.8604 -35.3799 -122.99 -55.9697 -201.021 -55.9697c-210.97 0 -349.25 150.19 -349.25 336.16c0 186.12 138.28 335.2 349.25 335.2
c78.04 0 146.17 -20.4404 201.03 -55.6309v38.7598h461.85v-119.19zM396.53 114.801c122.82 0 199.25 97.8896 199.25 206.87c0 109.84 -75.96 205.92 -199.25 205.92s-199.25 -96.0801 -199.25 -205.92c0 -108.98 75.96 -206.87 199.25 -206.87z" />
    <glyph glyph-name="P" unicode="P" horiz-adv-x="628" 
d="M361.82 640c119.08 0 218.97 -80.9404 218.97 -204.96c0 -123.17 -99.8896 -203.67 -218.97 -203.87l-168.54 -0.400391v-230.77h-146v640h314.54zM318.81 339.68c72.0303 -0.320312 111.971 35.1211 111.971 95.3516c0 61.2305 -39.9404 96.29 -111.971 95.9697
l-125.54 -0.480469v-190.36z" />
    <glyph glyph-name="Thorn" unicode="&#xde;" horiz-adv-x="641" 
d="M384.35 537.43c119.08 0 218.98 -80.9297 218.98 -204.949c0 -123.17 -99.9004 -203.67 -218.98 -203.87l-164.8 -0.400391v-128.21h-142.26v639.63l142.26 0.370117v-102.57h164.8zM345.09 237.131c72.0303 -0.320312 111.971 35.1211 111.971 95.3516
c0 61.2305 -39.9404 96.29 -111.971 95.9697l-125.54 -0.480469v-190.36z" />
    <glyph glyph-name="Q" unicode="Q" horiz-adv-x="795" 
d="M523.83 5.88965c22.8604 -68.1602 112.399 -59.0391 156.859 -19.9795l58.1104 -96.2803c-101.96 -79.4902 -289.26 -67.4199 -341.54 95.8799h-0.719727c-210.97 0 -349.25 150.19 -349.25 336.16c0 186.12 138.28 335.2 349.25 335.2
c210.74 0 349.25 -149.08 349.25 -335.2c0 -145.27 -84.5195 -268.71 -221.96 -315.78zM197.279 321.66c0 -108.98 75.9492 -206.87 199.239 -206.87c122.82 0 199.261 97.8896 199.261 206.87c0 109.84 -75.96 205.92 -199.25 205.92s-199.25 -96.0801 -199.25 -205.92z
" />
    <glyph glyph-name="R" unicode="R" horiz-adv-x="682" 
d="M544.86 211.04c39.7305 -66.7598 58.1885 -146.447 109.549 -211.058h-175.18c-29.0898 53.1299 -46.3994 139.5 -82.4697 193.64c-34.5 51.5996 -93.29 67.3496 -163.7 67.6299c-3.37988 0.0498047 -6.63965 0.0898438 -9.7793 0.129883v-261.37h-146v640h305.03
c111.05 0 228.479 -56.1299 228.479 -180.99c0 -97.4502 -73.4102 -151.73 -164.91 -174.971c42.7402 -14.9004 77.9902 -37.8506 98.9805 -73.0107zM346.858 530.393l-123.58 0.0117188v-175.61h131.13c69.8398 0 106.33 33.5996 106.33 86.9795
c0 54.7695 -39.7197 88.6191 -113.88 88.6191z" />
    <glyph glyph-name="Racute" unicode="&#x154;" horiz-adv-x="682" 
d="M399.99 742.43c-47.1797 -49.1504 -74.2197 -52.4395 -111.22 -52.4395h-40.9102l133.65 164.15l109.26 -17.7305zM544.86 211.021c39.7305 -66.7598 58.1885 -146.447 109.549 -211.058h-175.18c-29.0898 53.1299 -46.3994 139.5 -82.4697 193.64
c-34.5 51.5996 -93.29 67.3496 -163.7 67.6299c-3.37988 0.0498047 -6.63965 0.0898438 -9.7793 0.129883v-261.37h-146v640h305.03c111.05 0 228.479 -56.1299 228.479 -180.99c0 -97.4502 -73.4102 -151.73 -164.91 -174.971
c42.7402 -14.9004 77.9902 -37.8506 98.9805 -73.0107zM346.858 530.373l-123.58 0.0117188v-175.61h131.13c69.8398 0 106.33 33.5996 106.33 86.9795c0 54.7695 -39.7197 88.6191 -113.88 88.6191z" />
    <glyph glyph-name="Rcaron" unicode="&#x158;" horiz-adv-x="682" 
d="M392.23 690.3h-107.48l-112.01 119.74h70.04c28.3799 0 36.8096 -6.86035 60.3398 -29.7207l35.3604 -34.5195l35.0195 34.1299c23.9102 23.1699 32.2705 30.1104 60.6504 30.1104h70.04zM544.85 211.03c39.7305 -66.7598 58.1885 -146.447 109.549 -211.058h-175.18
c-29.0898 53.1299 -46.3994 139.5 -82.4697 193.64c-34.5 51.5996 -93.29 67.3496 -163.7 67.6299c-3.37988 0.0498047 -6.63965 0.0898438 -9.7793 0.129883v-261.37h-146v640h305.03c111.05 0 228.479 -56.1299 228.479 -180.99
c0 -97.4502 -73.4102 -151.73 -164.91 -174.971c42.7402 -14.9004 77.9902 -37.8506 98.9805 -73.0107zM346.848 530.383l-123.58 0.0117188v-175.61h131.13c69.8398 0 106.33 33.5996 106.33 86.9795c0 54.7695 -39.7197 88.6191 -113.88 88.6191z" />
    <glyph glyph-name="Rcommaaccent" unicode="&#x156;" horiz-adv-x="682" 
d="M544.86 211.04c39.7305 -66.7598 58.1885 -146.447 109.549 -211.058h-175.18c-29.0898 53.1299 -46.3994 139.5 -82.4697 193.64c-34.5 51.5996 -93.29 67.3496 -163.7 67.6299c-3.37988 0.0498047 -6.63965 0.0898438 -9.7793 0.129883v-261.37h-146v640h305.03
c111.05 0 228.479 -56.1299 228.479 -180.99c0 -97.4502 -73.4102 -151.73 -164.91 -174.971c42.7402 -14.9004 77.9902 -37.8506 98.9805 -73.0107zM346.858 530.393l-123.58 0.0117188v-175.61h131.13c69.8398 0 106.33 33.5996 106.33 86.9795
c0 54.7695 -39.7197 88.6191 -113.88 88.6191zM338.639 -57.3857c42.7305 -4.2998 64.4697 -41.8096 60.2295 -84.8398c-5.49023 -54.71 -45.7402 -109.53 -110.32 -132.32l-16.4502 42.5703c31.9902 14.8398 53.0703 38.1602 57.0508 64.1299
c-32.2305 -3.58984 -60.6406 21.6904 -57.2002 57.6406c3.45996 33.8496 30.6104 56.3896 66.6904 52.8193z" />
    <glyph glyph-name="uni024C" unicode="&#x24c;" horiz-adv-x="682" 
d="M544.86 211.04c39.7305 -66.7598 58.1885 -146.446 109.549 -211.057h-175.18c-29.0898 53.1299 -46.3994 139.5 -82.4697 193.64c-34.5 51.5996 -93.29 67.3496 -163.7 67.6299c-3.37988 0.0498047 -6.63965 0.0898438 -9.7793 0.129883v-261.37h-146v267.18h-62.29
v78.4297h62.29v294.39h305.03c111.05 0 228.479 -56.1299 228.479 -180.99c0 -97.4502 -73.4102 -151.73 -164.91 -174.971c42.7402 -14.9004 77.9902 -37.8506 98.9805 -73.0107zM346.858 530.394l-123.58 0.0117188v-175.61h131.13
c69.8398 0 106.33 33.5996 106.33 86.9795c0 54.7695 -39.7197 88.6191 -113.88 88.6191z" />
    <glyph glyph-name="S" unicode="S" horiz-adv-x="621" 
d="M308.93 -14.4902c-116.2 0 -205.013 28.498 -281.643 94.9785l89.7598 99.4297c60.7803 -58.6699 119.351 -75.5195 189.19 -75.5195c61.0801 0 111.65 25.5703 111.65 74.5303c0 51.2305 -66.1201 74.1104 -144.54 97.7607
c-112.3 33.0801 -201.96 82.6904 -201.96 186.87c0 122.43 112.29 193.96 238.19 193.96c114.78 0 187.73 -32.9805 247.211 -77.7607l-85.1904 -95.4004c-49.4297 37.5498 -98.6992 53.3799 -148.219 53.3799c-56 0 -97.7598 -26.7695 -97.7598 -67.5693
c0 -42.29 57.1396 -62.1797 165.14 -97.3994c93.1396 -30.0498 183.149 -78.8398 183.149 -188.22c0 -137.17 -118.93 -199.04 -264.979 -199.04z" />
    <glyph glyph-name="Sacute" unicode="&#x15a;" horiz-adv-x="621" 
d="M369.64 742.43c-47.1797 -49.1504 -74.2295 -52.4395 -111.229 -52.4395h-40.9102l133.66 164.15l109.26 -17.7305zM308.92 -14.499c-116.2 0 -205.013 28.498 -281.643 94.9785l89.7598 99.4297c60.7803 -58.6699 119.351 -75.5195 189.19 -75.5195
c61.0801 0 111.65 25.5703 111.65 74.5303c0 51.2305 -66.1201 74.1104 -144.54 97.7607c-112.3 33.0801 -201.96 82.6904 -201.96 186.87c0 122.43 112.29 193.96 238.19 193.96c114.78 0 187.73 -32.9805 247.211 -77.7607l-85.1904 -95.4004
c-49.4297 37.5498 -98.6992 53.3799 -148.219 53.3799c-56 0 -97.7598 -26.7695 -97.7598 -67.5693c0 -42.29 57.1396 -62.1797 165.14 -97.3994c93.1396 -30.0498 183.149 -78.8398 183.149 -188.22c0 -137.17 -118.93 -199.04 -264.979 -199.04z" />
    <glyph glyph-name="Scaron" unicode="&#x160;" horiz-adv-x="621" 
d="M361.88 690.3h-107.48l-112.01 119.74h70.04c28.3799 0 36.8096 -6.86035 60.3398 -29.7207l35.3604 -34.5195l35.0195 34.1299c23.9102 23.1699 32.2705 30.1104 60.6504 30.1104h70.04zM390.739 372.78c93.1396 -30.0498 183.157 -78.832 183.157 -188.212
c0 -137.17 -118.93 -199.04 -264.979 -199.04c-116.2 0 -205.021 28.4902 -281.65 94.9707l89.7598 99.4297c60.7803 -58.6699 119.351 -75.5195 189.19 -75.5195c61.0801 0 111.65 25.5703 111.65 74.5303c0 51.2305 -66.1201 74.1104 -144.54 97.7607
c-112.3 33.0801 -201.96 82.6904 -201.96 186.87c0 122.43 112.29 193.96 238.19 193.96c114.78 0 187.73 -32.9805 247.211 -77.7607l-85.1904 -95.4004c-49.4297 37.5498 -98.6992 53.3799 -148.219 53.3799c-56 0 -97.7598 -26.7695 -97.7598 -67.5693
c0 -42.29 57.1396 -62.1797 165.14 -97.3994z" />
    <glyph glyph-name="Scedilla" unicode="&#x15e;" horiz-adv-x="621" 
d="M573.91 184.55c0 -130.3 -107.291 -192.661 -243.231 -198.581l-25.3203 -29s15.4297 9.44043 46.96 4.44043c30.5098 -4.7002 70.6494 -27.79 69.5596 -77.4902c-1.04004 -47.54 -45.9199 -80.1396 -111.41 -82.8301
c-73.3301 -3.66992 -119.771 21.3701 -119.771 21.3701l26.4805 52.2305s34.6299 -17.8799 73.5801 -17.7803c33.8896 -0.110352 44.4697 16.8701 43.8799 32.6797c-1.11035 27.9102 -48.1504 31.6797 -76.04 17.2793l-35.21 28.3604l39.1201 51.9199
c-93.9697 6.91992 -169.13 36 -235.22 93.3398l89.7598 99.4297c60.7803 -58.6699 119.351 -75.5195 189.19 -75.5195c61.0801 0 111.65 25.5703 111.65 74.5303c0 51.2305 -66.1201 74.1104 -144.54 97.7607c-112.3 33.0801 -201.96 82.6904 -201.96 186.87
c0 122.43 112.29 193.96 238.19 193.96c114.78 0 187.73 -32.9805 247.211 -77.7607l-85.1904 -95.4004c-49.4297 37.5498 -98.6992 53.3799 -148.219 53.3799c-56 0 -97.7598 -26.7695 -97.7598 -67.5693c0 -42.29 57.1396 -62.1797 165.14 -97.3994
c93.1396 -30.0498 183.149 -78.8398 183.149 -188.22z" />
    <glyph glyph-name="Scircumflex" unicode="&#x15c;" horiz-adv-x="621" 
d="M271.86 720.27c-23.9102 -23.1699 -32.2598 -30.1104 -60.6396 -30.1104h-70.04l111.96 119.74h107.47l112.01 -119.74h-70.04c-28.3799 0 -36.8096 6.86035 -60.3398 29.7207l-35.3604 34.5195zM390.761 372.779c93.1396 -30.0498 183.157 -78.832 183.157 -188.212
c0 -137.17 -118.93 -199.04 -264.979 -199.04c-116.2 0 -205.021 28.4902 -281.65 94.9707l89.7598 99.4297c60.7803 -58.6699 119.351 -75.5195 189.19 -75.5195c61.0801 0 111.65 25.5703 111.65 74.5303c0 51.2305 -66.1201 74.1104 -144.54 97.7607
c-112.3 33.0801 -201.96 82.6904 -201.96 186.87c0 122.43 112.29 193.96 238.19 193.96c114.78 0 187.73 -32.9805 247.211 -77.7607l-85.1904 -95.4004c-49.4297 37.5498 -98.6992 53.3799 -148.219 53.3799c-56 0 -97.7598 -26.7695 -97.7598 -67.5693
c0 -42.29 57.1396 -62.1797 165.14 -97.3994z" />
    <glyph glyph-name="Scommaaccent" unicode="&#x218;" horiz-adv-x="621" 
d="M308.93 -14.4902c-116.2 0 -205.013 28.498 -281.643 94.9785l89.7598 99.4297c60.7803 -58.6699 119.351 -75.5195 189.19 -75.5195c61.0801 0 111.65 25.5703 111.65 74.5303c0 51.2305 -66.1201 74.1104 -144.54 97.7607
c-112.3 33.0801 -201.96 82.6904 -201.96 186.87c0 122.43 112.29 193.96 238.19 193.96c114.78 0 187.73 -32.9805 247.211 -77.7607l-85.1904 -95.4004c-49.4297 37.5498 -98.6992 53.3799 -148.219 53.3799c-56 0 -97.7598 -26.7695 -97.7598 -67.5693
c0 -42.29 57.1396 -62.1797 165.14 -97.3994c93.1396 -30.0498 183.149 -78.8398 183.149 -188.22c0 -137.17 -118.93 -199.04 -264.979 -199.04zM258.218 -274.522l-16.4502 42.5801c31.9902 14.8398 53.0703 38.1602 57.0508 64.1299
c-32.2305 -3.58984 -60.6406 21.6904 -57.2002 57.6406c3.45996 33.8496 30.6104 56.3896 66.6904 52.8193c42.7402 -4.2998 64.46 -41.8193 60.2295 -84.8496c-5.49023 -54.71 -45.7402 -109.53 -110.32 -132.32z" />
    <glyph glyph-name="uni1E62" unicode="&#x1e62;" horiz-adv-x="621" 
d="M308.93 -14.4902c-116.2 0 -205.013 28.498 -281.643 94.9785l89.7598 99.4297c60.7803 -58.6699 119.351 -75.5195 189.19 -75.5195c61.0801 0 111.65 25.5703 111.65 74.5303c0 51.2305 -66.1201 74.1104 -144.54 97.7607
c-112.3 33.0801 -201.96 82.6904 -201.96 186.87c0 122.43 112.29 193.96 238.19 193.96c114.78 0 187.73 -32.9805 247.211 -77.7607l-85.1904 -95.4004c-49.4297 37.5498 -98.6992 53.3799 -148.219 53.3799c-56 0 -97.7598 -26.7695 -97.7598 -67.5693
c0 -42.29 57.1396 -62.1797 165.14 -97.3994c93.1396 -30.0498 183.149 -78.8398 183.149 -188.22c0 -137.17 -118.93 -199.04 -264.979 -199.04zM308.938 -192.053c-38.6797 0 -70.0508 30.3604 -70.0508 67.8105s31.3604 67.8105 70.04 67.8105
c38.6904 0 70.0508 -30.3604 70.0508 -67.8105s-31.3604 -67.8105 -70.04 -67.8105z" />
    <glyph glyph-name="uni1E9E" unicode="&#x1e9e;" horiz-adv-x="669" 
d="M320.13 -4.48047l-19.4492 120.909c100.6 -12.2695 170.05 16.54 170.05 85.46c0 61.9404 -59.4502 88.7207 -136.67 88.7207h-33.3799v79.4102l119.28 146.79h-76.3701c-79.9102 0 -120.29 -62.6299 -120.29 -146.92v-369.89h-146v376.11
c0 198.02 128.87 264.199 270.26 264.199h225.02v-97.7305l-129.09 -160.96c69.7598 -10.9697 178.18 -46.3301 178.18 -178.97c0 -158.38 -143.9 -225.77 -301.54 -207.13z" />
    <glyph glyph-name="uni018F" unicode="&#x18f;" horiz-adv-x="736" 
d="M353.16 655c200.19 0 335.29 -149.259 335.29 -333.509s-136.54 -333.5 -328.26 -333.5c-186.73 0 -312.91 130.68 -312.91 323.649v58.6396h493.57c-18.5898 90.4902 -87.1602 158.84 -187.69 158.84c-62.1396 0 -109.3 -21.4102 -147.14 -64.9404l-106.42 81.9297
c57.1602 68.6104 147.25 108.891 253.56 108.891zM360.189 107.102c97 0 164.251 68.7695 181.421 163.38h-351.39c11.0996 -98.6797 74.1992 -163.38 169.969 -163.38z" />
    <glyph glyph-name="T" unicode="T" horiz-adv-x="526" 
d="M518.66 640l0.000976562 -121.68h-182.69v-518.32h-146v518.32h-182.69v121.68h511.38z" />
    <glyph glyph-name="Tbar" unicode="&#x166;" horiz-adv-x="526" 
d="M518.66 518.32h-182.689v-166.21h87.7002v-60.2305h-87.7002v-291.89h-146v291.89h-87.7002v60.2305h87.7002v166.21h-182.69v121.68h511.38v-121.68z" />
    <glyph glyph-name="Tcaron" unicode="&#x164;" horiz-adv-x="526" 
d="M316.71 690.3h-107.471l-112.02 119.74h70.04c28.3799 0 36.8096 -6.86035 60.3398 -29.7207l35.3604 -34.5195l35.0195 34.1299c23.9102 23.1699 32.2705 30.1104 60.6504 30.1104h70.04zM518.659 640l0.000976562 -121.68h-182.69v-518.32h-146v518.32h-182.69v121.68
h511.38z" />
    <glyph glyph-name="uni0162" unicode="&#x162;" horiz-adv-x="526" 
d="M335.97 0l-38.2275 -0.00976562l-37.5703 -43.0195s15.4297 9.44043 46.96 4.44043c30.5098 -4.7002 70.6396 -27.79 69.5498 -77.4902c-1.04004 -47.54 -45.9199 -80.1396 -111.41 -82.8301c-73.3301 -3.66992 -119.771 21.3701 -119.771 21.3701l26.4805 52.2305
s34.6299 -17.8799 73.5801 -17.7803c33.8896 -0.110352 44.4697 16.8701 43.8799 32.6797c-1.11035 27.9102 -48.1504 31.6797 -76.04 17.2793l-35.21 28.3604l48.8096 64.7695h-37.0303v518.32h-182.69v121.68h511.38v-121.68h-182.69v-518.32z" />
    <glyph glyph-name="uni1E70" unicode="&#x1e70;" horiz-adv-x="526" 
d="M518.66 640l0.000976562 -121.68h-182.69v-518.32h-146v518.32h-182.69v121.68h511.38zM209.211 -49.29h107.471l112.02 -119.74h-70.04c-28.3799 0 -36.8096 6.86035 -60.3398 29.7207l-35.3604 34.5195l-35.0195 -34.1299
c-23.9102 -23.1699 -32.2705 -30.1104 -60.6504 -30.1104h-70.04z" />
    <glyph glyph-name="uni021A" unicode="&#x21a;" horiz-adv-x="526" 
d="M518.66 640l0.000976562 -121.68h-182.69v-518.32h-146v518.32h-182.69v121.68h511.38zM263.131 -57.3799c42.7305 -4.2998 64.4707 -41.8096 60.2402 -84.8398c-5.49023 -54.71 -45.7402 -109.53 -110.32 -132.32l-16.4502 42.5703
c31.9902 14.8398 53.0703 38.1602 57.04 64.1299c-32.2305 -3.58984 -60.6406 21.6904 -57.2002 57.6406c3.45996 33.8496 30.6104 56.3896 66.6904 52.8193z" />
    <glyph glyph-name="uni1E6C" unicode="&#x1e6c;" horiz-adv-x="526" 
d="M518.66 640l0.000976562 -121.68h-182.69v-518.32h-146v518.32h-182.69v121.68h511.38zM263.671 -56.4492c38.6797 0 70.04 -30.3604 70.04 -67.8105s-31.3604 -67.8105 -70.04 -67.8105s-70.04 30.3604 -70.04 67.8105s31.3604 67.8105 70.04 67.8105z" />
    <glyph glyph-name="uni1E6E" unicode="&#x1e6e;" horiz-adv-x="526" 
d="M518.66 640l0.000976562 -121.68h-182.69v-518.32h-146v518.32h-182.69v121.68h511.38zM109.431 -141.699v66.9404h307.09v-66.9404h-307.09z" />
    <glyph glyph-name="U" unicode="U" horiz-adv-x="711" 
d="M355.71 -14.4902c-166.22 0 -283.43 81.3096 -283.43 264.819v389.67h146v-372.6c0 -108.02 57.04 -152.6 137.43 -152.6s137.43 44.5801 137.43 152.6v372.6h146v-389.67c0 -183.51 -117.21 -264.819 -283.43 -264.819z" />
    <glyph glyph-name="Uacute" unicode="&#xda;" horiz-adv-x="711" 
d="M417.21 742.43c-47.1797 -49.1504 -74.2197 -52.4395 -111.22 -52.4395h-40.9102l133.65 164.15l109.26 -17.7305zM355.71 -14.499c-166.22 0 -283.43 81.3096 -283.43 264.819v389.67h146v-372.6c0 -108.02 57.04 -152.6 137.43 -152.6s137.43 44.5801 137.43 152.6
v372.6h146v-389.67c0 -183.51 -117.21 -264.819 -283.43 -264.819z" />
    <glyph glyph-name="uni0244" unicode="&#x244;" horiz-adv-x="711" 
d="M493.15 640h146.009v-389.67c0 -183.51 -117.21 -264.819 -283.43 -264.819s-283.439 81.3096 -283.439 264.819v389.67h146v-103.2h274.86v103.2zM355.729 114.79c80.3896 0 137.431 44.5801 137.431 152.6v194.98h-274.86v-194.98
c0 -108.02 57.04 -152.6 137.43 -152.6z" />
    <glyph glyph-name="Ubreve" unicode="&#x16c;" horiz-adv-x="711" 
d="M355.71 690c-100.41 0 -154.26 47.8799 -156.49 119.75h70.9404c4.16016 -30.0098 30.7002 -55.2598 85.5498 -55.2598s81.3896 25.25 85.5498 55.25h70.9404c-2.23047 -71.8701 -56.0801 -119.74 -156.49 -119.74zM355.71 -14.4805
c-166.22 0 -283.43 81.3096 -283.43 264.819v389.67h146v-372.6c0 -108.02 57.04 -152.6 137.43 -152.6s137.43 44.5801 137.43 152.6v372.6h146v-389.67c0 -183.51 -117.21 -264.819 -283.43 -264.819z" />
    <glyph glyph-name="uni01D3" unicode="&#x1d3;" horiz-adv-x="711" 
d="M409.45 690.3h-107.471l-112.02 119.74h70.04c28.3799 0 36.8096 -6.86035 60.3398 -29.7207l35.3604 -34.5195l35.0195 34.1299c23.9102 23.1699 32.2705 30.1104 60.6504 30.1104h70.04zM493.149 640h146.01v-389.67c0 -183.51 -117.21 -264.819 -283.43 -264.819
s-283.439 81.3096 -283.439 264.819v389.67h146v-372.6c0 -108.02 57.04 -152.6 137.43 -152.6s137.43 44.5801 137.43 152.6v372.6z" />
    <glyph glyph-name="Ucircumflex" unicode="&#xdb;" horiz-adv-x="711" 
d="M319.43 720.27c-23.9102 -23.1699 -32.2598 -30.1104 -60.6396 -30.1104h-70.04l111.96 119.74h107.47l112.01 -119.74h-70.04c-28.3799 0 -36.8096 6.86035 -60.3398 29.7207l-35.3604 34.5195zM493.15 640h146.01v-389.67c0 -183.51 -117.21 -264.819 -283.43 -264.819
s-283.439 81.3096 -283.439 264.819v389.67h146v-372.6c0 -108.02 57.04 -152.6 137.43 -152.6s137.43 44.5801 137.43 152.6v372.6z" />
    <glyph glyph-name="Udieresis" unicode="&#xdc;" horiz-adv-x="711" 
d="M252.84 822.53c33.9902 0 61.9102 -27.9707 61.9102 -61.7705c0 -35 -27.9199 -62.9805 -61.9102 -62.9805c-34 0 -60.71 27.9805 -60.71 62.9609c0 33.8096 26.71 61.79 60.71 61.79zM457.84 822.54c33.9902 0 61.9102 -27.9707 61.9102 -61.7705
c0 -35 -27.9199 -62.9805 -61.9102 -62.9805c-34 0 -60.71 27.9805 -60.71 62.9609c0 33.8096 26.71 61.79 60.71 61.79zM355.71 -14.4697c-166.22 0 -283.43 81.3096 -283.43 264.819v389.67h146v-372.6c0 -108.02 57.04 -152.6 137.43 -152.6s137.43 44.5801 137.43 152.6
v372.6h146v-389.67c0 -183.51 -117.21 -264.819 -283.43 -264.819z" />
    <glyph glyph-name="uni01D7" unicode="&#x1d7;" horiz-adv-x="711" 
d="M303.49 829.48l100.721 133.561l97.9199 -18.4902l-90.1201 -93.0703c-17 -17.5195 -37.71 -22 -70.29 -22h-38.2305zM252.631 812.451c33.9805 0 61.9004 -27.9707 61.9004 -61.7705c0 -35 -27.9199 -62.9805 -61.9004 -62.9805c-34 0 -60.71 27.9805 -60.71 62.9609
c0 33.8096 26.71 61.79 60.71 61.79zM457.631 812.461c33.9902 0 61.9102 -27.9707 61.9102 -61.7705c0 -35 -27.9199 -62.9805 -61.9102 -62.9805c-34 0 -60.71 27.9805 -60.71 62.9609c0 33.8096 26.71 61.79 60.71 61.79zM355.73 -14.459
c-166.22 0 -283.43 81.3096 -283.43 264.819v389.67h146v-372.6c0 -108.02 57.04 -152.6 137.43 -152.6s137.43 44.5801 137.43 152.6v372.6h146v-389.67c0 -183.51 -117.21 -264.819 -283.43 -264.819z" />
    <glyph glyph-name="uni01D9" unicode="&#x1d9;" horiz-adv-x="711" 
d="M409.45 829.78h-107.471l-112.02 119.74h70.04c28.3799 0 36.8096 -6.86035 60.3398 -29.7207l35.3604 -34.5195l35.0195 34.1299c23.9102 23.1699 32.2705 30.1104 60.6504 30.1104h70.04zM252.609 812.44c33.9805 0 61.9004 -27.9707 61.9004 -61.7705
c0 -35 -27.9199 -62.9805 -61.9004 -62.9805c-34 0 -60.71 27.9805 -60.71 62.9609c0 33.8096 26.71 61.79 60.71 61.79zM396.909 750.65c0 33.8096 26.71 61.7998 60.71 61.7998c33.9902 0 61.9102 -27.9805 61.9102 -61.7803c0 -35 -27.9199 -62.9805 -61.9102 -62.9805
c-34 0 -60.71 27.9805 -60.71 62.9609zM493.14 640.021h146.01v-389.67c0 -183.51 -117.21 -264.819 -283.43 -264.819s-283.439 81.3096 -283.439 264.819v389.67h146v-372.6c0 -108.02 57.04 -152.6 137.43 -152.6s137.43 44.5801 137.43 152.6v372.6z" />
    <glyph glyph-name="uni01DB" unicode="&#x1db;" horiz-adv-x="711" 
d="M405.19 829.48l-38.21 -0.000976562c-32.5801 0 -53.29 4.48047 -70.29 22l-90.1201 93.0703l97.9199 18.4902zM252.631 812.439c33.9805 0 61.9004 -27.9707 61.9004 -61.7705c0 -35 -27.9199 -62.9805 -61.9004 -62.9805c-34 0 -60.71 27.9805 -60.71 62.9609
c0 33.8096 26.71 61.79 60.71 61.79zM457.631 812.449c33.9902 0 61.9102 -27.9707 61.9102 -61.7705c0 -35 -27.9199 -62.9805 -61.9102 -62.9805c-34 0 -60.71 27.9805 -60.71 62.9609c0 33.8096 26.71 61.79 60.71 61.79zM355.73 -14.4707
c-166.22 0 -283.43 81.3096 -283.43 264.819v389.67h146v-372.6c0 -108.02 57.04 -152.6 137.43 -152.6s137.43 44.5801 137.43 152.6v372.6h146v-389.67c0 -183.51 -117.21 -264.819 -283.43 -264.819z" />
    <glyph glyph-name="uni01D5" unicode="&#x1d5;" horiz-adv-x="711" 
d="M202.17 859.66v66.9404h307.1v-66.9404h-307.1zM252.61 812.44c33.9805 0 61.9004 -27.9707 61.9004 -61.7705c0 -35 -27.9199 -62.9805 -61.9004 -62.9805c-34 0 -60.71 27.9805 -60.71 62.9609c0 33.8096 26.71 61.79 60.71 61.79zM457.61 812.45
c33.9902 0 61.9102 -27.9707 61.9102 -61.7705c0 -35 -27.9199 -62.9805 -61.9102 -62.9805c-34 0 -60.71 27.9805 -60.71 62.9609c0 33.8096 26.71 61.79 60.71 61.79zM355.71 -14.4697c-166.22 0 -283.43 81.3096 -283.43 264.819v389.67h146v-372.6
c0 -108.02 57.04 -152.6 137.43 -152.6s137.43 44.5801 137.43 152.6v372.6h146v-389.67c0 -183.51 -117.21 -264.819 -283.43 -264.819z" />
    <glyph glyph-name="uni1EE4" unicode="&#x1ee4;" horiz-adv-x="711" 
d="M355.71 -14.4902c-166.22 0 -283.43 81.3096 -283.43 264.819v389.67h146v-372.6c0 -108.02 57.04 -152.6 137.43 -152.6s137.43 44.5801 137.43 152.6v372.6h146v-389.67c0 -183.51 -117.21 -264.819 -283.43 -264.819zM356.42 -192.061
c-38.6904 0 -70.04 30.3604 -70.04 67.8105s31.3604 67.8105 70.04 67.8105s70.04 -30.3604 70.04 -67.8105s-31.3604 -67.8105 -70.04 -67.8105z" />
    <glyph glyph-name="Ugrave" unicode="&#xd9;" horiz-adv-x="711" 
d="M310.8 742.43l-90.7803 93.9893l109.26 17.7305l133.65 -164.15h-40.9102c-37 0 -64.04 3.28027 -111.22 52.4307zM355.71 -14.4912c-166.22 0 -283.43 81.3096 -283.43 264.819v389.67h146v-372.6c0 -108.02 57.04 -152.6 137.43 -152.6s137.43 44.5801 137.43 152.6
v372.6h146v-389.67c0 -183.51 -117.21 -264.819 -283.43 -264.819z" />
    <glyph glyph-name="Uhungarumlaut" unicode="&#x170;" horiz-adv-x="711" 
d="M335.44 742.43c-47.1797 -49.1504 -74.2295 -52.4395 -111.229 -52.4395h-40.9102l133.66 164.15l109.26 -17.7305zM510.851 742.421c-47.1797 -49.1504 -74.2295 -52.4395 -111.229 -52.4395h-40.9102l133.66 164.15l109.26 -17.7305zM355.701 -14.5078
c-166.22 0 -283.43 81.3096 -283.43 264.819v389.67h146v-372.6c0 -108.02 57.04 -152.6 137.43 -152.6s137.43 44.5801 137.43 152.6v372.6h146v-389.67c0 -183.51 -117.21 -264.819 -283.43 -264.819z" />
    <glyph glyph-name="Umacron" unicode="&#x16a;" horiz-adv-x="711" 
d="M202.17 720.18v66.9404h307.1v-66.9404h-307.1zM355.72 -14.5c-166.22 0 -283.43 81.3096 -283.43 264.819v389.67h146v-372.6c0 -108.02 57.04 -152.6 137.43 -152.6s137.43 44.5801 137.43 152.6v372.6h146v-389.67c0 -183.51 -117.21 -264.819 -283.43 -264.819z" />
    <glyph glyph-name="Uogonek" unicode="&#x172;" horiz-adv-x="711" 
d="M493.15 640l146 -0.00976562v-389.67c0 -150.75 -79.0996 -232.54 -199.489 -256.93l-5.76953 -2.99023c-110.11 -56.1602 -91.5303 -150 8.87988 -109.43l22.5596 -58.3496c-71.0596 -40.1396 -156.68 -25.3496 -180.35 31.9199
c-19.4404 46.6504 0.229492 93.1602 49.749 131.42c-155.01 6.66992 -262.439 88.6895 -262.439 264.369v389.67h146v-372.6c0 -108.02 57.04 -152.6 137.43 -152.6s137.43 44.5801 137.43 152.6v372.6z" />
    <glyph glyph-name="Uring" unicode="&#x16e;" horiz-adv-x="711" 
d="M355.72 904.49c72.1504 0 124.29 -53.0195 124.29 -118.42s-52.1396 -118.41 -124.29 -118.41c-72.1396 0 -123.689 53.0098 -123.689 118.41s51.5498 118.42 123.689 118.42zM355.72 731.9c32.8496 0 55.8994 24.25 55.8994 54.1699s-23.0498 54.1699 -55.8994 54.1699
c-32.8301 0 -55.2998 -24.25 -55.2998 -54.1699s22.4697 -54.1699 55.2998 -54.1699zM355.72 -14.5c-166.22 0 -283.43 81.3096 -283.43 264.819v389.67h146v-372.6c0 -108.02 57.04 -152.6 137.43 -152.6s137.43 44.5801 137.43 152.6v372.6h146v-389.67
c0 -183.51 -117.21 -264.819 -283.43 -264.819z" />
    <glyph glyph-name="Utilde" unicode="&#x168;" horiz-adv-x="711" 
d="M419.52 692c-53.9199 0 -77.5195 44.0898 -118.729 44.0898c-29.96 0 -44.7998 -20.9805 -55.1797 -38.7305l-56.9297 37c18.2305 26.4102 45.1602 69.8301 102.86 69.8301c56.0596 0 81.9893 -44.7197 121.869 -44.7197c26.3896 0 40.8193 20.7197 51.0693 41.3398
l58.6504 -35.5098c-16.3496 -30.3701 -42.46 -73.2998 -103.61 -73.2998zM355.71 -14.5c-166.22 0 -283.43 81.3096 -283.43 264.819v389.67h146v-372.6c0 -108.02 57.04 -152.6 137.43 -152.6s137.43 44.5801 137.43 152.6v372.6h146v-389.67
c0 -183.51 -117.21 -264.819 -283.43 -264.819z" />
    <glyph glyph-name="V" unicode="V" horiz-adv-x="649" 
d="M492.07 640h159.601l-264.53 -640h-125.9l-263.96 640h159.6l167.58 -461.87z" />
    <glyph glyph-name="uni0245" unicode="&#x245;" horiz-adv-x="649" 
d="M651.68 0h-159.601l-167.61 461.87l-167.58 -461.87h-159.6l263.96 640h125.9z" />
    <glyph glyph-name="W" unicode="W" horiz-adv-x="939" 
d="M777.1 640h154.382l-209.48 -640h-130.69l-121.92 410.68l-121.92 -410.68h-130.69l-209.48 640h154.36l126.65 -442.08l121.27 442.08h119.6l121.27 -442.08z" />
    <glyph glyph-name="Wacute" unicode="&#x1e82;" horiz-adv-x="939" 
d="M530.87 742.43c-47.1797 -49.1504 -74.2197 -52.4395 -111.22 -52.4395h-40.9102l133.65 164.15l109.26 -17.7305zM777.101 639.991h154.382l-209.48 -640h-130.69l-121.92 410.68l-121.92 -410.68h-130.69l-209.48 640h154.36l126.65 -442.08l121.27 442.08h119.6
l121.27 -442.08z" />
    <glyph glyph-name="Wcircumflex" unicode="&#x174;" horiz-adv-x="939" 
d="M433.09 720.27c-23.9102 -23.1699 -32.2598 -30.1104 -60.6396 -30.1104h-70.04l111.96 119.74h107.47l112.01 -119.74h-70.04c-28.3799 0 -36.8096 6.86035 -60.3398 29.7207l-35.3604 34.5195zM777.11 640h154.382l-209.48 -640h-130.69l-121.92 410.68
l-121.92 -410.68h-130.69l-209.48 640h154.36l126.65 -442.08l121.27 442.08h119.6l121.27 -442.08z" />
    <glyph glyph-name="Wdieresis" unicode="&#x1e84;" horiz-adv-x="939" 
d="M366.49 697.77c-34 0 -60.71 27.9902 -60.71 62.9707c0 33.8096 26.71 61.79 60.71 61.79c33.9805 0 61.9004 -27.9805 61.9004 -61.7803c0 -35 -27.9199 -62.9805 -61.9004 -62.9805zM571.49 697.779c-34 0 -60.71 27.9902 -60.71 62.9707
c0 33.8096 26.71 61.79 60.71 61.79c33.9805 0 61.9004 -27.9805 61.9004 -61.7803c0 -35 -27.9199 -62.9805 -61.9004 -62.9805zM777.09 640.02h154.382l-209.48 -640h-130.69l-121.92 410.68l-121.92 -410.68h-130.69l-209.48 640h154.36l126.65 -442.08l121.27 442.08
h119.6l121.27 -442.08z" />
    <glyph glyph-name="Wgrave" unicode="&#x1e80;" horiz-adv-x="939" 
d="M535.68 690c-37 0 -64.0498 3.28906 -111.229 52.4395l-90.7803 93.9805l109.26 17.7305l133.66 -164.15h-40.9102zM777.08 640.009h154.382l-209.48 -640h-130.69l-121.92 410.68l-121.92 -410.68h-130.69l-209.48 640h154.36l126.65 -442.08l121.27 442.08h119.6
l121.27 -442.08z" />
    <glyph glyph-name="X" unicode="X" horiz-adv-x="669" 
d="M651.8 0h-180.641l-136.62 220.71l-136.62 -220.71h-180.64l225.69 327.98l-209.09 312.02h171.89l128.88 -206.21l129.42 206.21h171.13l-209.09 -312.02z" />
    <glyph glyph-name="Y" unicode="Y" horiz-adv-x="578" 
d="M591.1 640l-229.13 -349.69v-290.31h-146v292l-228.69 348h165.6l136.08 -216.29l137.16 216.29h164.98z" />
    <glyph glyph-name="Yacute" unicode="&#xdd;" horiz-adv-x="578" 
d="M350.69 742.43c-47.1797 -49.1504 -74.2197 -52.4395 -111.22 -52.4395h-40.9102l133.65 164.15l109.26 -17.7305zM591.101 639.991l-229.13 -349.69v-290.31h-146v292l-228.69 348h165.6l136.08 -216.29l137.16 216.29h164.98z" />
    <glyph glyph-name="Ycircumflex" unicode="&#x176;" horiz-adv-x="578" 
d="M252.91 720.27c-23.9102 -23.1699 -32.2598 -30.1104 -60.6396 -30.1104h-70.04l111.96 119.74h107.47l112.01 -119.74h-70.04c-28.3799 0 -36.8096 6.86035 -60.3398 29.7207l-35.3604 34.5195zM591.111 640l-229.13 -349.69v-290.31h-146v292l-228.69 348h165.6
l136.08 -216.29l137.16 216.29h164.98z" />
    <glyph glyph-name="Ydieresis" unicode="&#x178;" horiz-adv-x="578" 
d="M186.32 697.77c-34 0 -60.71 27.9902 -60.71 62.9707c0 33.8096 26.71 61.79 60.71 61.79c33.9902 0 61.9102 -27.9805 61.9102 -61.7803c0 -35 -27.9199 -62.9805 -61.9102 -62.9805zM391.32 697.779c-34 0 -60.71 27.9902 -60.71 62.9707
c0 33.8096 26.71 61.79 60.71 61.79c33.9902 0 61.9102 -27.9805 61.9102 -61.7803c0 -35 -27.9199 -62.9805 -61.9102 -62.9805zM591.101 640.02l-229.13 -349.69v-290.31h-146v292l-228.69 348h165.6l136.08 -216.29l137.16 216.29h164.98z" />
    <glyph glyph-name="uni1EF4" unicode="&#x1ef4;" horiz-adv-x="578" 
d="M591.1 640l-229.13 -349.69v-290.31h-146v292l-228.69 348h165.6l136.08 -216.29l137.16 216.29h164.98zM289.89 -56.4502c38.6797 0 70.04 -30.3604 70.04 -67.8105s-31.3604 -67.8105 -70.04 -67.8105c-38.6904 0 -70.0508 30.3604 -70.0508 67.8105
s31.3604 67.8105 70.0508 67.8105z" />
    <glyph glyph-name="Ygrave" unicode="&#x1ef2;" horiz-adv-x="578" 
d="M355.51 690c-37 0 -64.04 3.28906 -111.22 52.4395l-90.7803 93.9805l109.26 17.7305l133.65 -164.15h-40.9102zM591.109 640.009l-229.13 -349.69v-290.31h-146v292l-228.69 348h165.6l136.08 -216.29l137.16 216.29h164.98z" />
    <glyph glyph-name="uni0232" unicode="&#x232;" horiz-adv-x="578" 
d="M442.74 787.13v-66.9404h-307.09v66.9404h307.09zM591.101 640.01l-229.13 -349.69v-290.31h-146v292l-228.69 348h165.6l136.08 -216.29l137.16 216.29h164.98z" />
    <glyph glyph-name="uni1EF8" unicode="&#x1ef8;" horiz-adv-x="578" 
d="M234.26 736.1c-29.96 0 -44.7998 -20.9902 -55.1797 -38.7402l-56.9297 37c18.2305 26.4102 45.1602 69.8301 102.86 69.8301c56.0596 0 81.9893 -44.7197 121.869 -44.7197c26.3896 0 40.8193 20.7197 51.0693 41.3398l58.6504 -35.5098
c-16.3398 -30.3701 -42.4502 -73.2998 -103.601 -73.2998c-53.9199 0 -77.5195 44.0996 -118.739 44.0996zM591.1 639.99l-229.13 -349.69v-290.31h-146v292l-228.69 348h165.6l136.08 -216.29l137.16 216.29h164.98z" />
    <glyph glyph-name="Z" unicode="Z" horiz-adv-x="578" 
d="M231.68 124.79l298.82 0.00976562v-124.79h-483.21v107.8l286.3 407.4h-268.43v124.79h451v-103.15z" />
    <glyph glyph-name="Zacute" unicode="&#x179;" horiz-adv-x="578" 
d="M349.57 742.43c-47.1797 -49.1504 -74.2295 -52.4395 -111.229 -52.4395h-40.9102l133.66 164.15l109.26 -17.7305zM231.671 124.781l298.82 0.00976562v-124.79h-483.21v107.8l286.3 407.4h-268.43v124.79h451v-103.15z" />
    <glyph glyph-name="Zcaron" unicode="&#x17d;" horiz-adv-x="578" 
d="M341.81 690.3h-107.471l-112.02 119.74h70.04c28.3799 0 36.8096 -6.86035 60.3398 -29.7207l35.3604 -34.5195l35.0195 34.1299c23.9102 23.1699 32.2705 30.1104 60.6504 30.1104h70.04zM231.679 124.79l298.82 0.00976562v-124.79h-483.21v107.8l286.3 407.4h-268.43
v124.79h451v-103.15z" />
    <glyph glyph-name="Zdotaccent" unicode="&#x17b;" horiz-adv-x="578" 
d="M288.78 695.17c-38.6797 0 -70.04 30.3604 -70.04 67.8105s31.3604 67.8105 70.04 67.8105s70.04 -30.3604 70.04 -67.8105s-31.3604 -67.8105 -70.04 -67.8105zM231.681 124.79l298.82 0.00976562v-124.79h-483.21v107.8l286.3 407.4h-268.43v124.79h451v-103.15z" />
    <glyph glyph-name="uni1E92" unicode="&#x1e92;" horiz-adv-x="578" 
d="M231.68 124.79l298.82 0.00976562v-124.79h-483.21v107.8l286.3 407.4h-268.43v124.79h451v-103.15zM288.79 -56.4502c38.6797 0 70.04 -30.3604 70.04 -67.8105s-31.3604 -67.8105 -70.04 -67.8105s-70.04 30.3604 -70.04 67.8105s31.3604 67.8105 70.04 67.8105z" />
    <glyph glyph-name="a" unicode="a" horiz-adv-x="526" 
d="M183.5 -12c-86.4805 0 -156.188 48.5889 -156.188 137.659c0 105.11 99.8604 180.11 289.37 142.181l15.7305 -3.33008v20.25c0 59.6797 -41.6699 87.9297 -93.9004 88.04c-43.3203 0.0996094 -74.1006 -12.04 -107.301 -37.4502l-54.0898 85.6504
c48.2598 35.2803 110.14 53.4502 174.979 53.4502c126.08 0 216.26 -54.9102 216.26 -207.97v-266.48h-118.42l-17.7402 55.9102c-33.1299 -46.1797 -91.5801 -67.9102 -148.7 -67.9102zM237.372 76.2988c53.5996 0 94.8701 38.3291 94.8701 105.149v16.8604
l-8.50977 1.4502c-109.73 19.5703 -155.641 -14.9102 -155.641 -65.5098c0 -36.5703 27.3203 -57.9502 69.2803 -57.9502z" />
    <glyph glyph-name="aacute" unicode="&#xe1;" horiz-adv-x="526" 
d="M323.58 594.89c-47.1797 -49.1504 -74.2295 -52.4297 -111.229 -52.4297h-40.9102l133.66 164.15l109.26 -17.7402zM183.48 -11.999c-86.4805 0 -156.188 48.5889 -156.188 137.659c0 105.11 99.8604 180.11 289.37 142.181l15.7305 -3.33008v20.25
c0 59.6797 -41.6699 87.9297 -93.9004 88.04c-43.3203 0.0996094 -74.1006 -12.04 -107.301 -37.4502l-54.0898 85.6504c48.2598 35.2803 110.14 53.4502 174.979 53.4502c126.08 0 216.26 -54.9102 216.26 -207.97v-266.48h-118.42l-17.7402 55.9102
c-33.1299 -46.1797 -91.5801 -67.9102 -148.7 -67.9102zM237.353 76.2998c53.5996 0 94.8701 38.3291 94.8701 105.149v16.8604l-8.50977 1.4502c-109.73 19.5703 -155.641 -14.9102 -155.641 -65.5098c0 -36.5703 27.3203 -57.9502 69.2803 -57.9502z" />
    <glyph glyph-name="abreve" unicode="&#x103;" horiz-adv-x="526" 
d="M262.09 542.45c-100.41 0 -154.26 47.8799 -156.49 119.75h70.9404c4.16016 -30.0098 30.7002 -55.2598 85.5498 -55.2598s81.3896 25.25 85.5498 55.25h70.9404c-2.23047 -71.8701 -56.0801 -119.74 -156.49 -119.74zM183.5 -11.9902
c-86.4805 0 -156.188 48.5889 -156.188 137.659c0 105.11 99.8604 180.11 289.37 142.181l15.7305 -3.33008v20.25c0 59.6797 -41.6699 87.9297 -93.9004 88.04c-43.3203 0.0996094 -74.1006 -12.04 -107.301 -37.4502l-54.0898 85.6504
c48.2598 35.2803 110.14 53.4502 174.979 53.4502c126.08 0 216.26 -54.9102 216.26 -207.97v-266.48h-118.42l-17.7402 55.9102c-33.1299 -46.1797 -91.5801 -67.9102 -148.7 -67.9102zM237.372 76.3086c53.5996 0 94.8701 38.3291 94.8701 105.149v16.8604
l-8.50977 1.4502c-109.73 19.5703 -155.641 -14.9102 -155.641 -65.5098c0 -36.5703 27.3203 -57.9502 69.2803 -57.9502z" />
    <glyph glyph-name="uni1EAF" unicode="&#x1eaf;" horiz-adv-x="526" 
d="M209.86 665.48l100.721 133.561l97.9199 -18.4902l-90.1201 -93.0703c-17 -17.5195 -37.71 -22 -70.29 -22h-38.2305zM262.111 542.461c-100.41 0 -154.26 47.8799 -156.49 119.75h70.9404c4.16016 -30.0098 30.7002 -55.2598 85.5498 -55.2598
s81.3896 25.25 85.5498 55.25h70.9404c-2.23047 -71.8701 -56.0801 -119.74 -156.49 -119.74zM183.521 -11.9795c-86.4805 0 -156.188 48.5889 -156.188 137.659c0 105.11 99.8604 180.11 289.37 142.181l15.7305 -3.33008v20.25c0 59.6797 -41.6699 87.9297 -93.9004 88.04
c-43.3203 0.0996094 -74.1006 -12.04 -107.301 -37.4502l-54.0898 85.6504c48.2598 35.2803 110.14 53.4502 174.979 53.4502c126.08 0 216.26 -54.9102 216.26 -207.97v-266.48h-118.42l-17.7402 55.9102c-33.1299 -46.1797 -91.5801 -67.9102 -148.7 -67.9102z
M237.394 76.3193c53.5996 0 94.8701 38.3291 94.8701 105.149v16.8604l-8.50977 1.4502c-109.73 19.5703 -155.641 -14.9102 -155.641 -65.5098c0 -36.5703 27.3203 -57.9502 69.2803 -57.9502z" />
    <glyph glyph-name="uni1EB7" unicode="&#x1eb7;" horiz-adv-x="526" 
d="M262.09 542.45c-100.41 0 -154.26 47.8799 -156.49 119.75h70.9404c4.16016 -30.0098 30.7002 -55.2598 85.5498 -55.2598s81.3896 25.25 85.5498 55.25h70.9404c-2.23047 -71.8701 -56.0801 -119.74 -156.49 -119.74zM183.5 -11.9902
c-86.4805 0 -156.188 48.5889 -156.188 137.659c0 105.11 99.8604 180.11 289.37 142.181l15.7305 -3.33008v20.25c0 59.6797 -41.6699 87.9297 -93.9004 88.04c-43.3203 0.0996094 -74.1006 -12.04 -107.301 -37.4502l-54.0898 85.6504
c48.2598 35.2803 110.14 53.4502 174.979 53.4502c126.08 0 216.26 -54.9102 216.26 -207.97v-266.48h-118.42l-17.7402 55.9102c-33.1299 -46.1797 -91.5801 -67.9102 -148.7 -67.9102zM237.372 76.3086c53.5996 0 94.8701 38.3291 94.8701 105.149v16.8604
l-8.50977 1.4502c-109.73 19.5703 -155.641 -14.9102 -155.641 -65.5098c0 -36.5703 27.3203 -57.9502 69.2803 -57.9502zM262.833 -192.042c-38.6904 0 -70.04 30.3604 -70.04 67.8105s31.3604 67.8105 70.04 67.8105s70.04 -30.3604 70.04 -67.8105
s-31.3604 -67.8105 -70.04 -67.8105z" />
    <glyph glyph-name="uni1EB1" unicode="&#x1eb1;" horiz-adv-x="526" 
d="M311.56 665.48l-38.21 -0.000976562c-32.5801 0 -53.29 4.48047 -70.29 22l-90.1201 93.0703l97.9199 18.4902zM262.109 542.449c-100.41 0 -154.26 47.8799 -156.49 119.75h70.9404c4.16016 -30.0098 30.7002 -55.2598 85.5498 -55.2598s81.3896 25.25 85.5498 55.25
h70.9404c-2.23047 -71.8701 -56.0801 -119.74 -156.49 -119.74zM183.52 -11.9912c-86.4805 0 -156.188 48.5889 -156.188 137.659c0 105.11 99.8604 180.11 289.37 142.181l15.7305 -3.33008v20.25c0 59.6797 -41.6699 87.9297 -93.9004 88.04
c-43.3203 0.0996094 -74.1006 -12.04 -107.301 -37.4502l-54.0898 85.6504c48.2598 35.2803 110.14 53.4502 174.979 53.4502c126.08 0 216.26 -54.9102 216.26 -207.97v-266.48h-118.42l-17.7402 55.9102c-33.1299 -46.1797 -91.5801 -67.9102 -148.7 -67.9102z
M237.392 76.3076c53.5996 0 94.8701 38.3291 94.8701 105.149v16.8604l-8.50977 1.4502c-109.73 19.5703 -155.641 -14.9102 -155.641 -65.5098c0 -36.5703 27.3203 -57.9502 69.2803 -57.9502z" />
    <glyph glyph-name="uni1EB5" unicode="&#x1eb5;" horiz-adv-x="526" 
d="M327.33 696.1c-53.9199 0 -77.5303 44.0898 -118.75 44.0898c-29.96 0 -44.7998 -20.9805 -55.1797 -38.7305l-56.9297 37c18.2402 26.4102 45.1699 69.8301 102.87 69.8301c56.0596 0 82 -44.7197 121.88 -44.7197c26.3896 0 40.8193 20.7197 51.0693 41.3398
l58.6504 -35.5098c-16.3496 -30.3701 -42.46 -73.2998 -103.61 -73.2998zM262.079 542.439c-100.41 0 -154.26 47.8799 -156.49 119.75h70.9404c4.16016 -30.0098 30.7002 -55.2598 85.5498 -55.2598s81.3896 25.25 85.5498 55.25h70.9404
c-2.23047 -71.8701 -56.0801 -119.74 -156.49 -119.74zM183.489 -12.001c-86.4805 0 -156.188 48.5889 -156.188 137.659c0 105.11 99.8604 180.11 289.37 142.181l15.7305 -3.33008v20.25c0 59.6797 -41.6699 87.9297 -93.9004 88.04
c-43.3203 0.0996094 -74.1006 -12.04 -107.301 -37.4502l-54.0898 85.6504c48.2598 35.2803 110.14 53.4502 174.979 53.4502c126.08 0 216.26 -54.9102 216.26 -207.97v-266.48h-118.42l-17.7402 55.9102c-33.1299 -46.1797 -91.5801 -67.9102 -148.7 -67.9102z
M237.361 76.2979c53.5996 0 94.8701 38.3291 94.8701 105.149v16.8604l-8.50977 1.4502c-109.73 19.5703 -155.641 -14.9102 -155.641 -65.5098c0 -36.5703 27.3203 -57.9502 69.2803 -57.9502z" />
    <glyph glyph-name="uni01CE" unicode="&#x1ce;" horiz-adv-x="526" 
d="M315.83 542.76h-107.471l-112.02 119.74h70.04c28.3799 0 36.8096 -6.86035 60.3398 -29.7207l35.3604 -34.5195l35.0195 34.1299c23.9102 23.1699 32.2705 30.1104 60.6504 30.1104h70.04zM252.1 474.46c126.08 0 216.292 -54.9014 216.292 -207.961v-266.48h-118.42
l-17.7402 55.9102c-33.1299 -46.1797 -91.5801 -67.9102 -148.7 -67.9102c-86.4805 0 -156.221 48.5801 -156.221 137.65c0 105.11 99.8604 180.11 289.37 142.181l15.7305 -3.33008v20.25c0 59.6797 -41.6699 87.9297 -93.9004 88.04
c-43.3203 0.0996094 -74.1006 -12.04 -107.301 -37.4502l-54.0898 85.6504c48.2598 35.2803 110.14 53.4502 174.979 53.4502zM332.242 181.459l0.0107422 16.8594l-8.50977 1.4502c-109.73 19.5703 -155.641 -14.9102 -155.641 -65.5098
c0 -36.5703 27.3203 -57.9502 69.2803 -57.9502c53.5996 0 94.8594 38.3301 94.8594 105.15z" />
    <glyph glyph-name="acircumflex" unicode="&#xe2;" horiz-adv-x="526" 
d="M225.8 572.73c-23.9102 -23.1699 -32.2598 -30.1104 -60.6396 -30.1104h-70.04l111.96 119.74h107.47l112.01 -119.74h-70.04c-28.3799 0 -36.8096 6.86035 -60.3398 29.7207l-35.3604 34.5195zM252.101 474.461c126.08 0 216.292 -54.9014 216.292 -207.961v-266.48
h-118.42l-17.7402 55.9102c-33.1299 -46.1797 -91.5801 -67.9102 -148.7 -67.9102c-86.4805 0 -156.221 48.5801 -156.221 137.65c0 105.11 99.8604 180.11 289.37 142.181l15.7305 -3.33008v20.25c0 59.6797 -41.6699 87.9297 -93.9004 88.04
c-43.3203 0.0996094 -74.1006 -12.04 -107.301 -37.4502l-54.0898 85.6504c48.2598 35.2803 110.14 53.4502 174.979 53.4502zM332.243 181.46l0.0107422 16.8594l-8.50977 1.4502c-109.73 19.5703 -155.641 -14.9102 -155.641 -65.5098
c0 -36.5703 27.3203 -57.9502 69.2803 -57.9502c53.5996 0 94.8594 38.3301 94.8594 105.15z" />
    <glyph glyph-name="uni1EA5" unicode="&#x1ea5;" horiz-adv-x="526" 
d="M492.45 738.31l97.9404 -18.4893l-90.1201 -93.0703c-17 -17.5195 -37.71 -22 -70.29 -22h-38.2305zM225.82 572.73c-23.9102 -23.1699 -32.2598 -30.1104 -60.6396 -30.1104h-70.04l111.96 119.74h107.47l112.01 -119.74h-70.04
c-28.3799 0 -36.8096 6.86035 -60.3398 29.7207l-35.3604 34.5195zM252.121 474.461c126.08 0 216.292 -54.9014 216.292 -207.961v-266.48h-118.42l-17.7402 55.9102c-33.1299 -46.1797 -91.5801 -67.9102 -148.7 -67.9102c-86.4805 0 -156.221 48.5801 -156.221 137.65
c0 105.11 99.8604 180.11 289.37 142.181l15.7305 -3.33008v20.25c0 59.6797 -41.6699 87.9297 -93.9004 88.04c-43.3203 0.0996094 -74.1006 -12.04 -107.301 -37.4502l-54.0898 85.6504c48.2598 35.2803 110.14 53.4502 174.979 53.4502zM332.264 181.46
l0.0107422 16.8594l-8.50977 1.4502c-109.73 19.5703 -155.641 -14.9102 -155.641 -65.5098c0 -36.5703 27.3203 -57.9502 69.2803 -57.9502c53.5996 0 94.8594 38.3301 94.8594 105.15z" />
    <glyph glyph-name="uni1EAD" unicode="&#x1ead;" horiz-adv-x="526" 
d="M225.8 572.73c-23.9102 -23.1699 -32.2598 -30.1104 -60.6396 -30.1104h-70.04l111.96 119.74h107.47l112.01 -119.74h-70.04c-28.3799 0 -36.8096 6.86035 -60.3398 29.7207l-35.3604 34.5195zM252.101 474.461c126.08 0 216.292 -54.9014 216.292 -207.961v-266.48
h-118.42l-17.7402 55.9102c-33.1299 -46.1797 -91.5801 -67.9102 -148.7 -67.9102c-86.4805 0 -156.221 48.5801 -156.221 137.65c0 105.11 99.8604 180.11 289.37 142.181l15.7305 -3.33008v20.25c0 59.6797 -41.6699 87.9297 -93.9004 88.04
c-43.3203 0.0996094 -74.1006 -12.04 -107.301 -37.4502l-54.0898 85.6504c48.2598 35.2803 110.14 53.4502 174.979 53.4502zM332.243 181.46l0.0107422 16.8594l-8.50977 1.4502c-109.73 19.5703 -155.641 -14.9102 -155.641 -65.5098
c0 -36.5703 27.3203 -57.9502 69.2803 -57.9502c53.5996 0 94.8594 38.3301 94.8594 105.15zM262.844 -56.4404c38.6797 0 70.0508 -30.3604 70.0508 -67.8105s-31.3604 -67.8105 -70.04 -67.8105c-38.6904 0 -70.0508 30.3604 -70.0508 67.8105
s31.3604 67.8105 70.04 67.8105z" />
    <glyph glyph-name="uni1EA7" unicode="&#x1ea7;" horiz-adv-x="526" 
d="M128.18 604.76l-38.2197 -0.000976562c-32.5801 0 -53.29 4.48047 -70.29 22l-90.1201 93.0703l97.9297 18.4902zM165.16 542.619h-70.0293l111.96 119.74h107.47l112.01 -119.74h-70.04c-28.3799 0 -36.8096 6.86035 -60.3398 29.7207l-35.3604 34.5195
l-35.0195 -34.1299c-23.9102 -23.1699 -32.2705 -30.1104 -60.6504 -30.1104zM252.101 474.459c126.08 0 216.292 -54.9014 216.292 -207.961v-266.48h-118.42l-17.7402 55.9102c-33.1299 -46.1797 -91.5801 -67.9102 -148.7 -67.9102
c-86.4805 0 -156.221 48.5801 -156.221 137.65c0 105.11 99.8604 180.11 289.37 142.181l15.7305 -3.33008v20.25c0 59.6797 -41.6699 87.9297 -93.9004 88.04c-43.3203 0.0996094 -74.1006 -12.04 -107.301 -37.4502l-54.0898 85.6504
c48.2598 35.2803 110.14 53.4502 174.979 53.4502zM332.243 181.458l0.0107422 16.8594l-8.50977 1.4502c-109.73 19.5703 -155.641 -14.9102 -155.641 -65.5098c0 -36.5703 27.3203 -57.9502 69.2803 -57.9502c53.5996 0 94.8594 38.3301 94.8594 105.15z" />
    <glyph glyph-name="uni1EAB" unicode="&#x1eab;" horiz-adv-x="526" 
d="M208.59 737.59c-29.96 0 -44.8096 -20.9805 -55.1895 -38.7402l-56.9297 37c18.2305 26.4102 45.1602 69.8301 102.86 69.8301c56.0596 0 81.9893 -44.7197 121.869 -44.7197c26.3896 0 40.8193 20.7197 51.0693 41.3398l58.6504 -35.5098
c-16.3398 -30.3701 -42.4502 -73.2998 -103.601 -73.2998c-53.9199 0 -77.5195 44.0996 -118.729 44.0996zM225.8 572.729c-23.9102 -23.1699 -32.2598 -30.1104 -60.6396 -30.1104h-70.04l111.96 119.74h107.47l112.01 -119.74h-70.04
c-28.3799 0 -36.8096 6.86035 -60.3398 29.7207l-35.3604 34.5195zM252.101 474.46c126.08 0 216.292 -54.9014 216.292 -207.961v-266.48h-118.42l-17.7402 55.9102c-33.1299 -46.1797 -91.5801 -67.9102 -148.7 -67.9102c-86.4805 0 -156.221 48.5801 -156.221 137.65
c0 105.11 99.8604 180.11 289.37 142.181l15.7305 -3.33008v20.25c0 59.6797 -41.6699 87.9297 -93.9004 88.04c-43.3203 0.0996094 -74.1006 -12.04 -107.301 -37.4502l-54.0898 85.6504c48.2598 35.2803 110.14 53.4502 174.979 53.4502zM332.243 181.459
l0.0107422 16.8594l-8.50977 1.4502c-109.73 19.5703 -155.641 -14.9102 -155.641 -65.5098c0 -36.5703 27.3203 -57.9502 69.2803 -57.9502c53.5996 0 94.8594 38.3301 94.8594 105.15z" />
    <glyph glyph-name="adieresis" unicode="&#xe4;" horiz-adv-x="526" 
d="M159.21 674.98c33.9902 0 61.9102 -27.9707 61.9102 -61.7705c0 -35 -27.9199 -62.9805 -61.9102 -62.9805c-34 0 -60.71 27.9805 -60.71 62.9609c0 33.8096 26.71 61.79 60.71 61.79zM364.21 674.99c33.9805 0 61.9004 -27.9707 61.9004 -61.7705
c0 -35 -27.9199 -62.9805 -61.9004 -62.9805c-34 0 -60.71 27.9805 -60.71 62.9609c0 33.8096 26.71 61.79 60.71 61.79zM183.49 -11.9805c-86.4805 0 -156.188 48.5889 -156.188 137.659c0 105.11 99.8604 180.11 289.37 142.181l15.7305 -3.33008v20.25
c0 59.6797 -41.6699 87.9297 -93.9004 88.04c-43.3203 0.0996094 -74.1006 -12.04 -107.301 -37.4502l-54.0898 85.6504c48.2598 35.2803 110.14 53.4502 174.979 53.4502c126.08 0 216.26 -54.9102 216.26 -207.97v-266.48h-118.42l-17.7402 55.9102
c-33.1299 -46.1797 -91.5801 -67.9102 -148.7 -67.9102zM237.362 76.3184c53.5996 0 94.8701 38.3291 94.8701 105.149v16.8604l-8.50977 1.4502c-109.73 19.5703 -155.641 -14.9102 -155.641 -65.5098c0 -36.5703 27.3203 -57.9502 69.2803 -57.9502z" />
    <glyph glyph-name="uni01DF" unicode="&#x1df;" horiz-adv-x="526" 
d="M108.54 733.57v66.9404h307.09v-66.9404h-307.09zM159.21 674.98c33.9902 0 61.9102 -27.9707 61.9102 -61.7705c0 -35 -27.9199 -62.9805 -61.9102 -62.9805c-34 0 -60.71 27.9805 -60.71 62.9609c0 33.8096 26.71 61.79 60.71 61.79zM364.21 674.99
c33.9805 0 61.9004 -27.9707 61.9004 -61.7705c0 -35 -27.9199 -62.9805 -61.9004 -62.9805c-34 0 -60.71 27.9805 -60.71 62.9609c0 33.8096 26.71 61.79 60.71 61.79zM183.49 -11.9805c-86.4805 0 -156.188 48.5889 -156.188 137.659
c0 105.11 99.8604 180.11 289.37 142.181l15.7305 -3.33008v20.25c0 59.6797 -41.6699 87.9297 -93.9004 88.04c-43.3203 0.0996094 -74.1006 -12.04 -107.301 -37.4502l-54.0898 85.6504c48.2598 35.2803 110.14 53.4502 174.979 53.4502
c126.08 0 216.26 -54.9102 216.26 -207.97v-266.48h-118.42l-17.7402 55.9102c-33.1299 -46.1797 -91.5801 -67.9102 -148.7 -67.9102zM237.362 76.3184c53.5996 0 94.8701 38.3291 94.8701 105.149v16.8604l-8.50977 1.4502
c-109.73 19.5703 -155.641 -14.9102 -155.641 -65.5098c0 -36.5703 27.3203 -57.9502 69.2803 -57.9502z" />
    <glyph glyph-name="uni1EA1" unicode="&#x1ea1;" horiz-adv-x="526" 
d="M183.5 -12c-86.4805 0 -156.188 48.5889 -156.188 137.659c0 105.11 99.8604 180.11 289.37 142.181l15.7305 -3.33008v20.25c0 59.6797 -41.6699 87.9297 -93.9004 88.04c-43.3203 0.0996094 -74.1006 -12.04 -107.301 -37.4502l-54.0898 85.6504
c48.2598 35.2803 110.14 53.4502 174.979 53.4502c126.08 0 216.26 -54.9102 216.26 -207.97v-266.48h-118.42l-17.7402 55.9102c-33.1299 -46.1797 -91.5801 -67.9102 -148.7 -67.9102zM237.372 76.2988c53.5996 0 94.8701 38.3291 94.8701 105.149v16.8604
l-8.50977 1.4502c-109.73 19.5703 -155.641 -14.9102 -155.641 -65.5098c0 -36.5703 27.3203 -57.9502 69.2803 -57.9502zM262.833 -192.052c-38.6904 0 -70.04 30.3604 -70.04 67.8105s31.3604 67.8105 70.04 67.8105s70.04 -30.3604 70.04 -67.8105
s-31.3604 -67.8105 -70.04 -67.8105z" />
    <glyph glyph-name="agrave" unicode="&#xe0;" horiz-adv-x="526" 
d="M217.17 594.89l-90.79 93.9795l109.26 17.7402l133.66 -164.15h-40.9102c-37 0 -64.04 3.28027 -111.22 52.4307zM183.479 -12.001c-86.4805 0 -156.188 48.5889 -156.188 137.659c0 105.11 99.8604 180.11 289.37 142.181l15.7305 -3.33008v20.25
c0 59.6797 -41.6699 87.9297 -93.9004 88.04c-43.3203 0.0996094 -74.1006 -12.04 -107.301 -37.4502l-54.0898 85.6504c48.2598 35.2803 110.14 53.4502 174.979 53.4502c126.08 0 216.26 -54.9102 216.26 -207.97v-266.48h-118.42l-17.7402 55.9102
c-33.1299 -46.1797 -91.5801 -67.9102 -148.7 -67.9102zM237.352 76.2979c53.5996 0 94.8701 38.3291 94.8701 105.149v16.8604l-8.50977 1.4502c-109.73 19.5703 -155.641 -14.9102 -155.641 -65.5098c0 -36.5703 27.3203 -57.9502 69.2803 -57.9502z" />
    <glyph glyph-name="uni0251" unicode="&#x251;" horiz-adv-x="544" 
d="M370.38 462.45l111.559 -0.0185547v-462.45h-112.19l-14.0996 51.8701c-30.8096 -39.54 -75.3096 -66.3604 -135.479 -66.3604c-108.47 0 -192.88 91.1299 -192.88 244.479s84.6396 244.479 192.88 244.479c60.1201 0 104.561 -26.9199 135.341 -66.4502z
M254.578 100.052c60.54 0 103.7 54 103.7 129.91s-43.1602 129.91 -103.7 129.91c-59.7002 0 -101.84 -54 -101.84 -129.91s42.1396 -129.91 101.84 -129.91z" />
    <glyph glyph-name="uni0252" unicode="&#x252;" horiz-adv-x="544" 
d="M324.05 474.45c108.24 0 192.878 -91.1113 192.878 -244.461s-84.4199 -244.479 -192.89 -244.479c-60.1699 0 -104.67 26.8203 -135.479 66.3604l-14.0996 -51.8701h-112.19v462.45h111.57l14.8701 -54.4502c30.7803 39.5303 75.2207 66.4502 135.341 66.4502z
M289.638 100.089c59.7002 0 101.84 54 101.84 129.91s-42.1396 129.91 -101.84 129.91c-60.54 0 -103.7 -54 -103.7 -129.91s43.1602 -129.91 103.7 -129.91z" />
    <glyph glyph-name="amacron" unicode="&#x101;" horiz-adv-x="526" 
d="M108.54 572.64v66.9404h307.09v-66.9404h-307.09zM183.5 -12c-86.4805 0 -156.188 48.5889 -156.188 137.659c0 105.11 99.8604 180.11 289.37 142.181l15.7305 -3.33008v20.25c0 59.6797 -41.6699 87.9297 -93.9004 88.04
c-43.3203 0.0996094 -74.1006 -12.04 -107.301 -37.4502l-54.0898 85.6504c48.2598 35.2803 110.14 53.4502 174.979 53.4502c126.08 0 216.26 -54.9102 216.26 -207.97v-266.48h-118.42l-17.7402 55.9102c-33.1299 -46.1797 -91.5801 -67.9102 -148.7 -67.9102z
M237.372 76.2988c53.5996 0 94.8701 38.3291 94.8701 105.149v16.8604l-8.50977 1.4502c-109.73 19.5703 -155.641 -14.9102 -155.641 -65.5098c0 -36.5703 27.3203 -57.9502 69.2803 -57.9502z" />
    <glyph glyph-name="aogonek" unicode="&#x105;" horiz-adv-x="526" 
d="M424.22 -9.58984c-110.11 -56.1602 -91.4883 -149.991 8.92188 -109.421l22.5596 -58.3496c-71.0596 -40.1396 -156.68 -25.3496 -180.35 31.9199c-22.3398 53.5996 6.9502 107.01 73.8301 147.93l-16.9502 53.4297c-33.1299 -46.1797 -91.5801 -67.9102 -148.7 -67.9102
c-86.4805 0 -156.221 48.5801 -156.221 137.65c0 105.11 99.8604 180.11 289.37 142.181l15.7305 -3.33008v20.25c0 59.6797 -41.6699 87.9297 -93.9004 88.04c-43.3203 0.0996094 -74.1006 -12.04 -107.301 -37.4502l-54.0898 85.6504
c48.2598 35.2803 110.14 53.4502 174.979 53.4502c126.08 0 216.26 -54.9102 216.26 -207.97v-266.48h-25.6201zM332.242 181.449l0.0107422 16.8594l-8.50977 1.4502c-109.73 19.5703 -155.641 -14.9102 -155.641 -65.5098c0 -36.5703 27.3203 -57.9502 69.2803 -57.9502
c53.5996 0 94.8594 38.3301 94.8594 105.15z" />
    <glyph glyph-name="aring" unicode="&#xe5;" horiz-adv-x="526" 
d="M262.1 756.95c72.1504 0 124.29 -53.0195 124.29 -118.42s-52.1396 -118.41 -124.29 -118.41c-72.1396 0 -123.689 53.0098 -123.689 118.41s51.5498 118.42 123.689 118.42zM262.1 584.36c32.8496 0 55.8994 24.25 55.8994 54.1699s-23.0498 54.1699 -55.8994 54.1699
c-32.8301 0 -55.2998 -24.25 -55.2998 -54.1699s22.4697 -54.1699 55.2998 -54.1699zM183.5 -12c-86.4805 0 -156.188 48.5889 -156.188 137.659c0 105.11 99.8604 180.11 289.37 142.181l15.7305 -3.33008v20.25c0 59.6797 -41.6699 87.9297 -93.9004 88.04
c-43.3203 0.0996094 -74.1006 -12.04 -107.301 -37.4502l-54.0898 85.6504c48.2598 35.2803 110.14 53.4502 174.979 53.4502c126.08 0 216.26 -54.9102 216.26 -207.97v-266.48h-118.42l-17.7402 55.9102c-33.1299 -46.1797 -91.5801 -67.9102 -148.7 -67.9102z
M237.372 76.2988c53.5996 0 94.8701 38.3291 94.8701 105.149v16.8604l-8.50977 1.4502c-109.73 19.5703 -155.641 -14.9102 -155.641 -65.5098c0 -36.5703 27.3203 -57.9502 69.2803 -57.9502z" />
    <glyph glyph-name="aringacute" unicode="&#x1fb;" horiz-adv-x="526" 
d="M209.86 782.96l100.711 133.561l97.9199 -18.4902l-90.1201 -93.0703c-17 -17.5195 -37.71 -22 -70.2803 -22h-38.2305zM262.102 756.95c72.1504 0 124.29 -53.0195 124.29 -118.42s-52.1396 -118.41 -124.29 -118.41c-72.1396 0 -123.689 53.0098 -123.689 118.41
s51.5498 118.42 123.689 118.42zM262.102 584.36c32.8496 0 55.8994 24.25 55.8994 54.1699s-23.0498 54.1699 -55.8994 54.1699c-32.8301 0 -55.2998 -24.25 -55.2998 -54.1699s22.4697 -54.1699 55.2998 -54.1699zM183.502 -12
c-86.4805 0 -156.188 48.5889 -156.188 137.659c0 105.11 99.8604 180.11 289.37 142.181l15.7305 -3.33008v20.25c0 59.6797 -41.6699 87.9297 -93.9004 88.04c-43.3203 0.0996094 -74.1006 -12.04 -107.301 -37.4502l-54.0898 85.6504
c48.2598 35.2803 110.14 53.4502 174.979 53.4502c126.08 0 216.26 -54.9102 216.26 -207.97v-266.48h-118.42l-17.7402 55.9102c-33.1299 -46.1797 -91.5801 -67.9102 -148.7 -67.9102zM237.374 76.2988c53.5996 0 94.8701 38.3291 94.8701 105.149v16.8604
l-8.50977 1.4502c-109.73 19.5703 -155.641 -14.9102 -155.641 -65.5098c0 -36.5703 27.3203 -57.9502 69.2803 -57.9502z" />
    <glyph glyph-name="atilde" unicode="&#xe3;" horiz-adv-x="526" 
d="M325.89 544.45c-53.9297 0 -77.5205 44.0898 -118.73 44.0898c-29.96 0 -44.7998 -20.9805 -55.1797 -38.7305l-56.9297 37c18.2305 26.4102 45.1602 69.8301 102.86 69.8301c56.0596 0 82 -44.7197 121.88 -44.7197c26.3896 0 40.8193 20.7197 51.0596 41.3398
l58.6504 -35.5098c-16.3496 -30.3701 -42.46 -73.2998 -103.61 -73.2998zM183.498 -12.0098c-86.4805 0 -156.188 48.5889 -156.188 137.659c0 105.11 99.8604 180.11 289.37 142.181l15.7305 -3.33008v20.25c0 59.6797 -41.6699 87.9297 -93.9004 88.04
c-43.3203 0.0996094 -74.1006 -12.04 -107.301 -37.4502l-54.0898 85.6504c48.2598 35.2803 110.14 53.4502 174.979 53.4502c126.08 0 216.26 -54.9102 216.26 -207.97v-266.48h-118.42l-17.7402 55.9102c-33.1299 -46.1797 -91.5801 -67.9102 -148.7 -67.9102z
M237.37 76.2891c53.5996 0 94.8701 38.3291 94.8701 105.149v16.8604l-8.50977 1.4502c-109.73 19.5703 -155.641 -14.9102 -155.641 -65.5098c0 -36.5703 27.3203 -57.9502 69.2803 -57.9502z" />
    <glyph glyph-name="uni0250" unicode="&#x250;" horiz-adv-x="526" 
d="M342.14 -12c-57.1201 0 -115.549 21.7217 -148.679 67.9014l-17.7402 -55.9102h-118.42v266.48c0 153.06 90.1797 207.97 216.26 207.97c64.8398 0 126.72 -18.1699 174.979 -53.4502l-54.0898 -85.6504c-33.2002 25.4102 -63.9697 37.5498 -107.29 37.4502
c-52.2305 -0.110352 -93.9004 -28.3604 -93.9004 -88.04v-20.25l15.7305 3.33008c189.51 37.9297 289.37 -37.0703 289.37 -142.181c0 -89.0703 -69.7402 -137.65 -156.221 -137.65zM288.321 76.2812c41.96 0 69.291 21.3809 69.291 57.9512
c0 50.5996 -45.9102 85.0801 -155.641 65.5098l-8.50977 -1.4502v-16.8604c0 -66.8203 41.2598 -105.15 94.8594 -105.15z" />
    <glyph glyph-name="ae" unicode="&#xe6;" horiz-adv-x="850" 
d="M827.24 230.04l0.0078125 -33.3633h-346.13c10.0303 -68.0801 51.0605 -110.92 120.131 -110.92c44.8398 0 76.6602 15.2998 103.38 43.7295l91.0703 -74.3496c-44.9297 -44.0498 -107.09 -69.6201 -191.33 -69.6201c-93 0 -166.33 33.6201 -212.21 88.6201
c-37.9004 -47.1504 -92.7207 -86.0303 -184.971 -86.0303c-96.9297 0 -174.899 47.6699 -174.899 138.4c0 133.57 143.62 164.08 274.65 149.37l30.4502 -1.63965v15.6104c0 50.7402 -26.71 81.6406 -96.1201 82.2002c-64.9404 0.540039 -105.07 -36.5996 -105.07 -36.5996
l-54.0898 85.6504c48.2598 35.2803 110.14 53.4502 174.979 53.4502c68.6504 0 123.771 -24.4297 160.711 -60.9492c43.3701 38.3301 102.01 60.8496 169.47 60.8496c140.03 0 239.971 -93.8096 239.971 -244.409zM587.278 375.207
c-57.4199 0 -93.8994 -40.4395 -104.989 -101.729h210.76c-7.03027 60.4697 -42.7305 101.729 -105.771 101.729zM337.198 188.397v22.1299h-43.8301c-100.87 0 -120.94 -33.2002 -120.94 -71.0703c0 -38.2695 28.21 -58.6992 68.6602 -58.6992
c53.2402 0 96.1104 46.46 96.1104 107.64z" />
    <glyph glyph-name="aeacute" unicode="&#x1fd;" horiz-adv-x="850" 
d="M496.43 594.89c-47.1797 -49.1504 -74.2295 -52.4297 -111.229 -52.4297h-40.9102l133.65 164.15l109.27 -17.7402zM827.229 230.041l0.0078125 -33.3633h-346.13c10.0303 -68.0801 51.0605 -110.92 120.131 -110.92c44.8398 0 76.6602 15.2998 103.38 43.7295
l91.0703 -74.3496c-44.9297 -44.0498 -107.09 -69.6201 -191.33 -69.6201c-93 0 -166.33 33.6201 -212.21 88.6201c-37.9004 -47.1504 -92.7207 -86.0303 -184.971 -86.0303c-96.9297 0 -174.899 47.6699 -174.899 138.4c0 133.57 143.62 164.08 274.65 149.37
l30.4502 -1.63965v15.6104c0 50.7402 -26.71 81.6406 -96.1201 82.2002c-64.9404 0.540039 -105.07 -36.5996 -105.07 -36.5996l-54.0898 85.6504c48.2598 35.2803 110.14 53.4502 174.979 53.4502c68.6504 0 123.771 -24.4297 160.711 -60.9492
c43.3701 38.3301 102.01 60.8496 169.47 60.8496c140.03 0 239.971 -93.8096 239.971 -244.409zM587.268 375.208c-57.4199 0 -93.8994 -40.4395 -104.989 -101.729h210.76c-7.03027 60.4697 -42.7305 101.729 -105.771 101.729zM337.188 188.398v22.1299h-43.8301
c-100.87 0 -120.94 -33.2002 -120.94 -71.0703c0 -38.2695 28.21 -58.6992 68.6602 -58.6992c53.2402 0 96.1104 46.46 96.1104 107.64z" />
    <glyph glyph-name="b" unicode="b" horiz-adv-x="579" 
d="M339.4 474.45c120.27 0 214.31 -91.1211 214.31 -244.471s-93.79 -244.479 -214.31 -244.479c-67.0596 0 -116.6 26.9902 -150.84 66.7305l-14.0801 -52.2305h-112.19v680h136.15v-261.84c33.6396 33.9102 80.0596 56.29 140.96 56.29zM301.16 100.079
c66.3301 0 113.15 54 113.15 129.91s-46.8203 129.91 -113.15 129.91c-67.2598 0 -115.22 -54 -115.22 -129.91s47.96 -129.91 115.22 -129.91z" />
    <glyph glyph-name="uni1E05" unicode="&#x1e05;" horiz-adv-x="579" 
d="M339.4 474.45c120.27 0 214.31 -91.1211 214.31 -244.471s-93.79 -244.479 -214.31 -244.479c-67.0596 0 -116.6 26.9902 -150.84 66.7305l-14.0801 -52.2305h-112.19v680h136.15v-261.84c33.6396 33.9102 80.0596 56.29 140.96 56.29zM301.16 100.079
c66.3301 0 113.15 54 113.15 129.91s-46.8203 129.91 -113.15 129.91c-67.2598 0 -115.22 -54 -115.22 -129.91s47.96 -129.91 115.22 -129.91zM249.29 -56.4512c38.6904 0 70.04 -30.3604 70.04 -67.8105s-31.3604 -67.8105 -70.04 -67.8105s-70.04 30.3604 -70.04 67.8105
s31.3604 67.8105 70.04 67.8105z" />
    <glyph glyph-name="c" unicode="c" horiz-adv-x="454" 
d="M276.78 -14.4902c-143.85 0 -249.499 103.53 -249.499 244.48s105.65 244.48 249.5 244.48c70.6396 0 121.699 -18.7598 167.589 -51.2998l-76.0996 -101.2c-22.0596 23.2197 -53.6494 35.4395 -85.2695 35.4395c-70.9102 0 -116.33 -52.2803 -116.33 -127.42
s45.4199 -127.42 116.33 -127.42c31.6201 0 63.2197 12.2197 85.2793 35.4395l75.4697 -101.2c-45.7197 -32.54 -96.5693 -51.2998 -166.97 -51.2998z" />
    <glyph glyph-name="cacute" unicode="&#x107;" horiz-adv-x="454" 
d="M332.47 594.89c-47.1797 -49.1504 -74.2295 -52.4297 -111.229 -52.4297h-40.9102l133.66 164.15l109.26 -17.7402zM276.77 -14.4893c-143.85 0 -249.499 103.53 -249.499 244.48s105.65 244.48 249.5 244.48c70.6396 0 121.699 -18.7598 167.589 -51.2998
l-76.0996 -101.2c-22.0596 23.2197 -53.6494 35.4395 -85.2695 35.4395c-70.9102 0 -116.33 -52.2803 -116.33 -127.42s45.4199 -127.42 116.33 -127.42c31.6201 0 63.2197 12.2197 85.2793 35.4395l75.4697 -101.2c-45.7197 -32.54 -96.5693 -51.2998 -166.97 -51.2998z
" />
    <glyph glyph-name="ccaron" unicode="&#x10d;" horiz-adv-x="454" 
d="M324.71 542.76h-107.48l-112.01 119.74h70.04c28.3799 0 36.8096 -6.86035 60.3398 -29.7207l35.3604 -34.5195l35.0195 34.1299c23.9102 23.1699 32.2705 30.1104 60.6504 30.1104h70.04zM282.999 102.569c31.6201 0 63.2207 12.2197 85.2803 35.4395l75.4697 -101.2
c-45.7197 -32.54 -96.5693 -51.2998 -166.97 -51.2998c-143.85 0 -249.5 103.53 -249.5 244.48s105.65 244.48 249.5 244.48c70.6396 0 121.699 -18.7598 167.589 -51.2998l-76.0996 -101.2c-22.0596 23.2197 -53.6494 35.4395 -85.2695 35.4395
c-70.9102 0 -116.33 -52.2803 -116.33 -127.42s45.4199 -127.42 116.33 -127.42z" />
    <glyph glyph-name="ccedilla" unicode="&#xe7;" horiz-adv-x="454" 
d="M443.76 36.8096c-41.9199 -29.8301 -88.1084 -48.0801 -149.759 -50.9102l-25.7998 -29.54s15.4297 9.44043 46.96 4.44043c30.5098 -4.7002 70.6396 -27.79 69.5498 -77.4902c-1.0498 -47.54 -45.9297 -80.1396 -111.42 -82.8301
c-73.3301 -3.66992 -119.771 21.3701 -119.771 21.3701l26.4805 52.2305s34.6299 -17.8799 73.5801 -17.7803c33.8896 -0.110352 44.4697 16.8701 43.8799 32.6797c-1.11035 27.9102 -48.1504 31.6904 -76.04 17.2803l-35.21 28.3604l41.5098 55.0898
c-118.18 20.6797 -200.43 115.91 -200.43 240.28c0 140.95 105.65 244.48 249.5 244.48c70.6396 0 121.699 -18.7598 167.589 -51.2998l-76.0996 -101.2c-22.0596 23.2197 -53.6494 35.4395 -85.2695 35.4395c-70.9102 0 -116.33 -52.2803 -116.33 -127.42
s45.4199 -127.42 116.33 -127.42c31.6201 0 63.2197 12.2197 85.2793 35.4395z" />
    <glyph glyph-name="ccircumflex" unicode="&#x109;" horiz-adv-x="454" 
d="M234.69 572.73c-23.9102 -23.1699 -32.2695 -30.1104 -60.6494 -30.1104h-70.04l111.96 119.74h107.47l112.02 -119.74h-70.04c-28.3799 0 -36.8096 6.86035 -60.3398 29.7207l-35.3604 34.5195zM283.012 102.57c31.6201 0 63.2207 12.2197 85.2803 35.4395
l75.4697 -101.2c-45.7197 -32.54 -96.5693 -51.2998 -166.97 -51.2998c-143.85 0 -249.5 103.53 -249.5 244.48s105.65 244.48 249.5 244.48c70.6396 0 121.699 -18.7598 167.589 -51.2998l-76.0996 -101.2c-22.0596 23.2197 -53.6494 35.4395 -85.2695 35.4395
c-70.9102 0 -116.33 -52.2803 -116.33 -127.42s45.4199 -127.42 116.33 -127.42z" />
    <glyph glyph-name="cdotaccent" unicode="&#x10b;" horiz-adv-x="454" 
d="M271.68 547.63c-38.6904 0 -70.04 30.3604 -70.04 67.8105s31.3604 67.7998 70.04 67.7998s70.04 -30.3496 70.04 -67.7998s-31.3604 -67.8105 -70.04 -67.8105zM276.801 -14.4902c-143.85 0 -249.499 103.53 -249.499 244.48s105.65 244.48 249.5 244.48
c70.6396 0 121.699 -18.7598 167.589 -51.2998l-76.0996 -101.2c-22.0596 23.2197 -53.6494 35.4395 -85.2695 35.4395c-70.9102 0 -116.33 -52.2803 -116.33 -127.42s45.4199 -127.42 116.33 -127.42c31.6201 0 63.2197 12.2197 85.2793 35.4395l75.4697 -101.2
c-45.7197 -32.54 -96.5693 -51.2998 -166.97 -51.2998z" />
    <glyph glyph-name="d" unicode="d" horiz-adv-x="579" 
d="M380.08 680l136.131 -0.00878906v-680h-112.19l-14.0801 52.2305c-34.2402 -39.7402 -83.7803 -66.7305 -150.84 -66.7305c-120.52 0 -214.31 91.1299 -214.31 244.479s94.0498 244.479 214.319 244.479c60.9102 0 107.33 -22.3799 140.97 -56.29v261.84z
M277.331 100.071c67.2598 0 115.22 54 115.22 129.91s-47.96 129.91 -115.22 129.91c-66.3301 0 -113.15 -54 -113.15 -129.91s46.8203 -129.91 113.15 -129.91z" />
    <glyph glyph-name="eth" unicode="&#xf0;" horiz-adv-x="550" 
d="M341.28 580.02c131.72 -141.35 181.629 -238.19 181.239 -355.721c-0.299805 -136.73 -102.859 -236.24 -247.629 -236.24s-247.63 99.5098 -247.63 236.25c0 123.9 81.46 223.95 210.09 232.78c14.8301 0.950195 29.0205 1.5 53.1104 -4.00977
c-14.7002 17 -37.8604 41.4502 -69.2607 72.4697l-98.6904 -44.7695l-61.3203 61.5303l97.7002 43.1299c-17.8701 16.7695 -37.29 34.71 -58.25 53.7402l117.08 64.7803c23.29 -22.2598 45.0303 -43.4502 65.29 -63.7305l93.1699 41.1299l66.3203 -55.4199zM274.889 102.618
c67.6504 0 111.972 50.4004 111.972 121.71c0 71 -44.3203 121.65 -111.971 121.65s-111.971 -50.6504 -111.971 -121.65c0 -71.3096 45.0498 -121.71 111.97 -121.71z" />
    <glyph glyph-name="dcaron" unicode="&#x10f;" horiz-adv-x="633" 
d="M641.56 701.78c42.7305 -4.2998 64.4502 -41.8193 60.2197 -84.8496c-5.49023 -54.71 -45.7402 -109.53 -110.32 -132.32l-16.4404 42.5703c31.9902 14.8398 53.0703 38.1602 57.0508 64.1299c-32.2305 -3.58984 -60.6406 21.6904 -57.2002 57.6504
c3.45996 33.8496 30.6104 56.3896 66.6904 52.8193zM382.56 418.17v261.831h136.15v-680h-112.19l-14.0801 52.2305c-34.2402 -39.7402 -83.7803 -66.7305 -150.84 -66.7305c-120.52 0 -214.319 91.1299 -214.319 244.479s94.0498 244.479 214.319 244.479
c60.9004 0 107.32 -22.3799 140.96 -56.29zM279.829 100.081c67.2598 0 115.22 54 115.22 129.91s-47.96 129.91 -115.22 129.91c-66.3398 0 -113.16 -54 -113.16 -129.91s46.8203 -129.91 113.16 -129.91z" />
    <glyph glyph-name="uni1E13" unicode="&#x1e13;" horiz-adv-x="579" 
d="M380.08 680l136.131 -0.00878906v-680h-112.19l-14.0801 52.2305c-34.2402 -39.7402 -83.7803 -66.7305 -150.84 -66.7305c-120.52 0 -214.31 91.1299 -214.31 244.479s94.0498 244.479 214.319 244.479c60.9102 0 107.33 -22.3799 140.97 -56.29v261.84z
M277.331 100.071c67.2598 0 115.22 54 115.22 129.91s-47.96 129.91 -115.22 129.91c-66.3301 0 -113.15 -54 -113.15 -129.91s46.8203 -129.91 113.15 -129.91zM241.391 -49.2988h107.48l112.01 -119.74h-70.04c-28.3799 0 -36.8096 6.86035 -60.3398 29.7207
l-35.3604 34.5195l-35.0195 -34.1299c-23.9102 -23.1699 -32.2705 -30.1104 -60.6504 -30.1104h-70.04z" />
    <glyph glyph-name="dcroat" unicode="&#x111;" horiz-adv-x="579" 
d="M582.19 586.34l-0.0195312 -60.2393h-65.96v-526.11h-112.19l-14.0801 52.2305c-34.2402 -39.7402 -83.7803 -66.7305 -150.84 -66.7305c-120.52 0 -214.31 91.1299 -214.31 244.479s94.0498 244.479 214.319 244.479c60.9102 0 107.33 -22.3799 140.97 -56.29v107.95
h-119.28v60.2305h119.28v93.6602h136.15v-93.6602h65.96zM277.331 100.061c67.2598 0 115.22 54 115.22 129.91s-47.96 129.91 -115.22 129.91c-66.3301 0 -113.15 -54 -113.15 -129.91s46.8203 -129.91 113.15 -129.91z" />
    <glyph glyph-name="uni1E0D" unicode="&#x1e0d;" horiz-adv-x="579" 
d="M380.08 680l136.131 -0.00878906v-680h-112.19l-14.0801 52.2305c-34.2402 -39.7402 -83.7803 -66.7305 -150.84 -66.7305c-120.52 0 -214.31 91.1299 -214.31 244.479s94.0498 244.479 214.319 244.479c60.9102 0 107.33 -22.3799 140.97 -56.29v261.84z
M277.331 100.071c67.2598 0 115.22 54 115.22 129.91s-47.96 129.91 -115.22 129.91c-66.3301 0 -113.15 -54 -113.15 -129.91s46.8203 -129.91 113.15 -129.91zM295.851 -56.459c38.6797 0 70.04 -30.3604 70.04 -67.8105s-31.3604 -67.8105 -70.04 -67.8105
s-70.04 30.3604 -70.04 67.8105s31.3604 67.8105 70.04 67.8105z" />
    <glyph glyph-name="uni1E0F" unicode="&#x1e0f;" horiz-adv-x="579" 
d="M380.08 680l136.131 -0.00878906v-680h-112.19l-14.0801 52.2305c-34.2402 -39.7402 -83.7803 -66.7305 -150.84 -66.7305c-120.52 0 -214.31 91.1299 -214.31 244.479s94.0498 244.479 214.319 244.479c60.9102 0 107.33 -22.3799 140.97 -56.29v261.84z
M277.331 100.071c67.2598 0 115.22 54 115.22 129.91s-47.96 129.91 -115.22 129.91c-66.3301 0 -113.15 -54 -113.15 -129.91s46.8203 -129.91 113.15 -129.91zM141.611 -141.698v66.9404h307.09v-66.9404h-307.09z" />
    <glyph glyph-name="e" unicode="e" horiz-adv-x="543" 
d="M515.98 230.04l-0.00195312 -33.3916h-346.13c10.0303 -68.0801 51.0605 -110.92 120.131 -110.92c44.8398 0 76.6602 15.2998 103.38 43.7295l91.0703 -74.3496c-44.9297 -44.0498 -107.09 -69.6201 -191.33 -69.6201c-163.2 0 -265.82 103.53 -265.82 244.48
s104.08 244.48 248.73 244.48c140.03 0 239.971 -93.8096 239.971 -244.409zM276.009 375.179c-57.4199 0 -93.8994 -40.4395 -104.989 -101.729h210.76c-7.03027 60.4697 -42.7305 101.729 -105.771 101.729z" />
    <glyph glyph-name="eacute" unicode="&#xe9;" horiz-adv-x="543" 
d="M338.13 594.89c-47.1797 -49.1504 -74.2295 -52.4297 -111.229 -52.4297h-40.9102l133.66 164.15l109.26 -17.7402zM515.97 230.041l-0.00195312 -33.3916h-346.13c10.0303 -68.0801 51.0605 -110.92 120.131 -110.92c44.8398 0 76.6602 15.2998 103.38 43.7295
l91.0703 -74.3496c-44.9297 -44.0498 -107.09 -69.6201 -191.33 -69.6201c-163.2 0 -265.82 103.53 -265.82 244.48s104.08 244.48 248.73 244.48c140.03 0 239.971 -93.8096 239.971 -244.409zM275.998 375.18c-57.4199 0 -93.8994 -40.4395 -104.989 -101.729h210.76
c-7.03027 60.4697 -42.7305 101.729 -105.771 101.729z" />
    <glyph glyph-name="ebreve" unicode="&#x115;" horiz-adv-x="543" 
d="M276.63 542.45c-100.41 0 -154.24 47.8799 -156.48 119.75h70.9404c4.16016 -30.0098 30.7002 -55.2598 85.5498 -55.2598s81.3896 25.25 85.5498 55.25h70.9404c-2.24023 -71.8701 -56.0898 -119.74 -156.5 -119.74zM515.999 230.04l-0.00195312 -33.3916h-346.13
c10.0303 -68.0801 51.0605 -110.92 120.131 -110.92c44.8398 0 76.6602 15.2998 103.38 43.7295l91.0703 -74.3496c-44.9297 -44.0498 -107.09 -69.6201 -191.33 -69.6201c-163.2 0 -265.82 103.53 -265.82 244.48s104.08 244.48 248.73 244.48
c140.03 0 239.971 -93.8096 239.971 -244.409zM276.027 375.179c-57.4199 0 -93.8994 -40.4395 -104.989 -101.729h210.76c-7.03027 60.4697 -42.7305 101.729 -105.771 101.729z" />
    <glyph glyph-name="ecaron" unicode="&#x11b;" horiz-adv-x="543" 
d="M330.37 542.76h-107.471l-112.02 119.74h70.04c28.3799 0 36.8096 -6.86035 60.3398 -29.7207l35.3604 -34.5195l35.0195 34.1299c23.9102 23.1699 32.2705 30.1104 60.6504 30.1104h70.04zM515.979 230.04l-0.00195312 -33.3916h-346.13
c10.0303 -68.0801 51.0605 -110.92 120.131 -110.92c44.8398 0 76.6602 15.2998 103.38 43.7295l91.0703 -74.3496c-44.9297 -44.0498 -107.09 -69.6201 -191.33 -69.6201c-163.2 0 -265.82 103.53 -265.82 244.48s104.08 244.48 248.73 244.48
c140.03 0 239.971 -93.8096 239.971 -244.409zM276.008 375.179c-57.4199 0 -93.8994 -40.4395 -104.989 -101.729h210.76c-7.03027 60.4697 -42.7305 101.729 -105.771 101.729z" />
    <glyph glyph-name="uni0229" unicode="&#x229;" horiz-adv-x="543" 
d="M515.98 230.04l0.0195312 -33.4111h-346.13c10.0303 -68.0801 51.0605 -110.92 120.131 -110.92c44.8398 0 76.6602 15.2998 103.38 43.7295l91.0703 -74.3496c-43.6201 -42.7598 -103.48 -68.0996 -184.011 -69.54l-26.6104 -30.46s15.4297 9.44043 46.96 4.44043
c30.5098 -4.7002 70.6494 -27.79 69.5596 -77.4902c-1.0498 -47.54 -45.9297 -80.1396 -111.42 -82.8301c-73.3301 -3.66992 -119.771 21.3701 -119.771 21.3701l26.4805 52.2305s34.6299 -17.8799 73.5801 -17.7803c33.8896 -0.110352 44.4697 16.8701 43.8799 32.6797
c-1.11035 27.9102 -48.1504 31.6904 -76.04 17.29l-35.21 28.3604l42.8701 56.8799c-128.91 21.7695 -207.44 116.43 -207.44 239.729c0 140.95 104.08 244.48 248.73 244.48c140.03 0 239.971 -93.8096 239.971 -244.409zM276.03 375.159
c-57.4199 0 -93.8994 -40.4395 -104.989 -101.729h210.76c-7.03027 60.4697 -42.7305 101.729 -105.771 101.729z" />
    <glyph glyph-name="ecircumflex" unicode="&#xea;" horiz-adv-x="543" 
d="M240.35 572.73c-23.9102 -23.1699 -32.2695 -30.1104 -60.6494 -30.1104h-70.04l111.96 119.74h107.47l112.02 -119.74h-70.04c-28.3799 0 -36.8096 6.86035 -60.3398 29.7207l-35.3604 34.5195zM515.98 230.04l-0.00195312 -33.3916h-346.13
c10.0303 -68.0801 51.0605 -110.92 120.131 -110.92c44.8398 0 76.6602 15.2998 103.38 43.7295l91.0703 -74.3496c-44.9297 -44.0498 -107.09 -69.6201 -191.33 -69.6201c-163.2 0 -265.82 103.53 -265.82 244.48s104.08 244.48 248.73 244.48
c140.03 0 239.971 -93.8096 239.971 -244.409zM276.009 375.179c-57.4199 0 -93.8994 -40.4395 -104.989 -101.729h210.76c-7.03027 60.4697 -42.7305 101.729 -105.771 101.729z" />
    <glyph glyph-name="uni1EBF" unicode="&#x1ebf;" horiz-adv-x="543" 
d="M514.8 626.75c-17 -17.5195 -37.7002 -21.999 -70.2803 -21.999h-38.2197l100.7 133.56l97.9199 -18.4902zM240.359 572.721c-23.9102 -23.1699 -32.2695 -30.1104 -60.6494 -30.1104h-70.04l111.96 119.74h107.47l112.02 -119.74h-70.04
c-28.3799 0 -36.8096 6.86035 -60.3398 29.7207l-35.3604 34.5195zM276.021 474.451c140.03 0 239.969 -93.8408 239.969 -244.44v-33.3604h-346.13c10.0303 -68.0801 51.0605 -110.92 120.131 -110.92c44.8398 0 76.6602 15.2998 103.38 43.7295l91.0703 -74.3496
c-44.9297 -44.0498 -107.09 -69.6201 -191.33 -69.6201c-163.2 0 -265.82 103.53 -265.82 244.48s104.08 244.48 248.73 244.48zM276.019 375.18c-57.4199 0 -93.8994 -40.4395 -104.989 -101.729h210.76c-7.03027 60.4697 -42.7305 101.729 -105.771 101.729z" />
    <glyph glyph-name="uni1EC7" unicode="&#x1ec7;" horiz-adv-x="543" 
d="M240.35 572.73c-23.9102 -23.1699 -32.2695 -30.1104 -60.6494 -30.1104h-70.04l111.96 119.74h107.47l112.02 -119.74h-70.04c-28.3799 0 -36.8096 6.86035 -60.3398 29.7207l-35.3604 34.5195zM515.98 230.04l-0.00195312 -33.3916h-346.13
c10.0303 -68.0801 51.0605 -110.92 120.131 -110.92c44.8398 0 76.6602 15.2998 103.38 43.7295l91.0703 -74.3496c-44.9297 -44.0498 -107.09 -69.6201 -191.33 -69.6201c-163.2 0 -265.82 103.53 -265.82 244.48s104.08 244.48 248.73 244.48
c140.03 0 239.971 -93.8096 239.971 -244.409zM276.009 375.179c-57.4199 0 -93.8994 -40.4395 -104.989 -101.729h210.76c-7.03027 60.4697 -42.7305 101.729 -105.771 101.729zM277.319 -58.3408c38.6797 0 70.0508 -30.3604 70.0508 -67.8105
s-31.3604 -67.8105 -70.04 -67.8105c-38.6904 0 -70.0508 30.3604 -70.0508 67.8105s31.3604 67.8105 70.04 67.8105z" />
    <glyph glyph-name="uni1EC1" unicode="&#x1ec1;" horiz-adv-x="543" 
d="M104.5 604.76c-32.5703 0 -53.2695 4.47949 -70.2695 21.999l-90.1201 93.0703l97.9199 18.4902l100.7 -133.56h-38.2305zM179.721 542.619h-70.0391l111.96 119.74h107.47l112.02 -119.74h-70.04c-28.3799 0 -36.8096 6.86035 -60.3398 29.7207l-35.3604 34.5195
l-35.0195 -34.1299c-23.9102 -23.1699 -32.2705 -30.1104 -60.6504 -30.1104zM516.002 230.039l-0.00195312 -33.3916h-346.13c10.0303 -68.0801 51.0605 -110.92 120.131 -110.92c44.8398 0 76.6602 15.2998 103.38 43.7295l91.0703 -74.3496
c-44.9297 -44.0498 -107.09 -69.6201 -191.33 -69.6201c-163.2 0 -265.82 103.53 -265.82 244.48s104.08 244.48 248.73 244.48c140.03 0 239.971 -93.8096 239.971 -244.409zM276.03 375.178c-57.4199 0 -93.8994 -40.4395 -104.989 -101.729h210.76
c-7.03027 60.4697 -42.7305 101.729 -105.771 101.729z" />
    <glyph glyph-name="uni1EC5" unicode="&#x1ec5;" horiz-adv-x="543" 
d="M223.13 737.59c-29.96 0 -44.7998 -20.9805 -55.1797 -38.7402l-56.9297 37c18.2402 26.4102 45.1699 69.8301 102.87 69.8301c56.0596 0 81.9893 -44.7197 121.869 -44.7197c26.3896 0 40.8193 20.7197 51.0693 41.3398l58.6504 -35.5098
c-16.3496 -30.3701 -42.46 -73.2998 -103.61 -73.2998c-53.9199 0 -77.5195 44.0996 -118.739 44.0996zM240.35 572.729c-23.9102 -23.1699 -32.2695 -30.1104 -60.6494 -30.1104h-70.04l111.96 119.74h107.47l112.02 -119.74h-70.04
c-28.3799 0 -36.8096 6.86035 -60.3398 29.7207l-35.3604 34.5195zM515.98 230.039l-0.00195312 -33.3916h-346.13c10.0303 -68.0801 51.0605 -110.92 120.131 -110.92c44.8398 0 76.6602 15.2998 103.38 43.7295l91.0703 -74.3496
c-44.9297 -44.0498 -107.09 -69.6201 -191.33 -69.6201c-163.2 0 -265.82 103.53 -265.82 244.48s104.08 244.48 248.73 244.48c140.03 0 239.971 -93.8096 239.971 -244.409zM276.009 375.178c-57.4199 0 -93.8994 -40.4395 -104.989 -101.729h210.76
c-7.03027 60.4697 -42.7305 101.729 -105.771 101.729z" />
    <glyph glyph-name="edieresis" unicode="&#xeb;" horiz-adv-x="543" 
d="M173.76 550.22c-34 0 -60.71 27.9902 -60.71 62.9707c0 33.8096 26.71 61.79 60.71 61.79c33.9902 0 61.9102 -27.9805 61.9102 -61.7803c0 -35 -27.9199 -62.9805 -61.9102 -62.9805zM378.76 550.229c-34 0 -60.71 27.9902 -60.71 62.9707
c0 33.8096 26.71 61.79 60.71 61.79c33.9805 0 61.9004 -27.9805 61.9004 -61.7803c0 -35 -27.9199 -62.9805 -61.9004 -62.9805zM515.979 230.06l-0.00195312 -33.3916h-346.13c10.0303 -68.0801 51.0605 -110.92 120.131 -110.92
c44.8398 0 76.6602 15.2998 103.38 43.7295l91.0703 -74.3496c-44.9297 -44.0498 -107.09 -69.6201 -191.33 -69.6201c-163.2 0 -265.82 103.53 -265.82 244.48s104.08 244.48 248.73 244.48c140.03 0 239.971 -93.8096 239.971 -244.409zM276.008 375.198
c-57.4199 0 -93.8994 -40.4395 -104.989 -101.729h210.76c-7.03027 60.4697 -42.7305 101.729 -105.771 101.729z" />
    <glyph glyph-name="edotaccent" unicode="&#x117;" horiz-adv-x="543" 
d="M277.33 547.63c-38.6904 0 -70.04 30.3604 -70.04 67.8105s31.3604 67.7998 70.04 67.7998s70.04 -30.3496 70.04 -67.7998s-31.3604 -67.8105 -70.04 -67.8105zM515.991 230.04l-0.00195312 -33.3916h-346.13c10.0303 -68.0801 51.0605 -110.92 120.131 -110.92
c44.8398 0 76.6602 15.2998 103.38 43.7295l91.0703 -74.3496c-44.9297 -44.0498 -107.09 -69.6201 -191.33 -69.6201c-163.2 0 -265.82 103.53 -265.82 244.48s104.08 244.48 248.73 244.48c140.03 0 239.971 -93.8096 239.971 -244.409zM276.02 375.179
c-57.4199 0 -93.8994 -40.4395 -104.989 -101.729h210.76c-7.03027 60.4697 -42.7305 101.729 -105.771 101.729z" />
    <glyph glyph-name="uni1EB9" unicode="&#x1eb9;" horiz-adv-x="543" 
d="M515.98 230.04l-0.00195312 -33.3916h-346.13c10.0303 -68.0801 51.0605 -110.92 120.131 -110.92c44.8398 0 76.6602 15.2998 103.38 43.7295l91.0703 -74.3496c-44.9297 -44.0498 -107.09 -69.6201 -191.33 -69.6201c-163.2 0 -265.82 103.53 -265.82 244.48
s104.08 244.48 248.73 244.48c140.03 0 239.971 -93.8096 239.971 -244.409zM276.009 375.179c-57.4199 0 -93.8994 -40.4395 -104.989 -101.729h210.76c-7.03027 60.4697 -42.7305 101.729 -105.771 101.729zM277.319 -58.3408
c38.6797 0 70.0508 -30.3604 70.0508 -67.8105s-31.3604 -67.8105 -70.04 -67.8105c-38.6904 0 -70.0508 30.3604 -70.0508 67.8105s31.3604 67.8105 70.04 67.8105z" />
    <glyph glyph-name="egrave" unicode="&#xe8;" horiz-adv-x="543" 
d="M342.94 542.45c-37 0 -64.0498 3.2793 -111.229 52.4297l-90.7803 93.9805l109.26 17.7402l133.66 -164.15h-40.9102zM515.971 230.029l-0.00195312 -33.3916h-346.13c10.0303 -68.0801 51.0605 -110.92 120.131 -110.92c44.8398 0 76.6602 15.2998 103.38 43.7295
l91.0703 -74.3496c-44.9297 -44.0498 -107.09 -69.6201 -191.33 -69.6201c-163.2 0 -265.82 103.53 -265.82 244.48s104.08 244.48 248.73 244.48c140.03 0 239.971 -93.8096 239.971 -244.409zM275.999 375.168c-57.4199 0 -93.8994 -40.4395 -104.989 -101.729h210.76
c-7.03027 60.4697 -42.7305 101.729 -105.771 101.729z" />
    <glyph glyph-name="emacron" unicode="&#x113;" horiz-adv-x="543" 
d="M430.18 639.58v-66.9404h-307.09v66.9404h307.09zM515.979 230.04l-0.00195312 -33.3916h-346.13c10.0303 -68.0801 51.0605 -110.92 120.131 -110.92c44.8398 0 76.6602 15.2998 103.38 43.7295l91.0703 -74.3496c-44.9297 -44.0498 -107.09 -69.6201 -191.33 -69.6201
c-163.2 0 -265.82 103.53 -265.82 244.48s104.08 244.48 248.73 244.48c140.03 0 239.971 -93.8096 239.971 -244.409zM276.008 375.179c-57.4199 0 -93.8994 -40.4395 -104.989 -101.729h210.76c-7.03027 60.4697 -42.7305 101.729 -105.771 101.729z" />
    <glyph glyph-name="eogonek" unicode="&#x119;" horiz-adv-x="543" 
d="M515.98 230.04l-0.0117188 -33.4004h-346.13c10.0303 -68.0801 51.0605 -110.92 120.131 -110.92c44.8398 0 76.6602 15.2998 103.38 43.7295l91.0703 -74.3496c-31.4805 -30.8604 -71.4102 -52.6504 -121.47 -62.9307l-3.44043 -1.78027
c-110.11 -56.1602 -91.5205 -150 8.88965 -109.43l22.5596 -58.3496c-71.0596 -40.1396 -156.68 -25.3496 -180.35 31.9199c-19.5898 47 0.540039 93.8701 50.9199 132.29c-144.75 12.5195 -234.25 111.52 -234.25 243.149c0 140.95 104.08 244.48 248.73 244.48
c140.03 0 239.971 -93.8096 239.971 -244.409zM275.999 375.17c-57.4199 0 -93.8994 -40.4395 -104.989 -101.729h210.76c-7.03027 60.4697 -42.7305 101.729 -105.771 101.729z" />
    <glyph glyph-name="uni0258" unicode="&#x258;" horiz-adv-x="543" 
d="M267.26 474.45c144.65 0 248.729 -103.499 248.729 -244.449s-102.62 -244.48 -265.82 -244.48c-84.2402 0 -146.4 25.5703 -191.33 69.6201l91.0703 74.3496c26.7197 -28.4297 58.54 -43.7295 103.38 -43.7295c69.0703 0 110.101 42.8398 120.131 110.92h-346.13
v33.3604c0 150.6 99.9404 244.409 239.971 244.409zM267.258 375.241c-63.04 0 -98.75 -41.2705 -105.78 -101.74h210.76c-11.0898 61.29 -47.5596 101.74 -104.979 101.74z" />
    <glyph glyph-name="uni1EBD" unicode="&#x1ebd;" horiz-adv-x="543" 
d="M221.7 588.55c-29.96 0 -44.79 -20.9902 -55.1699 -38.7402l-56.9297 37c18.2305 26.4102 45.1602 69.8301 102.86 69.8301c56.0596 0 81.9893 -44.7197 121.869 -44.7197c26.3896 0 40.8193 20.7197 51.0693 41.3398l58.6504 -35.5098
c-16.3496 -30.3701 -42.46 -73.2998 -103.61 -73.2998c-53.9199 0 -77.5195 44.0996 -118.739 44.0996zM515.99 230.03l-0.00195312 -33.3916h-346.13c10.0303 -68.0801 51.0605 -110.92 120.131 -110.92c44.8398 0 76.6602 15.2998 103.38 43.7295l91.0703 -74.3496
c-44.9297 -44.0498 -107.09 -69.6201 -191.33 -69.6201c-163.2 0 -265.82 103.53 -265.82 244.48s104.08 244.48 248.73 244.48c140.03 0 239.971 -93.8096 239.971 -244.409zM276.019 375.169c-57.4199 0 -93.8994 -40.4395 -104.989 -101.729h210.76
c-7.03027 60.4697 -42.7305 101.729 -105.771 101.729z" />
    <glyph glyph-name="uni01DD" unicode="&#x1dd;" horiz-adv-x="543" 
d="M250.16 476.94c163.2 0 265.822 -103.509 265.822 -244.449c0 -140.95 -104.08 -244.48 -248.73 -244.48c-140.03 0 -239.971 93.8096 -239.971 244.409v33.3604h346.13c-10.0303 68.0801 -51.0605 110.92 -120.131 110.92
c-44.8398 0 -76.6602 -15.2998 -103.38 -43.7295l-91.0703 74.3496c44.9297 44.0498 107.09 69.6201 191.33 69.6201zM267.252 87.2617c57.4199 0 93.8994 40.4395 104.989 101.729h-210.76c7.03027 -60.4697 42.7305 -101.729 105.771 -101.729z" />
    <glyph glyph-name="uni0259" unicode="&#x259;" horiz-adv-x="543" 
d="M250.16 476.94c163.2 0 265.822 -103.509 265.822 -244.449c0 -140.95 -104.08 -244.48 -248.73 -244.48c-140.03 0 -239.971 93.8096 -239.971 244.409v33.3604h346.13c-10.0303 68.0801 -51.0605 110.92 -120.131 110.92
c-44.8398 0 -76.6602 -15.2998 -103.38 -43.7295l-91.0703 74.3496c44.9297 44.0498 107.09 69.6201 191.33 69.6201zM267.252 87.2617c57.4199 0 93.8994 40.4395 104.989 101.729h-210.76c7.03027 -60.4697 42.7305 -101.729 105.771 -101.729z" />
    <glyph glyph-name="f" unicode="f" horiz-adv-x="355" 
d="M275.79 585.66c-32.6699 0 -49.2207 -25.8789 -49.2207 -65.6992v-57.5h92.0801v-102.98h-92.0801v-359.47h-136.15v359.47h-59.5195v102.98h59.5195v40.5c0 130.77 72.1104 197.649 166.11 197.649c40.75 0 77.5303 -7.71973 118.891 -32.3096l-55.3203 -98.9805
c-15.7598 12.9199 -30.2793 16.3398 -44.3096 16.3398z" />
    <glyph glyph-name="g" unicode="g" horiz-adv-x="545" 
d="M280.1 76.7197c125.8 0 237.121 -32.4414 237.121 -137.262c0 -98.5498 -88.2305 -149.49 -234.881 -149.49c-148.65 0 -255.07 35.1602 -255.07 127.891c0 45.5195 25.8896 83.1494 67.8398 105.689c-28.2305 20.2803 -42.9805 47.0703 -42.9307 76.8506
c0.0703125 45.6104 29.2607 74.5703 60.3604 90.79c-32.0703 30.0898 -50.8105 70.1396 -50.8105 114.09c0 93.4404 83.7305 169.15 201.83 169.15c36.3301 0 69.4004 -7.16992 97.7803 -19.8096c37.9697 53.4297 110.29 56.8799 154.74 47.0498l-18.6396 -86.3799
c-25.29 8.2002 -53.9502 4.41016 -67.75 -11.7402c22.7803 -27.7002 35.6602 -61.6201 35.6602 -98.2705c0 -93.3604 -84.5195 -169.141 -201.779 -169.141c-22.9404 0 -44.6309 2.90039 -64.6807 8.26074c-19.8398 -5.76953 -38.46 -15.2891 -38.46 -30.7988
c0 -29 22.6299 -36.8799 119.67 -36.8799zM263.561 380.038c-50.1699 0 -79.8496 -33.1104 -79.8496 -74.7607c0 -41.6201 30 -74.7803 79.8398 -74.7803c49.1797 0 79.8398 33.1602 79.8398 74.7803c0 41.6504 -30.3203 74.7607 -79.8301 74.7607zM278.341 -124.992
c66.8604 0 102.352 16.8799 102.352 55.3604c0 43.6699 -49.6904 54.3096 -131.171 54.3096c-16.2002 0 -31.4697 0.820312 -45.79 2.39062c-24.5703 -13.9805 -39.9307 -35.0908 -39.9307 -56.8408c0 -45.5898 58.1299 -55.2197 114.54 -55.2197z" />
    <glyph glyph-name="gbreve" unicode="&#x11f;" horiz-adv-x="545" 
d="M263.52 544.21c-100.41 0 -154.25 47.8701 -156.48 119.74h70.9404c4.16016 -30 30.7002 -55.25 85.5498 -55.25s81.3896 25.25 85.5498 55.25h70.9404c-2.24023 -71.8701 -56.0898 -119.74 -156.5 -119.74zM280.109 76.7197c125.8 0 237.121 -32.4414 237.121 -137.262
c0 -98.5498 -88.2305 -149.49 -234.881 -149.49c-148.65 0 -255.07 35.1602 -255.07 127.891c0 45.5195 25.8896 83.1494 67.8398 105.689c-28.2305 20.2803 -42.9805 47.0703 -42.9307 76.8506c0.0703125 45.6104 29.2607 74.5703 60.3604 90.79
c-32.0703 30.0898 -50.8105 70.1396 -50.8105 114.09c0 93.4404 83.7305 169.15 201.83 169.15c36.3301 0 69.4004 -7.16992 97.7803 -19.8096c37.9697 53.4297 110.29 56.8799 154.74 47.0498l-18.6396 -86.3799c-25.29 8.2002 -53.9502 4.41016 -67.75 -11.7402
c22.7803 -27.7002 35.6602 -61.6201 35.6602 -98.2705c0 -93.3604 -84.5195 -169.141 -201.779 -169.141c-22.9404 0 -44.6309 2.90039 -64.6807 8.26074c-19.8398 -5.76953 -38.46 -15.2891 -38.46 -30.7988c0 -29 22.6299 -36.8799 119.67 -36.8799zM263.57 380.038
c-50.1699 0 -79.8496 -33.1104 -79.8496 -74.7607c0 -41.6201 30 -74.7803 79.8398 -74.7803c49.1797 0 79.8398 33.1602 79.8398 74.7803c0 41.6504 -30.3203 74.7607 -79.8301 74.7607zM278.351 -124.992c66.8604 0 102.352 16.8799 102.352 55.3604
c0 43.6699 -49.6904 54.3096 -131.171 54.3096c-16.2002 0 -31.4697 0.820312 -45.79 2.39062c-24.5703 -13.9805 -39.9307 -35.0908 -39.9307 -56.8408c0 -45.5898 58.1299 -55.2197 114.54 -55.2197z" />
    <glyph glyph-name="gcaron" unicode="&#x1e7;" horiz-adv-x="545" 
d="M317.26 544.52h-107.471l-112.02 119.74h70.04c28.3799 0 36.8096 -6.86035 60.3398 -29.7207l35.3604 -34.5195l35.0195 34.1299c23.9102 23.1699 32.2705 30.1104 60.6504 30.1104h70.04zM280.109 76.7295c125.8 0 237.121 -32.4414 237.121 -137.262
c0 -98.5498 -88.2305 -149.49 -234.881 -149.49c-148.65 0 -255.07 35.1602 -255.07 127.891c0 45.5195 25.8896 83.1494 67.8398 105.689c-28.2305 20.2803 -42.9805 47.0703 -42.9307 76.8506c0.0703125 45.6104 29.2607 74.5703 60.3604 90.79
c-32.0703 30.0898 -50.8105 70.1396 -50.8105 114.09c0 93.4404 83.7305 169.15 201.83 169.15c36.3301 0 69.4004 -7.16992 97.7803 -19.8096c37.9697 53.4297 110.29 56.8799 154.74 47.0498l-18.6396 -86.3799c-25.29 8.2002 -53.9502 4.41016 -67.75 -11.7402
c22.7803 -27.7002 35.6602 -61.6201 35.6602 -98.2705c0 -93.3604 -84.5195 -169.141 -201.779 -169.141c-22.9404 0 -44.6309 2.90039 -64.6807 8.26074c-19.8398 -5.76953 -38.46 -15.2891 -38.46 -30.7988c0 -29 22.6299 -36.8799 119.67 -36.8799zM263.57 380.048
c-50.1699 0 -79.8496 -33.1104 -79.8496 -74.7607c0 -41.6201 30 -74.7803 79.8398 -74.7803c49.1797 0 79.8398 33.1602 79.8398 74.7803c0 41.6504 -30.3203 74.7607 -79.8301 74.7607zM278.351 -124.982c66.8604 0 102.352 16.8799 102.352 55.3604
c0 43.6699 -49.6904 54.3096 -131.171 54.3096c-16.2002 0 -31.4697 0.820312 -45.79 2.39062c-24.5703 -13.9805 -39.9307 -35.0908 -39.9307 -56.8408c0 -45.5898 58.1299 -55.2197 114.54 -55.2197z" />
    <glyph glyph-name="gcircumflex" unicode="&#x11d;" horiz-adv-x="545" 
d="M227.23 574.49c-23.9102 -23.1699 -32.2598 -30.1104 -60.6396 -30.1104h-70.04l111.96 119.74h107.47l112.01 -119.74h-70.04c-28.3799 0 -36.8096 6.86035 -60.3398 29.7207l-35.3604 34.5195zM280.111 76.7305c125.8 0 237.121 -32.4414 237.121 -137.262
c0 -98.5498 -88.2305 -149.49 -234.881 -149.49c-148.65 0 -255.07 35.1602 -255.07 127.891c0 45.5195 25.8896 83.1494 67.8398 105.689c-28.2305 20.2803 -42.9805 47.0703 -42.9307 76.8506c0.0703125 45.6104 29.2607 74.5703 60.3604 90.79
c-32.0703 30.0898 -50.8105 70.1396 -50.8105 114.09c0 93.4404 83.7305 169.15 201.83 169.15c36.3301 0 69.4004 -7.16992 97.7803 -19.8096c37.9697 53.4297 110.29 56.8799 154.74 47.0498l-18.6396 -86.3799c-25.29 8.2002 -53.9502 4.41016 -67.75 -11.7402
c22.7803 -27.7002 35.6602 -61.6201 35.6602 -98.2705c0 -93.3604 -84.5195 -169.141 -201.779 -169.141c-22.9404 0 -44.6309 2.90039 -64.6807 8.26074c-19.8398 -5.76953 -38.46 -15.2891 -38.46 -30.7988c0 -29 22.6299 -36.8799 119.67 -36.8799zM263.572 380.049
c-50.1699 0 -79.8496 -33.1104 -79.8496 -74.7607c0 -41.6201 30 -74.7803 79.8398 -74.7803c49.1797 0 79.8398 33.1602 79.8398 74.7803c0 41.6504 -30.3203 74.7607 -79.8301 74.7607zM278.353 -124.981c66.8604 0 102.352 16.8799 102.352 55.3604
c0 43.6699 -49.6904 54.3096 -131.171 54.3096c-16.2002 0 -31.4697 0.820312 -45.79 2.39062c-24.5703 -13.9805 -39.9307 -35.0908 -39.9307 -56.8408c0 -45.5898 58.1299 -55.2197 114.54 -55.2197z" />
    <glyph glyph-name="gcommaaccent" unicode="&#x123;" horiz-adv-x="545" 
d="M261.64 557.14c-42.7305 4.2998 -64.46 41.8096 -60.2197 84.8398c5.49023 54.71 45.7402 109.53 110.32 132.32l16.4404 -42.5703c-31.9902 -14.8398 -53.0703 -38.1602 -57.0508 -64.1299c32.2305 3.58984 60.6406 -21.6904 57.2002 -57.6406
c-3.45996 -33.8496 -30.6104 -56.3896 -66.6904 -52.8193zM280.101 76.7197c125.8 0 237.121 -32.4414 237.121 -137.262c0 -98.5498 -88.2305 -149.49 -234.881 -149.49c-148.65 0 -255.07 35.1602 -255.07 127.891c0 45.5195 25.8896 83.1494 67.8398 105.689
c-28.2305 20.2803 -42.9805 47.0703 -42.9307 76.8506c0.0703125 45.6104 29.2607 74.5703 60.3604 90.79c-32.0703 30.0898 -50.8105 70.1396 -50.8105 114.09c0 93.4404 83.7305 169.15 201.83 169.15c36.3301 0 69.4004 -7.16992 97.7803 -19.8096
c37.9697 53.4297 110.29 56.8799 154.74 47.0498l-18.6396 -86.3799c-25.29 8.2002 -53.9502 4.41016 -67.75 -11.7402c22.7803 -27.7002 35.6602 -61.6201 35.6602 -98.2705c0 -93.3604 -84.5195 -169.141 -201.779 -169.141c-22.9404 0 -44.6309 2.90039 -64.6807 8.26074
c-19.8398 -5.76953 -38.46 -15.2891 -38.46 -30.7988c0 -29 22.6299 -36.8799 119.67 -36.8799zM263.562 380.038c-50.1699 0 -79.8496 -33.1104 -79.8496 -74.7607c0 -41.6201 30 -74.7803 79.8398 -74.7803c49.1797 0 79.8398 33.1602 79.8398 74.7803
c0 41.6504 -30.3203 74.7607 -79.8301 74.7607zM278.342 -124.992c66.8604 0 102.352 16.8799 102.352 55.3604c0 43.6699 -49.6904 54.3096 -131.171 54.3096c-16.2002 0 -31.4697 0.820312 -45.79 2.39062c-24.5703 -13.9805 -39.9307 -35.0908 -39.9307 -56.8408
c0 -45.5898 58.1299 -55.2197 114.54 -55.2197z" />
    <glyph glyph-name="gdotaccent" unicode="&#x121;" horiz-adv-x="545" 
d="M264.22 549.39c-38.6797 0 -70.04 30.3604 -70.04 67.8105s31.3604 67.8105 70.04 67.8105c38.6904 0 70.0508 -30.3604 70.0508 -67.8105s-31.3604 -67.8105 -70.0508 -67.8105zM280.1 76.7295c125.8 0 237.121 -32.4414 237.121 -137.262
c0 -98.5498 -88.2305 -149.49 -234.881 -149.49c-148.65 0 -255.07 35.1602 -255.07 127.891c0 45.5195 25.8896 83.1494 67.8398 105.689c-28.2305 20.2803 -42.9805 47.0703 -42.9307 76.8506c0.0703125 45.6104 29.2607 74.5703 60.3604 90.79
c-32.0703 30.0898 -50.8105 70.1396 -50.8105 114.09c0 93.4404 83.7305 169.15 201.83 169.15c36.3301 0 69.4004 -7.16992 97.7803 -19.8096c37.9697 53.4297 110.29 56.8799 154.74 47.0498l-18.6396 -86.3799c-25.29 8.2002 -53.9502 4.41016 -67.75 -11.7402
c22.7803 -27.7002 35.6602 -61.6201 35.6602 -98.2705c0 -93.3604 -84.5195 -169.141 -201.779 -169.141c-22.9404 0 -44.6309 2.90039 -64.6807 8.26074c-19.8398 -5.76953 -38.46 -15.2891 -38.46 -30.7988c0 -29 22.6299 -36.8799 119.67 -36.8799zM263.561 380.048
c-50.1699 0 -79.8496 -33.1104 -79.8496 -74.7607c0 -41.6201 30 -74.7803 79.8398 -74.7803c49.1797 0 79.8398 33.1602 79.8398 74.7803c0 41.6504 -30.3203 74.7607 -79.8301 74.7607zM278.341 -124.982c66.8604 0 102.352 16.8799 102.352 55.3604
c0 43.6699 -49.6904 54.3096 -131.171 54.3096c-16.2002 0 -31.4697 0.820312 -45.79 2.39062c-24.5703 -13.9805 -39.9307 -35.0908 -39.9307 -56.8408c0 -45.5898 58.1299 -55.2197 114.54 -55.2197z" />
    <glyph glyph-name="h" unicode="h" horiz-adv-x="564" 
d="M340.23 474.45c78.2695 0 169.141 -44.4688 169.141 -184.289v-290.15h-136.15v251.86c0 67.96 -24.96 107.64 -82.7695 107.64c-45.6504 0 -92.0205 -34.0703 -92.0205 -133.57v-225.94h-136.15v680h136.15v-268.46c33.8203 39.0498 78.8398 62.9102 141.8 62.9102z" />
    <glyph glyph-name="hbar" unicode="&#x127;" horiz-adv-x="564" 
d="M340.23 474.45c78.2695 0 169.141 -44.4688 169.141 -184.289v-290.15h-136.15v251.86c0 67.96 -24.96 107.64 -82.7695 107.64c-45.6504 0 -92.0205 -34.0703 -92.0205 -133.57v-225.94h-136.15v526.11h-85.2402v60.2305h85.2402v93.6602h136.15v-93.6602h100v-60.2305
h-100v-114.57c33.8203 39.0498 78.8398 62.9102 141.8 62.9102z" />
    <glyph glyph-name="hcircumflex" unicode="&#x125;" horiz-adv-x="564" 
d="M128.85 774.42l-35.0088 -34.1299c-23.9102 -23.1699 -32.2705 -30.1104 -60.6504 -30.1104h-70.04l111.96 119.74h107.47l112.01 -119.74h-70.04c-28.3799 0 -36.8096 6.86035 -60.3398 29.7207zM340.241 474.45c78.2695 0 169.141 -44.4688 169.141 -184.289v-290.15
h-136.15v251.86c0 67.96 -24.96 107.64 -82.7695 107.64c-45.6504 0 -92.0205 -34.0703 -92.0205 -133.57v-225.94h-136.15v680h136.15v-268.46c33.8203 39.0498 78.8398 62.9102 141.8 62.9102z" />
    <glyph glyph-name="uni1E25" unicode="&#x1e25;" horiz-adv-x="564" 
d="M340.23 474.45c78.2695 0 169.141 -44.4688 169.141 -184.289v-290.15h-136.15v251.86c0 67.96 -24.96 107.64 -82.7695 107.64c-45.6504 0 -92.0205 -34.0703 -92.0205 -133.57v-225.94h-136.15v680h136.15v-268.46c33.8203 39.0498 78.8398 62.9102 141.8 62.9102z
M280.001 -56.4482c38.6797 0 70.04 -30.3604 70.04 -67.8105s-31.3604 -67.8105 -70.04 -67.8105s-70.04 30.3604 -70.04 67.8105s31.3604 67.8105 70.04 67.8105z" />
    <glyph glyph-name="uni0265" unicode="&#x265;" horiz-adv-x="564" 
d="M365.74 462.45l136.149 -0.000976562v-680h-136.15v268.46c-33.8203 -39.0498 -78.8398 -62.9102 -141.8 -62.9102c-78.2695 0 -169.14 44.4805 -169.14 184.301v290.15h136.15v-251.86c0 -67.96 24.96 -107.65 82.7695 -107.65
c45.6504 0 92.0205 34.0703 92.0205 133.57v225.94z" />
    <glyph glyph-name="i" unicode="i" horiz-adv-x="259" 
d="M129.21 535c-42.9697 0 -77.7998 33.7197 -77.7998 75.3096s34.8301 75.3096 77.79 75.3096c42.9697 0 77.7998 -33.7197 77.7998 -75.3096s-34.8301 -75.3096 -77.79 -75.3096zM62.2803 0v462.71h134.83v-462.71h-134.83z" />
    <glyph glyph-name="dotlessi" unicode="&#x131;" horiz-adv-x="259" 
d="M62.2803 0v462.71h134.83v-462.71h-134.83z" />
    <glyph glyph-name="iacute" unicode="&#xed;" horiz-adv-x="259" 
d="M191.19 594.89c-47.1797 -49.1504 -74.2295 -52.4297 -111.229 -52.4297h-40.9102l133.66 164.15l109.26 -17.7402zM62.2705 0.000976562v462.71h134.83v-462.71h-134.83z" />
    <glyph glyph-name="ibreve" unicode="&#x12d;" horiz-adv-x="259" 
d="M129.7 542.45c-100.41 0 -154.25 47.8799 -156.49 119.75h70.9404c4.16016 -30.0098 30.7002 -55.2598 85.5498 -55.2598s81.3896 25.25 85.5498 55.25h70.9404c-2.23047 -71.8701 -56.0801 -119.74 -156.49 -119.74zM62.2998 0.00976562v462.71h134.83v-462.71h-134.83z
" />
    <glyph glyph-name="uni01D0" unicode="&#x1d0;" horiz-adv-x="259" 
d="M183.43 542.76h-107.471l-112.02 119.74h70.04c28.3799 0 36.8096 -6.86035 60.3398 -29.7207l35.3604 -34.5195l35.0195 34.1299c23.9102 23.1699 32.2705 30.1104 60.6504 30.1104h70.04zM62.2793 -0v462.71h134.83v-462.71h-134.83z" />
    <glyph glyph-name="icircumflex" unicode="&#xee;" horiz-adv-x="259" 
d="M182.16 662.35l112.021 -119.74h-70.04c-28.3799 0 -36.8096 6.86035 -60.3398 29.7207l-35.3604 34.5195l-35.0195 -34.1299c-23.9102 -23.1699 -32.2705 -30.1104 -60.6504 -30.1104h-70.04l111.96 119.74h107.47zM62.291 -0.0107422v462.71h134.83v-462.71h-134.83z
" />
    <glyph glyph-name="idieresis" unicode="&#xef;" horiz-adv-x="259" 
d="M26.8203 674.98c33.9902 0 61.9102 -27.9707 61.9102 -61.7705c0 -35 -27.9199 -62.9805 -61.9102 -62.9805c-34 0 -60.71 27.9805 -60.71 62.9609c0 33.8096 26.71 61.79 60.71 61.79zM231.82 674.99c33.9902 0 61.9102 -27.9707 61.9102 -61.7705
c0 -35 -27.9199 -62.9805 -61.9102 -62.9805c-34 0 -60.71 27.9805 -60.71 62.9609c0 33.8096 26.71 61.79 60.71 61.79zM62.2803 0.0195312v462.71h134.83v-462.71h-134.83z" />
    <glyph glyph-name="uni1E2F" unicode="&#x1e2f;" horiz-adv-x="259" 
d="M191.19 755.82c-47.1797 -49.1504 -74.2295 -52.4297 -111.229 -52.4297h-40.9102l133.66 164.15l109.26 -17.7402zM26.8105 674.981c33.9902 0 61.9102 -27.9707 61.9102 -61.7705c0 -35 -27.9199 -62.9805 -61.9102 -62.9805c-34 0 -60.71 27.9805 -60.71 62.9609
c0 33.8096 26.71 61.79 60.71 61.79zM231.811 674.991c33.9902 0 61.9102 -27.9707 61.9102 -61.7705c0 -35 -27.9199 -62.9805 -61.9102 -62.9805c-34 0 -60.71 27.9805 -60.71 62.9609c0 33.8096 26.71 61.79 60.71 61.79zM62.2705 0.0205078v462.71h134.83v-462.71
h-134.83z" />
    <glyph glyph-name="i.loclTRK" horiz-adv-x="259" 
d="M130.4 547.63c-38.6904 0 -70.0508 30.3604 -70.0508 67.8105s31.3604 67.7998 70.0508 67.7998c38.6797 0 70.04 -30.3496 70.04 -67.7998s-31.3604 -67.8105 -70.04 -67.8105zM62.29 -0v462.71h134.83v-462.71h-134.83z" />
    <glyph glyph-name="uni1ECB" unicode="&#x1ecb;" horiz-adv-x="259" 
d="M129.21 535c-42.9697 0 -77.7998 33.7197 -77.7998 75.3096s34.8301 75.3096 77.79 75.3096c42.9697 0 77.7998 -33.7197 77.7998 -75.3096s-34.8301 -75.3096 -77.79 -75.3096zM62.2803 0v462.71h134.83v-462.71h-134.83zM123.66 -192.06
c-38.6904 0 -70.04 30.3604 -70.04 67.8105s31.3604 67.8105 70.04 67.8105s70.04 -30.3604 70.04 -67.8105s-31.3604 -67.8105 -70.04 -67.8105z" />
    <glyph glyph-name="igrave" unicode="&#xec;" horiz-adv-x="259" 
d="M84.7803 594.89l-90.79 93.9795l109.26 17.7402l133.66 -164.15h-40.9102c-37 0 -64.04 3.28027 -111.22 52.4307zM62.2705 -0.000976562v462.71h134.83v-462.71h-134.83z" />
    <glyph glyph-name="ij" unicode="&#x133;" horiz-adv-x="510" 
d="M129.21 535c-42.9697 0 -77.7998 33.7197 -77.7998 75.3096s34.8301 75.3096 77.79 75.3096c42.9697 0 77.7998 -33.7197 77.7998 -75.3096s-34.8301 -75.3096 -77.79 -75.3096zM389.16 535c-42.96 0 -77.79 33.7197 -77.79 75.3096s34.8301 75.3096 77.79 75.3096
c42.9697 0 77.7998 -33.7197 77.7998 -75.3096s-34.8301 -75.3096 -77.7998 -75.3096zM62.2803 0v462.71h134.83v-462.71h-134.83zM457.721 462.45l-0.000976562 -471.499c0 -178.45 -111.92 -200.561 -175.49 -200.561c-25.2197 0 -42.8398 3.9502 -42.8398 3.9502
l8.49023 113.14s7.98047 -2.13965 19.1309 -2.13965c20.5596 0 54.5596 9.41016 54.5596 71.7197v485.39h136.15z" />
    <glyph glyph-name="imacron" unicode="&#x12b;" horiz-adv-x="259" 
d="M-23.8496 572.64v66.9404h307.09v-66.9404h-307.09zM62.2803 0v462.71h134.83v-462.71h-134.83z" />
    <glyph glyph-name="iogonek" unicode="&#x12f;" horiz-adv-x="259" 
d="M130.4 547.63c-38.6904 0 -70.0508 30.3604 -70.0508 67.8105s31.3604 67.7998 70.0508 67.7998c38.6797 0 70.04 -30.3496 70.04 -67.7998s-31.3604 -67.8105 -70.04 -67.8105zM179.16 -119.021l22.5498 -58.3594c-71.0596 -40.1396 -156.68 -25.3496 -180.35 31.9199
c-21.8896 52.5195 5.80078 104.869 69.8604 145.459h-28.9404v462.71h134.83v-462.71h-8.32031l-18.5195 -9.58984c-110.11 -56.1602 -91.5205 -150 8.88965 -109.43z" />
    <glyph glyph-name="uni0268" unicode="&#x268;" horiz-adv-x="259" 
d="M130.4 547.63c-38.6904 0 -70.0508 30.3604 -70.0508 67.8105s31.3604 67.7998 70.0508 67.7998c38.6797 0 70.04 -30.3496 70.04 -67.7998s-31.3604 -67.8105 -70.04 -67.8105zM290.4 357.12v-60.2305h-93.2803v-296.89h-134.83v296.89h-93.29v60.2305h93.29v105.6
h134.83v-105.6h93.2803z" />
    <glyph glyph-name="itilde" unicode="&#x129;" horiz-adv-x="259" 
d="M193.5 544.45c-53.9297 0 -77.5293 44.0898 -118.739 44.0898c-29.96 0 -44.7998 -20.9805 -55.1797 -38.7305l-56.9297 37c18.2305 26.4102 45.1602 69.8301 102.86 69.8301c56.0596 0 81.9893 -44.7197 121.869 -44.7197c26.3896 0 40.8193 20.7197 51.0693 41.3398
l58.6504 -35.5098c-16.3398 -30.3701 -42.4502 -73.2998 -103.601 -73.2998zM62.2803 -0.00976562v462.71h134.83v-462.71h-134.83z" />
    <glyph glyph-name="j" unicode="j" horiz-adv-x="251" 
d="M129.77 535c-42.9697 0 -77.7998 33.7197 -77.7998 75.3096s34.8301 75.3096 77.7998 75.3096c42.96 0 77.79 -33.7197 77.79 -75.3096s-34.8301 -75.3096 -77.79 -75.3096zM198.329 462.45l-0.000976562 -471.499c0 -178.45 -111.92 -200.561 -175.49 -200.561
c-25.2197 0 -42.8398 3.9502 -42.8398 3.9502l8.49023 113.14s7.98047 -2.13965 19.1309 -2.13965c20.5596 0 54.5596 9.41016 54.5596 71.7197v485.39h136.15z" />
    <glyph glyph-name="uni0237" unicode="&#x237;" horiz-adv-x="261" 
d="M208.33 462.45l-0.000976562 -471.499c0 -178.45 -111.92 -200.561 -175.49 -200.561c-25.2197 0 -42.8398 3.9502 -42.8398 3.9502l8.49023 113.14s7.98047 -2.13965 19.1309 -2.13965c20.5596 0 54.5596 9.41016 54.5596 71.7197v485.39h136.15z" />
    <glyph glyph-name="jacute" horiz-adv-x="261" 
d="M201.75 584.89c-47.1797 -49.1504 -74.2295 -52.4297 -111.229 -52.4297h-40.9102l133.66 164.15l109.26 -17.7402zM208.32 462.461l-0.000976562 -471.499c0 -178.45 -111.92 -200.561 -175.49 -200.561c-25.2197 0 -42.8398 3.9502 -42.8398 3.9502l8.49023 113.14
s7.98047 -2.13965 19.1309 -2.13965c20.5596 0 54.5596 9.41016 54.5596 71.7197v485.39h136.15z" />
    <glyph glyph-name="jcircumflex" unicode="&#x135;" horiz-adv-x="261" 
d="M192.72 652.35l112.021 -119.74h-70.04c-28.3799 0 -36.8096 6.86035 -60.3398 29.7207l-35.3604 34.5195l-35.0195 -34.1299c-23.9102 -23.1699 -32.2705 -30.1104 -60.6504 -30.1104h-70.04l111.96 119.74h107.47zM72.1807 -22.9404l-0.000976562 485.391h136.15
v-471.5c0 -178.45 -111.92 -200.561 -175.49 -200.561c-25.2197 0 -42.8398 3.9502 -42.8398 3.9502l8.49023 113.14s7.98047 -2.13965 19.1309 -2.13965c20.5596 0 54.5596 9.41016 54.5596 71.7197z" />
    <glyph glyph-name="k" unicode="k" horiz-adv-x="540" 
d="M377.46 0l-125.859 186.88l-53.1504 -53.8604v-133.02h-136.15v680h136.15v-377.05l154.97 159.5h170.11l-179.93 -182.33l204.35 -280.12h-170.49z" />
    <glyph glyph-name="kcommaaccent" unicode="&#x137;" horiz-adv-x="540" 
d="M343.59 280.12l204.36 -280.12h-170.49l-125.87 186.88l-53.1504 -53.8604v-133.02h-136.15v680h136.15v-377.05l154.97 159.5h170.11zM284.62 -57.3701c42.7305 -4.2998 64.4697 -41.8096 60.2295 -84.8398c-5.49023 -54.71 -45.7402 -109.53 -110.32 -132.32
l-16.4502 42.5703c31.9902 14.8398 53.0703 38.1602 57.0508 64.1299c-32.2305 -3.58984 -60.6406 21.6904 -57.2002 57.6406c3.45996 33.8496 30.6104 56.3896 66.6904 52.8193z" />
    <glyph glyph-name="kgreenlandic" unicode="&#x138;" horiz-adv-x="546" 
d="M383.68 0l-131.151 186.46l-54.0996 -53.8604v-132.6h-136.15v462.45h136.15v-160.32l161.2 160.32h170.11l-184.6 -183.79l209.03 -278.66h-170.49z" />
    <glyph glyph-name="l" unicode="l" horiz-adv-x="261" 
d="M62.2803 0v680h136.15v-680h-136.15z" />
    <glyph glyph-name="lacute" unicode="&#x13a;" horiz-adv-x="261" 
d="M191.85 783.43c-47.1797 -49.1504 -74.2295 -52.4395 -111.229 -52.4395h-40.9102l133.66 164.15l109.26 -17.7305zM62.2695 -0.00878906v680h136.15v-680h-136.15z" />
    <glyph glyph-name="lcaron" unicode="&#x13e;" horiz-adv-x="261" 
d="M272.97 491.93l-16.4502 42.5703c31.9902 14.8398 53.0703 38.1602 57.0508 64.1299c-32.2305 -3.58984 -60.6406 21.6904 -57.2002 57.6504c3.45996 33.8496 30.6104 56.3896 66.6904 52.8193c42.7402 -4.2998 64.46 -41.8193 60.2295 -84.8496
c-5.49023 -54.71 -45.7402 -109.53 -110.32 -132.32zM62.2695 0v680h136.15v-680h-136.15z" />
    <glyph glyph-name="uni1E3D" unicode="&#x1e3d;" horiz-adv-x="261" 
d="M198.43 680v-680h-136.15v680h136.15zM184.06 -49.29l112.021 -119.74h-70.04c-28.3799 0 -36.8096 6.86035 -60.3398 29.7207l-35.3604 34.5195l-35.0195 -34.1299c-23.9102 -23.1699 -32.2705 -30.1104 -60.6504 -30.1104h-70.04l111.96 119.74h107.47z" />
    <glyph glyph-name="lcommaaccent" unicode="&#x13c;" horiz-adv-x="261" 
d="M62.2803 0v680h136.15v-680h-136.15zM80.4199 -274.54l-16.4307 42.5801c31.9902 14.8398 53.0703 38.1602 57.04 64.1299c-32.2305 -3.58984 -60.6406 21.6904 -57.2002 57.6406c3.45996 33.8496 30.6104 56.3896 66.6904 52.8193
c42.7305 -4.2998 64.4609 -41.8193 60.2207 -84.8496c-5.49023 -54.71 -45.7402 -109.53 -110.32 -132.32z" />
    <glyph glyph-name="ldot" unicode="&#x140;" horiz-adv-x="418" 
d="M62.2803 0v680h136.15v-680h-136.15zM321.87 283.29c-38.6797 0 -70.04 30.3604 -70.04 67.8105s31.3604 67.8105 70.04 67.8105s70.04 -30.3604 70.04 -67.8105s-31.3604 -67.8105 -70.04 -67.8105z" />
    <glyph glyph-name="uni1E37" unicode="&#x1e37;" horiz-adv-x="261" 
d="M62.2803 0v680h136.15v-680h-136.15zM131.061 -192.06c-38.6904 0 -70.0508 30.3604 -70.0508 67.8105s31.3604 67.8105 70.0508 67.8105c38.6797 0 70.04 -30.3604 70.04 -67.8105s-31.3604 -67.8105 -70.04 -67.8105z" />
    <glyph glyph-name="lslash" unicode="&#x142;" horiz-adv-x="261" 
d="M266.74 492.59v-102.62l-68.3096 -52.7305v-337.24h-136.15v232.14l-68.3096 -52.7305v102.62l68.3096 52.7305v345.24h136.15v-240.14z" />
    <glyph glyph-name="m" unicode="m" horiz-adv-x="826" 
d="M600 474.45c108.18 0 168.58 -67.8994 168.58 -201.699v-272.74h-136.15v257.47c0 61.0303 -20.54 102.03 -69.6699 102.03c-54.0498 0 -78.9297 -43.6299 -78.9297 -119.78v-239.73h-136.15v257.42c0 61.0303 -19.5801 102.09 -69.6699 102.09
c-48.3398 0 -75.2197 -35.1797 -79.5693 -102.54v-256.97h-136.15v462.45h119.93l14.5996 -56.6396c26.75 46.8301 74.2002 68.6396 124.04 68.6396c57.79 0 102.67 -22.5195 130.57 -65.5498c28.3398 34.1396 69.8799 65.5498 148.57 65.5498z" />
    <glyph glyph-name="uni1E3F" unicode="&#x1e3f;" horiz-adv-x="826" 
d="M500.36 584.89c-47.1797 -49.1504 -74.2295 -52.4297 -111.229 -52.4297h-40.9102l133.66 164.15l109.26 -17.7402zM599.99 474.461c108.18 0 168.58 -67.8994 168.58 -201.699v-272.74h-136.15v257.47c0 61.0303 -20.54 102.03 -69.6699 102.03
c-54.0498 0 -78.9297 -43.6299 -78.9297 -119.78v-239.73h-136.15v257.42c0 61.0303 -19.5801 102.09 -69.6699 102.09c-48.3398 0 -75.2197 -35.1797 -79.5693 -102.54v-256.97h-136.15v462.45h119.93l14.5996 -56.6396c26.75 46.8301 74.2002 68.6396 124.04 68.6396
c57.79 0 102.67 -22.5195 130.57 -65.5498c28.3398 34.1396 69.8799 65.5498 148.57 65.5498z" />
    <glyph glyph-name="uni026F" unicode="&#x26f;" horiz-adv-x="826" 
d="M627.41 462.45l136.141 -0.0214844v-462.45h-119.93l-14.5996 56.6396c-26.75 -46.8301 -74.2002 -68.6396 -124.04 -68.6396c-57.79 0 -102.67 22.5195 -130.57 65.5498c-28.3398 -34.1396 -69.8799 -65.5498 -148.57 -65.5498
c-108.19 0 -168.561 67.9199 -168.561 201.72v272.74h136.15v-257.47c0 -61.0303 20.54 -102.03 69.6699 -102.03c54.0498 0 78.9297 43.6299 78.9297 119.78v239.73h136.15v-257.42c0 -61.0303 19.5801 -102.09 69.6699 -102.09c48.3398 0 75.2197 35.1904 79.5596 102.561
v256.95z" />
    <glyph glyph-name="n" unicode="n" horiz-adv-x="566" 
d="M339.23 474.45c78.2695 0 169.13 -44.4688 169.13 -184.289v-290.15h-136.15v251.86c0 67.96 -24.96 107.64 -82.7695 107.64c-41.7197 0 -84.04 -28.46 -91.0098 -109.32v-250.19h-136.15v462.71h119.93l15.1504 -51.2598c33.8301 39.1104 78.8701 63 141.87 63z" />
    <glyph glyph-name="nacute" unicode="&#x144;" horiz-adv-x="566" 
d="M344.67 594.89c-47.1797 -49.1504 -74.2295 -52.4297 -111.229 -52.4297h-40.9102l133.66 164.15l109.26 -17.7402zM339.23 474.461c78.2695 0 169.13 -44.4688 169.13 -184.289v-290.15h-136.15v251.86c0 67.96 -24.96 107.64 -82.7695 107.64
c-41.7197 0 -84.04 -28.46 -91.0098 -109.32v-250.19h-136.15v462.71h119.93l15.1504 -51.2598c33.8301 39.1104 78.8701 63 141.87 63z" />
    <glyph glyph-name="napostrophe" unicode="&#x149;" horiz-adv-x="702" 
d="M99.79 657.96c56.0303 -5.63965 84.5195 -54.8389 78.9697 -111.259c-7.19043 -71.7305 -59.9707 -143.61 -144.641 -173.49l-21.5596 55.8203c41.9404 19.4502 69.5908 50.0303 74.8008 84.0898c-42.2598 -4.7002 -79.5098 28.4395 -75 75.5791
c4.53027 44.3799 40.1299 73.9395 87.4297 69.2598zM475.109 474.451c78.2695 0 169.14 -44.4688 169.14 -184.289v-290.15h-136.15v251.86c0 67.96 -24.96 107.64 -82.7695 107.64c-41.7197 0 -84.04 -28.46 -91.0098 -109.32v-250.19h-136.15v462.71h119.92
l15.1504 -51.2598c33.8301 39.1104 78.8701 63 141.87 63z" />
    <glyph glyph-name="ncaron" unicode="&#x148;" horiz-adv-x="566" 
d="M336.91 542.76h-107.471l-112.02 119.74h70.04c28.3799 0 36.8096 -6.86035 60.3398 -29.7207l35.3604 -34.5195l35.0195 34.1299c23.9102 23.1699 32.2705 30.1104 60.6504 30.1104h70.04zM339.239 474.46c78.2695 0 169.13 -44.4688 169.13 -184.289v-290.15h-136.15
v251.86c0 67.96 -24.96 107.64 -82.7695 107.64c-41.7197 0 -84.04 -28.46 -91.0098 -109.32v-250.19h-136.15v462.71h119.93l15.1504 -51.2598c33.8301 39.1104 78.8701 63 141.87 63z" />
    <glyph glyph-name="uni1E4B" unicode="&#x1e4b;" horiz-adv-x="566" 
d="M339.23 474.45c78.2695 0 169.13 -44.4688 169.13 -184.289v-290.15h-136.15v251.86c0 67.96 -24.96 107.64 -82.7695 107.64c-41.7197 0 -84.04 -28.46 -91.0098 -109.32v-250.19h-136.15v462.71h119.93l15.1504 -51.2598c33.8301 39.1104 78.8701 63 141.87 63z
M229.391 -49.2783h107.48l112.01 -119.74h-70.04c-28.3799 0 -36.8096 6.86035 -60.3398 29.7207l-35.3604 34.5195l-35.0195 -34.1299c-23.9102 -23.1699 -32.2705 -30.1104 -60.6504 -30.1104h-70.04z" />
    <glyph glyph-name="ncommaaccent" unicode="&#x146;" horiz-adv-x="566" 
d="M339.23 474.45c78.2695 0 169.13 -44.4688 169.13 -184.289v-290.15h-136.15v251.86c0 67.96 -24.96 107.64 -82.7695 107.64c-41.7197 0 -84.04 -28.46 -91.0098 -109.32v-250.19h-136.15v462.71h119.93l15.1504 -51.2598c33.8301 39.1104 78.8701 63 141.87 63z
M283.311 -57.3682c42.7402 -4.2998 64.4502 -41.8096 60.2197 -84.8398c-5.49023 -54.71 -45.7402 -109.53 -110.32 -132.32l-16.4404 42.5703c31.9902 14.8398 53.0703 38.1602 57.0508 64.1299c-32.2305 -3.58984 -60.6406 21.6904 -57.2002 57.6406
c3.45996 33.8496 30.6104 56.3896 66.6904 52.8193z" />
    <glyph glyph-name="uni1E45" unicode="&#x1e45;" horiz-adv-x="566" 
d="M283.87 547.63c-38.6797 0 -70.04 30.3604 -70.04 67.8105s31.3604 67.7998 70.04 67.7998s70.04 -30.3496 70.04 -67.7998s-31.3604 -67.8105 -70.04 -67.8105zM339.23 474.46c78.2695 0 169.13 -44.4688 169.13 -184.289v-290.15h-136.15v251.86
c0 67.96 -24.96 107.64 -82.7695 107.64c-41.7197 0 -84.04 -28.46 -91.0098 -109.32v-250.19h-136.15v462.71h119.93l15.1504 -51.2598c33.8301 39.1104 78.8701 63 141.87 63z" />
    <glyph glyph-name="uni1E47" unicode="&#x1e47;" horiz-adv-x="566" 
d="M339.23 474.45c78.2695 0 169.13 -44.4688 169.13 -184.289v-290.15h-136.15v251.86c0 67.96 -24.96 107.64 -82.7695 107.64c-41.7197 0 -84.04 -28.46 -91.0098 -109.32v-250.19h-136.15v462.71h119.93l15.1504 -51.2598c33.8301 39.1104 78.8701 63 141.87 63z
M283.851 -56.4482c38.6797 0 70.04 -30.3604 70.04 -67.8105s-31.3604 -67.8105 -70.04 -67.8105s-70.04 30.3604 -70.04 67.8105s31.3604 67.8105 70.04 67.8105z" />
    <glyph glyph-name="eng" unicode="&#x14b;" horiz-adv-x="566" 
d="M339.23 474.45c78.2695 0 169.13 -44.4795 169.13 -184.3v-333.64c0 -130.61 -85.2695 -187.49 -196.51 -170.271v114.53c37.5898 -5.54004 60.3594 10.9102 60.3594 57.6201v293.48c0 67.96 -24.96 107.64 -82.7695 107.64c-41.7197 0 -84.04 -28.46 -91.0098 -109.32
v-250.19h-136.15v462.71h119.93l15.1504 -51.2598c33.8301 39.1104 78.8701 63 141.87 63z" />
    <glyph glyph-name="uni0272" unicode="&#x272;" horiz-adv-x="566" 
d="M339.23 474.45c78.2695 0 169.13 -44.4697 169.13 -184.29v-290.15h-136.15v251.86c0 67.96 -24.96 107.64 -82.7695 107.64c-41.7197 0 -84.04 -28.46 -91.0098 -109.32v-293.68c0 -130.61 -85.2695 -187.49 -196.51 -170.271v114.53
c37.5898 -5.54004 60.3594 10.9102 60.3594 57.6201v504.32h119.93l15.1504 -51.2598c33.8301 39.1104 78.8701 63 141.87 63z" />
    <glyph glyph-name="ntilde" unicode="&#xf1;" horiz-adv-x="566" 
d="M228.24 588.55c-29.96 0 -44.79 -20.9902 -55.1699 -38.7402l-56.9297 37c18.2402 26.4102 45.1699 69.8301 102.87 69.8301c56.0596 0 81.9893 -44.7197 121.869 -44.7197c26.3896 0 40.8193 20.7197 51.0693 41.3398l58.6504 -35.5098
c-16.3496 -30.3701 -42.46 -73.2998 -103.61 -73.2998c-53.9297 0 -77.5293 44.0996 -118.749 44.0996zM339.25 474.44c78.2695 0 169.13 -44.4688 169.13 -184.289v-290.15h-136.15v251.86c0 67.96 -24.96 107.64 -82.7695 107.64
c-41.7197 0 -84.04 -28.46 -91.0098 -109.32v-250.19h-136.15v462.71h119.93l15.1504 -51.2598c33.8301 39.1104 78.8701 63 141.87 63z" />
    <glyph glyph-name="o" unicode="o" horiz-adv-x="567" 
d="M283.39 -14.4902c-151.07 0 -256.11 103.53 -256.11 244.48s105.04 244.48 256.11 244.48c151.44 0 256.74 -103.53 256.74 -244.48s-105.3 -244.48 -256.74 -244.48zM283.39 100.45c67.71 0 116.61 53.8604 116.61 129.53s-48.9004 129.53 -116.61 129.53
c-67.3096 0 -115.93 -53.8604 -115.93 -129.53s48.6201 -129.53 115.93 -129.53z" />
    <glyph glyph-name="oacute" unicode="&#xf3;" horiz-adv-x="567" 
d="M345.2 594.66c-47.1797 -49.1504 -74.2295 -52.4297 -111.229 -52.4297h-40.9102l133.65 164.15l109.27 -17.7402zM283.381 -14.4893c-151.07 0 -256.11 103.53 -256.11 244.48s105.04 244.48 256.11 244.48c151.44 0 256.74 -103.53 256.74 -244.48
s-105.3 -244.48 -256.74 -244.48zM283.381 100.451c67.71 0 116.61 53.8604 116.61 129.53s-48.9004 129.53 -116.61 129.53c-67.3096 0 -115.93 -53.8604 -115.93 -129.53s48.6201 -129.53 115.93 -129.53z" />
    <glyph glyph-name="uni0275" unicode="&#x275;" horiz-adv-x="567" 
d="M283.39 474.45c152.57 0 256.74 -103.53 256.74 -244.48s-104.17 -244.48 -256.74 -244.48c-152.2 0 -256.11 103.53 -256.11 244.48s103.91 244.48 256.11 244.48zM283.25 378.45c-66.8398 0 -116.62 -44.3496 -130 -111.25h260.17
c-13.3096 66.9004 -62.8799 111.25 -130.17 111.25zM283.26 81.5205c67.29 0 116.851 44.3604 130.16 111.261h-260.17c13.3799 -66.9004 63.1699 -111.261 130.01 -111.261z" />
    <glyph glyph-name="obreve" unicode="&#x14f;" horiz-adv-x="567" 
d="M283.7 542.22c-100.41 0 -154.26 47.8799 -156.49 119.75h70.9404c4.16016 -30.0098 30.7002 -55.2598 85.5498 -55.2598s81.3896 25.25 85.5498 55.25h70.9404c-2.23047 -71.8701 -56.0801 -119.74 -156.49 -119.74zM283.391 -14.4805
c-151.07 0 -256.11 103.53 -256.11 244.48s105.04 244.48 256.11 244.48c151.44 0 256.74 -103.53 256.74 -244.48s-105.3 -244.48 -256.74 -244.48zM283.391 100.46c67.71 0 116.61 53.8604 116.61 129.53s-48.9004 129.53 -116.61 129.53
c-67.3096 0 -115.93 -53.8604 -115.93 -129.53s48.6201 -129.53 115.93 -129.53z" />
    <glyph glyph-name="uni01D2" unicode="&#x1d2;" horiz-adv-x="567" 
d="M337.44 542.53l-107.471 0.00976562l-112.02 119.74h70.04c28.3799 0 36.8096 -6.87012 60.3398 -29.7305l35.3604 -34.5195l35.0195 34.1299c23.9102 23.1699 32.2705 30.1104 60.6504 30.1104h70.04zM283.39 474.47c151.44 0 256.74 -103.53 256.74 -244.48
s-105.3 -244.48 -256.74 -244.48c-151.07 0 -256.11 103.53 -256.11 244.48s105.04 244.48 256.11 244.48zM283.39 100.47c67.71 0 116.61 53.8604 116.61 129.53s-48.9004 129.53 -116.61 129.53c-67.3096 0 -115.93 -53.8604 -115.93 -129.53
s48.6201 -129.53 115.93 -129.53z" />
    <glyph glyph-name="ocircumflex" unicode="&#xf4;" horiz-adv-x="567" 
d="M247.42 572.5c-23.9102 -23.1699 -32.2598 -30.1104 -60.6396 -30.1104h-70.04l111.96 119.74h107.47l112.01 -119.74h-70.04c-28.3799 0 -36.8096 6.86035 -60.3398 29.7207l-35.3604 34.5195zM283.4 474.46c151.44 0 256.74 -103.53 256.74 -244.48
s-105.3 -244.48 -256.74 -244.48c-151.07 0 -256.11 103.53 -256.11 244.48s105.04 244.48 256.11 244.48zM283.4 100.46c67.71 0 116.61 53.8604 116.61 129.53s-48.9004 129.53 -116.61 129.53c-67.3096 0 -115.93 -53.8604 -115.93 -129.53
s48.6201 -129.53 115.93 -129.53z" />
    <glyph glyph-name="uni1ED1" unicode="&#x1ed1;" horiz-adv-x="567" 
d="M521.87 626.52c-17 -17.5195 -37.6895 -21.999 -70.2695 -21.999h-38.2305l100.7 133.56l97.9199 -18.4902zM247.44 572.49c-23.9102 -23.1699 -32.2598 -30.1104 -60.6396 -30.1104h-70.04l111.96 119.74h107.47l112.01 -119.74h-70.04
c-28.3799 0 -36.8096 6.86035 -60.3398 29.7207l-35.3604 34.5195zM283.421 474.45c151.44 0 256.74 -103.53 256.74 -244.48s-105.3 -244.48 -256.74 -244.48c-151.07 0 -256.11 103.53 -256.11 244.48s105.04 244.48 256.11 244.48zM283.421 100.45
c67.71 0 116.61 53.8604 116.61 129.53s-48.9004 129.53 -116.61 129.53c-67.3096 0 -115.93 -53.8604 -115.93 -129.53s48.6201 -129.53 115.93 -129.53z" />
    <glyph glyph-name="uni1ED9" unicode="&#x1ed9;" horiz-adv-x="567" 
d="M247.42 572.5c-23.9102 -23.1699 -32.2598 -30.1104 -60.6396 -30.1104h-70.04l111.96 119.74h107.47l112.01 -119.74h-70.04c-28.3799 0 -36.8096 6.86035 -60.3398 29.7207l-35.3604 34.5195zM283.4 474.46c151.44 0 256.74 -103.53 256.74 -244.48
s-105.3 -244.48 -256.74 -244.48c-151.07 0 -256.11 103.53 -256.11 244.48s105.04 244.48 256.11 244.48zM283.4 100.46c67.71 0 116.61 53.8604 116.61 129.53s-48.9004 129.53 -116.61 129.53c-67.3096 0 -115.93 -53.8604 -115.93 -129.53
s48.6201 -129.53 115.93 -129.53zM284.44 -56.4502c38.6797 0 70.04 -30.3604 70.04 -67.8105s-31.3604 -67.8105 -70.04 -67.8105s-70.04 30.3604 -70.04 67.8105s31.3604 67.8105 70.04 67.8105z" />
    <glyph glyph-name="uni1ED3" unicode="&#x1ed3;" horiz-adv-x="567" 
d="M111.57 604.53c-32.5703 0 -53.2695 4.47949 -70.2695 21.999l-90.1201 93.0703l97.9199 18.4902l100.7 -133.56h-38.2305zM186.791 542.39h-70.0293l111.96 119.74h107.47l112.01 -119.74h-70.04c-28.3799 0 -36.8096 6.86035 -60.3398 29.7207l-35.3604 34.5195
l-35.0195 -34.1299c-23.9102 -23.1699 -32.2705 -30.1104 -60.6504 -30.1104zM283.422 474.46c151.44 0 256.74 -103.53 256.74 -244.48s-105.3 -244.48 -256.74 -244.48c-151.07 0 -256.11 103.53 -256.11 244.48s105.04 244.48 256.11 244.48zM283.422 100.46
c67.71 0 116.61 53.8604 116.61 129.53s-48.9004 129.53 -116.61 129.53c-67.3096 0 -115.93 -53.8604 -115.93 -129.53s48.6201 -129.53 115.93 -129.53z" />
    <glyph glyph-name="uni1ED7" unicode="&#x1ed7;" horiz-adv-x="567" 
d="M230.2 737.36c-29.96 0 -44.79 -20.9902 -55.1699 -38.7402l-56.9297 37c18.2305 26.4102 45.1602 69.8301 102.86 69.8301c56.0596 0 81.9893 -44.7197 121.869 -44.7197c26.3896 0 40.8193 20.7197 51.0693 41.3398l58.6504 -35.5098
c-16.3496 -30.3701 -42.46 -73.2998 -103.61 -73.2998c-53.9199 0 -77.5195 44.0996 -118.739 44.0996zM247.43 572.49c-23.9102 -23.1699 -32.2598 -30.1104 -60.6396 -30.1104h-70.04l111.96 119.74h107.47l112.01 -119.74h-70.04
c-28.3799 0 -36.8096 6.86035 -60.3398 29.7207l-35.3604 34.5195zM283.41 474.45c151.44 0 256.74 -103.53 256.74 -244.48s-105.3 -244.48 -256.74 -244.48c-151.07 0 -256.11 103.53 -256.11 244.48s105.04 244.48 256.11 244.48zM283.41 100.45
c67.71 0 116.61 53.8604 116.61 129.53s-48.9004 129.53 -116.61 129.53c-67.3096 0 -115.93 -53.8604 -115.93 -129.53s48.6201 -129.53 115.93 -129.53z" />
    <glyph glyph-name="odieresis" unicode="&#xf6;" horiz-adv-x="567" 
d="M180.83 674.75c33.9902 0 61.9102 -27.9707 61.9102 -61.7705c0 -35 -27.9199 -62.9805 -61.9102 -62.9805c-34 0 -60.71 27.9805 -60.71 62.9609c0 33.8096 26.71 61.79 60.71 61.79zM385.83 674.76c33.9805 0 61.9004 -27.9707 61.9004 -61.7705
c0 -35 -27.9199 -62.9805 -61.9004 -62.9805c-34 0 -60.71 27.9805 -60.71 62.9609c0 33.8096 26.71 61.79 60.71 61.79zM283.39 -14.4707c-151.07 0 -256.11 103.53 -256.11 244.48s105.04 244.48 256.11 244.48c151.44 0 256.74 -103.53 256.74 -244.48
s-105.3 -244.48 -256.74 -244.48zM283.39 100.47c67.71 0 116.61 53.8604 116.61 129.53s-48.9004 129.53 -116.61 129.53c-67.3096 0 -115.93 -53.8604 -115.93 -129.53s48.6201 -129.53 115.93 -129.53z" />
    <glyph glyph-name="uni022B" unicode="&#x22b;" horiz-adv-x="567" 
d="M130.16 733.34v66.9404h307.09v-66.9404h-307.09zM180.83 674.74c33.9902 0 61.9102 -27.9707 61.9102 -61.7705c0 -35 -27.9199 -62.9805 -61.9102 -62.9805c-34 0 -60.71 27.9805 -60.71 62.9609c0 33.8096 26.71 61.79 60.71 61.79zM385.83 674.75
c33.9805 0 61.9004 -27.9707 61.9004 -61.7705c0 -35 -27.9199 -62.9805 -61.9004 -62.9805c-34 0 -60.71 27.9805 -60.71 62.9609c0 33.8096 26.71 61.79 60.71 61.79zM283.39 -14.4805c-151.07 0 -256.11 103.53 -256.11 244.48s105.04 244.48 256.11 244.48
c151.44 0 256.74 -103.53 256.74 -244.48s-105.3 -244.48 -256.74 -244.48zM283.39 100.46c67.71 0 116.61 53.8604 116.61 129.53s-48.9004 129.53 -116.61 129.53c-67.3096 0 -115.93 -53.8604 -115.93 -129.53s48.6201 -129.53 115.93 -129.53z" />
    <glyph glyph-name="uni1ECD" unicode="&#x1ecd;" horiz-adv-x="567" 
d="M283.39 -14.4902c-151.07 0 -256.11 103.53 -256.11 244.48s105.04 244.48 256.11 244.48c151.44 0 256.74 -103.53 256.74 -244.48s-105.3 -244.48 -256.74 -244.48zM283.39 100.45c67.71 0 116.61 53.8604 116.61 129.53s-48.9004 129.53 -116.61 129.53
c-67.3096 0 -115.93 -53.8604 -115.93 -129.53s48.6201 -129.53 115.93 -129.53zM284.439 -192.06c-38.6797 0 -70.04 30.3604 -70.04 67.8105s31.3604 67.8105 70.04 67.8105s70.04 -30.3604 70.04 -67.8105s-31.3604 -67.8105 -70.04 -67.8105z" />
    <glyph glyph-name="ograve" unicode="&#xf2;" horiz-adv-x="567" 
d="M238.79 594.66l-90.79 93.9795l109.26 17.7402l133.66 -164.15h-40.9102c-37 0 -64.04 3.28027 -111.22 52.4307zM283.38 -14.4902c-151.07 0 -256.11 103.53 -256.11 244.48s105.04 244.48 256.11 244.48c151.44 0 256.74 -103.53 256.74 -244.48
s-105.3 -244.48 -256.74 -244.48zM283.38 100.45c67.71 0 116.61 53.8604 116.61 129.53s-48.9004 129.53 -116.61 129.53c-67.3096 0 -115.93 -53.8604 -115.93 -129.53s48.6201 -129.53 115.93 -129.53z" />
    <glyph glyph-name="ohungarumlaut" unicode="&#x151;" horiz-adv-x="567" 
d="M263.43 594.66c-47.1797 -49.1504 -74.2393 -52.4297 -111.239 -52.4297h-40.9102l133.66 164.15l109.27 -17.7402zM438.83 594.661c-47.1797 -49.1504 -74.2295 -52.4297 -111.229 -52.4297h-40.9102l133.66 164.15l109.26 -17.7402zM283.37 -14.4883
c-151.07 0 -256.11 103.53 -256.11 244.48s105.04 244.48 256.11 244.48c151.44 0 256.74 -103.53 256.74 -244.48s-105.3 -244.48 -256.74 -244.48zM283.37 100.452c67.71 0 116.61 53.8604 116.61 129.53s-48.9004 129.53 -116.61 129.53
c-67.3096 0 -115.93 -53.8604 -115.93 -129.53s48.6201 -129.53 115.93 -129.53z" />
    <glyph glyph-name="omacron" unicode="&#x14d;" horiz-adv-x="567" 
d="M130.16 572.41v66.9404h307.09v-66.9404h-307.09zM283.4 -14.4893c-151.07 0 -256.11 103.53 -256.11 244.48s105.04 244.48 256.11 244.48c151.44 0 256.74 -103.53 256.74 -244.48s-105.3 -244.48 -256.74 -244.48zM283.4 100.451
c67.71 0 116.61 53.8604 116.61 129.53s-48.9004 129.53 -116.61 129.53c-67.3096 0 -115.93 -53.8604 -115.93 -129.53s48.6201 -129.53 115.93 -129.53z" />
    <glyph glyph-name="uni1E53" unicode="&#x1e53;" horiz-adv-x="567" 
d="M231.48 655.6l100.711 133.561l97.9297 -18.4902l-90.1201 -93.0703c-17 -17.5195 -37.71 -22 -70.29 -22h-38.2305zM136.541 544.53v66.9404h307.09v-66.9404h-307.09zM283.401 -14.4795c-151.07 0 -256.11 103.53 -256.11 244.48s105.04 244.48 256.11 244.48
c151.44 0 256.74 -103.53 256.74 -244.48s-105.3 -244.48 -256.74 -244.48zM283.401 100.461c67.71 0 116.61 53.8604 116.61 129.53s-48.9004 129.53 -116.61 129.53c-67.3096 0 -115.93 -53.8604 -115.93 -129.53s48.6201 -129.53 115.93 -129.53z" />
    <glyph glyph-name="uni1E51" unicode="&#x1e51;" horiz-adv-x="567" 
d="M333.18 655.6l-38.2197 -0.000976562c-32.5801 0 -53.29 4.48047 -70.29 22l-90.1201 93.0703l97.9297 18.4902zM136.54 544.519v66.9404h307.09v-66.9404h-307.09zM283.4 -14.4912c-151.07 0 -256.11 103.53 -256.11 244.48s105.04 244.48 256.11 244.48
c151.44 0 256.74 -103.53 256.74 -244.48s-105.3 -244.48 -256.74 -244.48zM283.4 100.449c67.71 0 116.61 53.8604 116.61 129.53s-48.9004 129.53 -116.61 129.53c-67.3096 0 -115.93 -53.8604 -115.93 -129.53s48.6201 -129.53 115.93 -129.53z" />
    <glyph glyph-name="uni01EB" unicode="&#x1eb;" horiz-adv-x="567" 
d="M350.11 -7.30957c-101.78 -56.4697 -81.791 -145.11 16.2988 -105.48l22.5596 -58.3496c-71.0596 -40.1396 -156.68 -25.3496 -180.35 31.9199c-18.5801 44.5801 -1.44043 89.0303 43.3398 126.271c-134.02 13.3301 -224.689 111.98 -224.689 242.931
c0 140.95 105.04 244.48 256.11 244.48c151.44 0 256.74 -103.53 256.74 -244.48c0 -119.15 -75.25 -211.561 -190.01 -237.291zM167.42 229.979c0 -75.6699 48.6201 -129.53 115.93 -129.53c67.71 0 116.61 53.8604 116.61 129.53s-48.9004 129.53 -116.61 129.53
c-67.3096 0 -115.93 -53.8604 -115.93 -129.53z" />
    <glyph glyph-name="oslash" unicode="&#xf8;" horiz-adv-x="567" 
d="M475.92 398.07c40.8301 -42.9502 64.2197 -101.32 64.2197 -168.09c0 -140.95 -104.17 -244.48 -256.74 -244.48c-55.7998 0 -105.109 13.9199 -145.189 38.5l-53.6201 -59.4004l-44.9102 39.8896l51.7402 57.3096c-40.7803 42.9502 -64.1299 101.36 -64.1299 168.17
c0 140.95 103.91 244.48 256.11 244.48c56.0195 0 105.51 -13.96 145.72 -38.5996l53.7197 59.5l44.9004 -39.8896zM149.68 229.98c0 -31.1396 7 -58.9805 19.6104 -81.9004l188.15 208.4c-20.6699 14.0996 -45.8604 21.9697 -74.1904 21.9697
c-78.5703 0 -133.57 -61.2998 -133.57 -148.47zM283.24 81.5195c79.0996 0 133.729 61.3105 133.729 148.48c0 30.9297 -6.87988 58.5996 -19.29 81.4297l-187.97 -208.2c20.5801 -13.9404 45.5605 -21.71 73.5303 -21.71z" />
    <glyph glyph-name="oslashacute" unicode="&#x1ff;" horiz-adv-x="567" 
d="M345.2 594.66c-47.1797 -49.1504 -74.2295 -52.4297 -111.229 -52.4297h-40.9102l133.65 164.15l109.27 -17.7402zM475.91 398.081c40.8301 -42.9502 64.2197 -101.32 64.2197 -168.09c0 -140.95 -104.17 -244.48 -256.74 -244.48
c-55.7998 0 -105.109 13.9199 -145.189 38.5l-53.6201 -59.4004l-44.9102 39.8896l51.7402 57.3096c-40.7803 42.9502 -64.1299 101.36 -64.1299 168.17c0 140.95 103.91 244.48 256.11 244.48c56.0195 0 105.51 -13.96 145.72 -38.5996l53.7197 59.5l44.9004 -39.8896z
M149.67 229.991c0 -31.1396 7 -58.9805 19.6104 -81.9004l188.15 208.4c-20.6699 14.0996 -45.8604 21.9697 -74.1904 21.9697c-78.5703 0 -133.57 -61.2998 -133.57 -148.47zM283.23 81.5303c79.0996 0 133.729 61.3105 133.729 148.48
c0 30.9297 -6.87988 58.5996 -19.29 81.4297l-187.97 -208.2c20.5801 -13.9404 45.5605 -21.71 73.5303 -21.71z" />
    <glyph glyph-name="otilde" unicode="&#xf5;" horiz-adv-x="567" 
d="M347.51 544.22c-53.9199 0 -77.5195 44.0996 -118.739 44.0996c-29.96 0 -44.7998 -20.9805 -55.1797 -38.7402l-56.9297 37c18.2305 26.4102 45.1602 69.8301 102.86 69.8301c56.0596 0 81.9893 -44.7197 121.869 -44.7197c26.3896 0 40.8193 20.7197 51.0693 41.3398
l58.6504 -35.5098c-16.3398 -30.3701 -42.4502 -73.2998 -103.601 -73.2998zM283.39 -14.4902c-151.07 0 -256.11 103.53 -256.11 244.48s105.04 244.48 256.11 244.48c151.44 0 256.74 -103.53 256.74 -244.48s-105.3 -244.48 -256.74 -244.48zM283.39 100.45
c67.71 0 116.61 53.8604 116.61 129.53s-48.9004 129.53 -116.61 129.53c-67.3096 0 -115.93 -53.8604 -115.93 -129.53s48.6201 -129.53 115.93 -129.53z" />
    <glyph glyph-name="uni1E4D" unicode="&#x1e4d;" horiz-adv-x="567" 
d="M231.48 682.28l100.711 133.561l97.9297 -18.4902l-90.1201 -93.0703c-17 -17.5195 -37.71 -22 -70.29 -22h-38.2305zM347.521 544.23c-53.9199 0 -77.5195 44.0996 -118.739 44.0996c-29.96 0 -44.7998 -20.9805 -55.1797 -38.7402l-56.9297 37
c18.2305 26.4102 45.1602 69.8301 102.86 69.8301c56.0596 0 81.9893 -44.7197 121.869 -44.7197c26.3896 0 40.8193 20.7197 51.0693 41.3398l58.6504 -35.5098c-16.3398 -30.3701 -42.4502 -73.2998 -103.601 -73.2998zM283.401 -14.4795
c-151.07 0 -256.11 103.53 -256.11 244.48s105.04 244.48 256.11 244.48c151.44 0 256.74 -103.53 256.74 -244.48s-105.3 -244.48 -256.74 -244.48zM283.401 100.461c67.71 0 116.61 53.8604 116.61 129.53s-48.9004 129.53 -116.61 129.53
c-67.3096 0 -115.93 -53.8604 -115.93 -129.53s48.6201 -129.53 115.93 -129.53z" />
    <glyph glyph-name="oe" unicode="&#x153;" horiz-adv-x="918" 
d="M891.06 230.04l-0.0126953 -33.3906h-346.13c10.0303 -68.0801 51.0605 -110.92 120.131 -110.92c44.8398 0 76.6602 15.2998 103.38 43.7295l91.0703 -74.3496c-44.9297 -44.0498 -107.09 -69.6201 -191.33 -69.6201c-83.29 0 -150.8 26.96 -196.939 72.0996
c-45.3799 -45.0801 -110.61 -72 -187.841 -72c-151.07 0 -256.11 103.53 -256.11 244.48s105.04 244.48 256.11 244.48c76.8604 0 141.841 -26.6699 187.201 -71.3701c44.21 44.6396 107.14 71.2695 180.5 71.2695c140.03 0 239.971 -93.8096 239.971 -244.409z
M651.077 375.18c-57.4199 0 -93.8994 -40.4395 -104.989 -101.729h210.76c-7.03027 60.4697 -42.7305 101.729 -105.771 101.729zM283.337 100.53c67.71 0 116.61 53.8604 116.61 129.53s-48.9004 129.53 -116.61 129.53c-67.3096 0 -115.93 -53.8604 -115.93 -129.53
s48.6201 -129.53 115.93 -129.53z" />
    <glyph glyph-name="p" unicode="p" horiz-adv-x="581" 
d="M339.4 474.45c120.27 0 214.321 -91.1133 214.321 -244.463s-93.7998 -244.479 -214.319 -244.479c-60.8701 0 -107.311 22.2305 -140.971 56.0508v-251.56h-136.15v672.45h119.93l10.1299 -50.71c34.0498 37.4805 82.3896 62.7109 147.06 62.7109zM301.172 100.087
c66.3301 0 113.15 54 113.15 129.91s-46.8203 129.91 -113.15 129.91c-67.2598 0 -115.22 -54 -115.22 -129.91s47.96 -129.91 115.22 -129.91z" />
    <glyph glyph-name="thorn" unicode="&#xfe;" horiz-adv-x="586" 
d="M339.4 474.45c120.27 0 214.32 -91.1123 214.32 -244.462s-93.7998 -244.479 -214.319 -244.479c-60.8701 0 -107.311 22.2305 -140.971 56.0508v-231.56h-136.15v830h136.15v-221.84c33.6396 33.9102 80.0596 56.29 140.97 56.29zM301.171 100.088
c66.3301 0 113.15 54 113.15 129.91s-46.8203 129.91 -113.15 129.91c-67.2598 0 -115.22 -54 -115.22 -129.91s47.96 -129.91 115.22 -129.91z" />
    <glyph glyph-name="q" unicode="q" horiz-adv-x="581" 
d="M398.79 462.45l119.932 -0.0166016v-672.45h-136.15v251.56c-33.6602 -33.8203 -80.1006 -56.0508 -140.971 -56.0508c-120.52 0 -214.319 91.1299 -214.319 244.479s94.0498 244.479 214.319 244.479c64.6699 0 113.01 -25.2305 147.06 -62.7109zM279.842 100.054
c67.2598 0 115.22 54 115.22 129.91s-47.96 129.91 -115.22 129.91c-66.3301 0 -113.15 -54 -113.15 -129.91s46.8203 -129.91 113.15 -129.91z" />
    <glyph glyph-name="r" unicode="r" horiz-adv-x="388" 
d="M315 474.45c45.0996 0 75.3906 -16.6992 75.3906 -16.6992l-37.75 -110.64c-13.2002 6.5498 -29.6201 9.92969 -45.8506 9.92969c-69.7197 0 -108.35 -62 -108.35 -136.97v-220.07h-136.15v462.45h119.48l16.6699 -62.1504c24.8896 41.0596 58.25 74.1494 116.56 74.1494
z" />
    <glyph glyph-name="racute" unicode="&#x155;" horiz-adv-x="388" 
d="M275.89 594.89c-47.1797 -49.1504 -74.2197 -52.4297 -111.22 -52.4297h-40.9199l133.66 164.15l109.26 -17.7402zM314.989 474.461c45.0996 0 75.3906 -16.6992 75.3906 -16.6992l-37.75 -110.64c-13.2002 6.5498 -29.6201 9.92969 -45.8506 9.92969
c-69.7197 0 -108.35 -62 -108.35 -136.97v-220.07h-136.15v462.45h119.48l16.6699 -62.1504c24.8896 41.0596 58.25 74.1494 116.56 74.1494z" />
    </font>
</defs>
</svg>
