<?xml version="1.0" standalone="no"?>
<!DOCTYPE svg PUBLIC "-//W3C//DTD SVG 1.1//EN" "http://www.w3.org/Graphics/SVG/1.1/DTD/svg11.dtd" >
<svg xmlns="http://www.w3.org/2000/svg" xmlns:xlink="http://www.w3.org/1999/xlink" version="1.1">
<metadata>
Created by FontForge 20170924 at Wed Sep 25 00:00:00 2019
 By www-data
20172019, Copyright by Lineto GmbH. All rights reserved.
</metadata>
<defs>
<font id="Unica77MonoLL-Light" horiz-adv-x="600" >
  <font-face 
    font-family="Unica77 Mono LL Light"
    font-weight="300"
    font-stretch="normal"
    units-per-em="1000"
    panose-1="2 1 4 9 1 1 1 1 1 4"
    ascent="800"
    descent="-200"
    x-height="524"
    cap-height="724"
    bbox="-413 -240 652 977"
    underline-thickness="50"
    underline-position="-75"
    unicode-range="U+0020-FEFF"
  />
<missing-glyph 
d="M62 0v726h477v-726h-477zM482 673h-363v-620h363v620z" />
    <glyph glyph-name="f_f" unicode="ff" 
d="M378 453h-216v-453h-56v453h-88v48h88v51c0 65 14 112 41 139s64 41 111 41c12 0 24 0 35 -1s23 -4 37 -7v-48c-13 2 -24 4 -35 6c-11 1 -22 2 -33 2c-16 0 -30 -2 -42 -5c-13 -4 -23 -11 -31 -20c-9 -10 -15 -24 -20 -41s-7 -39 -7 -66v-51h216v51c0 65 12 112 37 139
c24 27 60 41 107 41c12 0 24 0 35 -1s23 -4 37 -7v-48c-13 2 -24 4 -35 6c-11 1 -22 2 -33 2c-16 0 -30 -2 -41 -5c-11 -4 -21 -11 -28 -20c-8 -10 -14 -24 -17 -41c-4 -17 -6 -39 -6 -66v-51h144v-48h-144v-453h-56v453z" />
    <glyph glyph-name="f_i" unicode="fi" 
d="M143 501v51c0 65 14 112 41 139s64 41 111 41c12 0 24 0 35 -1s23 -4 37 -7v-48c-13 2 -24 4 -35 6c-11 1 -22 2 -33 2c-16 0 -30 -2 -42 -5c-13 -4 -23 -11 -31 -20c-9 -10 -15 -24 -20 -41s-7 -39 -7 -66v-51h160v-48h-160v-453h-56v453h-112v48h112zM451 0v501h56
v-501h-56zM435 620v104h80v-104h-80z" />
    <glyph glyph-name="f_l" unicode="fl" 
d="M141 501v51c0 65 14 112 41 139s64 41 111 41c12 0 24 0 35 -1s23 -4 37 -7v-48c-13 2 -24 4 -35 6c-11 1 -22 2 -33 2c-16 0 -30 -2 -42 -5c-13 -4 -23 -11 -31 -20c-9 -10 -15 -24 -20 -41s-7 -39 -7 -66v-51h160v-48h-160v-453h-56v453h-112v48h112zM449 0v724h56
v-724h-56z" />
    <glyph glyph-name=".notdef" 
d="M62 0v726h477v-726h-477zM482 673h-363v-620h363v620z" />
    <glyph glyph-name="NULL" horiz-adv-x="0" 
 />
    <glyph glyph-name="NULL" horiz-adv-x="0" 
 />
    <glyph glyph-name="CR" 
 />
    <glyph glyph-name="space" unicode=" " 
 />
    <glyph glyph-name="exclam" unicode="!" 
d="M281 204l-28 520h92l-24 -520h-40zM256 96h87v-96h-87v96z" />
    <glyph glyph-name="quotedbl" unicode="&#x22;" 
d="M154 724h90l-21 -244h-46zM354 724h90l-21 -244h-46z" />
    <glyph glyph-name="numbersign" unicode="#" 
d="M139 224h-115l13 47h116l51 181h-121l13 47h122l63 225h59l-63 -225h137l63 225h59l-63 -225h102l-13 -47h-103l-52 -181h109l-13 -47h-109l-64 -224h-58l63 224h-137l-64 -224h-58zM211 271h138l51 181h-137z" />
    <glyph glyph-name="dollar" unicode="$" 
d="M278 -9c-68 5 -119 28 -154 68c-35 39 -53 95 -55 167h64c2 -55 14 -98 37 -130c22 -33 58 -52 108 -57v314c-26 8 -51 17 -74 28c-24 10 -45 23 -64 39s-33 35 -44 58s-17 50 -17 82c0 49 17 90 52 123s84 50 147 53v80h48v-80c65 -5 113 -25 145 -60
c31 -36 48 -89 51 -159h-61c-1 53 -12 93 -34 121c-23 28 -56 45 -101 50v-291c30 -8 58 -18 83 -29s47 -25 65 -42s32 -36 42 -59s15 -49 15 -80c0 -27 -5 -52 -14 -75c-10 -23 -24 -44 -41 -61c-18 -17 -40 -31 -65 -41c-25 -11 -54 -17 -85 -19v-92h-48v92zM469 187
c0 25 -4 45 -11 62s-17 31 -30 42s-29 21 -46 29c-17 7 -36 14 -56 20v-301c45 3 81 18 106 44s37 61 37 104zM142 558c0 -21 4 -39 11 -54c7 -16 17 -30 30 -42c12 -12 26 -22 43 -30c16 -8 33 -15 52 -21v278c-43 -3 -77 -16 -100 -38c-24 -23 -36 -54 -36 -93z" />
    <glyph glyph-name="percent" unicode="%" 
d="M34 578c0 50 13 88 40 115c26 26 58 39 96 39s70 -13 97 -39c26 -27 39 -65 39 -115s-13 -88 -39 -114c-27 -27 -59 -40 -97 -40s-70 13 -96 40c-27 26 -40 64 -40 114zM258 578c0 37 -8 66 -25 85s-38 29 -63 29s-46 -10 -63 -29s-25 -48 -25 -85s8 -66 25 -85
s38 -29 63 -29s46 10 63 29s25 48 25 85zM294 146c0 50 13 88 40 115c26 26 58 39 96 39s70 -13 97 -39c26 -27 39 -65 39 -115s-13 -88 -39 -114c-27 -27 -59 -40 -97 -40s-70 13 -96 40c-27 26 -40 64 -40 114zM518 146c0 37 -8 66 -25 85s-38 29 -63 29s-46 -10 -63 -29
s-25 -48 -25 -85s8 -66 25 -85s38 -29 63 -29s46 10 63 29s25 48 25 85zM553 506l-484 -344l-20 28l484 344z" />
    <glyph glyph-name="ampersand" unicode="&#x26;" 
d="M57 184c0 86 47 155 141 208c-28 33 -50 66 -67 97s-26 63 -26 95c0 22 4 43 12 62c7 19 18 35 33 49c14 13 31 24 52 32c20 8 42 12 67 12c54 0 95 -14 123 -43c27 -29 41 -66 41 -112c0 -36 -14 -71 -41 -106c-28 -35 -67 -66 -117 -94l161 -205c14 33 24 66 31 101
s10 67 10 96h56c0 -39 -5 -79 -15 -122s-25 -84 -45 -122l104 -132h-72l-65 82c-22 -29 -48 -53 -78 -70c-31 -18 -66 -27 -105 -27c-65 0 -115 18 -149 54s-51 84 -51 145zM261 33c32 0 60 9 84 26s45 38 62 65l-182 234c-34 -20 -60 -45 -79 -76s-29 -64 -29 -98
c0 -46 13 -83 38 -110s61 -41 106 -41zM161 584c0 -22 8 -48 24 -77s37 -59 62 -89c49 28 83 56 102 85c19 28 28 55 28 81c0 34 -10 61 -30 80c-21 19 -47 29 -78 29c-15 0 -30 -3 -43 -8c-13 -6 -25 -14 -34 -24c-10 -10 -18 -22 -23 -35s-8 -27 -8 -42z" />
    <glyph glyph-name="quotesingle" unicode="'" 
d="M254 724h90l-21 -244h-46z" />
    <glyph glyph-name="parenleft" unicode="(" 
d="M353 -108c-46 75 -81 148 -104 219c-24 70 -36 140 -36 209c0 34 4 69 12 104c7 35 17 71 30 107c13 35 28 71 45 106s34 69 53 103h56c-18 -38 -35 -74 -50 -108c-16 -34 -30 -68 -41 -101s-20 -67 -27 -101c-7 -35 -10 -71 -10 -110c0 -36 3 -72 10 -109
s16 -73 28 -109c11 -37 25 -72 41 -107c15 -35 32 -70 49 -103h-56z" />
    <glyph glyph-name="parenright" unicode=")" 
d="M194 -108c17 33 33 68 48 103s29 70 40 107c11 36 19 72 26 109s10 73 10 109c0 39 -3 75 -9 110c-7 34 -15 68 -26 101s-25 67 -40 101s-32 70 -49 108h56c18 -34 35 -68 52 -103s31 -71 44 -106c12 -36 22 -72 29 -107s11 -70 11 -104c0 -69 -11 -139 -34 -209
c-23 -71 -57 -144 -102 -219h-56z" />
    <glyph glyph-name="asterisk" unicode="*" 
d="M271 552l-137 32l20 56l128 -55l-15 139h67l-16 -137l129 53l18 -60l-137 -28l92 -100l-53 -39l-69 121l-66 -121l-53 39z" />
    <glyph glyph-name="plus" unicode="+" 
d="M90 258v50h182v188h55v-188h183v-50h-183v-188h-55v188h-182z" />
    <glyph glyph-name="comma" unicode="," 
d="M301 8h-51v97h99v-107l-48 -147h-40z" />
    <glyph glyph-name="hyphen" unicode="-" 
d="M168 268v64h264v-64h-264z" />
    <glyph glyph-name="period" unicode="." 
d="M250 105h99v-105h-99v105z" />
    <glyph glyph-name="slash" unicode="/" 
d="M144 0l264 726h49l-264 -726h-49z" />
    <glyph glyph-name="zero" unicode="0" 
d="M304 737c73 0 128 -31 167 -92c38 -61 57 -155 57 -282s-19 -221 -58 -282s-96 -92 -171 -92c-73 0 -130 31 -169 92s-59 155 -59 282s20 221 60 282s98 92 173 92zM301 688c-54 0 -95 -26 -124 -79s-43 -135 -43 -246c0 -110 14 -192 41 -245s68 -80 123 -80
s97 27 125 80s42 134 42 245s-14 193 -41 246s-68 79 -123 79z" />
    <glyph glyph-name="one" unicode="1" 
d="M350 52h150v-52h-363v52h153v509h-143v48c28 1 51 3 70 6c18 3 33 8 45 16c11 8 20 20 26 35s10 34 13 58h49v-672z" />
    <glyph glyph-name="two" unicode="2" 
d="M84 20c0 35 3 66 9 94c5 28 15 54 29 78c13 24 32 47 56 69c23 22 53 45 89 68c32 21 59 39 81 56s40 33 54 50s24 34 30 53c6 18 9 39 9 63c0 20 -3 38 -10 55s-16 31 -28 44c-12 12 -26 21 -42 28c-17 7 -35 10 -54 10c-44 0 -79 -14 -105 -42s-39 -65 -40 -112h-62
c1 31 7 59 18 84c10 25 24 46 42 64c17 17 39 31 64 41c25 9 52 14 82 14c29 0 55 -4 80 -13c24 -9 45 -22 62 -38s31 -35 41 -57c9 -23 14 -48 14 -75c0 -29 -4 -55 -12 -78c-9 -23 -20 -43 -34 -61c-14 -19 -30 -35 -48 -50c-19 -15 -38 -30 -58 -44
c-24 -17 -48 -33 -72 -49c-24 -17 -45 -35 -64 -55c-19 -21 -35 -44 -47 -70s-18 -57 -18 -94h369v-53h-435v20z" />
    <glyph glyph-name="three" unicode="3" 
d="M143 193c0 -49 14 -88 42 -115s64 -41 109 -41c23 0 43 4 62 11s35 18 49 32c13 13 24 29 32 48c7 18 11 38 11 60c0 47 -16 85 -47 113c-32 28 -74 42 -125 42h-32v49h29c49 0 88 14 119 41c30 27 45 65 45 115c0 45 -13 79 -38 104c-26 24 -60 36 -102 36
c-43 0 -77 -13 -101 -38c-25 -26 -37 -60 -38 -103h-64c5 62 25 109 60 142c35 32 83 48 143 48s109 -16 146 -47s55 -78 55 -140c0 -43 -10 -79 -29 -109c-19 -31 -51 -53 -95 -68v-3c46 -8 80 -28 103 -61s34 -74 34 -122c0 -30 -5 -57 -15 -81c-11 -25 -25 -46 -44 -63
s-42 -31 -69 -40s-58 -14 -92 -14c-67 0 -118 18 -154 53c-37 35 -56 85 -59 151h65z" />
    <glyph glyph-name="four" unicode="4" 
d="M362 205h-304v53l284 466h80v-467h115v-52h-115v-205h-60v205zM121 257h241v191l5 216l-6 -1z" />
    <glyph glyph-name="five" unicode="5" 
d="M156 177c1 -42 14 -76 39 -101s58 -38 101 -38c24 0 46 5 65 14s36 22 50 39c13 17 24 37 32 60c7 23 11 50 11 79c0 57 -12 103 -37 138s-60 52 -106 52c-37 0 -69 -9 -96 -28s-47 -49 -60 -88h-57l33 420h354v-53h-301l-23 -269v-1c17 23 40 40 69 52
c28 11 58 17 89 17c59 0 107 -21 143 -62s54 -101 54 -178c0 -37 -5 -71 -16 -100c-11 -30 -26 -55 -45 -76s-43 -37 -70 -48s-57 -17 -90 -17c-29 0 -55 5 -79 14s-45 21 -63 38c-18 16 -32 36 -42 59s-15 48 -16 77h61z" />
    <glyph glyph-name="six" unicode="6" 
d="M445 563c-1 39 -13 70 -36 92s-54 33 -92 33c-54 0 -94 -26 -120 -79c-27 -53 -43 -133 -50 -242v-1c17 33 41 57 70 74s63 25 102 25c30 0 57 -6 82 -17s46 -27 64 -48c17 -21 31 -45 41 -74s15 -62 15 -98c0 -35 -5 -67 -16 -96s-25 -54 -44 -75s-41 -38 -67 -50
c-27 -12 -55 -18 -86 -18c-46 0 -83 9 -112 27s-52 43 -68 74c-17 31 -28 68 -33 111c-6 43 -9 89 -9 138c0 135 20 235 61 300c40 65 98 98 173 98c59 0 104 -16 135 -47c31 -32 48 -74 49 -127h-59zM313 416c-23 0 -44 -5 -63 -14s-36 -22 -49 -38
c-14 -17 -25 -36 -32 -59c-8 -23 -12 -48 -12 -75c0 -28 4 -54 11 -77c7 -24 18 -44 31 -61s28 -31 47 -40c18 -9 38 -14 60 -14c23 0 43 5 62 14s35 22 49 39c13 17 24 37 31 60s11 49 11 77c0 27 -3 53 -10 76s-17 42 -30 59s-29 30 -47 39s-38 14 -59 14z" />
    <glyph glyph-name="seven" unicode="7" 
d="M512 724v-53c-34 -57 -64 -113 -89 -168c-26 -55 -49 -109 -68 -164s-36 -110 -50 -166c-15 -56 -28 -114 -40 -173h-67c12 60 26 118 41 174s33 111 54 166c20 55 43 109 69 164c26 54 55 110 88 167h-359v53h421z" />
    <glyph glyph-name="eight" unicode="8" 
d="M211 380c-34 13 -62 34 -83 64s-32 66 -32 107c0 29 5 55 16 78c10 23 24 42 42 58s40 28 65 37s52 13 81 13c30 0 58 -4 83 -12c25 -9 46 -21 64 -37s32 -35 43 -58c10 -23 15 -48 15 -76c0 -40 -11 -75 -33 -106s-50 -54 -84 -68v-4c20 -5 38 -14 54 -25s30 -25 42 -41
c11 -17 20 -35 27 -55c6 -21 9 -42 9 -65c0 -31 -5 -59 -16 -84s-26 -47 -45 -64s-42 -30 -69 -39s-57 -14 -90 -14s-64 5 -91 14s-51 23 -70 40s-34 39 -44 64c-11 25 -16 54 -16 85c0 44 12 82 37 115s56 56 95 69v4zM300 353c-22 0 -43 -4 -62 -12
c-19 -9 -36 -20 -50 -34c-15 -15 -26 -32 -34 -51s-12 -40 -12 -63s4 -45 12 -64c7 -19 18 -36 32 -49s31 -24 50 -31s41 -11 64 -11s44 4 63 11s36 18 50 31s25 30 33 49c7 19 11 40 11 63s-4 44 -11 64c-8 19 -19 36 -32 51c-14 14 -31 25 -50 34c-19 8 -41 12 -64 12z
M300 688c-43 0 -77 -12 -103 -37c-27 -25 -40 -58 -40 -99c0 -22 4 -42 11 -60s16 -34 29 -47c12 -13 27 -24 45 -31c17 -7 37 -11 58 -11c22 0 42 4 60 11c17 7 32 18 45 31s22 29 29 47s10 38 10 60c0 41 -13 74 -39 99c-27 25 -62 37 -105 37z" />
    <glyph glyph-name="nine" unicode="9" 
d="M155 169c2 -40 15 -72 39 -95c24 -24 56 -36 95 -36c27 0 49 5 67 16c18 10 33 24 45 41s21 36 28 59c7 22 12 45 15 70c3 24 4 49 5 74s1 48 1 70c-22 -36 -47 -62 -74 -77c-28 -15 -61 -23 -99 -23c-29 0 -56 6 -80 18c-25 11 -45 27 -62 48s-31 46 -40 75
s-14 61 -14 96c0 33 5 64 16 93c10 28 24 52 43 73c18 21 40 37 66 49c26 11 55 17 86 17c78 0 134 -29 169 -87c34 -59 51 -149 51 -271c0 -47 -2 -93 -6 -140c-5 -47 -15 -88 -30 -125s-38 -67 -67 -90s-69 -35 -120 -35c-59 0 -106 15 -139 46c-34 31 -54 75 -59 134h64z
M292 688c-21 0 -41 -4 -59 -12c-18 -9 -33 -21 -46 -36c-13 -16 -24 -35 -31 -58c-8 -23 -12 -48 -12 -76c0 -27 3 -52 9 -75c5 -23 14 -42 26 -59c11 -17 26 -31 43 -40s36 -14 58 -14c24 0 46 5 65 15c19 9 35 23 48 40s23 37 30 60s10 48 10 75c0 25 -3 49 -9 71
s-15 41 -26 57c-12 16 -27 29 -44 38c-18 9 -39 14 -62 14z" />
    <glyph glyph-name="colon" unicode=":" 
d="M250 524h99v-105h-99v105zM250 105h99v-105h-99v105z" />
    <glyph glyph-name="semicolon" unicode=";" 
d="M250 524h99v-105h-99v105zM301 8h-51v97h99v-107l-48 -147h-40z" />
    <glyph glyph-name="less" unicode="&#x3c;" 
d="M84 303l421 199v-59l-372 -169l372 -175v-59l-421 201v62z" />
    <glyph glyph-name="equal" unicode="=" 
d="M90 221h420v-50h-420v50zM90 381h420v-50h-420v50z" />
    <glyph glyph-name="greater" unicode="&#x3e;" 
d="M516 241l-421 -201v59l371 175l-371 169v59l421 -199v-62z" />
    <glyph glyph-name="question" unicode="?" 
d="M259 204v16c0 29 5 53 14 74s21 39 35 55s29 31 45 44s31 27 45 42c14 14 26 30 35 47s14 38 14 62c0 25 -4 46 -13 64s-20 33 -34 44s-30 19 -47 24c-18 5 -36 8 -54 8c-19 0 -37 -3 -55 -10c-19 -7 -35 -18 -49 -32c-15 -15 -26 -33 -35 -54c-9 -22 -13 -47 -13 -76
h-60c0 37 6 70 17 98s27 51 46 70s42 33 67 42s53 14 82 14s56 -4 82 -11s49 -19 68 -34s34 -35 45 -59c11 -25 17 -54 17 -88c0 -27 -5 -50 -14 -69c-10 -20 -22 -38 -37 -54s-30 -31 -47 -44c-17 -14 -32 -28 -47 -43s-27 -32 -36 -49c-10 -17 -15 -38 -15 -61v-20h-56z
M245 96h87v-96h-87v96z" />
    <glyph glyph-name="at" unicode="@" 
d="M211 252c0 54 22 93 67 118c45 24 114 38 209 41v5c0 58 -12 103 -36 134s-63 46 -117 46c-26 0 -53 -6 -80 -17c-28 -11 -53 -30 -76 -57s-42 -62 -57 -106s-23 -99 -23 -164c0 -97 21 -172 64 -226c43 -55 103 -82 180 -82c36 0 69 5 98 14s58 20 85 33l21 -40
c-32 -18 -66 -31 -102 -39c-37 -8 -72 -12 -106 -12c-42 0 -81 7 -116 21c-36 14 -67 36 -93 65s-46 65 -61 109s-22 96 -22 157c0 77 9 140 27 191c17 50 40 90 68 119s59 49 94 61c35 11 69 17 103 17c37 0 68 -5 94 -15c25 -11 46 -26 62 -45c16 -20 28 -44 35 -71
c7 -28 10 -59 10 -93v-159c0 -21 1 -42 4 -62s7 -41 12 -62h-48c-3 12 -6 23 -7 33c-2 9 -4 21 -5 35c-16 -28 -37 -48 -63 -59c-26 -12 -53 -18 -81 -18c-44 0 -78 11 -103 33c-25 21 -37 53 -37 95zM487 372c-78 -2 -135 -13 -170 -32c-36 -20 -54 -49 -54 -87
c0 -15 3 -28 9 -39c5 -11 13 -21 22 -28s20 -13 32 -16c12 -4 24 -6 37 -6c19 0 36 4 51 13c15 8 28 19 39 34s19 32 25 53s9 44 9 69v39z" />
    <glyph glyph-name="A" unicode="A" 
d="M439 228h-279l-74 -228h-64l244 724h68l244 -724h-64zM177 280h245l-120 368h-4z" />
    <glyph glyph-name="B" unicode="B" 
d="M103 724h184c31 0 60 -3 88 -8c27 -6 52 -16 73 -30c21 -15 37 -34 49 -58c12 -25 18 -55 18 -92c0 -36 -11 -69 -33 -99c-22 -31 -54 -52 -95 -63v-4c48 -8 85 -26 110 -55s38 -67 38 -115c0 -39 -7 -72 -20 -97c-14 -26 -32 -46 -55 -61s-49 -26 -78 -32
c-29 -7 -60 -10 -91 -10h-188v724zM291 48c57 0 100 11 131 34c30 23 45 62 45 118c0 20 -3 39 -8 57c-5 17 -15 33 -29 46c-15 13 -34 24 -59 32c-25 7 -57 11 -96 11h-112v-298h128zM275 394c25 0 49 3 71 8s41 13 57 24s29 26 38 44s14 40 14 66c0 48 -14 83 -41 106
s-71 34 -131 34h-120v-282h112z" />
    <glyph glyph-name="C" unicode="C" 
d="M556 229c-14 -77 -41 -136 -80 -179c-40 -43 -93 -65 -160 -65c-41 0 -77 9 -109 27c-33 17 -60 42 -82 75c-23 33 -40 72 -51 118c-12 46 -18 98 -18 155s6 108 18 155c11 47 28 87 51 120c22 33 49 59 82 77c32 18 68 27 109 27c65 0 118 -21 158 -62
c40 -42 67 -100 82 -174h-64c-12 57 -33 102 -62 135s-67 49 -114 49c-31 0 -58 -8 -82 -24c-25 -16 -45 -38 -62 -67s-29 -64 -38 -104s-14 -84 -14 -132s5 -92 14 -131c9 -40 21 -74 38 -102c17 -29 37 -51 62 -66c24 -16 51 -24 82 -24c48 0 87 17 116 52s49 81 60 140
h64z" />
    <glyph glyph-name="D" unicode="D" 
d="M80 724h160c48 0 92 -7 131 -22s73 -38 101 -68s50 -67 65 -112s23 -98 23 -158c0 -55 -7 -105 -22 -150s-37 -84 -64 -115c-28 -32 -62 -56 -101 -73s-84 -26 -133 -26h-160v724zM240 48c41 0 77 8 109 23s59 37 81 65c21 27 38 60 49 99s17 82 17 129
c0 103 -22 181 -67 232s-108 76 -189 76h-100v-624h100z" />
    <glyph glyph-name="E" unicode="E" 
d="M129 0v724h372v-52h-312v-274h296v-52h-296v-294h328v-52h-388z" />
    <glyph glyph-name="F" unicode="F" 
d="M137 0v724h384v-52h-324v-286h308v-52h-308v-334h-60z" />
    <glyph glyph-name="G" unicode="G" 
d="M470 527c-9 49 -27 87 -53 115c-26 27 -59 41 -99 41c-31 0 -58 -7 -82 -22c-25 -15 -45 -37 -62 -64c-17 -28 -29 -62 -38 -102s-14 -85 -14 -135c0 -45 4 -88 12 -127c7 -40 19 -75 34 -104s34 -53 57 -70c22 -17 48 -26 77 -26c21 0 41 5 62 16c20 11 38 26 55 47
c16 21 29 46 40 77c10 30 15 64 15 103v48h-148v52h204v-376h-48l-12 88c-8 -17 -18 -32 -31 -45s-26 -23 -41 -32s-31 -15 -47 -19c-17 -5 -33 -7 -49 -7c-39 0 -74 9 -104 27c-31 17 -56 42 -77 75s-36 72 -47 118s-16 98 -16 155s6 108 18 155c11 47 28 87 51 120
c22 33 49 59 82 77c32 18 68 27 109 27c59 0 106 -18 143 -54c37 -37 61 -89 73 -158h-64z" />
    <glyph glyph-name="H" unicode="H" 
d="M524 0h-60v344h-328v-344h-60v724h60v-328h328v328h60v-724z" />
    <glyph glyph-name="I" unicode="I" 
d="M104 724h392v-52h-166v-620h166v-52h-392v52h166v620h-166v52z" />
    <glyph glyph-name="J" unicode="J" 
d="M270 -15c-38 0 -70 6 -96 17s-47 27 -63 48s-27 48 -34 79s-10 66 -10 106v41h60v-37c0 -67 11 -118 32 -151c21 -34 58 -51 111 -51s91 16 112 49s31 82 31 149v489h60v-485c0 -40 -3 -76 -10 -107s-18 -58 -34 -80s-37 -39 -63 -50s-58 -17 -96 -17z" />
    <glyph glyph-name="K" unicode="K" 
d="M512 0l-340 368v-368h-60v724h60v-324l320 324h76l-332 -336l356 -388h-80z" />
    <glyph glyph-name="L" unicode="L" 
d="M154 0v724h60v-672h328v-52h-388z" />
    <glyph glyph-name="M" unicode="M" 
d="M306 139l151 585h76v-724h-56l2 595h-6l-153 -595h-40l-153 595h-6l2 -595h-56v724h80l151 -585h8z" />
    <glyph glyph-name="N" unicode="N" 
d="M464 724h60v-724h-72l-316 616h-4c1 -48 2 -94 3 -137c1 -44 1 -89 1 -135v-344h-60v724h72l316 -608h4c-1 48 -1 94 -2 138c-1 43 -2 88 -2 134v336z" />
    <glyph glyph-name="O" unicode="O" 
d="M300 37c30 0 57 8 80 24c23 15 43 37 59 66s28 63 37 103c8 39 12 83 12 131s-4 92 -12 132c-9 40 -21 74 -37 103s-36 51 -59 67s-50 24 -80 24s-57 -8 -80 -24s-43 -38 -59 -67s-28 -63 -36 -103c-9 -40 -13 -84 -13 -132s4 -92 13 -131c8 -40 20 -74 36 -103
s36 -51 59 -66c23 -16 50 -24 80 -24zM300 -15c-40 0 -76 9 -107 27c-31 17 -58 43 -79 76s-38 72 -49 118s-17 98 -17 155s6 108 17 155s28 87 49 120s48 58 79 76s67 27 107 27s76 -9 107 -27s58 -43 79 -76s38 -73 49 -120s17 -98 17 -155s-6 -109 -17 -155
s-28 -85 -49 -118s-48 -59 -79 -76c-31 -18 -67 -27 -107 -27z" />
    <glyph glyph-name="P" unicode="P" 
d="M117 0v724h174c31 0 63 -3 94 -9c31 -7 60 -18 85 -34c25 -17 45 -39 60 -68s23 -66 23 -111s-8 -82 -23 -111s-35 -51 -60 -67c-25 -17 -54 -28 -85 -34c-31 -7 -63 -10 -94 -10h-114v-280h-60zM289 332c25 0 49 2 73 7s45 13 64 26s34 30 46 52c11 22 17 50 17 85
s-6 63 -17 85c-12 22 -27 39 -46 52s-40 21 -64 26s-48 7 -73 7h-112v-340h112z" />
    <glyph glyph-name="Q" unicode="Q" 
d="M300 -15c-40 0 -76 9 -107 27c-31 17 -58 43 -79 76s-38 72 -49 118s-17 98 -17 155s6 108 17 155s28 87 49 120s48 58 79 76s67 27 107 27s76 -9 107 -27s58 -43 79 -76s38 -73 49 -120s17 -98 17 -155c0 -69 -8 -129 -24 -182s-40 -96 -71 -128l71 -83l-48 -36l-70 81
c-33 -19 -70 -28 -110 -28zM300 37c28 0 53 6 74 19l-74 88l48 36l70 -83c23 28 40 65 52 110s18 96 18 154c0 48 -4 92 -12 132c-9 40 -21 74 -37 103s-36 51 -59 67s-50 24 -80 24s-57 -8 -80 -24s-43 -38 -59 -67s-28 -63 -36 -103c-9 -40 -13 -84 -13 -132
s4 -92 13 -131c8 -40 20 -74 36 -103s36 -51 59 -66c23 -16 50 -24 80 -24z" />
    <glyph glyph-name="R" unicode="R" 
d="M108 724h172c81 0 140 -17 179 -50c38 -33 57 -83 57 -150c0 -43 -13 -81 -38 -114s-62 -55 -110 -66v-4c19 -1 34 -5 47 -12s23 -15 31 -25c8 -11 14 -22 19 -34c5 -13 9 -25 12 -37l65 -232h-68l-55 206c-6 22 -12 40 -18 53c-7 13 -15 24 -26 32c-11 7 -24 12 -40 15
c-17 3 -38 4 -63 4h-104v-310h-60v724zM272 362c26 0 50 4 73 12s42 19 59 33c16 14 29 31 38 51s14 42 14 66c0 22 -3 42 -9 60s-16 34 -30 47s-32 23 -55 30s-52 11 -86 11h-108v-310h104z" />
    <glyph glyph-name="S" unicode="S" 
d="M261 352c-23 7 -46 15 -67 26c-21 10 -40 23 -56 39s-29 35 -38 57c-10 22 -15 48 -15 78c0 27 5 52 15 75s24 42 43 59s41 30 67 39s55 14 87 14c33 0 63 -5 90 -15s51 -24 70 -43s33 -42 44 -69s16 -58 16 -92h-60c-1 29 -7 54 -16 76c-9 21 -21 39 -36 53
s-32 25 -51 32s-38 10 -57 10c-20 0 -39 -3 -57 -9c-19 -6 -35 -15 -49 -26c-14 -12 -25 -27 -33 -44c-9 -17 -13 -37 -13 -60c0 -21 4 -40 11 -55c7 -16 18 -30 31 -42s29 -22 47 -31s38 -16 59 -22l52 -15c25 -7 49 -16 72 -27c22 -11 41 -24 58 -40c17 -17 30 -37 40 -60
c9 -23 14 -51 14 -84c0 -27 -5 -52 -15 -75c-11 -23 -26 -44 -45 -61s-43 -31 -70 -40c-28 -10 -59 -15 -94 -15c-75 0 -133 21 -174 62s-62 100 -62 177h60c0 -61 16 -108 48 -141c31 -33 74 -50 128 -50c24 0 46 4 66 11s37 18 52 31c14 13 25 28 34 45c8 17 12 36 12 56
c0 23 -3 43 -10 60s-17 31 -30 44s-30 24 -49 33c-20 9 -42 17 -67 24z" />
    <glyph glyph-name="T" unicode="T" 
d="M268 0v672h-220v52h504v-52h-224v-672h-60z" />
    <glyph glyph-name="U" unicode="U" 
d="M300 -15c-43 0 -79 6 -108 18s-53 30 -70 54c-18 23 -31 52 -38 86c-8 34 -12 73 -12 117v464h60v-460c0 -75 13 -132 38 -170s68 -57 130 -57s106 18 131 55s37 93 37 168v464h60v-460c0 -44 -4 -83 -11 -118c-8 -35 -21 -64 -38 -87c-18 -24 -42 -42 -71 -55
s-65 -19 -108 -19z" />
    <glyph glyph-name="V" unicode="V" 
d="M263 0l-232 724h68l200 -644h4l204 644h60l-228 -724h-76z" />
    <glyph glyph-name="W" unicode="W" 
d="M402 0l-100 588h-4l-100 -588h-82l-92 724h62l76 -624h4l107 624h58l107 -624h4l76 624h58l-92 -724h-82z" />
    <glyph glyph-name="X" unicode="X" 
d="M38 0l230 371l-218 353h68l183 -299l185 299h64l-218 -349l230 -375h-64l-199 322l-201 -322h-60z" />
    <glyph glyph-name="Y" unicode="Y" 
d="M266 0v300l-221 424h64l188 -364h8l196 364h60l-229 -424v-300h-66z" />
    <glyph glyph-name="Z" unicode="Z" 
d="M71 0v56l378 616h-370v52h440v-52l-378 -620h398v-52h-468z" />
    <glyph glyph-name="bracketleft" unicode="[" 
d="M235 724h196v-44h-140v-740h140v-44h-196v828z" />
    <glyph glyph-name="backslash" unicode="\" 
d="M406 0l-263 726h48l265 -726h-50z" />
    <glyph glyph-name="bracketright" unicode="]" 
d="M169 -104v44h140v740h-140v44h196v-828h-196z" />
    <glyph glyph-name="asciicircum" unicode="^" 
d="M282 724h35l183 -403h-59l-144 313l-142 -313h-56z" />
    <glyph glyph-name="underscore" unicode="_" 
d="M61 -123v39h477v-39h-477z" />
    <glyph glyph-name="grave" unicode="`" 
d="M219 724h75l88 -123h-52z" />
    <glyph glyph-name="a" unicode="a" 
d="M91 132c0 33 8 60 24 81s39 39 68 52s64 22 105 29c41 6 86 10 135 12v45c0 45 -10 79 -30 104c-20 24 -51 36 -94 36c-19 0 -36 -2 -52 -7s-30 -13 -42 -23s-21 -22 -28 -37s-10 -33 -10 -53h-56c0 25 5 48 14 69s22 38 39 53s37 26 60 34s48 12 75 12
c63 0 109 -16 138 -49c28 -33 42 -79 42 -136v-198c0 -27 1 -53 4 -78c2 -25 6 -51 12 -78h-56c-3 11 -6 24 -8 38c-3 13 -4 26 -4 38c-20 -32 -45 -54 -75 -67s-60 -20 -89 -20c-53 0 -94 12 -125 37s-47 60 -47 106zM271 33c27 0 50 5 69 15c19 9 35 23 48 40
c12 17 21 38 27 62c5 23 8 49 8 78v35c-42 -2 -80 -5 -113 -10s-62 -12 -85 -22c-24 -10 -42 -23 -55 -39s-19 -36 -19 -60c0 -33 12 -57 35 -74s51 -25 85 -25z" />
    <glyph glyph-name="b" unicode="b" 
d="M100 0v724h56v-285c19 32 43 56 71 72s59 24 93 24c31 0 60 -6 87 -17s50 -28 69 -51s33 -52 44 -86c11 -35 16 -75 16 -121c0 -47 -6 -88 -18 -122s-28 -62 -48 -84c-21 -22 -44 -38 -71 -49s-54 -16 -83 -16c-15 0 -31 2 -46 5c-16 3 -31 9 -46 17s-28 19 -40 32
c-13 13 -23 30 -32 49v-92h-52zM316 37c19 0 39 5 58 14s37 22 52 41c15 18 27 41 36 69s14 61 14 99s-4 71 -12 100c-9 28 -20 52 -34 71c-15 19 -32 33 -51 42c-20 9 -41 14 -63 14c-26 0 -49 -6 -69 -17s-37 -27 -50 -47c-13 -21 -23 -45 -30 -72c-7 -28 -11 -58 -11 -91
c0 -31 4 -59 11 -86s17 -51 30 -71c13 -21 30 -37 50 -48c20 -12 43 -18 69 -18z" />
    <glyph glyph-name="c" unicode="c" 
d="M311 -15c-35 0 -66 6 -94 19s-52 31 -72 55c-20 23 -35 52 -46 86c-11 33 -16 71 -16 114c0 42 5 80 16 115c11 34 26 63 46 88s44 44 72 57s59 20 94 20c59 0 107 -16 144 -49s60 -80 68 -143h-60c-3 24 -9 45 -18 63c-10 18 -22 33 -36 45s-29 21 -46 27s-35 9 -52 9
c-26 0 -49 -6 -70 -18c-21 -13 -38 -29 -52 -50c-15 -21 -26 -46 -34 -74s-12 -58 -12 -90c0 -33 4 -63 12 -90c8 -28 20 -52 35 -72s32 -36 53 -47c20 -11 43 -17 68 -17c17 0 33 3 50 9c16 5 31 14 45 26s26 27 36 46s17 41 21 66h60c-5 -33 -14 -62 -27 -86
c-13 -25 -29 -45 -48 -61s-40 -28 -63 -36s-48 -12 -74 -12z" />
    <glyph glyph-name="d" unicode="d" 
d="M448 0v89c-20 -35 -44 -60 -73 -76s-61 -24 -95 -24c-31 0 -60 6 -87 17s-49 29 -68 52s-34 51 -45 86c-11 34 -16 74 -16 120c0 47 6 87 18 122c12 34 28 62 49 84c20 22 43 38 70 49s54 16 83 16c32 0 62 -7 89 -20c27 -14 51 -39 71 -75v284h56v-724h-52zM284 487
c-19 0 -39 -4 -58 -13s-36 -23 -51 -41c-15 -19 -28 -42 -37 -70s-14 -61 -14 -99s4 -71 13 -99c8 -29 19 -52 34 -71c14 -19 31 -34 51 -43c19 -9 40 -14 62 -14c25 0 48 6 67 17s36 26 50 45c13 19 24 42 31 69c7 26 11 55 12 86v19c-1 30 -5 58 -12 84s-18 49 -31 68
c-14 19 -31 35 -50 46s-42 16 -67 16z" />
    <glyph glyph-name="e" unicode="e" 
d="M520 256h-380c0 -33 4 -64 13 -91c8 -27 20 -51 35 -70s32 -34 53 -45c20 -11 42 -17 67 -17c34 0 64 11 89 32s44 47 55 79h60c-13 -50 -38 -89 -74 -117c-37 -28 -80 -42 -130 -42c-34 0 -65 6 -93 18s-52 30 -72 54c-20 23 -35 52 -46 86s-17 73 -17 117
c0 40 5 77 16 111s26 64 45 89s43 44 71 58c27 14 58 21 92 21c66 0 119 -22 158 -67s58 -112 58 -200v-16zM304 491c-22 0 -42 -5 -60 -14c-19 -10 -35 -23 -48 -40c-14 -17 -25 -37 -34 -60s-16 -47 -19 -73h316c-5 59 -20 105 -46 138c-27 33 -63 49 -109 49z" />
    <glyph glyph-name="f" unicode="f" 
d="M258 501v43c0 66 15 114 46 144c30 29 72 44 126 44c12 0 24 0 35 -1s24 -4 37 -7v-48c-13 2 -24 4 -35 6c-11 1 -22 2 -33 2c-19 0 -35 -2 -50 -6c-15 -5 -28 -12 -38 -23c-11 -11 -19 -26 -24 -44s-8 -40 -8 -67v-43h180v-48h-180v-453h-56v453h-164v48h164z" />
    <glyph glyph-name="g" unicode="g" 
d="M446 128c-19 -32 -44 -57 -73 -74s-61 -26 -95 -26c-63 0 -114 22 -151 66c-38 43 -57 107 -57 190c0 42 6 79 17 111c11 31 27 57 46 78s42 36 68 47c25 10 52 15 81 15c31 0 62 -7 92 -20c29 -14 53 -39 72 -75v84h52v-448c0 -45 -3 -85 -10 -118s-19 -61 -35 -82
c-17 -22 -38 -38 -65 -48c-27 -11 -59 -16 -98 -16c-56 0 -101 12 -136 37s-55 63 -60 115h60c6 -38 21 -65 46 -82s55 -26 90 -26c23 0 44 3 63 10c19 6 36 17 50 33c13 16 24 38 32 65c7 27 11 62 11 104v60zM282 487c-19 0 -38 -4 -56 -13c-19 -9 -35 -21 -49 -38
s-25 -39 -34 -64s-13 -55 -13 -88c0 -67 14 -118 43 -154c28 -36 64 -54 109 -54c26 0 49 5 69 16c20 10 37 24 50 43s24 41 31 66s10 53 10 83c0 28 -3 54 -10 79s-18 46 -31 65c-13 18 -30 32 -50 43s-43 16 -69 16z" />
    <glyph glyph-name="h" unicode="h" 
d="M161 448c8 15 18 28 31 39s27 20 43 28c15 7 31 13 48 17c16 3 31 5 46 5c53 0 95 -17 126 -50c31 -34 46 -87 46 -159v-328h-56v324c0 23 -2 44 -6 65c-5 20 -12 37 -21 52c-10 15 -23 26 -38 35c-16 9 -36 13 -59 13c-19 0 -37 -4 -56 -11s-35 -18 -50 -33
s-28 -34 -38 -56c-10 -23 -15 -49 -16 -80v-309h-56v724h56v-276z" />
    <glyph glyph-name="i" unicode="i" 
d="M137 501h216v-453h160v-48h-376v48h160v405h-160v48zM281 620v104h80v-104h-80z" />
    <glyph glyph-name="j" unicode="j" 
d="M126 501h260v-513c0 -33 -4 -61 -13 -83c-9 -23 -22 -41 -38 -54c-16 -14 -35 -24 -56 -30s-44 -9 -69 -9c-13 0 -28 1 -44 2s-31 3 -44 6v52c12 -2 25 -4 38 -5c13 -2 25 -3 34 -3c48 0 83 11 104 32s32 51 32 92v465h-204v48zM314 620v104h80v-104h-80z" />
    <glyph glyph-name="k" unicode="k" 
d="M197 292l244 232h73l-256 -238l299 -286h-76l-284 273v-273h-56v724h56v-432z" />
    <glyph glyph-name="l" unicode="l" 
d="M118 724h216v-676h160v-48h-376v48h160v628h-160v48z" />
    <glyph glyph-name="m" unicode="m" 
d="M116 0h-52v524h44v-64c7 24 21 43 41 56c19 13 40 19 63 19s44 -5 63 -16s33 -29 42 -54c9 21 24 38 45 51s41 19 62 19c16 0 31 -2 45 -7s26 -13 37 -24s19 -26 25 -44c6 -19 9 -41 9 -68v-392h-52v388c0 28 -6 52 -18 71c-13 19 -32 28 -58 28c-25 0 -45 -12 -60 -36
c-16 -25 -24 -60 -24 -106v-345h-52v388c0 28 -6 52 -18 71c-13 19 -32 28 -58 28c-25 0 -46 -12 -61 -37s-23 -62 -23 -110v-340z" />
    <glyph glyph-name="n" unicode="n" 
d="M157 440c7 16 17 30 30 42s27 22 43 31c16 8 33 14 50 18s34 6 49 6c53 0 95 -17 126 -50c31 -34 46 -87 46 -159v-328h-56v324c0 23 -2 44 -6 65c-5 20 -12 37 -21 52c-10 15 -23 26 -38 35c-16 9 -36 13 -59 13c-19 0 -37 -4 -56 -11s-35 -18 -50 -33s-28 -34 -38 -56
c-10 -23 -15 -49 -16 -80v-309h-56v524h52v-84z" />
    <glyph glyph-name="o" unicode="o" 
d="M300 33c27 0 50 6 71 18c20 12 37 28 51 49s25 45 32 73s10 58 10 91s-4 63 -11 91c-8 27 -19 51 -33 72c-14 20 -31 36 -51 47c-21 11 -44 17 -69 17c-27 0 -50 -6 -70 -18c-21 -12 -38 -28 -52 -49s-24 -45 -31 -73s-11 -58 -11 -91s4 -63 12 -90c7 -28 18 -52 32 -72
c14 -21 31 -37 52 -48c20 -11 43 -17 68 -17zM300 -15c-35 0 -66 7 -93 20c-28 13 -52 31 -71 55c-19 23 -34 52 -44 86c-11 34 -16 72 -16 114s5 80 16 115c10 34 25 63 44 88c19 24 43 43 71 56c27 13 58 20 93 20c34 0 65 -6 93 -19c27 -13 51 -32 71 -55
c19 -24 34 -53 45 -87c10 -34 15 -72 15 -114s-5 -80 -16 -114c-11 -35 -26 -64 -45 -88c-19 -25 -43 -44 -70 -57c-28 -13 -59 -20 -93 -20z" />
    <glyph glyph-name="p" unicode="p" 
d="M152 524v-89c18 33 42 58 72 75s62 25 96 25c31 0 60 -6 87 -17s50 -28 69 -51s33 -52 44 -86c11 -35 16 -75 16 -121c0 -47 -6 -88 -18 -122s-28 -62 -48 -84c-21 -22 -44 -38 -71 -49s-54 -16 -83 -16c-15 0 -31 2 -46 5c-16 3 -31 9 -45 16s-27 17 -39 30
s-22 29 -30 48v-276h-56v712h52zM316 37c19 0 39 5 58 14s37 22 52 41c15 18 27 41 36 69s14 61 14 99s-4 71 -12 100c-9 28 -20 52 -34 71c-15 19 -32 33 -51 42c-20 9 -41 14 -63 14c-25 0 -48 -5 -67 -16c-20 -11 -37 -27 -50 -46c-14 -19 -24 -42 -31 -69
s-11 -56 -12 -87v-9c0 -31 4 -59 11 -86s17 -51 30 -71c13 -21 30 -37 50 -48c20 -12 43 -18 69 -18z" />
    <glyph glyph-name="q" unicode="q" 
d="M500 524v-712h-56v273c-19 -34 -43 -58 -71 -73s-59 -23 -93 -23c-31 0 -60 6 -87 17s-49 29 -68 52s-34 51 -45 86c-11 34 -16 74 -16 120c0 47 6 87 18 122c12 34 28 62 49 84c20 22 43 38 70 49s54 16 83 16c32 0 62 -7 91 -21c29 -15 53 -41 73 -78v88h52zM284 487
c-19 0 -39 -4 -58 -13s-36 -23 -51 -41c-15 -19 -28 -42 -37 -70s-14 -61 -14 -99s4 -71 13 -99c8 -29 19 -52 34 -71c14 -19 31 -34 51 -43c19 -9 40 -14 62 -14c25 0 48 6 67 17s36 26 50 45c13 19 24 42 31 69c7 26 11 55 12 86v19c-1 30 -5 58 -12 84s-18 49 -31 68
c-14 19 -31 35 -50 46s-42 16 -67 16z" />
    <glyph glyph-name="r" unicode="r" 
d="M476 348c-1 20 -4 38 -9 55s-12 31 -21 44s-21 23 -36 30s-33 10 -54 10c-17 0 -35 -4 -52 -11c-18 -8 -34 -20 -48 -35c-14 -16 -25 -36 -34 -59c-9 -24 -14 -52 -14 -83v-299h-56v524h52v-84c7 15 16 28 28 40s25 22 39 30s29 14 45 19c15 4 30 6 44 6
c54 0 96 -15 125 -44s44 -77 47 -143h-56z" />
    <glyph glyph-name="s" unicode="s" 
d="M310 -15c-69 0 -121 15 -156 44c-36 29 -54 70 -55 123h60c0 -41 13 -71 40 -90c26 -19 63 -29 111 -29c41 0 74 9 98 28s36 44 36 75c0 23 -8 41 -24 54c-17 13 -37 23 -62 31c-25 7 -52 14 -81 21s-55 16 -80 27s-46 27 -62 47c-17 19 -25 46 -25 80c0 19 4 37 13 54
s21 33 38 46s37 24 61 32c23 7 50 11 80 11c58 0 103 -14 135 -42c32 -29 48 -68 49 -118h-56c-1 37 -13 65 -37 84s-56 28 -95 28s-70 -8 -93 -23c-24 -16 -36 -40 -36 -72c0 -25 8 -45 25 -58c16 -13 36 -24 61 -32s52 -15 81 -21s55 -14 80 -25s45 -25 62 -44
c16 -19 24 -46 24 -80c0 -23 -5 -44 -14 -63s-22 -34 -39 -47s-38 -23 -61 -30s-49 -11 -78 -11z" />
    <glyph glyph-name="t" unicode="t" 
d="M298 453v-277c0 -27 3 -49 9 -66s14 -31 24 -41c10 -11 22 -18 36 -22c14 -5 29 -7 45 -7c12 0 25 1 38 2s26 3 40 6v-48c-31 -5 -59 -8 -84 -8c-24 0 -46 3 -66 9c-20 5 -37 15 -52 29s-26 33 -34 56s-12 51 -12 86v281h-156v48h156v167h56v-167h180v-48h-180z" />
    <glyph glyph-name="u" unicode="u" 
d="M439 524h56v-524h-52v84c-7 -16 -17 -30 -30 -42s-27 -22 -43 -30c-16 -9 -33 -15 -50 -19s-34 -6 -49 -6c-53 0 -95 17 -126 51c-31 33 -46 86 -46 158v328h56v-324c0 -23 2 -45 7 -65c4 -20 11 -37 21 -52c9 -15 22 -26 38 -35c15 -9 35 -13 58 -13c19 0 38 4 57 12
c19 7 37 19 52 35c15 15 27 35 37 59c9 23 14 51 14 83v300z" />
    <glyph glyph-name="v" unicode="v" 
d="M266 0l-196 524h68l104 -296c9 -26 19 -51 28 -76s18 -51 28 -76h8c21 51 39 100 56 148l104 300h64l-196 -524h-68z" />
    <glyph glyph-name="w" unicode="w" 
d="M18 524h56l93 -424h8l100 424h54l100 -424h8l93 424h52l-116 -524h-70l-92 394h-8l-92 -394h-70z" />
    <glyph glyph-name="x" unicode="x" 
d="M335 268l199 -268h-72l-163 220l-165 -220h-68l199 266l-191 258h72l155 -210l157 210h68z" />
    <glyph glyph-name="y" unicode="y" 
d="M73 524h68l104 -296c9 -26 19 -51 28 -76s18 -51 28 -76h8c21 51 39 100 56 148l104 300h64l-200 -524c-11 -29 -21 -54 -32 -77s-25 -43 -40 -59c-15 -17 -33 -29 -54 -38s-47 -14 -78 -14c-9 0 -18 0 -27 1s-19 2 -29 3v52c10 -2 20 -3 30 -3c9 -1 18 -1 26 -1
c20 0 37 3 51 8s26 14 37 25c10 11 19 26 28 43c8 17 16 38 24 62z" />
    <glyph glyph-name="z" unicode="z" 
d="M103 0v50l317 424h-305v50h372v-50l-317 -424h329v-50h-396z" />
    <glyph glyph-name="braceleft" unicode="{" 
d="M154 339c33 1 59 12 77 35c17 22 26 60 26 114v70c0 30 2 56 7 79c4 23 12 42 23 57s27 27 47 35c19 7 44 11 75 11h11c3 0 7 0 12 -1v-44c-3 1 -6 1 -8 1h-8c-23 0 -42 -3 -55 -9s-23 -14 -30 -24s-11 -21 -12 -34c-2 -13 -3 -27 -3 -41v-87c0 -28 -2 -53 -5 -74
c-3 -22 -9 -41 -18 -56s-20 -27 -35 -36s-34 -14 -57 -17c26 -4 47 -11 62 -21s26 -23 34 -38c8 -16 13 -34 16 -55c2 -21 3 -45 3 -71v-64c0 -42 6 -74 19 -97s38 -35 76 -35h10s7 1 11 2v-45c-5 -1 -10 -1 -13 -1c-4 -1 -8 -1 -12 -1c-49 0 -87 13 -112 40s-38 69 -38 126
v90c0 53 -10 91 -29 114s-44 34 -74 34v43z" />
    <glyph glyph-name="bar" unicode="|" 
d="M272 726h56v-726h-56v726z" />
    <glyph glyph-name="braceright" unicode="}" 
d="M446 296c-30 0 -55 -11 -74 -34s-29 -61 -29 -114v-90c0 -57 -13 -99 -38 -126s-63 -40 -112 -40c-4 0 -8 0 -11 1c-4 0 -9 0 -14 1v45c4 -1 8 -2 11 -2h10c38 0 63 12 76 35s19 55 19 97v64c0 26 1 50 4 71c2 21 7 39 15 55c8 15 20 28 35 38s35 17 61 21
c-23 3 -42 8 -57 17s-26 21 -35 36s-15 34 -18 56c-3 21 -5 46 -5 74v87c0 14 -1 28 -2 41c-2 13 -6 24 -13 34s-17 18 -30 24s-32 9 -55 9h-7c-3 0 -6 0 -9 -1v44c5 1 9 1 13 1h10c31 0 56 -4 76 -11c19 -8 35 -20 46 -35s19 -34 24 -57c4 -23 6 -49 6 -79v-70
c0 -54 9 -92 27 -114c17 -23 43 -34 76 -35v-43z" />
    <glyph glyph-name="asciitilde" unicode="~" 
d="M391 215c-19 0 -36 3 -51 9c-15 5 -29 12 -42 19c-14 7 -28 13 -42 19s-29 9 -46 9c-19 0 -33 -6 -43 -17c-11 -12 -22 -26 -34 -41l-41 31c19 25 37 45 54 58s38 20 65 20c21 0 40 -3 55 -9s30 -12 43 -19s25 -14 38 -19c13 -6 27 -9 44 -9c19 0 33 6 44 18s22 26 33 41
l42 -31c-9 -13 -18 -24 -27 -34s-18 -18 -27 -25s-19 -12 -30 -15s-22 -5 -35 -5z" />
    <glyph glyph-name="uni00A0" unicode="&#xa0;" 
 />
    <glyph glyph-name="exclamdown" unicode="&#xa1;" 
d="M344 428h-87v96h87v-96zM319 320l28 -520h-92l24 520h40z" />
    <glyph glyph-name="cent" unicode="&#xa2;" 
d="M529 284c-3 -27 -9 -51 -20 -73s-25 -41 -42 -57c-17 -17 -37 -30 -59 -40c-23 -10 -47 -16 -73 -19v-110h-48v110c-31 3 -60 12 -85 26c-26 14 -48 33 -66 57c-18 23 -32 51 -42 83s-15 67 -15 106c0 38 5 73 16 105c11 31 25 59 44 82s41 42 66 57c25 14 53 23 82 26
v104h48v-103c26 -3 50 -9 73 -19c22 -10 41 -23 58 -39c16 -16 29 -35 39 -56c10 -22 16 -45 18 -70h-62c-1 17 -5 33 -12 49c-7 15 -16 29 -27 41s-24 22 -39 30s-31 13 -48 16v-447c36 5 66 21 90 46s38 57 42 95h62zM139 367c0 -62 13 -113 40 -153s63 -64 108 -71v446
c-23 -3 -43 -11 -61 -24s-33 -29 -46 -48s-23 -42 -30 -67c-7 -26 -11 -54 -11 -83z" />
    <glyph glyph-name="sterling" unicode="&#xa3;" 
d="M483 544c0 53 -11 91 -32 112s-54 32 -99 32c-47 0 -81 -14 -104 -42s-35 -68 -35 -120v-128h139v-48h-139v-164c0 -37 -3 -65 -10 -85c-7 -21 -20 -36 -38 -46v-3h374v-52h-485v50c38 1 64 13 78 34s21 54 21 98v168h-103v48h103v125c0 69 17 122 52 159s84 55 148 55
c63 0 110 -15 142 -45c32 -31 48 -80 48 -148h-60z" />
    <glyph glyph-name="currency" unicode="&#xa4;" 
d="M488 349c0 -25 -4 -48 -11 -69c-8 -21 -18 -40 -31 -55l78 -68l-37 -36l-71 79c-33 -30 -73 -45 -118 -45c-47 0 -86 15 -117 44l-75 -78l-36 36l81 68c-11 15 -20 33 -27 54c-7 20 -11 42 -11 65c0 25 4 47 12 68c7 21 17 39 30 54l-79 69l38 32l70 -75
c17 14 35 25 56 33c20 8 41 12 63 12c23 0 44 -4 64 -12s37 -19 52 -32l75 74l37 -32l-81 -69c11 -15 21 -33 28 -53s10 -41 10 -64zM435 347c0 19 -3 37 -8 55c-6 17 -15 33 -26 47s-25 25 -42 34c-17 8 -36 12 -58 12c-21 0 -39 -4 -56 -12s-31 -19 -42 -32
c-12 -13 -21 -29 -27 -47c-7 -19 -10 -38 -10 -59c0 -19 3 -37 9 -54c5 -18 14 -34 25 -48s25 -25 42 -33c17 -9 36 -13 58 -13c21 0 39 4 56 12s31 19 43 32c11 13 20 29 27 48c6 18 9 37 9 58z" />
    <glyph glyph-name="yen" unicode="&#xa5;" 
d="M89 359h149l-200 365h74l192 -361l187 361h71l-201 -365h150v-50h-181v-69h181v-50h-181v-190h-60v190h-181v50h181v69h-181v50z" />
    <glyph glyph-name="brokenbar" unicode="&#xa6;" 
d="M272 697h56v-271h-56v271zM272 271h56v-271h-56v271z" />
    <glyph glyph-name="section" unicode="&#xa7;" 
d="M405 588c-1 36 -11 62 -28 79c-17 16 -43 24 -77 24c-37 0 -65 -8 -84 -25s-28 -38 -28 -65c0 -21 6 -40 18 -55s27 -29 46 -40c18 -12 38 -22 60 -31c21 -9 42 -18 61 -27c18 -8 36 -17 53 -26c17 -10 32 -21 45 -33c13 -13 23 -26 31 -41s12 -32 12 -51
c0 -28 -8 -55 -25 -80s-39 -45 -66 -59c17 -16 31 -34 40 -53c9 -20 14 -42 14 -66c0 -47 -16 -86 -49 -115s-77 -44 -133 -44c-57 0 -101 14 -132 41s-47 64 -47 111v10h61c0 -39 10 -68 29 -86c19 -19 48 -28 88 -28c41 0 72 10 91 30s29 47 29 81c0 21 -5 40 -15 55
c-11 15 -24 29 -40 40s-33 20 -52 29c-19 8 -38 16 -55 24c-20 9 -40 18 -59 29c-19 10 -36 21 -51 34s-27 27 -36 43c-9 15 -14 33 -14 54c0 27 7 51 20 73c13 21 35 43 65 64c-33 31 -50 70 -50 117c0 20 4 38 13 55s21 31 36 43s34 21 55 28s44 10 69 10
c50 0 90 -11 120 -34s45 -58 45 -104v-11h-60zM387 181c24 17 41 34 51 51c10 16 15 35 15 56c0 14 -2 26 -7 37s-14 21 -25 31c-12 10 -27 20 -46 30s-42 21 -69 33l-90 40c-17 -13 -32 -29 -44 -47c-13 -18 -19 -37 -19 -56c0 -13 3 -26 9 -37s15 -22 28 -32
c12 -11 28 -21 47 -32s43 -23 70 -36z" />
    <glyph glyph-name="dieresis" unicode="&#xa8;" 
d="M242 717v-91h-73v91h73zM432 717v-91h-73v91h73z" />
    <glyph glyph-name="copyright" unicode="&#xa9;" 
d="M204 344c0 -47 9 -82 27 -105s41 -35 69 -35c21 0 40 7 55 21s25 34 29 59h36c-4 -35 -17 -62 -39 -82s-49 -30 -81 -30c-40 0 -72 16 -96 47s-36 72 -36 125c0 26 3 50 10 72c6 21 15 40 26 56c11 15 25 27 42 36c16 8 34 12 54 12c34 0 62 -10 83 -31s33 -49 37 -85
h-36c-4 26 -14 47 -29 62s-34 22 -55 22c-28 0 -51 -13 -69 -39s-27 -61 -27 -105zM60 348c0 -37 6 -71 17 -103s27 -60 48 -84s46 -43 75 -56c29 -14 63 -21 100 -21s70 7 100 21c29 13 55 32 76 56s37 52 48 84s16 66 16 103s-5 71 -16 103s-27 60 -48 84s-47 43 -76 57
c-30 13 -63 20 -100 20s-71 -7 -100 -20c-29 -14 -54 -33 -75 -57s-37 -52 -48 -84s-17 -66 -17 -103zM576 348c0 -43 -7 -82 -21 -117c-14 -36 -33 -67 -58 -93s-54 -46 -87 -60c-34 -15 -71 -22 -110 -22s-76 7 -109 22c-34 14 -63 34 -88 60s-44 57 -58 93
c-14 35 -21 74 -21 117s7 82 21 118c14 35 33 66 58 92s54 46 88 61c33 14 70 21 109 21s76 -7 110 -21c33 -15 62 -35 87 -61s44 -57 58 -92c14 -36 21 -75 21 -118z" />
    <glyph glyph-name="ordfeminine" unicode="&#xaa;" 
d="M146 611c0 39 13 70 40 93s63 34 108 34c21 0 40 -3 59 -8c19 -6 35 -15 49 -27c13 -13 24 -29 32 -48c8 -20 12 -44 12 -72v-156c0 -9 0 -21 1 -36c1 -16 3 -35 7 -56h-50c-1 7 -2 16 -3 27c-1 10 -2 20 -3 29c-14 -22 -32 -39 -54 -50c-23 -11 -47 -17 -74 -17
c-42 0 -75 8 -99 25c-25 17 -37 44 -37 82c0 29 8 52 25 70c16 18 37 32 62 43c25 10 52 17 83 22c31 4 61 7 90 9v16c0 36 -10 63 -29 80s-43 25 -71 25c-30 0 -53 -7 -70 -22s-26 -36 -26 -63h-52zM394 533c-19 -1 -41 -3 -65 -5c-24 -3 -46 -7 -67 -14s-39 -17 -54 -30
s-22 -31 -22 -53c0 -21 8 -37 23 -48s37 -17 65 -17c39 0 69 13 90 39c20 25 30 62 30 110v18z" />
    <glyph glyph-name="guillemotleft" unicode="&#xab;" 
d="M105 274l136 198h58l-131 -198l131 -204h-58zM287 274l136 198h58l-131 -198l131 -204h-58z" />
    <glyph glyph-name="logicalnot" unicode="&#xac;" 
d="M508 369v-237h-56v186h-364v51h420z" />
    <glyph glyph-name="uni00AD" unicode="&#xad;" 
d="M168 268v64h264v-64h-264z" />
    <glyph glyph-name="registered" unicode="&#xae;" 
d="M396 180l-28 92c-5 18 -14 30 -26 37c-13 7 -31 10 -54 10h-60v-139h-34v336h114c13 0 27 -2 40 -5s24 -9 35 -16s19 -17 26 -29c6 -13 9 -28 9 -46c0 -19 -6 -37 -17 -52c-12 -15 -30 -26 -53 -32v-4c17 -2 30 -8 38 -17c7 -9 13 -20 16 -31l32 -104h-38zM292 349
c27 0 50 6 67 17s25 29 25 54c0 44 -28 66 -84 66h-72v-137h64zM60 348c0 -37 6 -71 17 -103s27 -60 48 -84s46 -43 75 -56c29 -14 63 -21 100 -21s70 7 100 21c29 13 55 32 76 56s37 52 48 84s16 66 16 103s-5 71 -16 103s-27 60 -48 84s-47 43 -76 57
c-30 13 -63 20 -100 20s-71 -7 -100 -20c-29 -14 -54 -33 -75 -57s-37 -52 -48 -84s-17 -66 -17 -103zM576 348c0 -43 -7 -82 -21 -117c-14 -36 -33 -67 -58 -93s-54 -46 -87 -60c-34 -15 -71 -22 -110 -22s-76 7 -109 22c-34 14 -63 34 -88 60s-44 57 -58 93
c-14 35 -21 74 -21 117s7 82 21 118c14 35 33 66 58 92s54 46 88 61c33 14 70 21 109 21s76 -7 110 -21c33 -15 62 -35 87 -61s44 -57 58 -92c14 -36 21 -75 21 -118z" />
    <glyph glyph-name="macron" unicode="&#xaf;" 
d="M174 699h253v-48h-253v48z" />
    <glyph glyph-name="degree" unicode="&#xb0;" 
d="M300 442c-19 0 -38 4 -55 11c-18 7 -34 18 -47 31s-24 28 -32 46c-8 17 -12 36 -12 57s4 40 12 58c8 17 19 33 32 46s29 23 47 30c17 7 36 11 55 11s38 -4 56 -11c17 -7 33 -17 46 -30s24 -29 32 -46c8 -18 12 -37 12 -58s-4 -40 -12 -57c-8 -18 -19 -33 -32 -46
s-29 -24 -46 -31c-18 -7 -37 -11 -56 -11zM300 483c16 0 30 3 43 9c13 5 24 13 33 23c9 9 15 20 20 33c5 12 7 25 7 39s-2 27 -7 40c-5 12 -11 23 -20 33c-9 9 -20 17 -33 23c-13 5 -27 8 -43 8s-30 -3 -43 -8c-13 -6 -23 -14 -32 -23c-9 -10 -16 -21 -21 -33
c-5 -13 -7 -26 -7 -40s2 -27 7 -39c5 -13 12 -24 21 -33c9 -10 19 -18 32 -23c13 -6 27 -9 43 -9z" />
    <glyph glyph-name="plusminus" unicode="&#xb1;" 
d="M90 0v50h420v-50h-420zM90 302v49h182v179h55v-179h183v-49h-183v-179h-55v179h-182z" />
    <glyph glyph-name="twosuperior" unicode="&#xb2;" 
d="M180 552v20c0 17 5 33 14 47c9 13 21 26 35 37s29 22 46 32c16 9 31 19 45 30c14 10 26 21 35 32s14 24 14 38c0 19 -6 34 -18 43s-29 13 -51 13c-27 0 -46 -8 -59 -23c-13 -16 -20 -35 -21 -57h-48c1 34 13 63 36 86c22 23 53 34 92 34c37 0 67 -8 88 -23s32 -40 32 -73
c0 -25 -7 -46 -22 -62c-15 -17 -33 -32 -53 -45c-20 -14 -40 -27 -60 -40s-35 -29 -46 -47h185v-42h-244z" />
    <glyph glyph-name="threesuperior" unicode="&#xb3;" 
d="M220 652c3 -22 12 -39 27 -50c15 -12 33 -18 54 -18s38 5 52 15c14 9 21 24 21 44c0 17 -7 31 -21 40c-15 9 -34 13 -57 13h-36v40h36c9 0 17 1 26 3s17 5 24 10c7 4 12 10 17 17s7 16 7 26c0 18 -6 31 -19 40c-13 8 -29 12 -50 12c-23 0 -41 -6 -53 -18
c-13 -13 -21 -29 -24 -50h-48c4 33 16 60 36 79c19 19 49 29 89 29c37 0 65 -7 86 -21c21 -15 31 -38 31 -69c0 -35 -21 -60 -62 -73v-4c23 -5 40 -15 51 -30c10 -15 15 -32 15 -51c0 -30 -11 -53 -32 -68c-21 -16 -51 -24 -89 -24c-44 0 -76 10 -95 29s-31 45 -34 79h48z
" />
    <glyph glyph-name="acute" unicode="&#xb4;" 
d="M307 724h75l-112 -123h-51z" />
    <glyph glyph-name="mu" unicode="&#xb5;" 
d="M101 524h57v-340c3 -44 16 -78 38 -101c21 -24 52 -36 92 -36c18 0 36 3 55 9c18 6 34 16 49 31c14 15 26 34 35 59s14 56 14 93v285h57v-524h-57v74c-18 -25 -40 -43 -65 -55c-25 -13 -53 -19 -83 -19c-25 0 -49 4 -73 13s-45 23 -62 42v-243h-57v712z" />
    <glyph glyph-name="paragraph" unicode="&#xb6;" 
d="M405 -132v768h-108v-768h-56v412c-66 2 -116 20 -149 55c-34 35 -51 83 -51 145c0 34 6 64 19 89c12 25 29 47 50 64s47 29 76 38s61 13 95 13h280v-48h-100v-768h-56z" />
    <glyph glyph-name="periodcentered" unicode="&#xb7;" 
d="M250 407h99v-105h-99v105z" />
    <glyph glyph-name="cedilla" unicode="&#xb8;" 
d="M300 -30c19 -1 35 -8 47 -20c13 -14 19 -31 19 -52c0 -24 -8 -44 -25 -61s-41 -25 -72 -25c-5 0 -11 0 -17 1c-6 0 -12 1 -17 2v38c3 -1 7 -1 12 -1c4 -1 8 -1 13 -1c19 0 34 5 43 14s14 20 14 33c0 12 -4 22 -12 31c-9 8 -23 12 -42 12c-5 0 -9 0 -12 -1v71h49v-41z" />
    <glyph glyph-name="onesuperior" unicode="&#xb9;" 
d="M302 779h-96v38c17 1 31 2 44 3s24 3 33 7c9 3 16 9 21 17c5 7 9 18 10 32h36v-324h-48v227z" />
    <glyph glyph-name="ordmasculine" unicode="&#xba;" 
d="M300 366c22 0 41 4 57 13c15 9 28 21 38 36s17 32 22 52s7 41 7 64s-2 44 -7 64s-12 38 -22 53s-23 26 -38 35c-16 9 -35 13 -57 13s-41 -4 -56 -13c-16 -9 -29 -20 -39 -35s-17 -33 -22 -53s-7 -41 -7 -64s2 -44 7 -64s12 -37 22 -52s23 -27 39 -36c15 -9 34 -13 56 -13
zM300 324c-28 0 -53 5 -75 15c-23 10 -42 24 -57 42c-16 18 -28 40 -36 65c-9 25 -13 54 -13 85s4 59 13 85c8 25 20 47 36 65c15 18 34 32 57 42c22 10 47 15 75 15s53 -5 76 -15c22 -10 41 -24 57 -42c15 -18 27 -40 36 -65c8 -26 12 -54 12 -85s-4 -60 -12 -85
c-9 -25 -21 -47 -36 -65c-16 -18 -35 -32 -57 -42c-23 -10 -48 -15 -76 -15z" />
    <glyph glyph-name="guillemotright" unicode="&#xbb;" 
d="M301 70l131 204l-131 198h58l136 -198l-136 -204h-58zM119 70l131 204l-131 198h58l136 -198l-136 -204h-58z" />
    <glyph glyph-name="onequarter" unicode="&#xbc;" 
d="M138 627h-96v38c17 1 31 2 44 3s24 3 33 7c9 3 16 9 21 17c5 7 9 18 10 32h36v-324h-48v227zM564 72h-53v-72h-46v72h-168v37l159 215h55v-210h53v-42zM465 114v152h-4l-110 -152h114zM519 538l-432 -408l-24 28l432 408z" />
    <glyph glyph-name="onehalf" unicode="&#xbd;" 
d="M145 627h-96v38c17 1 31 2 44 3s24 3 33 7c9 3 16 9 21 17c5 7 9 18 10 32h36v-324h-48v227zM490 538l-432 -408l-24 28l432 408zM324 0v20c0 17 5 33 14 47c9 13 21 26 35 37s29 22 46 32c16 9 31 19 45 30c14 10 26 21 35 32s14 24 14 38c0 19 -6 34 -18 43
s-29 13 -51 13c-27 0 -46 -8 -59 -23c-13 -16 -20 -35 -21 -57h-48c1 34 13 63 36 86c22 23 53 34 92 34c37 0 67 -8 88 -23s32 -40 32 -73c0 -25 -7 -46 -22 -62c-15 -17 -33 -32 -53 -45c-20 -14 -40 -27 -60 -40s-35 -29 -46 -47h185v-42h-244z" />
    <glyph glyph-name="threequarters" unicode="&#xbe;" 
d="M73 500c3 -22 12 -39 27 -50c15 -12 33 -18 54 -18s38 5 52 15c14 9 21 24 21 44c0 17 -7 31 -21 40c-15 9 -34 13 -57 13h-36v40h36c9 0 17 1 26 3s17 5 24 10c7 4 12 10 17 17s7 16 7 26c0 18 -6 31 -19 40c-13 8 -29 12 -50 12c-23 0 -41 -6 -53 -18
c-13 -13 -21 -29 -24 -50h-48c4 33 16 60 36 79c19 19 49 29 89 29c37 0 65 -7 86 -21c21 -15 31 -38 31 -69c0 -35 -21 -60 -62 -73v-4c23 -5 40 -15 51 -30c10 -15 15 -32 15 -51c0 -30 -11 -53 -32 -68c-21 -16 -51 -24 -89 -24c-44 0 -76 10 -95 29s-31 45 -34 79h48z
M550 538l-432 -408l-24 28l432 408zM580 72h-53v-72h-46v72h-168v37l159 215h55v-210h53v-42zM481 114v152h-4l-110 -152h114z" />
    <glyph glyph-name="questiondown" unicode="&#xbf;" 
d="M355 428h-87v96h87v-96zM341 320v-16c0 -29 -5 -53 -14 -74s-21 -39 -35 -55s-29 -31 -45 -44s-31 -27 -45 -41c-14 -15 -26 -31 -35 -48s-14 -38 -14 -62c0 -25 4 -47 13 -64c9 -18 20 -32 34 -43s30 -20 48 -25c17 -5 35 -8 53 -8c19 0 37 4 56 11c18 7 34 17 49 32
c14 14 25 32 34 54c9 21 13 46 13 75h60c0 -37 -6 -70 -17 -98s-27 -51 -46 -70s-42 -33 -67 -42c-26 -9 -53 -14 -82 -14s-57 4 -82 11c-26 7 -48 19 -67 34s-35 35 -46 60c-11 24 -17 53 -17 87c0 27 5 50 15 70c9 19 21 37 36 53s30 31 47 45c17 13 32 28 47 43
s27 31 37 48c9 17 14 38 14 61v20h56z" />
    <glyph glyph-name="Agrave" unicode="&#xc0;" 
d="M439 228h-279l-74 -228h-64l244 724h68l244 -724h-64zM177 280h245l-120 368h-4zM278 796l-119 110h78l95 -110h-54z" />
    <glyph glyph-name="Aacute" unicode="&#xc1;" 
d="M439 228h-279l-74 -228h-64l244 724h68l244 -724h-64zM177 280h245l-120 368h-4zM362 906h78l-119 -110h-54z" />
    <glyph glyph-name="Acircumflex" unicode="&#xc2;" 
d="M439 228h-279l-74 -228h-64l244 724h68l244 -724h-64zM177 280h245l-120 368h-4zM422 796h-57l-67 81l-68 -81h-54l89 110h68z" />
    <glyph glyph-name="Atilde" unicode="&#xc3;" 
d="M439 228h-279l-74 -228h-64l244 724h68l244 -724h-64zM177 280h245l-120 368h-4zM365 806c-11 0 -23 3 -34 8s-22 10 -33 16c-11 5 -22 11 -32 16c-11 5 -20 7 -29 7c-10 0 -19 -3 -26 -10c-8 -7 -14 -19 -19 -36h-39c5 34 15 58 30 73s33 22 53 22c12 0 24 -2 36 -7
c11 -5 23 -11 34 -16c11 -6 21 -11 31 -16c9 -5 18 -8 27 -8c10 0 19 3 27 10c7 7 13 19 17 36h40c-5 -34 -15 -58 -30 -73s-33 -22 -53 -22z" />
    <glyph glyph-name="Adieresis" unicode="&#xc4;" 
d="M439 228h-279l-74 -228h-64l244 724h68l244 -724h-64zM177 280h245l-120 368h-4zM236 899v-91h-73v91h73zM437 899v-91h-73v91h73z" />
    <glyph glyph-name="Aring" unicode="&#xc5;" 
d="M439 228h-279l-74 -228h-64l244 724h68l244 -724h-64zM177 280h245l-120 368h-4zM300 694c-16 0 -30 3 -42 8c-13 5 -23 13 -31 22s-14 19 -18 30c-5 11 -7 23 -7 34s2 23 7 34c4 11 10 21 18 30s18 16 31 21c12 5 26 8 42 8s30 -3 43 -8c12 -5 22 -12 31 -21
c8 -9 14 -19 19 -30c4 -11 6 -23 6 -34s-2 -23 -6 -34c-5 -11 -11 -21 -19 -30c-9 -9 -19 -17 -31 -22c-13 -5 -27 -8 -43 -8zM300 732c17 0 31 5 41 16c10 10 15 23 15 40c0 16 -5 29 -15 40c-10 10 -24 15 -41 15s-30 -5 -40 -15c-10 -11 -15 -24 -15 -40
c0 -17 5 -30 15 -40c10 -11 23 -16 40 -16z" />
    <glyph glyph-name="AE" unicode="&#xc6;" 
d="M373 398h190v-52h-185l29 -294h188v-52h-248l-23 256h-196l-93 -256h-64l272 724h328v-52h-224zM147 308h172l-32 364h-8z" />
    <glyph glyph-name="Ccedilla" unicode="&#xc7;" 
d="M326 -30c19 -1 35 -8 47 -20c13 -14 19 -31 19 -52c0 -24 -8 -44 -25 -61s-41 -25 -72 -25c-5 0 -11 0 -17 1c-6 0 -12 1 -17 2v38c3 -1 7 -1 12 -1c4 -1 8 -1 13 -1c19 0 34 5 43 14s14 20 14 33c0 12 -4 22 -12 31c-9 8 -23 12 -42 12c-5 0 -9 0 -12 -1v71h49v-41z
M556 229c-14 -77 -41 -136 -80 -179c-40 -43 -93 -65 -160 -65c-41 0 -77 9 -109 27c-33 17 -60 42 -82 75c-23 33 -40 72 -51 118c-12 46 -18 98 -18 155s6 108 18 155c11 47 28 87 51 120c22 33 49 59 82 77c32 18 68 27 109 27c65 0 118 -21 158 -62
c40 -42 67 -100 82 -174h-64c-12 57 -33 102 -62 135s-67 49 -114 49c-31 0 -58 -8 -82 -24c-25 -16 -45 -38 -62 -67s-29 -64 -38 -104s-14 -84 -14 -132s5 -92 14 -131c9 -40 21 -74 38 -102c17 -29 37 -51 62 -66c24 -16 51 -24 82 -24c48 0 87 17 116 52s49 81 60 140
h64z" />
    <glyph glyph-name="Egrave" unicode="&#xc8;" 
d="M129 0v724h372v-52h-312v-274h296v-52h-296v-294h328v-52h-388zM301 796l-119 110h78l95 -110h-54z" />
    <glyph glyph-name="Eacute" unicode="&#xc9;" 
d="M129 0v724h372v-52h-312v-274h296v-52h-296v-294h328v-52h-388zM385 906h78l-119 -110h-54z" />
    <glyph glyph-name="Ecircumflex" unicode="&#xca;" 
d="M129 0v724h372v-52h-312v-274h296v-52h-296v-294h328v-52h-388zM445 796h-57l-67 81l-68 -81h-54l89 110h68z" />
    <glyph glyph-name="Edieresis" unicode="&#xcb;" 
d="M129 0v724h372v-52h-312v-274h296v-52h-296v-294h328v-52h-388zM259 899v-91h-73v91h73zM460 899v-91h-73v91h73z" />
    <glyph glyph-name="Igrave" unicode="&#xcc;" 
d="M104 724h392v-52h-166v-620h166v-52h-392v52h166v620h-166v52zM278 796l-119 110h78l95 -110h-54z" />
    <glyph glyph-name="Iacute" unicode="&#xcd;" 
d="M104 724h392v-52h-166v-620h166v-52h-392v52h166v620h-166v52zM362 906h78l-119 -110h-54z" />
    <glyph glyph-name="Icircumflex" unicode="&#xce;" 
d="M104 724h392v-52h-166v-620h166v-52h-392v52h166v620h-166v52zM422 796h-57l-67 81l-68 -81h-54l89 110h68z" />
    <glyph glyph-name="Idieresis" unicode="&#xcf;" 
d="M104 724h392v-52h-166v-620h166v-52h-392v52h166v620h-166v52zM236 899v-91h-73v91h73zM437 899v-91h-73v91h73z" />
    <glyph glyph-name="Eth" unicode="&#xd0;" 
d="M88 724h150c48 0 92 -7 131 -22s73 -38 101 -68s50 -67 65 -112s23 -98 23 -158c0 -55 -7 -105 -22 -150s-37 -84 -64 -115c-28 -32 -62 -56 -101 -73s-84 -26 -133 -26h-150v349h-76v52h76v323zM238 48c41 0 77 8 109 23s59 37 81 65c21 27 38 60 49 99s17 82 17 129
c0 103 -22 181 -67 232s-108 76 -189 76h-90v-271h116v-52h-116v-301h90z" />
    <glyph glyph-name="Ntilde" unicode="&#xd1;" 
d="M464 724h60v-724h-72l-316 616h-4c1 -48 2 -94 3 -137c1 -44 1 -89 1 -135v-344h-60v724h72l316 -608h4c-1 48 -1 94 -2 138c-1 43 -2 88 -2 134v336zM365 806c-11 0 -23 3 -34 8s-22 10 -33 16c-11 5 -22 11 -32 16c-11 5 -20 7 -29 7c-10 0 -19 -3 -26 -10
c-8 -7 -14 -19 -19 -36h-39c5 34 15 58 30 73s33 22 53 22c12 0 24 -2 36 -7c11 -5 23 -11 34 -16c11 -6 21 -11 31 -16c9 -5 18 -8 27 -8c10 0 19 3 27 10c7 7 13 19 17 36h40c-5 -34 -15 -58 -30 -73s-33 -22 -53 -22z" />
    <glyph glyph-name="Ograve" unicode="&#xd2;" 
d="M300 37c30 0 57 8 80 24c23 15 43 37 59 66s28 63 37 103c8 39 12 83 12 131s-4 92 -12 132c-9 40 -21 74 -37 103s-36 51 -59 67s-50 24 -80 24s-57 -8 -80 -24s-43 -38 -59 -67s-28 -63 -36 -103c-9 -40 -13 -84 -13 -132s4 -92 13 -131c8 -40 20 -74 36 -103
s36 -51 59 -66c23 -16 50 -24 80 -24zM300 -15c-40 0 -76 9 -107 27c-31 17 -58 43 -79 76s-38 72 -49 118s-17 98 -17 155s6 108 17 155s28 87 49 120s48 58 79 76s67 27 107 27s76 -9 107 -27s58 -43 79 -76s38 -73 49 -120s17 -98 17 -155s-6 -109 -17 -155
s-28 -85 -49 -118s-48 -59 -79 -76c-31 -18 -67 -27 -107 -27zM278 796l-119 110h78l95 -110h-54z" />
    <glyph glyph-name="Oacute" unicode="&#xd3;" 
d="M300 37c30 0 57 8 80 24c23 15 43 37 59 66s28 63 37 103c8 39 12 83 12 131s-4 92 -12 132c-9 40 -21 74 -37 103s-36 51 -59 67s-50 24 -80 24s-57 -8 -80 -24s-43 -38 -59 -67s-28 -63 -36 -103c-9 -40 -13 -84 -13 -132s4 -92 13 -131c8 -40 20 -74 36 -103
s36 -51 59 -66c23 -16 50 -24 80 -24zM300 -15c-40 0 -76 9 -107 27c-31 17 -58 43 -79 76s-38 72 -49 118s-17 98 -17 155s6 108 17 155s28 87 49 120s48 58 79 76s67 27 107 27s76 -9 107 -27s58 -43 79 -76s38 -73 49 -120s17 -98 17 -155s-6 -109 -17 -155
s-28 -85 -49 -118s-48 -59 -79 -76c-31 -18 -67 -27 -107 -27zM362 906h78l-119 -110h-54z" />
    <glyph glyph-name="Ocircumflex" unicode="&#xd4;" 
d="M300 37c30 0 57 8 80 24c23 15 43 37 59 66s28 63 37 103c8 39 12 83 12 131s-4 92 -12 132c-9 40 -21 74 -37 103s-36 51 -59 67s-50 24 -80 24s-57 -8 -80 -24s-43 -38 -59 -67s-28 -63 -36 -103c-9 -40 -13 -84 -13 -132s4 -92 13 -131c8 -40 20 -74 36 -103
s36 -51 59 -66c23 -16 50 -24 80 -24zM300 -15c-40 0 -76 9 -107 27c-31 17 -58 43 -79 76s-38 72 -49 118s-17 98 -17 155s6 108 17 155s28 87 49 120s48 58 79 76s67 27 107 27s76 -9 107 -27s58 -43 79 -76s38 -73 49 -120s17 -98 17 -155s-6 -109 -17 -155
s-28 -85 -49 -118s-48 -59 -79 -76c-31 -18 -67 -27 -107 -27zM422 796h-57l-67 81l-68 -81h-54l89 110h68z" />
    <glyph glyph-name="Otilde" unicode="&#xd5;" 
d="M300 37c30 0 57 8 80 24c23 15 43 37 59 66s28 63 37 103c8 39 12 83 12 131s-4 92 -12 132c-9 40 -21 74 -37 103s-36 51 -59 67s-50 24 -80 24s-57 -8 -80 -24s-43 -38 -59 -67s-28 -63 -36 -103c-9 -40 -13 -84 -13 -132s4 -92 13 -131c8 -40 20 -74 36 -103
s36 -51 59 -66c23 -16 50 -24 80 -24zM300 -15c-40 0 -76 9 -107 27c-31 17 -58 43 -79 76s-38 72 -49 118s-17 98 -17 155s6 108 17 155s28 87 49 120s48 58 79 76s67 27 107 27s76 -9 107 -27s58 -43 79 -76s38 -73 49 -120s17 -98 17 -155s-6 -109 -17 -155
s-28 -85 -49 -118s-48 -59 -79 -76c-31 -18 -67 -27 -107 -27zM365 806c-11 0 -23 3 -34 8s-22 10 -33 16c-11 5 -22 11 -32 16c-11 5 -20 7 -29 7c-10 0 -19 -3 -26 -10c-8 -7 -14 -19 -19 -36h-39c5 34 15 58 30 73s33 22 53 22c12 0 24 -2 36 -7c11 -5 23 -11 34 -16
c11 -6 21 -11 31 -16c9 -5 18 -8 27 -8c10 0 19 3 27 10c7 7 13 19 17 36h40c-5 -34 -15 -58 -30 -73s-33 -22 -53 -22z" />
    <glyph glyph-name="Odieresis" unicode="&#xd6;" 
d="M300 37c30 0 57 8 80 24c23 15 43 37 59 66s28 63 37 103c8 39 12 83 12 131s-4 92 -12 132c-9 40 -21 74 -37 103s-36 51 -59 67s-50 24 -80 24s-57 -8 -80 -24s-43 -38 -59 -67s-28 -63 -36 -103c-9 -40 -13 -84 -13 -132s4 -92 13 -131c8 -40 20 -74 36 -103
s36 -51 59 -66c23 -16 50 -24 80 -24zM300 -15c-40 0 -76 9 -107 27c-31 17 -58 43 -79 76s-38 72 -49 118s-17 98 -17 155s6 108 17 155s28 87 49 120s48 58 79 76s67 27 107 27s76 -9 107 -27s58 -43 79 -76s38 -73 49 -120s17 -98 17 -155s-6 -109 -17 -155
s-28 -85 -49 -118s-48 -59 -79 -76c-31 -18 -67 -27 -107 -27zM236 899v-91h-73v91h73zM437 899v-91h-73v91h73z" />
    <glyph glyph-name="multiply" unicode="&#xd7;" 
d="M163 110l-35 35l136 136l-140 139l39 39l140 -139l135 136l36 -36l-136 -135l139 -140l-39 -39l-139 139z" />
    <glyph glyph-name="Oslash" unicode="&#xd8;" 
d="M483 640c23 -34 40 -74 52 -121c11 -47 17 -99 17 -158c0 -57 -6 -109 -17 -155s-28 -85 -49 -118s-48 -59 -79 -76c-31 -18 -67 -27 -107 -27c-30 0 -57 5 -82 15s-48 24 -67 43l-44 -73l-39 25l51 86c-23 33 -41 73 -53 120s-18 101 -18 160c0 57 6 108 17 155
s28 87 49 120s48 58 79 76s67 27 107 27c60 0 111 -21 152 -62l40 65l39 -23zM300 687c-30 0 -57 -8 -80 -24c-24 -16 -44 -38 -60 -67c-17 -29 -29 -63 -37 -103c-9 -40 -13 -84 -13 -132c0 -45 4 -85 11 -122s18 -70 31 -98l271 484c-33 41 -74 62 -123 62zM300 37
c30 0 57 8 81 24c23 15 43 37 60 66c16 29 28 63 37 103c8 39 12 83 12 131c0 91 -14 165 -41 221l-268 -487c15 -19 33 -33 53 -43s42 -15 66 -15z" />
    <glyph glyph-name="Ugrave" unicode="&#xd9;" 
d="M300 -15c-43 0 -79 6 -108 18s-53 30 -70 54c-18 23 -31 52 -38 86c-8 34 -12 73 -12 117v464h60v-460c0 -75 13 -132 38 -170s68 -57 130 -57s106 18 131 55s37 93 37 168v464h60v-460c0 -44 -4 -83 -11 -118c-8 -35 -21 -64 -38 -87c-18 -24 -42 -42 -71 -55
s-65 -19 -108 -19zM278 796l-119 110h78l95 -110h-54z" />
    <glyph glyph-name="Uacute" unicode="&#xda;" 
d="M300 -15c-43 0 -79 6 -108 18s-53 30 -70 54c-18 23 -31 52 -38 86c-8 34 -12 73 -12 117v464h60v-460c0 -75 13 -132 38 -170s68 -57 130 -57s106 18 131 55s37 93 37 168v464h60v-460c0 -44 -4 -83 -11 -118c-8 -35 -21 -64 -38 -87c-18 -24 -42 -42 -71 -55
s-65 -19 -108 -19zM362 906h78l-119 -110h-54z" />
    <glyph glyph-name="Ucircumflex" unicode="&#xdb;" 
d="M300 -15c-43 0 -79 6 -108 18s-53 30 -70 54c-18 23 -31 52 -38 86c-8 34 -12 73 -12 117v464h60v-460c0 -75 13 -132 38 -170s68 -57 130 -57s106 18 131 55s37 93 37 168v464h60v-460c0 -44 -4 -83 -11 -118c-8 -35 -21 -64 -38 -87c-18 -24 -42 -42 -71 -55
s-65 -19 -108 -19zM422 796h-57l-67 81l-68 -81h-54l89 110h68z" />
    <glyph glyph-name="Udieresis" unicode="&#xdc;" 
d="M300 -15c-43 0 -79 6 -108 18s-53 30 -70 54c-18 23 -31 52 -38 86c-8 34 -12 73 -12 117v464h60v-460c0 -75 13 -132 38 -170s68 -57 130 -57s106 18 131 55s37 93 37 168v464h60v-460c0 -44 -4 -83 -11 -118c-8 -35 -21 -64 -38 -87c-18 -24 -42 -42 -71 -55
s-65 -19 -108 -19zM236 899v-91h-73v91h73zM437 899v-91h-73v91h73z" />
    <glyph glyph-name="Yacute" unicode="&#xdd;" 
d="M266 0v300l-221 424h64l188 -364h8l196 364h60l-229 -424v-300h-66zM363 906h78l-119 -110h-54z" />
    <glyph glyph-name="Thorn" unicode="&#xde;" 
d="M280 593c31 0 63 -3 94 -9c31 -7 60 -18 85 -34c25 -17 45 -39 60 -68s23 -66 23 -111s-8 -82 -23 -111s-35 -51 -60 -67c-25 -17 -54 -28 -85 -34c-31 -7 -63 -10 -94 -10h-114v-149h-60v724h60v-131h114zM278 201c25 0 49 2 73 7s45 13 64 26s34 30 46 52
c11 22 17 50 17 85s-6 63 -17 85c-12 22 -27 39 -46 52s-40 21 -64 26s-48 7 -73 7h-112v-340h112z" />
    <glyph glyph-name="germandbls" unicode="&#xdf;" 
d="M108 500c0 75 17 133 50 175c33 41 83 62 150 62c28 0 53 -4 76 -12c23 -9 42 -20 58 -35s28 -33 37 -54s13 -43 13 -68c0 -19 -3 -37 -9 -54c-7 -17 -16 -33 -27 -48s-24 -27 -39 -37s-32 -17 -49 -21v-4c23 -3 45 -10 65 -21c20 -12 37 -26 52 -43s26 -37 35 -58
c8 -21 12 -43 12 -66c0 -37 -7 -70 -20 -97c-14 -27 -32 -50 -55 -68c-23 -19 -50 -32 -79 -41c-30 -9 -61 -14 -94 -14c-8 0 -16 0 -24 1l-24 3v44c7 -1 15 -2 22 -3s15 -1 22 -1c25 0 49 4 72 11s43 17 61 32c18 14 32 32 43 54s16 48 16 79c0 24 -4 46 -13 66
s-22 37 -38 52c-17 15 -36 26 -59 34s-47 12 -74 12h-16v44h16c21 0 41 4 59 11s34 18 47 31s24 28 31 46c7 17 11 36 11 56c0 36 -12 65 -36 88c-24 22 -56 33 -96 33c-46 0 -81 -15 -104 -45c-24 -31 -36 -79 -36 -144v-500h-56v500z" />
    <glyph glyph-name="agrave" unicode="&#xe0;" 
d="M91 132c0 33 8 60 24 81s39 39 68 52s64 22 105 29c41 6 86 10 135 12v45c0 45 -10 79 -30 104c-20 24 -51 36 -94 36c-19 0 -36 -2 -52 -7s-30 -13 -42 -23s-21 -22 -28 -37s-10 -33 -10 -53h-56c0 25 5 48 14 69s22 38 39 53s37 26 60 34s48 12 75 12
c63 0 109 -16 138 -49c28 -33 42 -79 42 -136v-198c0 -27 1 -53 4 -78c2 -25 6 -51 12 -78h-56c-3 11 -6 24 -8 38c-3 13 -4 26 -4 38c-20 -32 -45 -54 -75 -67s-60 -20 -89 -20c-53 0 -94 12 -125 37s-47 60 -47 106zM271 33c27 0 50 5 69 15c19 9 35 23 48 40
c12 17 21 38 27 62c5 23 8 49 8 78v35c-42 -2 -80 -5 -113 -10s-62 -12 -85 -22c-24 -10 -42 -23 -55 -39s-19 -36 -19 -60c0 -33 12 -57 35 -74s51 -25 85 -25zM177 724h75l88 -123h-52z" />
    <glyph glyph-name="aacute" unicode="&#xe1;" 
d="M91 132c0 33 8 60 24 81s39 39 68 52s64 22 105 29c41 6 86 10 135 12v45c0 45 -10 79 -30 104c-20 24 -51 36 -94 36c-19 0 -36 -2 -52 -7s-30 -13 -42 -23s-21 -22 -28 -37s-10 -33 -10 -53h-56c0 25 5 48 14 69s22 38 39 53s37 26 60 34s48 12 75 12
c63 0 109 -16 138 -49c28 -33 42 -79 42 -136v-198c0 -27 1 -53 4 -78c2 -25 6 -51 12 -78h-56c-3 11 -6 24 -8 38c-3 13 -4 26 -4 38c-20 -32 -45 -54 -75 -67s-60 -20 -89 -20c-53 0 -94 12 -125 37s-47 60 -47 106zM271 33c27 0 50 5 69 15c19 9 35 23 48 40
c12 17 21 38 27 62c5 23 8 49 8 78v35c-42 -2 -80 -5 -113 -10s-62 -12 -85 -22c-24 -10 -42 -23 -55 -39s-19 -36 -19 -60c0 -33 12 -57 35 -74s51 -25 85 -25zM350 724h75l-112 -123h-51z" />
    <glyph glyph-name="acircumflex" unicode="&#xe2;" 
d="M91 132c0 33 8 60 24 81s39 39 68 52s64 22 105 29c41 6 86 10 135 12v45c0 45 -10 79 -30 104c-20 24 -51 36 -94 36c-19 0 -36 -2 -52 -7s-30 -13 -42 -23s-21 -22 -28 -37s-10 -33 -10 -53h-56c0 25 5 48 14 69s22 38 39 53s37 26 60 34s48 12 75 12
c63 0 109 -16 138 -49c28 -33 42 -79 42 -136v-198c0 -27 1 -53 4 -78c2 -25 6 -51 12 -78h-56c-3 11 -6 24 -8 38c-3 13 -4 26 -4 38c-20 -32 -45 -54 -75 -67s-60 -20 -89 -20c-53 0 -94 12 -125 37s-47 60 -47 106zM271 33c27 0 50 5 69 15c19 9 35 23 48 40
c12 17 21 38 27 62c5 23 8 49 8 78v35c-42 -2 -80 -5 -113 -10s-62 -12 -85 -22c-24 -10 -42 -23 -55 -39s-19 -36 -19 -60c0 -33 12 -57 35 -74s51 -25 85 -25zM294 692l-70 -91h-55l90 123h70l91 -123h-55z" />
    <glyph glyph-name="atilde" unicode="&#xe3;" 
d="M91 132c0 33 8 60 24 81s39 39 68 52s64 22 105 29c41 6 86 10 135 12v45c0 45 -10 79 -30 104c-20 24 -51 36 -94 36c-19 0 -36 -2 -52 -7s-30 -13 -42 -23s-21 -22 -28 -37s-10 -33 -10 -53h-56c0 25 5 48 14 69s22 38 39 53s37 26 60 34s48 12 75 12
c63 0 109 -16 138 -49c28 -33 42 -79 42 -136v-198c0 -27 1 -53 4 -78c2 -25 6 -51 12 -78h-56c-3 11 -6 24 -8 38c-3 13 -4 26 -4 38c-20 -32 -45 -54 -75 -67s-60 -20 -89 -20c-53 0 -94 12 -125 37s-47 60 -47 106zM271 33c27 0 50 5 69 15c19 9 35 23 48 40
c12 17 21 38 27 62c5 23 8 49 8 78v35c-42 -2 -80 -5 -113 -10s-62 -12 -85 -22c-24 -10 -42 -23 -55 -39s-19 -36 -19 -60c0 -33 12 -57 35 -74s51 -25 85 -25zM362 624c-11 0 -23 3 -34 8s-22 10 -33 16c-11 5 -21 11 -31 16s-19 7 -28 7c-10 0 -19 -3 -26 -10
c-8 -7 -14 -19 -19 -36h-39c5 34 15 58 30 73s33 22 53 22c12 0 24 -2 35 -7s22 -11 33 -16c11 -6 21 -11 31 -16s19 -8 27 -8c10 0 19 3 27 10c7 7 13 19 17 36h40c-5 -34 -15 -58 -30 -73s-33 -22 -53 -22z" />
    <glyph glyph-name="adieresis" unicode="&#xe4;" 
d="M91 132c0 33 8 60 24 81s39 39 68 52s64 22 105 29c41 6 86 10 135 12v45c0 45 -10 79 -30 104c-20 24 -51 36 -94 36c-19 0 -36 -2 -52 -7s-30 -13 -42 -23s-21 -22 -28 -37s-10 -33 -10 -53h-56c0 25 5 48 14 69s22 38 39 53s37 26 60 34s48 12 75 12
c63 0 109 -16 138 -49c28 -33 42 -79 42 -136v-198c0 -27 1 -53 4 -78c2 -25 6 -51 12 -78h-56c-3 11 -6 24 -8 38c-3 13 -4 26 -4 38c-20 -32 -45 -54 -75 -67s-60 -20 -89 -20c-53 0 -94 12 -125 37s-47 60 -47 106zM271 33c27 0 50 5 69 15c19 9 35 23 48 40
c12 17 21 38 27 62c5 23 8 49 8 78v35c-42 -2 -80 -5 -113 -10s-62 -12 -85 -22c-24 -10 -42 -23 -55 -39s-19 -36 -19 -60c0 -33 12 -57 35 -74s51 -25 85 -25zM237 717v-91h-73v91h73zM427 717v-91h-73v91h73z" />
    <glyph glyph-name="aring" unicode="&#xe5;" 
d="M91 132c0 33 8 60 24 81s39 39 68 52s64 22 105 29c41 6 86 10 135 12v45c0 45 -10 79 -30 104c-20 24 -51 36 -94 36c-19 0 -36 -2 -52 -7s-30 -13 -42 -23s-21 -22 -28 -37s-10 -33 -10 -53h-56c0 25 5 48 14 69s22 38 39 53s37 26 60 34s48 12 75 12
c63 0 109 -16 138 -49c28 -33 42 -79 42 -136v-198c0 -27 1 -53 4 -78c2 -25 6 -51 12 -78h-56c-3 11 -6 24 -8 38c-3 13 -4 26 -4 38c-20 -32 -45 -54 -75 -67s-60 -20 -89 -20c-53 0 -94 12 -125 37s-47 60 -47 106zM271 33c27 0 50 5 69 15c19 9 35 23 48 40
c12 17 21 38 27 62c5 23 8 49 8 78v35c-42 -2 -80 -5 -113 -10s-62 -12 -85 -22c-24 -10 -42 -23 -55 -39s-19 -36 -19 -60c0 -33 12 -57 35 -74s51 -25 85 -25zM296 575c-16 0 -30 3 -42 8c-13 5 -23 13 -31 22s-14 19 -18 30c-5 11 -7 23 -7 34s2 23 7 34
c4 11 10 21 18 30s18 16 31 21c12 5 26 8 42 8s30 -3 43 -8c12 -5 22 -12 31 -21c8 -9 14 -19 19 -30c4 -11 6 -23 6 -34s-2 -23 -6 -34c-5 -11 -11 -21 -19 -30c-9 -9 -19 -17 -31 -22c-13 -5 -27 -8 -43 -8zM296 613c17 0 31 5 41 16c10 10 15 23 15 40c0 16 -5 29 -15 40
c-10 10 -24 15 -41 15s-30 -5 -40 -15c-10 -11 -15 -24 -15 -40c0 -17 5 -30 15 -40c10 -11 23 -16 40 -16z" />
    <glyph glyph-name="ae" unicode="&#xe6;" 
d="M579 256h-253c0 -75 9 -131 27 -168s44 -55 78 -55c24 0 44 10 59 30s25 47 29 81h52c-9 -50 -25 -89 -47 -117s-53 -42 -93 -42c-64 0 -108 35 -133 104c-9 -29 -26 -54 -51 -74s-57 -30 -96 -30c-43 0 -76 12 -98 37c-23 24 -34 58 -34 102c0 58 22 100 66 127
s106 43 187 50v50c0 45 -7 79 -21 104c-15 24 -36 36 -64 36c-29 0 -53 -10 -71 -29c-18 -20 -27 -50 -27 -91h-54c0 51 14 92 41 123c27 30 63 45 109 45c33 0 59 -8 78 -23c19 -16 34 -38 43 -67c23 60 64 90 121 90c53 0 91 -22 116 -67c24 -45 36 -111 36 -200v-16z
M524 304c-1 61 -9 107 -24 139s-39 48 -73 48c-61 0 -94 -62 -100 -187h197zM272 257c-31 -3 -58 -7 -82 -12c-25 -5 -45 -13 -62 -23c-17 -11 -30 -24 -39 -40s-14 -35 -14 -58c0 -33 8 -57 23 -72s36 -23 61 -23c15 0 29 3 43 10c13 7 25 17 36 30s19 30 25 49s9 41 9 66
v73z" />
    <glyph glyph-name="ccedilla" unicode="&#xe7;" 
d="M311 -15c-35 0 -66 6 -94 19s-52 31 -72 55c-20 23 -35 52 -46 86c-11 33 -16 71 -16 114c0 42 5 80 16 115c11 34 26 63 46 88s44 44 72 57s59 20 94 20c59 0 107 -16 144 -49s60 -80 68 -143h-60c-3 24 -9 45 -18 63c-10 18 -22 33 -36 45s-29 21 -46 27s-35 9 -52 9
c-26 0 -49 -6 -70 -18c-21 -13 -38 -29 -52 -50c-15 -21 -26 -46 -34 -74s-12 -58 -12 -90c0 -33 4 -63 12 -90c8 -28 20 -52 35 -72s32 -36 53 -47c20 -11 43 -17 68 -17c17 0 33 3 50 9c16 5 31 14 45 26s26 27 36 46s17 41 21 66h60c-5 -33 -14 -62 -27 -86
c-13 -25 -29 -45 -48 -61s-40 -28 -63 -36s-48 -12 -74 -12zM321 -30c19 -1 35 -8 47 -20c13 -14 19 -31 19 -52c0 -24 -8 -44 -25 -61s-41 -25 -72 -25c-5 0 -11 0 -17 1c-6 0 -12 1 -17 2v38c3 -1 7 -1 12 -1c4 -1 8 -1 13 -1c19 0 34 5 43 14s14 20 14 33
c0 12 -4 22 -12 31c-9 8 -23 12 -42 12c-5 0 -9 0 -12 -1v71h49v-41z" />
    <glyph glyph-name="egrave" unicode="&#xe8;" 
d="M520 256h-380c0 -33 4 -64 13 -91c8 -27 20 -51 35 -70s32 -34 53 -45c20 -11 42 -17 67 -17c34 0 64 11 89 32s44 47 55 79h60c-13 -50 -38 -89 -74 -117c-37 -28 -80 -42 -130 -42c-34 0 -65 6 -93 18s-52 30 -72 54c-20 23 -35 52 -46 86s-17 73 -17 117
c0 40 5 77 16 111s26 64 45 89s43 44 71 58c27 14 58 21 92 21c66 0 119 -22 158 -67s58 -112 58 -200v-16zM304 491c-22 0 -42 -5 -60 -14c-19 -10 -35 -23 -48 -40c-14 -17 -25 -37 -34 -60s-16 -47 -19 -73h316c-5 59 -20 105 -46 138c-27 33 -63 49 -109 49zM169 724h75
l88 -123h-52z" />
    <glyph glyph-name="eacute" unicode="&#xe9;" 
d="M520 256h-380c0 -33 4 -64 13 -91c8 -27 20 -51 35 -70s32 -34 53 -45c20 -11 42 -17 67 -17c34 0 64 11 89 32s44 47 55 79h60c-13 -50 -38 -89 -74 -117c-37 -28 -80 -42 -130 -42c-34 0 -65 6 -93 18s-52 30 -72 54c-20 23 -35 52 -46 86s-17 73 -17 117
c0 40 5 77 16 111s26 64 45 89s43 44 71 58c27 14 58 21 92 21c66 0 119 -22 158 -67s58 -112 58 -200v-16zM304 491c-22 0 -42 -5 -60 -14c-19 -10 -35 -23 -48 -40c-14 -17 -25 -37 -34 -60s-16 -47 -19 -73h316c-5 59 -20 105 -46 138c-27 33 -63 49 -109 49zM359 724h75
l-112 -123h-51z" />
    <glyph glyph-name="ecircumflex" unicode="&#xea;" 
d="M520 256h-380c0 -33 4 -64 13 -91c8 -27 20 -51 35 -70s32 -34 53 -45c20 -11 42 -17 67 -17c34 0 64 11 89 32s44 47 55 79h60c-13 -50 -38 -89 -74 -117c-37 -28 -80 -42 -130 -42c-34 0 -65 6 -93 18s-52 30 -72 54c-20 23 -35 52 -46 86s-17 73 -17 117
c0 40 5 77 16 111s26 64 45 89s43 44 71 58c27 14 58 21 92 21c66 0 119 -22 158 -67s58 -112 58 -200v-16zM304 491c-22 0 -42 -5 -60 -14c-19 -10 -35 -23 -48 -40c-14 -17 -25 -37 -34 -60s-16 -47 -19 -73h316c-5 59 -20 105 -46 138c-27 33 -63 49 -109 49zM303 692
l-70 -91h-55l90 123h70l91 -123h-55z" />
    <glyph glyph-name="edieresis" unicode="&#xeb;" 
d="M520 256h-380c0 -33 4 -64 13 -91c8 -27 20 -51 35 -70s32 -34 53 -45c20 -11 42 -17 67 -17c34 0 64 11 89 32s44 47 55 79h60c-13 -50 -38 -89 -74 -117c-37 -28 -80 -42 -130 -42c-34 0 -65 6 -93 18s-52 30 -72 54c-20 23 -35 52 -46 86s-17 73 -17 117
c0 40 5 77 16 111s26 64 45 89s43 44 71 58c27 14 58 21 92 21c66 0 119 -22 158 -67s58 -112 58 -200v-16zM304 491c-22 0 -42 -5 -60 -14c-19 -10 -35 -23 -48 -40c-14 -17 -25 -37 -34 -60s-16 -47 -19 -73h316c-5 59 -20 105 -46 138c-27 33 -63 49 -109 49zM246 717
v-91h-73v91h73zM436 717v-91h-73v91h73z" />
    <glyph glyph-name="igrave" unicode="&#xec;" 
d="M137 501h216v-453h160v-48h-376v48h160v405h-160v48zM191 724h75l88 -123h-52z" />
    <glyph glyph-name="iacute" unicode="&#xed;" 
d="M137 501h216v-453h160v-48h-376v48h160v405h-160v48zM380 724h75l-112 -123h-51z" />
    <glyph glyph-name="icircumflex" unicode="&#xee;" 
d="M137 501h216v-453h160v-48h-376v48h160v405h-160v48zM325 692l-70 -91h-55l90 123h70l91 -123h-55z" />
    <glyph glyph-name="idieresis" unicode="&#xef;" 
d="M137 501h216v-453h160v-48h-376v48h160v405h-160v48zM267 717v-91h-73v91h73zM457 717v-91h-73v91h73z" />
    <glyph glyph-name="eth" unicode="&#xf0;" 
d="M338 651c56 -57 101 -118 134 -183s50 -133 50 -204c0 -41 -5 -79 -16 -113s-26 -63 -45 -87c-20 -24 -44 -43 -71 -56c-28 -13 -59 -20 -92 -20s-63 6 -90 19c-27 12 -51 30 -70 53s-34 50 -45 82s-16 68 -16 107s5 75 16 108c10 32 25 60 44 83s41 40 68 53
s56 19 89 19c20 0 41 -4 62 -11s43 -22 66 -45l5 1c-15 27 -34 55 -55 84c-22 28 -47 56 -74 84l-92 -61l-24 35l85 56c-13 12 -27 24 -40 35s-27 23 -42 34h70c8 -7 15 -13 22 -18c6 -5 16 -14 29 -25l81 55l25 -36zM296 36c25 0 47 5 68 16c21 10 38 25 53 44
c14 19 25 41 33 68s12 56 12 89c0 27 -3 54 -10 79s-17 48 -30 68c-13 19 -30 35 -50 47c-21 12 -45 18 -73 18c-25 0 -47 -5 -67 -15c-20 -11 -37 -25 -51 -44s-25 -42 -32 -69c-8 -27 -12 -56 -12 -89c0 -32 4 -61 12 -87c7 -26 18 -48 32 -66c13 -19 30 -33 50 -43
c19 -11 41 -16 65 -16z" />
    <glyph glyph-name="ntilde" unicode="&#xf1;" 
d="M157 440c7 16 17 30 30 42s27 22 43 31c16 8 33 14 50 18s34 6 49 6c53 0 95 -17 126 -50c31 -34 46 -87 46 -159v-328h-56v324c0 23 -2 44 -6 65c-5 20 -12 37 -21 52c-10 15 -23 26 -38 35c-16 9 -36 13 -59 13c-19 0 -37 -4 -56 -11s-35 -18 -50 -33s-28 -34 -38 -56
c-10 -23 -15 -49 -16 -80v-309h-56v524h52v-84zM370 624c-11 0 -23 3 -34 8s-22 10 -33 16c-11 5 -21 11 -31 16s-19 7 -28 7c-10 0 -19 -3 -26 -10c-8 -7 -14 -19 -19 -36h-39c5 34 15 58 30 73s33 22 53 22c12 0 24 -2 35 -7s22 -11 33 -16c11 -6 21 -11 31 -16
s19 -8 27 -8c10 0 19 3 27 10c7 7 13 19 17 36h40c-5 -34 -15 -58 -30 -73s-33 -22 -53 -22z" />
    <glyph glyph-name="ograve" unicode="&#xf2;" 
d="M300 33c27 0 50 6 71 18c20 12 37 28 51 49s25 45 32 73s10 58 10 91s-4 63 -11 91c-8 27 -19 51 -33 72c-14 20 -31 36 -51 47c-21 11 -44 17 -69 17c-27 0 -50 -6 -70 -18c-21 -12 -38 -28 -52 -49s-24 -45 -31 -73s-11 -58 -11 -91s4 -63 12 -90c7 -28 18 -52 32 -72
c14 -21 31 -37 52 -48c20 -11 43 -17 68 -17zM300 -15c-35 0 -66 7 -93 20c-28 13 -52 31 -71 55c-19 23 -34 52 -44 86c-11 34 -16 72 -16 114s5 80 16 115c10 34 25 63 44 88c19 24 43 43 71 56c27 13 58 20 93 20c34 0 65 -6 93 -19c27 -13 51 -32 71 -55
c19 -24 34 -53 45 -87c10 -34 15 -72 15 -114s-5 -80 -16 -114c-11 -35 -26 -64 -45 -88c-19 -25 -43 -44 -70 -57c-28 -13 -59 -20 -93 -20zM165 724h75l88 -123h-52z" />
    <glyph glyph-name="oacute" unicode="&#xf3;" 
d="M300 33c27 0 50 6 71 18c20 12 37 28 51 49s25 45 32 73s10 58 10 91s-4 63 -11 91c-8 27 -19 51 -33 72c-14 20 -31 36 -51 47c-21 11 -44 17 -69 17c-27 0 -50 -6 -70 -18c-21 -12 -38 -28 -52 -49s-24 -45 -31 -73s-11 -58 -11 -91s4 -63 12 -90c7 -28 18 -52 32 -72
c14 -21 31 -37 52 -48c20 -11 43 -17 68 -17zM300 -15c-35 0 -66 7 -93 20c-28 13 -52 31 -71 55c-19 23 -34 52 -44 86c-11 34 -16 72 -16 114s5 80 16 115c10 34 25 63 44 88c19 24 43 43 71 56c27 13 58 20 93 20c34 0 65 -6 93 -19c27 -13 51 -32 71 -55
c19 -24 34 -53 45 -87c10 -34 15 -72 15 -114s-5 -80 -16 -114c-11 -35 -26 -64 -45 -88c-19 -25 -43 -44 -70 -57c-28 -13 -59 -20 -93 -20zM355 724h75l-112 -123h-51z" />
    <glyph glyph-name="ocircumflex" unicode="&#xf4;" 
d="M300 33c27 0 50 6 71 18c20 12 37 28 51 49s25 45 32 73s10 58 10 91s-4 63 -11 91c-8 27 -19 51 -33 72c-14 20 -31 36 -51 47c-21 11 -44 17 -69 17c-27 0 -50 -6 -70 -18c-21 -12 -38 -28 -52 -49s-24 -45 -31 -73s-11 -58 -11 -91s4 -63 12 -90c7 -28 18 -52 32 -72
c14 -21 31 -37 52 -48c20 -11 43 -17 68 -17zM300 -15c-35 0 -66 7 -93 20c-28 13 -52 31 -71 55c-19 23 -34 52 -44 86c-11 34 -16 72 -16 114s5 80 16 115c10 34 25 63 44 88c19 24 43 43 71 56c27 13 58 20 93 20c34 0 65 -6 93 -19c27 -13 51 -32 71 -55
c19 -24 34 -53 45 -87c10 -34 15 -72 15 -114s-5 -80 -16 -114c-11 -35 -26 -64 -45 -88c-19 -25 -43 -44 -70 -57c-28 -13 -59 -20 -93 -20zM299 692l-70 -91h-55l90 123h70l91 -123h-55z" />
    <glyph glyph-name="otilde" unicode="&#xf5;" 
d="M300 33c27 0 50 6 71 18c20 12 37 28 51 49s25 45 32 73s10 58 10 91s-4 63 -11 91c-8 27 -19 51 -33 72c-14 20 -31 36 -51 47c-21 11 -44 17 -69 17c-27 0 -50 -6 -70 -18c-21 -12 -38 -28 -52 -49s-24 -45 -31 -73s-11 -58 -11 -91s4 -63 12 -90c7 -28 18 -52 32 -72
c14 -21 31 -37 52 -48c20 -11 43 -17 68 -17zM300 -15c-35 0 -66 7 -93 20c-28 13 -52 31 -71 55c-19 23 -34 52 -44 86c-11 34 -16 72 -16 114s5 80 16 115c10 34 25 63 44 88c19 24 43 43 71 56c27 13 58 20 93 20c34 0 65 -6 93 -19c27 -13 51 -32 71 -55
c19 -24 34 -53 45 -87c10 -34 15 -72 15 -114s-5 -80 -16 -114c-11 -35 -26 -64 -45 -88c-19 -25 -43 -44 -70 -57c-28 -13 -59 -20 -93 -20zM367 624c-11 0 -23 3 -34 8s-22 10 -33 16c-11 5 -21 11 -31 16s-19 7 -28 7c-10 0 -19 -3 -26 -10c-8 -7 -14 -19 -19 -36h-39
c5 34 15 58 30 73s33 22 53 22c12 0 24 -2 35 -7s22 -11 33 -16c11 -6 21 -11 31 -16s19 -8 27 -8c10 0 19 3 27 10c7 7 13 19 17 36h40c-5 -34 -15 -58 -30 -73s-33 -22 -53 -22z" />
    <glyph glyph-name="odieresis" unicode="&#xf6;" 
d="M300 33c27 0 50 6 71 18c20 12 37 28 51 49s25 45 32 73s10 58 10 91s-4 63 -11 91c-8 27 -19 51 -33 72c-14 20 -31 36 -51 47c-21 11 -44 17 -69 17c-27 0 -50 -6 -70 -18c-21 -12 -38 -28 -52 -49s-24 -45 -31 -73s-11 -58 -11 -91s4 -63 12 -90c7 -28 18 -52 32 -72
c14 -21 31 -37 52 -48c20 -11 43 -17 68 -17zM300 -15c-35 0 -66 7 -93 20c-28 13 -52 31 -71 55c-19 23 -34 52 -44 86c-11 34 -16 72 -16 114s5 80 16 115c10 34 25 63 44 88c19 24 43 43 71 56c27 13 58 20 93 20c34 0 65 -6 93 -19c27 -13 51 -32 71 -55
c19 -24 34 -53 45 -87c10 -34 15 -72 15 -114s-5 -80 -16 -114c-11 -35 -26 -64 -45 -88c-19 -25 -43 -44 -70 -57c-28 -13 -59 -20 -93 -20zM242 717v-91h-73v91h73zM432 717v-91h-73v91h73z" />
    <glyph glyph-name="divide" unicode="&#xf7;" 
d="M257 481h85v-87h-85v87zM257 163h85v-87h-85v87zM90 258v50h420v-50h-420z" />
    <glyph glyph-name="oslash" unicode="&#xf8;" 
d="M464 465c19 -24 34 -53 45 -87s16 -72 16 -114s-5 -80 -16 -114c-11 -35 -26 -64 -45 -88c-19 -25 -43 -44 -70 -57c-28 -13 -59 -20 -93 -20c-54 0 -99 16 -136 47l-52 -72l-34 29l55 75c-38 49 -57 115 -57 196c0 42 5 80 16 115c10 34 25 63 44 88c19 24 43 43 71 56
c27 13 58 20 93 20c51 0 95 -14 131 -43l56 78l35 -27zM301 492c-27 0 -50 -6 -71 -18s-38 -28 -52 -49s-25 -45 -32 -73c-7 -29 -11 -59 -11 -92c0 -59 12 -109 35 -148l231 340c-13 13 -28 23 -45 30s-35 10 -55 10zM301 32c27 0 50 6 71 18s38 28 52 49s25 45 32 74
c7 28 11 58 11 91c0 30 -3 58 -10 84s-16 49 -28 69l-232 -341c28 -29 63 -44 104 -44z" />
    <glyph glyph-name="ugrave" unicode="&#xf9;" 
d="M439 524h56v-524h-52v84c-7 -16 -17 -30 -30 -42s-27 -22 -43 -30c-16 -9 -33 -15 -50 -19s-34 -6 -49 -6c-53 0 -95 17 -126 51c-31 33 -46 86 -46 158v328h56v-324c0 -23 2 -45 7 -65c4 -20 11 -37 21 -52c9 -15 22 -26 38 -35c15 -9 35 -13 58 -13c19 0 38 4 57 12
c19 7 37 19 52 35c15 15 27 35 37 59c9 23 14 51 14 83v300zM164 724h75l88 -123h-52z" />
    <glyph glyph-name="uacute" unicode="&#xfa;" 
d="M439 524h56v-524h-52v84c-7 -16 -17 -30 -30 -42s-27 -22 -43 -30c-16 -9 -33 -15 -50 -19s-34 -6 -49 -6c-53 0 -95 17 -126 51c-31 33 -46 86 -46 158v328h56v-324c0 -23 2 -45 7 -65c4 -20 11 -37 21 -52c9 -15 22 -26 38 -35c15 -9 35 -13 58 -13c19 0 38 4 57 12
c19 7 37 19 52 35c15 15 27 35 37 59c9 23 14 51 14 83v300zM354 724h75l-112 -123h-51z" />
    <glyph glyph-name="ucircumflex" unicode="&#xfb;" 
d="M439 524h56v-524h-52v84c-7 -16 -17 -30 -30 -42s-27 -22 -43 -30c-16 -9 -33 -15 -50 -19s-34 -6 -49 -6c-53 0 -95 17 -126 51c-31 33 -46 86 -46 158v328h56v-324c0 -23 2 -45 7 -65c4 -20 11 -37 21 -52c9 -15 22 -26 38 -35c15 -9 35 -13 58 -13c19 0 38 4 57 12
c19 7 37 19 52 35c15 15 27 35 37 59c9 23 14 51 14 83v300zM298 692l-70 -91h-55l90 123h70l91 -123h-55z" />
    <glyph glyph-name="udieresis" unicode="&#xfc;" 
d="M439 524h56v-524h-52v84c-7 -16 -17 -30 -30 -42s-27 -22 -43 -30c-16 -9 -33 -15 -50 -19s-34 -6 -49 -6c-53 0 -95 17 -126 51c-31 33 -46 86 -46 158v328h56v-324c0 -23 2 -45 7 -65c4 -20 11 -37 21 -52c9 -15 22 -26 38 -35c15 -9 35 -13 58 -13c19 0 38 4 57 12
c19 7 37 19 52 35c15 15 27 35 37 59c9 23 14 51 14 83v300zM241 717v-91h-73v91h73zM431 717v-91h-73v91h73z" />
    <glyph glyph-name="yacute" unicode="&#xfd;" 
d="M73 524h68l104 -296c9 -26 19 -51 28 -76s18 -51 28 -76h8c21 51 39 100 56 148l104 300h64l-200 -524c-11 -29 -21 -54 -32 -77s-25 -43 -40 -59c-15 -17 -33 -29 -54 -38s-47 -14 -78 -14c-9 0 -18 0 -27 1s-19 2 -29 3v52c10 -2 20 -3 30 -3c9 -1 18 -1 26 -1
c20 0 37 3 51 8s26 14 37 25c10 11 19 26 28 43c8 17 16 38 24 62zM356 724h75l-112 -123h-51z" />
    <glyph glyph-name="thorn" unicode="&#xfe;" 
d="M152 724v-289c18 33 42 58 72 75s62 25 96 25c31 0 60 -6 87 -17s50 -28 69 -51s33 -52 44 -86c11 -35 16 -75 16 -121c0 -47 -6 -88 -18 -122s-28 -62 -48 -84c-21 -22 -44 -38 -71 -49s-54 -16 -83 -16c-15 0 -31 2 -46 5c-16 3 -31 9 -45 16s-27 17 -39 30
s-22 29 -30 48v-276h-56v912h52zM316 37c19 0 39 5 58 14s37 22 52 41c15 18 27 41 36 69s14 61 14 99s-4 71 -12 100c-9 28 -20 52 -34 71c-15 19 -32 33 -51 42c-20 9 -41 14 -63 14c-25 0 -48 -5 -68 -16s-37 -27 -50 -46c-14 -19 -24 -42 -31 -69s-11 -56 -11 -87v-9
c0 -31 4 -59 11 -86s17 -51 30 -71c13 -21 30 -37 50 -48c20 -12 43 -18 69 -18z" />
    <glyph glyph-name="ydieresis" unicode="&#xff;" 
d="M73 524h68l104 -296c9 -26 19 -51 28 -76s18 -51 28 -76h8c21 51 39 100 56 148l104 300h64l-200 -524c-11 -29 -21 -54 -32 -77s-25 -43 -40 -59c-15 -17 -33 -29 -54 -38s-47 -14 -78 -14c-9 0 -18 0 -27 1s-19 2 -29 3v52c10 -2 20 -3 30 -3c9 -1 18 -1 26 -1
c20 0 37 3 51 8s26 14 37 25c10 11 19 26 28 43c8 17 16 38 24 62zM243 717v-91h-73v91h73zM433 717v-91h-73v91h73z" />
    <glyph glyph-name="Amacron" unicode="&#x100;" 
d="M439 228h-279l-74 -228h-64l244 724h68l244 -724h-64zM177 280h245l-120 368h-4zM176 874h249v-48h-249v48z" />
    <glyph glyph-name="amacron" unicode="&#x101;" 
d="M91 132c0 33 8 60 24 81s39 39 68 52s64 22 105 29c41 6 86 10 135 12v45c0 45 -10 79 -30 104c-20 24 -51 36 -94 36c-19 0 -36 -2 -52 -7s-30 -13 -42 -23s-21 -22 -28 -37s-10 -33 -10 -53h-56c0 25 5 48 14 69s22 38 39 53s37 26 60 34s48 12 75 12
c63 0 109 -16 138 -49c28 -33 42 -79 42 -136v-198c0 -27 1 -53 4 -78c2 -25 6 -51 12 -78h-56c-3 11 -6 24 -8 38c-3 13 -4 26 -4 38c-20 -32 -45 -54 -75 -67s-60 -20 -89 -20c-53 0 -94 12 -125 37s-47 60 -47 106zM271 33c27 0 50 5 69 15c19 9 35 23 48 40
c12 17 21 38 27 62c5 23 8 49 8 78v35c-42 -2 -80 -5 -113 -10s-62 -12 -85 -22c-24 -10 -42 -23 -55 -39s-19 -36 -19 -60c0 -33 12 -57 35 -74s51 -25 85 -25zM168 699h253v-48h-253v48z" />
    <glyph glyph-name="Abreve" unicode="&#x102;" 
d="M439 228h-279l-74 -228h-64l244 724h68l244 -724h-64zM177 280h245l-120 368h-4zM301 792c-38 0 -68 11 -90 33c-23 21 -34 48 -34 81h49c1 -21 8 -38 20 -52s30 -21 55 -21s43 7 55 21c11 14 18 31 19 52h50c-1 -33 -13 -60 -34 -81c-22 -22 -52 -33 -90 -33z" />
    <glyph glyph-name="abreve" unicode="&#x103;" 
d="M91 132c0 33 8 60 24 81s39 39 68 52s64 22 105 29c41 6 86 10 135 12v45c0 45 -10 79 -30 104c-20 24 -51 36 -94 36c-19 0 -36 -2 -52 -7s-30 -13 -42 -23s-21 -22 -28 -37s-10 -33 -10 -53h-56c0 25 5 48 14 69s22 38 39 53s37 26 60 34s48 12 75 12
c63 0 109 -16 138 -49c28 -33 42 -79 42 -136v-198c0 -27 1 -53 4 -78c2 -25 6 -51 12 -78h-56c-3 11 -6 24 -8 38c-3 13 -4 26 -4 38c-20 -32 -45 -54 -75 -67s-60 -20 -89 -20c-53 0 -94 12 -125 37s-47 60 -47 106zM271 33c27 0 50 5 69 15c19 9 35 23 48 40
c12 17 21 38 27 62c5 23 8 49 8 78v35c-42 -2 -80 -5 -113 -10s-62 -12 -85 -22c-24 -10 -42 -23 -55 -39s-19 -36 -19 -60c0 -33 12 -57 35 -74s51 -25 85 -25zM296 599c-35 0 -64 11 -86 32c-23 21 -34 52 -34 93h48c0 -29 7 -50 20 -64s31 -21 52 -21s39 7 52 21
s20 35 20 64h48c0 -41 -11 -72 -33 -93c-23 -21 -52 -32 -87 -32z" />
    <glyph glyph-name="Aogonek" unicode="&#x104;" 
d="M439 228h-279l-74 -228h-64l244 724h68l244 -724h-64zM177 280h245l-120 368h-4zM534 -188c-25 0 -46 8 -63 25c-17 16 -25 36 -25 60c0 19 7 39 21 59c14 19 38 40 71 62l40 -18c-27 -16 -47 -32 -61 -48s-21 -32 -21 -48c0 -13 4 -24 13 -33s19 -13 32 -13
c5 0 12 1 20 2c7 1 13 3 17 5v-46c-7 -3 -14 -4 -22 -5c-9 -1 -16 -2 -22 -2z" />
    <glyph glyph-name="aogonek" unicode="&#x105;" 
d="M91 132c0 33 8 60 24 81s39 39 68 52s64 22 105 29c41 6 86 10 135 12v45c0 45 -10 79 -30 104c-20 24 -51 36 -94 36c-19 0 -36 -2 -52 -7s-30 -13 -42 -23s-21 -22 -28 -37s-10 -33 -10 -53h-56c0 25 5 48 14 69s22 38 39 53s37 26 60 34s48 12 75 12
c63 0 109 -16 138 -49c28 -33 42 -79 42 -136v-198c0 -27 1 -53 4 -78c2 -25 6 -51 12 -78h-56c-3 11 -6 24 -8 38c-3 13 -4 26 -4 38c-20 -32 -45 -54 -75 -67s-60 -20 -89 -20c-53 0 -94 12 -125 37s-47 60 -47 106zM271 33c27 0 50 5 69 15c19 9 35 23 48 40
c12 17 21 38 27 62c5 23 8 49 8 78v35c-42 -2 -80 -5 -113 -10s-62 -12 -85 -22c-24 -10 -42 -23 -55 -39s-19 -36 -19 -60c0 -33 12 -57 35 -74s51 -25 85 -25zM454 -188c-25 0 -47 8 -64 25c-18 16 -27 36 -27 60c0 19 7 39 21 59c14 19 38 40 71 62l40 -18
c-27 -16 -47 -32 -61 -48s-21 -32 -21 -48c0 -13 4 -24 13 -33s19 -13 32 -13c5 0 12 1 20 2c7 1 13 3 17 5v-46c-7 -3 -14 -4 -21 -5s-14 -2 -20 -2z" />
    <glyph glyph-name="Cacute" unicode="&#x106;" 
d="M374 906h78l-119 -110h-54zM556 229c-14 -77 -41 -136 -80 -179c-40 -43 -93 -65 -160 -65c-41 0 -77 9 -109 27c-33 17 -60 42 -82 75c-23 33 -40 72 -51 118c-12 46 -18 98 -18 155s6 108 18 155c11 47 28 87 51 120c22 33 49 59 82 77c32 18 68 27 109 27
c65 0 118 -21 158 -62c40 -42 67 -100 82 -174h-64c-12 57 -33 102 -62 135s-67 49 -114 49c-31 0 -58 -8 -82 -24c-25 -16 -45 -38 -62 -67s-29 -64 -38 -104s-14 -84 -14 -132s5 -92 14 -131c9 -40 21 -74 38 -102c17 -29 37 -51 62 -66c24 -16 51 -24 82 -24
c48 0 87 17 116 52s49 81 60 140h64z" />
    <glyph glyph-name="cacute" unicode="&#x107;" 
d="M311 -15c-35 0 -66 6 -94 19s-52 31 -72 55c-20 23 -35 52 -46 86c-11 33 -16 71 -16 114c0 42 5 80 16 115c11 34 26 63 46 88s44 44 72 57s59 20 94 20c59 0 107 -16 144 -49s60 -80 68 -143h-60c-3 24 -9 45 -18 63c-10 18 -22 33 -36 45s-29 21 -46 27s-35 9 -52 9
c-26 0 -49 -6 -70 -18c-21 -13 -38 -29 -52 -50c-15 -21 -26 -46 -34 -74s-12 -58 -12 -90c0 -33 4 -63 12 -90c8 -28 20 -52 35 -72s32 -36 53 -47c20 -11 43 -17 68 -17c17 0 33 3 50 9c16 5 31 14 45 26s26 27 36 46s17 41 21 66h60c-5 -33 -14 -62 -27 -86
c-13 -25 -29 -45 -48 -61s-40 -28 -63 -36s-48 -12 -74 -12zM362 724h75l-112 -123h-51z" />
    <glyph glyph-name="Ccircumflex" unicode="&#x108;" 
d="M434 796h-57l-67 81l-68 -81h-54l89 110h68zM556 229c-14 -77 -41 -136 -80 -179c-40 -43 -93 -65 -160 -65c-41 0 -77 9 -109 27c-33 17 -60 42 -82 75c-23 33 -40 72 -51 118c-12 46 -18 98 -18 155s6 108 18 155c11 47 28 87 51 120c22 33 49 59 82 77
c32 18 68 27 109 27c65 0 118 -21 158 -62c40 -42 67 -100 82 -174h-64c-12 57 -33 102 -62 135s-67 49 -114 49c-31 0 -58 -8 -82 -24c-25 -16 -45 -38 -62 -67s-29 -64 -38 -104s-14 -84 -14 -132s5 -92 14 -131c9 -40 21 -74 38 -102c17 -29 37 -51 62 -66
c24 -16 51 -24 82 -24c48 0 87 17 116 52s49 81 60 140h64z" />
    <glyph glyph-name="ccircumflex" unicode="&#x109;" 
d="M311 -15c-35 0 -66 6 -94 19s-52 31 -72 55c-20 23 -35 52 -46 86c-11 33 -16 71 -16 114c0 42 5 80 16 115c11 34 26 63 46 88s44 44 72 57s59 20 94 20c59 0 107 -16 144 -49s60 -80 68 -143h-60c-3 24 -9 45 -18 63c-10 18 -22 33 -36 45s-29 21 -46 27s-35 9 -52 9
c-26 0 -49 -6 -70 -18c-21 -13 -38 -29 -52 -50c-15 -21 -26 -46 -34 -74s-12 -58 -12 -90c0 -33 4 -63 12 -90c8 -28 20 -52 35 -72s32 -36 53 -47c20 -11 43 -17 68 -17c17 0 33 3 50 9c16 5 31 14 45 26s26 27 36 46s17 41 21 66h60c-5 -33 -14 -62 -27 -86
c-13 -25 -29 -45 -48 -61s-40 -28 -63 -36s-48 -12 -74 -12zM306 692l-70 -91h-55l90 123h70l91 -123h-55z" />
    <glyph glyph-name="Cdotaccent" unicode="&#x10a;" 
d="M272 802v104h80v-104h-80zM556 229c-14 -77 -41 -136 -80 -179c-40 -43 -93 -65 -160 -65c-41 0 -77 9 -109 27c-33 17 -60 42 -82 75c-23 33 -40 72 -51 118c-12 46 -18 98 -18 155s6 108 18 155c11 47 28 87 51 120c22 33 49 59 82 77c32 18 68 27 109 27
c65 0 118 -21 158 -62c40 -42 67 -100 82 -174h-64c-12 57 -33 102 -62 135s-67 49 -114 49c-31 0 -58 -8 -82 -24c-25 -16 -45 -38 -62 -67s-29 -64 -38 -104s-14 -84 -14 -132s5 -92 14 -131c9 -40 21 -74 38 -102c17 -29 37 -51 62 -66c24 -16 51 -24 82 -24
c48 0 87 17 116 52s49 81 60 140h64z" />
    <glyph glyph-name="cdotaccent" unicode="&#x10b;" 
d="M311 -15c-35 0 -66 6 -94 19s-52 31 -72 55c-20 23 -35 52 -46 86c-11 33 -16 71 -16 114c0 42 5 80 16 115c11 34 26 63 46 88s44 44 72 57s59 20 94 20c59 0 107 -16 144 -49s60 -80 68 -143h-60c-3 24 -9 45 -18 63c-10 18 -22 33 -36 45s-29 21 -46 27s-35 9 -52 9
c-26 0 -49 -6 -70 -18c-21 -13 -38 -29 -52 -50c-15 -21 -26 -46 -34 -74s-12 -58 -12 -90c0 -33 4 -63 12 -90c8 -28 20 -52 35 -72s32 -36 53 -47c20 -11 43 -17 68 -17c17 0 33 3 50 9c16 5 31 14 45 26s26 27 36 46s17 41 21 66h60c-5 -33 -14 -62 -27 -86
c-13 -25 -29 -45 -48 -61s-40 -28 -63 -36s-48 -12 -74 -12zM266 620v104h80v-104h-80z" />
    <glyph glyph-name="Ccaron" unicode="&#x10c;" 
d="M189 906h57l67 -81l68 81h54l-89 -110h-68zM556 229c-14 -77 -41 -136 -80 -179c-40 -43 -93 -65 -160 -65c-41 0 -77 9 -109 27c-33 17 -60 42 -82 75c-23 33 -40 72 -51 118c-12 46 -18 98 -18 155s6 108 18 155c11 47 28 87 51 120c22 33 49 59 82 77
c32 18 68 27 109 27c65 0 118 -21 158 -62c40 -42 67 -100 82 -174h-64c-12 57 -33 102 -62 135s-67 49 -114 49c-31 0 -58 -8 -82 -24c-25 -16 -45 -38 -62 -67s-29 -64 -38 -104s-14 -84 -14 -132s5 -92 14 -131c9 -40 21 -74 38 -102c17 -29 37 -51 62 -66
c24 -16 51 -24 82 -24c48 0 87 17 116 52s49 81 60 140h64z" />
    <glyph glyph-name="ccaron" unicode="&#x10d;" 
d="M311 -15c-35 0 -66 6 -94 19s-52 31 -72 55c-20 23 -35 52 -46 86c-11 33 -16 71 -16 114c0 42 5 80 16 115c11 34 26 63 46 88s44 44 72 57s59 20 94 20c59 0 107 -16 144 -49s60 -80 68 -143h-60c-3 24 -9 45 -18 63c-10 18 -22 33 -36 45s-29 21 -46 27s-35 9 -52 9
c-26 0 -49 -6 -70 -18c-21 -13 -38 -29 -52 -50c-15 -21 -26 -46 -34 -74s-12 -58 -12 -90c0 -33 4 -63 12 -90c8 -28 20 -52 35 -72s32 -36 53 -47c20 -11 43 -17 68 -17c17 0 33 3 50 9c16 5 31 14 45 26s26 27 36 46s17 41 21 66h60c-5 -33 -14 -62 -27 -86
c-13 -25 -29 -45 -48 -61s-40 -28 -63 -36s-48 -12 -74 -12zM307 633l70 91h55l-90 -123h-70l-91 123h55z" />
    <glyph glyph-name="Dcaron" unicode="&#x10e;" 
d="M80 724h160c48 0 92 -7 131 -22s73 -38 101 -68s50 -67 65 -112s23 -98 23 -158c0 -55 -7 -105 -22 -150s-37 -84 -64 -115c-28 -32 -62 -56 -101 -73s-84 -26 -133 -26h-160v724zM240 48c41 0 77 8 109 23s59 37 81 65c21 27 38 60 49 99s17 82 17 129
c0 103 -22 181 -67 232s-108 76 -189 76h-100v-624h100zM148 906h57l67 -81l68 81h54l-89 -110h-68z" />
    <glyph glyph-name="dcaron" unicode="&#x10f;" 
d="M448 0v89c-20 -35 -44 -60 -73 -76s-61 -24 -95 -24c-31 0 -60 6 -87 17s-49 29 -68 52s-34 51 -45 86c-11 34 -16 74 -16 120c0 47 6 87 18 122c12 34 28 62 49 84c20 22 43 38 70 49s54 16 83 16c32 0 62 -7 89 -20c27 -14 51 -39 71 -75v284h56v-724h-52zM284 487
c-19 0 -39 -4 -58 -13s-36 -23 -51 -41c-15 -19 -28 -42 -37 -70s-14 -61 -14 -99s4 -71 13 -99c8 -29 19 -52 34 -71c14 -19 31 -34 51 -43c19 -9 40 -14 62 -14c25 0 48 6 67 17s36 26 50 45c13 19 24 42 31 69c7 26 11 55 12 86v19c-1 30 -5 58 -12 84s-18 49 -31 68
c-14 19 -31 35 -50 46s-42 16 -67 16zM585 724h55v-14l-24 -136h-41z" />
    <glyph glyph-name="Dcroat" unicode="&#x110;" 
d="M88 724h150c48 0 92 -7 131 -22s73 -38 101 -68s50 -67 65 -112s23 -98 23 -158c0 -55 -7 -105 -22 -150s-37 -84 -64 -115c-28 -32 -62 -56 -101 -73s-84 -26 -133 -26h-150v349h-76v52h76v323zM238 48c41 0 77 8 109 23s59 37 81 65c21 27 38 60 49 99s17 82 17 129
c0 103 -22 181 -67 232s-108 76 -189 76h-90v-271h116v-52h-116v-301h90z" />
    <glyph glyph-name="dcroat" unicode="&#x111;" 
d="M284 487c-19 0 -39 -4 -58 -13s-36 -23 -51 -41c-15 -19 -28 -42 -37 -70s-14 -61 -14 -99s4 -71 13 -99c8 -29 19 -52 34 -71c14 -19 31 -34 51 -43c19 -9 40 -14 62 -14c26 0 49 6 69 17s37 27 50 48c13 20 24 44 31 72c7 27 10 57 10 90c0 31 -3 60 -10 87
s-18 50 -31 71c-13 20 -30 36 -50 48c-20 11 -43 17 -69 17zM444 609h-109v45h109v70h56v-70h76v-45h-76v-609h-52v89c-20 -35 -44 -60 -73 -76s-61 -24 -95 -24c-31 0 -60 6 -87 17s-49 29 -68 52s-34 51 -45 86c-11 34 -16 74 -16 120c0 47 6 87 18 122c12 34 28 62 49 84
c20 22 43 38 70 49s54 16 83 16c32 0 62 -7 89 -20c27 -14 51 -39 71 -75v169z" />
    <glyph glyph-name="Emacron" unicode="&#x112;" 
d="M129 0v724h372v-52h-312v-274h296v-52h-296v-294h328v-52h-388zM199 874h249v-48h-249v48z" />
    <glyph glyph-name="emacron" unicode="&#x113;" 
d="M520 256h-380c0 -33 4 -64 13 -91c8 -27 20 -51 35 -70s32 -34 53 -45c20 -11 42 -17 67 -17c34 0 64 11 89 32s44 47 55 79h60c-13 -50 -38 -89 -74 -117c-37 -28 -80 -42 -130 -42c-34 0 -65 6 -93 18s-52 30 -72 54c-20 23 -35 52 -46 86s-17 73 -17 117
c0 40 5 77 16 111s26 64 45 89s43 44 71 58c27 14 58 21 92 21c66 0 119 -22 158 -67s58 -112 58 -200v-16zM304 491c-22 0 -42 -5 -60 -14c-19 -10 -35 -23 -48 -40c-14 -17 -25 -37 -34 -60s-16 -47 -19 -73h316c-5 59 -20 105 -46 138c-27 33 -63 49 -109 49zM177 699
h253v-48h-253v48z" />
    <glyph glyph-name="Ebreve" unicode="&#x114;" 
d="M129 0v724h372v-52h-312v-274h296v-52h-296v-294h328v-52h-388zM324 792c-38 0 -68 11 -90 33c-23 21 -34 48 -34 81h49c1 -21 8 -38 20 -52s30 -21 55 -21s43 7 55 21c11 14 18 31 19 52h50c-1 -33 -13 -60 -34 -81c-22 -22 -52 -33 -90 -33z" />
    <glyph glyph-name="ebreve" unicode="&#x115;" 
d="M520 256h-380c0 -33 4 -64 13 -91c8 -27 20 -51 35 -70s32 -34 53 -45c20 -11 42 -17 67 -17c34 0 64 11 89 32s44 47 55 79h60c-13 -50 -38 -89 -74 -117c-37 -28 -80 -42 -130 -42c-34 0 -65 6 -93 18s-52 30 -72 54c-20 23 -35 52 -46 86s-17 73 -17 117
c0 40 5 77 16 111s26 64 45 89s43 44 71 58c27 14 58 21 92 21c66 0 119 -22 158 -67s58 -112 58 -200v-16zM304 491c-22 0 -42 -5 -60 -14c-19 -10 -35 -23 -48 -40c-14 -17 -25 -37 -34 -60s-16 -47 -19 -73h316c-5 59 -20 105 -46 138c-27 33 -63 49 -109 49zM305 599
c-35 0 -64 11 -86 32c-23 21 -34 52 -34 93h48c0 -29 7 -50 20 -64s31 -21 52 -21s39 7 52 21s20 35 20 64h48c0 -41 -11 -72 -33 -93c-23 -21 -52 -32 -87 -32z" />
    <glyph glyph-name="Edotaccent" unicode="&#x116;" 
d="M129 0v724h372v-52h-312v-274h296v-52h-296v-294h328v-52h-388zM283 802v104h80v-104h-80z" />
    <glyph glyph-name="edotaccent" unicode="&#x117;" 
d="M520 256h-380c0 -33 4 -64 13 -91c8 -27 20 -51 35 -70s32 -34 53 -45c20 -11 42 -17 67 -17c34 0 64 11 89 32s44 47 55 79h60c-13 -50 -38 -89 -74 -117c-37 -28 -80 -42 -130 -42c-34 0 -65 6 -93 18s-52 30 -72 54c-20 23 -35 52 -46 86s-17 73 -17 117
c0 40 5 77 16 111s26 64 45 89s43 44 71 58c27 14 58 21 92 21c66 0 119 -22 158 -67s58 -112 58 -200v-16zM304 491c-22 0 -42 -5 -60 -14c-19 -10 -35 -23 -48 -40c-14 -17 -25 -37 -34 -60s-16 -47 -19 -73h316c-5 59 -20 105 -46 138c-27 33 -63 49 -109 49zM263 620
v104h80v-104h-80z" />
    <glyph glyph-name="Eogonek" unicode="&#x118;" 
d="M129 0v724h372v-52h-312v-274h296v-52h-296v-294h328v-52h-388zM473 -188c-25 0 -46 8 -63 25c-17 16 -25 36 -25 60c0 19 7 39 21 59c14 19 38 40 71 62l40 -18c-27 -16 -47 -32 -61 -48s-21 -32 -21 -48c0 -13 4 -24 13 -33s19 -13 32 -13c5 0 12 1 20 2c7 1 13 3 17 5
v-46c-7 -3 -14 -4 -22 -5c-9 -1 -16 -2 -22 -2z" />
    <glyph glyph-name="eogonek" unicode="&#x119;" 
d="M520 256h-380c0 -33 4 -64 13 -91c8 -27 20 -51 35 -70s32 -34 53 -45c20 -11 42 -17 67 -17c34 0 64 11 89 32s44 47 55 79h60c-8 -31 -20 -56 -35 -76s-31 -35 -46 -45c-37 -25 -63 -47 -78 -66c-16 -19 -24 -37 -24 -53c0 -13 5 -24 14 -33s19 -13 32 -13
c5 0 12 1 21 2s15 3 19 5v-46c-7 -3 -14 -4 -23 -5s-16 -2 -22 -2c-25 0 -47 8 -64 25c-18 16 -27 36 -27 60c0 27 16 57 49 89c-3 -1 -7 -1 -10 -1h-10c-34 0 -65 6 -93 18s-52 30 -72 54c-20 23 -35 52 -46 86s-17 73 -17 117c0 40 5 77 16 111s26 64 45 89s43 44 71 58
c27 14 58 21 92 21c66 0 119 -22 158 -67s58 -112 58 -200v-16zM459 304c-5 59 -20 105 -46 138c-27 33 -63 49 -109 49c-22 0 -42 -5 -60 -14c-19 -10 -35 -23 -48 -40c-14 -17 -25 -37 -34 -60s-16 -47 -19 -73h316z" />
    <glyph glyph-name="Ecaron" unicode="&#x11a;" 
d="M129 0v724h372v-52h-312v-274h296v-52h-296v-294h328v-52h-388zM200 906h57l67 -81l68 81h54l-89 -110h-68z" />
    <glyph glyph-name="ecaron" unicode="&#x11b;" 
d="M520 256h-380c0 -33 4 -64 13 -91c8 -27 20 -51 35 -70s32 -34 53 -45c20 -11 42 -17 67 -17c34 0 64 11 89 32s44 47 55 79h60c-13 -50 -38 -89 -74 -117c-37 -28 -80 -42 -130 -42c-34 0 -65 6 -93 18s-52 30 -72 54c-20 23 -35 52 -46 86s-17 73 -17 117
c0 40 5 77 16 111s26 64 45 89s43 44 71 58c27 14 58 21 92 21c66 0 119 -22 158 -67s58 -112 58 -200v-16zM304 491c-22 0 -42 -5 -60 -14c-19 -10 -35 -23 -48 -40c-14 -17 -25 -37 -34 -60s-16 -47 -19 -73h316c-5 59 -20 105 -46 138c-27 33 -63 49 -109 49zM304 633
l70 91h55l-90 -123h-70l-91 123h55z" />
    <glyph glyph-name="Gcircumflex" unicode="&#x11c;" 
d="M470 527c-9 49 -27 87 -53 115c-26 27 -59 41 -99 41c-31 0 -58 -7 -82 -22c-25 -15 -45 -37 -62 -64c-17 -28 -29 -62 -38 -102s-14 -85 -14 -135c0 -45 4 -88 12 -127c7 -40 19 -75 34 -104s34 -53 57 -70c22 -17 48 -26 77 -26c21 0 41 5 62 16c20 11 38 26 55 47
c16 21 29 46 40 77c10 30 15 64 15 103v48h-148v52h204v-376h-48l-12 88c-8 -17 -18 -32 -31 -45s-26 -23 -41 -32s-31 -15 -47 -19c-17 -5 -33 -7 -49 -7c-39 0 -74 9 -104 27c-31 17 -56 42 -77 75s-36 72 -47 118s-16 98 -16 155s6 108 18 155c11 47 28 87 51 120
c22 33 49 59 82 77c32 18 68 27 109 27c59 0 106 -18 143 -54c37 -37 61 -89 73 -158h-64zM437 796h-57l-67 81l-68 -81h-54l89 110h68z" />
    <glyph glyph-name="gcircumflex" unicode="&#x11d;" 
d="M446 128c-19 -32 -44 -57 -73 -74s-61 -26 -95 -26c-63 0 -114 22 -151 66c-38 43 -57 107 -57 190c0 42 6 79 17 111c11 31 27 57 46 78s42 36 68 47c25 10 52 15 81 15c31 0 62 -7 92 -20c29 -14 53 -39 72 -75v84h52v-448c0 -45 -3 -85 -10 -118s-19 -61 -35 -82
c-17 -22 -38 -38 -65 -48c-27 -11 -59 -16 -98 -16c-56 0 -101 12 -136 37s-55 63 -60 115h60c6 -38 21 -65 46 -82s55 -26 90 -26c23 0 44 3 63 10c19 6 36 17 50 33c13 16 24 38 32 65c7 27 11 62 11 104v60zM282 487c-19 0 -38 -4 -56 -13c-19 -9 -35 -21 -49 -38
s-25 -39 -34 -64s-13 -55 -13 -88c0 -67 14 -118 43 -154c28 -36 64 -54 109 -54c26 0 49 5 69 16c20 10 37 24 50 43s24 41 31 66s10 53 10 83c0 28 -3 54 -10 79s-18 46 -31 65c-13 18 -30 32 -50 43s-43 16 -69 16zM288 692l-70 -91h-55l90 123h70l91 -123h-55z" />
    <glyph glyph-name="Gbreve" unicode="&#x11e;" 
d="M470 527c-9 49 -27 87 -53 115c-26 27 -59 41 -99 41c-31 0 -58 -7 -82 -22c-25 -15 -45 -37 -62 -64c-17 -28 -29 -62 -38 -102s-14 -85 -14 -135c0 -45 4 -88 12 -127c7 -40 19 -75 34 -104s34 -53 57 -70c22 -17 48 -26 77 -26c21 0 41 5 62 16c20 11 38 26 55 47
c16 21 29 46 40 77c10 30 15 64 15 103v48h-148v52h204v-376h-48l-12 88c-8 -17 -18 -32 -31 -45s-26 -23 -41 -32s-31 -15 -47 -19c-17 -5 -33 -7 -49 -7c-39 0 -74 9 -104 27c-31 17 -56 42 -77 75s-36 72 -47 118s-16 98 -16 155s6 108 18 155c11 47 28 87 51 120
c22 33 49 59 82 77c32 18 68 27 109 27c59 0 106 -18 143 -54c37 -37 61 -89 73 -158h-64zM316 792c-38 0 -68 11 -90 33c-23 21 -34 48 -34 81h49c1 -21 8 -38 20 -52s30 -21 55 -21s43 7 55 21c11 14 18 31 19 52h50c-1 -33 -13 -60 -34 -81c-22 -22 -52 -33 -90 -33z" />
    <glyph glyph-name="gbreve" unicode="&#x11f;" 
d="M446 128c-19 -32 -44 -57 -73 -74s-61 -26 -95 -26c-63 0 -114 22 -151 66c-38 43 -57 107 -57 190c0 42 6 79 17 111c11 31 27 57 46 78s42 36 68 47c25 10 52 15 81 15c31 0 62 -7 92 -20c29 -14 53 -39 72 -75v84h52v-448c0 -45 -3 -85 -10 -118s-19 -61 -35 -82
c-17 -22 -38 -38 -65 -48c-27 -11 -59 -16 -98 -16c-56 0 -101 12 -136 37s-55 63 -60 115h60c6 -38 21 -65 46 -82s55 -26 90 -26c23 0 44 3 63 10c19 6 36 17 50 33c13 16 24 38 32 65c7 27 11 62 11 104v60zM282 487c-19 0 -38 -4 -56 -13c-19 -9 -35 -21 -49 -38
s-25 -39 -34 -64s-13 -55 -13 -88c0 -67 14 -118 43 -154c28 -36 64 -54 109 -54c26 0 49 5 69 16c20 10 37 24 50 43s24 41 31 66s10 53 10 83c0 28 -3 54 -10 79s-18 46 -31 65c-13 18 -30 32 -50 43s-43 16 -69 16zM290 599c-35 0 -64 11 -86 32c-23 21 -34 52 -34 93h48
c0 -29 7 -50 20 -64s31 -21 52 -21s39 7 52 21s20 35 20 64h48c0 -41 -11 -72 -33 -93c-23 -21 -52 -32 -87 -32z" />
    <glyph glyph-name="Gdotaccent" unicode="&#x120;" 
d="M470 527c-9 49 -27 87 -53 115c-26 27 -59 41 -99 41c-31 0 -58 -7 -82 -22c-25 -15 -45 -37 -62 -64c-17 -28 -29 -62 -38 -102s-14 -85 -14 -135c0 -45 4 -88 12 -127c7 -40 19 -75 34 -104s34 -53 57 -70c22 -17 48 -26 77 -26c21 0 41 5 62 16c20 11 38 26 55 47
c16 21 29 46 40 77c10 30 15 64 15 103v48h-148v52h204v-376h-48l-12 88c-8 -17 -18 -32 -31 -45s-26 -23 -41 -32s-31 -15 -47 -19c-17 -5 -33 -7 -49 -7c-39 0 -74 9 -104 27c-31 17 -56 42 -77 75s-36 72 -47 118s-16 98 -16 155s6 108 18 155c11 47 28 87 51 120
c22 33 49 59 82 77c32 18 68 27 109 27c59 0 106 -18 143 -54c37 -37 61 -89 73 -158h-64zM275 802v104h80v-104h-80z" />
    <glyph glyph-name="gdotaccent" unicode="&#x121;" 
d="M446 128c-19 -32 -44 -57 -73 -74s-61 -26 -95 -26c-63 0 -114 22 -151 66c-38 43 -57 107 -57 190c0 42 6 79 17 111c11 31 27 57 46 78s42 36 68 47c25 10 52 15 81 15c31 0 62 -7 92 -20c29 -14 53 -39 72 -75v84h52v-448c0 -45 -3 -85 -10 -118s-19 -61 -35 -82
c-17 -22 -38 -38 -65 -48c-27 -11 -59 -16 -98 -16c-56 0 -101 12 -136 37s-55 63 -60 115h60c6 -38 21 -65 46 -82s55 -26 90 -26c23 0 44 3 63 10c19 6 36 17 50 33c13 16 24 38 32 65c7 27 11 62 11 104v60zM282 487c-19 0 -38 -4 -56 -13c-19 -9 -35 -21 -49 -38
s-25 -39 -34 -64s-13 -55 -13 -88c0 -67 14 -118 43 -154c28 -36 64 -54 109 -54c26 0 49 5 69 16c20 10 37 24 50 43s24 41 31 66s10 53 10 83c0 28 -3 54 -10 79s-18 46 -31 65c-13 18 -30 32 -50 43s-43 16 -69 16zM248 620v104h80v-104h-80z" />
    <glyph glyph-name="uni0122" unicode="&#x122;" 
d="M470 527c-9 49 -27 87 -53 115c-26 27 -59 41 -99 41c-31 0 -58 -7 -82 -22c-25 -15 -45 -37 -62 -64c-17 -28 -29 -62 -38 -102s-14 -85 -14 -135c0 -45 4 -88 12 -127c7 -40 19 -75 34 -104s34 -53 57 -70c22 -17 48 -26 77 -26c21 0 41 5 62 16c20 11 38 26 55 47
c16 21 29 46 40 77c10 30 15 64 15 103v48h-148v52h204v-376h-48l-12 88c-8 -17 -18 -32 -31 -45s-26 -23 -41 -32s-31 -15 -47 -19c-17 -5 -33 -7 -49 -7c-39 0 -74 9 -104 27c-31 17 -56 42 -77 75s-36 72 -47 118s-16 98 -16 155s6 108 18 155c11 47 28 87 51 120
c22 33 49 59 82 77c32 18 68 27 109 27c59 0 106 -18 143 -54c37 -37 61 -89 73 -158h-64zM307 -157h-32v88h80v-92l-46 -79h-33z" />
    <glyph glyph-name="uni0123" unicode="&#x123;" 
d="M446 128c-19 -32 -44 -57 -73 -74s-61 -26 -95 -26c-63 0 -114 22 -151 66c-38 43 -57 107 -57 190c0 42 6 79 17 111c11 31 27 57 46 78s42 36 68 47c25 10 52 15 81 15c31 0 62 -7 92 -20c29 -14 53 -39 72 -75v84h52v-448c0 -45 -3 -85 -10 -118s-19 -61 -35 -82
c-17 -22 -38 -38 -65 -48c-27 -11 -59 -16 -98 -16c-56 0 -101 12 -136 37s-55 63 -60 115h60c6 -38 21 -65 46 -82s55 -26 90 -26c23 0 44 3 63 10c19 6 36 17 50 33c13 16 24 38 32 65c7 27 11 62 11 104v60zM282 487c-19 0 -38 -4 -56 -13c-19 -9 -35 -21 -49 -38
s-25 -39 -34 -64s-13 -55 -13 -88c0 -67 14 -118 43 -154c28 -36 64 -54 109 -54c26 0 49 5 69 16c20 10 37 24 50 43s24 41 31 66s10 53 10 83c0 28 -3 54 -10 79s-18 46 -31 65c-13 18 -30 32 -50 43s-43 16 -69 16zM296 694h32v-88h-80v92l46 79h33z" />
    <glyph glyph-name="Hcircumflex" unicode="&#x124;" 
d="M524 0h-60v344h-328v-344h-60v724h60v-328h328v328h60v-724zM422 796h-57l-67 81l-68 -81h-54l89 110h68z" />
    <glyph glyph-name="hcircumflex" unicode="&#x125;" 
d="M161 448c8 15 18 28 31 39s27 20 43 28c15 7 31 13 48 17c16 3 31 5 46 5c53 0 95 -17 126 -50c31 -34 46 -87 46 -159v-328h-56v324c0 23 -2 44 -6 65c-5 20 -12 37 -21 52c-10 15 -23 26 -38 35c-16 9 -36 13 -59 13c-19 0 -37 -4 -56 -11s-35 -18 -50 -33
s-28 -34 -38 -56c-10 -23 -15 -49 -16 -80v-309h-56v724h56v-276zM256 796h-58l-65 81l-65 -81h-55l88 110h68z" />
    <glyph glyph-name="Hbar" unicode="&#x126;" 
d="M76 609v117h60v-117h327v117h60v-117h77v-51h-77v-558h-60v343h-327v-343h-60v558h-76v51h76zM463 558h-327v-163h327v163z" />
    <glyph glyph-name="hbar" unicode="&#x127;" 
d="M161 654h109v-45h-109v-161c8 15 18 28 31 39s27 20 43 28c15 7 31 13 48 17c16 3 31 5 46 5c53 0 95 -17 126 -50c31 -34 46 -87 46 -159v-328h-56v324c0 23 -2 44 -6 65c-5 20 -12 37 -21 52c-10 15 -23 26 -38 35c-16 9 -36 13 -59 13c-19 0 -37 -4 -56 -11
s-35 -18 -50 -33s-28 -34 -38 -56c-10 -23 -15 -49 -16 -80v-309h-56v609h-76v45h76v70h56v-70z" />
    <glyph glyph-name="Itilde" unicode="&#x128;" 
d="M104 724h392v-52h-166v-620h166v-52h-392v52h166v620h-166v52zM365 806c-11 0 -23 3 -34 8s-22 10 -33 16c-11 5 -22 11 -32 16c-11 5 -20 7 -29 7c-10 0 -19 -3 -26 -10c-8 -7 -14 -19 -19 -36h-39c5 34 15 58 30 73s33 22 53 22c12 0 24 -2 36 -7c11 -5 23 -11 34 -16
c11 -6 21 -11 31 -16c9 -5 18 -8 27 -8c10 0 19 3 27 10c7 7 13 19 17 36h40c-5 -34 -15 -58 -30 -73s-33 -22 -53 -22z" />
    <glyph glyph-name="itilde" unicode="&#x129;" 
d="M137 501h216v-453h160v-48h-376v48h160v405h-160v48zM392 624c-11 0 -23 3 -34 8s-22 10 -33 16c-11 5 -21 11 -31 16s-19 7 -28 7c-10 0 -19 -3 -26 -10c-8 -7 -14 -19 -19 -36h-39c5 34 15 58 30 73s33 22 53 22c12 0 24 -2 35 -7s22 -11 33 -16c11 -6 21 -11 31 -16
s19 -8 27 -8c10 0 19 3 27 10c7 7 13 19 17 36h40c-5 -34 -15 -58 -30 -73s-33 -22 -53 -22z" />
    <glyph glyph-name="Imacron" unicode="&#x12a;" 
d="M104 724h392v-52h-166v-620h166v-52h-392v52h166v620h-166v52zM176 874h249v-48h-249v48z" />
    <glyph glyph-name="imacron" unicode="&#x12b;" 
d="M137 501h216v-453h160v-48h-376v48h160v405h-160v48zM199 699h253v-48h-253v48z" />
    <glyph glyph-name="Ibreve" unicode="&#x12c;" 
d="M104 724h392v-52h-166v-620h166v-52h-392v52h166v620h-166v52zM301 792c-38 0 -68 11 -90 33c-23 21 -34 48 -34 81h49c1 -21 8 -38 20 -52s30 -21 55 -21s43 7 55 21c11 14 18 31 19 52h50c-1 -33 -13 -60 -34 -81c-22 -22 -52 -33 -90 -33z" />
    <glyph glyph-name="ibreve" unicode="&#x12d;" 
d="M137 501h216v-453h160v-48h-376v48h160v405h-160v48zM325 599c-35 0 -64 11 -86 32c-23 21 -34 52 -34 93h48c0 -29 7 -50 20 -64s31 -21 52 -21s39 7 52 21s20 35 20 64h48c0 -41 -11 -72 -33 -93c-23 -21 -52 -32 -87 -32z" />
    <glyph glyph-name="Iogonek" unicode="&#x12e;" 
d="M104 724h392v-52h-166v-620h166v-52h-392v52h166v620h-166v52zM452 -188c-25 0 -46 8 -63 25c-17 16 -25 36 -25 60c0 19 7 39 21 59c14 19 38 40 71 62l40 -18c-27 -16 -47 -32 -61 -48s-21 -32 -21 -48c0 -13 4 -24 13 -33s19 -13 32 -13c5 0 12 1 20 2c7 1 13 3 17 5
v-46c-7 -3 -14 -4 -22 -5c-9 -1 -16 -2 -22 -2z" />
    <glyph glyph-name="iogonek" unicode="&#x12f;" 
d="M137 501h216v-453h160v-48h-376v48h160v405h-160v48zM281 620v104h80v-104h-80zM472 -188c-25 0 -47 8 -64 25c-18 16 -27 36 -27 60c0 19 7 39 21 59c14 19 38 40 71 62l40 -18c-27 -16 -47 -32 -61 -48s-21 -32 -21 -48c0 -13 4 -24 13 -33s19 -13 32 -13
c5 0 12 1 20 2c7 1 13 3 17 5v-46c-7 -3 -14 -4 -21 -5s-14 -2 -20 -2z" />
    <glyph glyph-name="Idot" unicode="&#x130;" 
d="M104 724h392v-52h-166v-620h166v-52h-392v52h166v620h-166v52zM260 802v104h80v-104h-80z" />
    <glyph glyph-name="dotlessi" unicode="&#x131;" 
d="M137 501h216v-453h160v-48h-376v48h160v405h-160v48z" />
    <glyph glyph-name="IJ" unicode="&#x132;" 
d="M97 724h60v-366h-60v366zM300 -15c-38 0 -70 6 -96 17s-47 27 -63 48s-27 48 -34 79s-10 66 -10 106v41h60v-37c0 -67 11 -118 32 -151c21 -34 58 -51 111 -51s91 16 112 49s31 82 31 149v489h60v-485c0 -40 -3 -76 -10 -107s-18 -58 -34 -80s-37 -39 -63 -50
s-58 -17 -96 -17z" />
    <glyph glyph-name="ij" unicode="&#x133;" 
d="M117 0v501h56v-501h-56zM101 620v104h80v-104h-80zM245 -128c12 -2 25 -4 38 -5c13 -2 25 -3 34 -3c38 0 66 11 83 32s25 51 25 92v513h56v-513c0 -33 -4 -61 -11 -83c-8 -23 -18 -41 -31 -54c-13 -14 -29 -24 -47 -30c-19 -6 -38 -9 -59 -9c-13 0 -28 1 -44 2
s-31 3 -44 6v52zM409 620v104h80v-104h-80z" />
    <glyph glyph-name="Jcircumflex" unicode="&#x134;" 
d="M270 -15c-38 0 -70 6 -96 17s-47 27 -63 48s-27 48 -34 79s-10 66 -10 106v41h60v-37c0 -67 11 -118 32 -151c21 -34 58 -51 111 -51s91 16 112 49s31 82 31 149v489h60v-485c0 -40 -3 -76 -10 -107s-18 -58 -34 -80s-37 -39 -63 -50s-58 -17 -96 -17zM562 796h-57
l-67 81l-68 -81h-54l89 110h68z" />
    <glyph glyph-name="jcircumflex" unicode="&#x135;" 
d="M126 501h260v-513c0 -33 -4 -61 -13 -83c-9 -23 -22 -41 -38 -54c-16 -14 -35 -24 -56 -30s-44 -9 -69 -9c-13 0 -28 1 -44 2s-31 3 -44 6v52c12 -2 25 -4 38 -5c13 -2 25 -3 34 -3c48 0 83 11 104 32s32 51 32 92v465h-204v48zM357 692l-70 -91h-55l90 123h70l91 -123
h-55z" />
    <glyph glyph-name="uni0136" unicode="&#x136;" 
d="M512 0l-340 368v-368h-60v724h60v-324l320 324h76l-332 -336l356 -388h-80zM319 -157h-32v88h80v-92l-46 -79h-33z" />
    <glyph glyph-name="uni0137" unicode="&#x137;" 
d="M197 292l244 232h73l-256 -238l299 -286h-76l-284 273v-273h-56v724h56v-432zM316 -157h-32v88h80v-92l-46 -79h-33z" />
    <glyph glyph-name="kgreenlandic" unicode="&#x138;" 
d="M197 277l244 247h73l-256 -254l299 -270h-76l-284 257v-257h-56v524h56v-247z" />
    <glyph glyph-name="Lacute" unicode="&#x139;" 
d="M154 0v724h60v-672h328v-52h-388zM246 906h78l-119 -110h-54z" />
    <glyph glyph-name="lacute" unicode="&#x13a;" 
d="M118 724h216v-676h160v-48h-376v48h160v628h-160v48zM365 906h78l-119 -110h-54z" />
    <glyph glyph-name="uni013B" unicode="&#x13b;" 
d="M154 0v724h60v-672h328v-52h-388zM335 -157h-32v88h80v-92l-46 -79h-33z" />
    <glyph glyph-name="uni013C" unicode="&#x13c;" 
d="M118 724h216v-676h160v-48h-376v48h160v628h-160v48zM299 -157h-32v88h80v-92l-46 -79h-33z" />
    <glyph glyph-name="Lcaron" unicode="&#x13d;" 
d="M153 0v724h60v-672h328v-52h-388zM390 724h56v-14l-25 -136h-41z" />
    <glyph glyph-name="lcaron" unicode="&#x13e;" 
d="M118 724h216v-676h160v-48h-376v48h160v628h-160v48zM419 724h55v-14l-24 -136h-41z" />
    <glyph glyph-name="Ldot" unicode="&#x13f;" 
d="M424 338v104h80v-104h-80zM144 0v724h60v-672h328v-52h-388z" />
    <glyph glyph-name="ldot" unicode="&#x140;" 
d="M118 724h216v-676h160v-48h-376v48h160v628h-160v48zM561 338v104h80v-104h-80z" />
    <glyph glyph-name="Lslash" unicode="&#x141;" 
d="M170 289l-95 -65v58l95 64v378h60v-341l192 134v-61l-192 -130v-274h328v-52h-388v289z" />
    <glyph glyph-name="lslash" unicode="&#x142;" 
d="M279 365l-124 -78v51l124 77v261h-160v48h216v-276l126 80v-51l-126 -79v-350h160v-48h-376v48h160v317z" />
    <glyph glyph-name="Nacute" unicode="&#x143;" 
d="M464 724h60v-724h-72l-316 616h-4c1 -48 2 -94 3 -137c1 -44 1 -89 1 -135v-344h-60v724h72l316 -608h4c-1 48 -1 94 -2 138c-1 43 -2 88 -2 134v336zM362 906h78l-119 -110h-54z" />
    <glyph glyph-name="nacute" unicode="&#x144;" 
d="M157 440c7 16 17 30 30 42s27 22 43 31c16 8 33 14 50 18s34 6 49 6c53 0 95 -17 126 -50c31 -34 46 -87 46 -159v-328h-56v324c0 23 -2 44 -6 65c-5 20 -12 37 -21 52c-10 15 -23 26 -38 35c-16 9 -36 13 -59 13c-19 0 -37 -4 -56 -11s-35 -18 -50 -33s-28 -34 -38 -56
c-10 -23 -15 -49 -16 -80v-309h-56v524h52v-84zM354 724h75l-112 -123h-51z" />
    <glyph glyph-name="uni0145" unicode="&#x145;" 
d="M464 724h60v-724h-72l-316 616h-4c1 -48 2 -94 3 -137c1 -44 1 -89 1 -135v-344h-60v724h72l316 -608h4c-1 48 -1 94 -2 138c-1 43 -2 88 -2 134v336zM293 -157h-32v88h80v-92l-46 -79h-33z" />
    <glyph glyph-name="uni0146" unicode="&#x146;" 
d="M157 440c7 16 17 30 30 42s27 22 43 31c16 8 33 14 50 18s34 6 49 6c53 0 95 -17 126 -50c31 -34 46 -87 46 -159v-328h-56v324c0 23 -2 44 -6 65c-5 20 -12 37 -21 52c-10 15 -23 26 -38 35c-16 9 -36 13 -59 13c-19 0 -37 -4 -56 -11s-35 -18 -50 -33s-28 -34 -38 -56
c-10 -23 -15 -49 -16 -80v-309h-56v524h52v-84zM296 -157h-32v88h80v-92l-46 -79h-33z" />
    <glyph glyph-name="Ncaron" unicode="&#x147;" 
d="M464 724h60v-724h-72l-316 616h-4c1 -48 2 -94 3 -137c1 -44 1 -89 1 -135v-344h-60v724h72l316 -608h4c-1 48 -1 94 -2 138c-1 43 -2 88 -2 134v336zM177 906h57l67 -81l68 81h54l-89 -110h-68z" />
    <glyph glyph-name="ncaron" unicode="&#x148;" 
d="M157 440c7 16 17 30 30 42s27 22 43 31c16 8 33 14 50 18s34 6 49 6c53 0 95 -17 126 -50c31 -34 46 -87 46 -159v-328h-56v324c0 23 -2 44 -6 65c-5 20 -12 37 -21 52c-10 15 -23 26 -38 35c-16 9 -36 13 -59 13c-19 0 -37 -4 -56 -11s-35 -18 -50 -33s-28 -34 -38 -56
c-10 -23 -15 -49 -16 -80v-309h-56v524h52v-84zM303 633l70 91h55l-90 -123h-70l-91 123h55z" />
    <glyph glyph-name="napostrophe" unicode="&#x149;" 
d="M157 440c7 16 17 30 30 42s27 22 43 31c16 8 33 14 50 18s34 6 49 6c53 0 95 -17 126 -50c31 -34 46 -87 46 -159v-328h-56v324c0 23 -2 44 -6 65c-5 20 -12 37 -21 52c-10 15 -23 26 -38 35c-16 9 -36 13 -59 13c-19 0 -37 -4 -56 -11s-35 -18 -50 -33s-28 -34 -38 -56
c-10 -23 -15 -49 -16 -80v-309h-56v524h52v-84zM4 632h-31v92h80v-92l-48 -95h-35z" />
    <glyph glyph-name="Eng" unicode="&#x14a;" 
d="M524 724v-743c0 -33 -4 -60 -13 -81c-9 -22 -21 -39 -35 -52c-15 -13 -31 -22 -49 -27c-19 -5 -37 -8 -56 -8c-24 0 -48 3 -72 10v51c11 -3 21 -5 32 -7c10 -2 21 -3 34 -3c11 0 23 2 35 6c11 3 22 9 31 18c9 8 17 19 23 34c6 14 9 32 9 53v23l-324 625h-5
c1 -42 1 -82 2 -119v-113v-391h-60v724h77l308 -593h5c-1 45 -1 90 -1 134c-1 43 -1 86 -1 129v330h60z" />
    <glyph glyph-name="eng" unicode="&#x14b;" 
d="M275 -128c12 -2 23 -4 33 -5c10 -2 20 -3 29 -3c38 0 66 11 83 32s25 51 25 92v336c0 23 -2 44 -6 65c-5 20 -12 37 -21 52c-10 15 -23 26 -38 35c-16 9 -36 13 -59 13c-19 0 -37 -4 -56 -11s-35 -18 -50 -33s-28 -34 -38 -56c-10 -23 -15 -49 -16 -80v-309h-56v524h52
v-84c7 16 17 30 30 42s27 22 43 31c16 8 33 14 50 18s34 6 49 6c53 0 95 -17 126 -50c31 -34 46 -87 46 -159v-340c0 -33 -4 -61 -11 -83c-8 -23 -18 -41 -31 -54c-13 -14 -29 -24 -47 -30c-19 -6 -38 -9 -59 -9c-13 0 -26 1 -39 2s-26 3 -39 6v52z" />
    <glyph glyph-name="Omacron" unicode="&#x14c;" 
d="M300 37c30 0 57 8 80 24c23 15 43 37 59 66s28 63 37 103c8 39 12 83 12 131s-4 92 -12 132c-9 40 -21 74 -37 103s-36 51 -59 67s-50 24 -80 24s-57 -8 -80 -24s-43 -38 -59 -67s-28 -63 -36 -103c-9 -40 -13 -84 -13 -132s4 -92 13 -131c8 -40 20 -74 36 -103
s36 -51 59 -66c23 -16 50 -24 80 -24zM300 -15c-40 0 -76 9 -107 27c-31 17 -58 43 -79 76s-38 72 -49 118s-17 98 -17 155s6 108 17 155s28 87 49 120s48 58 79 76s67 27 107 27s76 -9 107 -27s58 -43 79 -76s38 -73 49 -120s17 -98 17 -155s-6 -109 -17 -155
s-28 -85 -49 -118s-48 -59 -79 -76c-31 -18 -67 -27 -107 -27zM176 874h249v-48h-249v48z" />
    <glyph glyph-name="omacron" unicode="&#x14d;" 
d="M300 33c27 0 50 6 71 18c20 12 37 28 51 49s25 45 32 73s10 58 10 91s-4 63 -11 91c-8 27 -19 51 -33 72c-14 20 -31 36 -51 47c-21 11 -44 17 -69 17c-27 0 -50 -6 -70 -18c-21 -12 -38 -28 -52 -49s-24 -45 -31 -73s-11 -58 -11 -91s4 -63 12 -90c7 -28 18 -52 32 -72
c14 -21 31 -37 52 -48c20 -11 43 -17 68 -17zM300 -15c-35 0 -66 7 -93 20c-28 13 -52 31 -71 55c-19 23 -34 52 -44 86c-11 34 -16 72 -16 114s5 80 16 115c10 34 25 63 44 88c19 24 43 43 71 56c27 13 58 20 93 20c34 0 65 -6 93 -19c27 -13 51 -32 71 -55
c19 -24 34 -53 45 -87c10 -34 15 -72 15 -114s-5 -80 -16 -114c-11 -35 -26 -64 -45 -88c-19 -25 -43 -44 -70 -57c-28 -13 -59 -20 -93 -20zM173 699h253v-48h-253v48z" />
    <glyph glyph-name="Obreve" unicode="&#x14e;" 
d="M300 37c30 0 57 8 80 24c23 15 43 37 59 66s28 63 37 103c8 39 12 83 12 131s-4 92 -12 132c-9 40 -21 74 -37 103s-36 51 -59 67s-50 24 -80 24s-57 -8 -80 -24s-43 -38 -59 -67s-28 -63 -36 -103c-9 -40 -13 -84 -13 -132s4 -92 13 -131c8 -40 20 -74 36 -103
s36 -51 59 -66c23 -16 50 -24 80 -24zM300 -15c-40 0 -76 9 -107 27c-31 17 -58 43 -79 76s-38 72 -49 118s-17 98 -17 155s6 108 17 155s28 87 49 120s48 58 79 76s67 27 107 27s76 -9 107 -27s58 -43 79 -76s38 -73 49 -120s17 -98 17 -155s-6 -109 -17 -155
s-28 -85 -49 -118s-48 -59 -79 -76c-31 -18 -67 -27 -107 -27zM301 792c-38 0 -68 11 -90 33c-23 21 -34 48 -34 81h49c1 -21 8 -38 20 -52s30 -21 55 -21s43 7 55 21c11 14 18 31 19 52h50c-1 -33 -13 -60 -34 -81c-22 -22 -52 -33 -90 -33z" />
    <glyph glyph-name="obreve" unicode="&#x14f;" 
d="M300 33c27 0 50 6 71 18c20 12 37 28 51 49s25 45 32 73s10 58 10 91s-4 63 -11 91c-8 27 -19 51 -33 72c-14 20 -31 36 -51 47c-21 11 -44 17 -69 17c-27 0 -50 -6 -70 -18c-21 -12 -38 -28 -52 -49s-24 -45 -31 -73s-11 -58 -11 -91s4 -63 12 -90c7 -28 18 -52 32 -72
c14 -21 31 -37 52 -48c20 -11 43 -17 68 -17zM300 -15c-35 0 -66 7 -93 20c-28 13 -52 31 -71 55c-19 23 -34 52 -44 86c-11 34 -16 72 -16 114s5 80 16 115c10 34 25 63 44 88c19 24 43 43 71 56c27 13 58 20 93 20c34 0 65 -6 93 -19c27 -13 51 -32 71 -55
c19 -24 34 -53 45 -87c10 -34 15 -72 15 -114s-5 -80 -16 -114c-11 -35 -26 -64 -45 -88c-19 -25 -43 -44 -70 -57c-28 -13 -59 -20 -93 -20zM301 599c-35 0 -64 11 -86 32c-23 21 -34 52 -34 93h48c0 -29 7 -50 20 -64s31 -21 52 -21s39 7 52 21s20 35 20 64h48
c0 -41 -11 -72 -33 -93c-23 -21 -52 -32 -87 -32z" />
    <glyph glyph-name="Ohungarumlaut" unicode="&#x150;" 
d="M300 37c30 0 57 8 80 24c23 15 43 37 59 66s28 63 37 103c8 39 12 83 12 131s-4 92 -12 132c-9 40 -21 74 -37 103s-36 51 -59 67s-50 24 -80 24s-57 -8 -80 -24s-43 -38 -59 -67s-28 -63 -36 -103c-9 -40 -13 -84 -13 -132s4 -92 13 -131c8 -40 20 -74 36 -103
s36 -51 59 -66c23 -16 50 -24 80 -24zM300 -15c-40 0 -76 9 -107 27c-31 17 -58 43 -79 76s-38 72 -49 118s-17 98 -17 155s6 108 17 155s28 87 49 120s48 58 79 76s67 27 107 27s76 -9 107 -27s58 -43 79 -76s38 -73 49 -120s17 -98 17 -155s-6 -109 -17 -155
s-28 -85 -49 -118s-48 -59 -79 -76c-31 -18 -67 -27 -107 -27zM265 906h71l-105 -110h-51zM449 906h72l-110 -110h-53z" />
    <glyph glyph-name="ohungarumlaut" unicode="&#x151;" 
d="M300 33c27 0 50 6 71 18c20 12 37 28 51 49s25 45 32 73s10 58 10 91s-4 63 -11 91c-8 27 -19 51 -33 72c-14 20 -31 36 -51 47c-21 11 -44 17 -69 17c-27 0 -50 -6 -70 -18c-21 -12 -38 -28 -52 -49s-24 -45 -31 -73s-11 -58 -11 -91s4 -63 12 -90c7 -28 18 -52 32 -72
c14 -21 31 -37 52 -48c20 -11 43 -17 68 -17zM300 -15c-35 0 -66 7 -93 20c-28 13 -52 31 -71 55c-19 23 -34 52 -44 86c-11 34 -16 72 -16 114s5 80 16 115c10 34 25 63 44 88c19 24 43 43 71 56c27 13 58 20 93 20c34 0 65 -6 93 -19c27 -13 51 -32 71 -55
c19 -24 34 -53 45 -87c10 -34 15 -72 15 -114s-5 -80 -16 -114c-11 -35 -26 -64 -45 -88c-19 -25 -43 -44 -70 -57c-28 -13 -59 -20 -93 -20zM442 724h68l-103 -123h-49zM271 724h69l-101 -123h-48z" />
    <glyph glyph-name="OE" unicode="&#x152;" 
d="M256 0c-80 0 -139 32 -178 95s-58 152 -58 266s19 203 58 267s98 96 178 96h317v-52h-200v-274h184v-52h-184v-294h216v-52h-333zM84 361c0 -96 14 -171 41 -226s71 -83 131 -83h53v620h-53c-30 0 -56 -7 -77 -21c-22 -15 -40 -35 -54 -62s-24 -60 -31 -98
c-7 -39 -10 -82 -10 -130z" />
    <glyph glyph-name="oe" unicode="&#x153;" 
d="M179 -15c-51 0 -91 22 -118 66c-28 43 -42 113 -42 209s14 167 42 212c27 45 67 67 118 67c31 0 58 -8 79 -25s37 -44 49 -82c12 38 29 65 50 82s47 25 78 25c52 0 90 -22 115 -67s37 -111 37 -200v-16h-253c0 -75 9 -131 28 -168s44 -55 77 -55c24 0 44 10 59 30
s25 47 29 81h52c-9 -50 -25 -89 -47 -117s-53 -42 -93 -42c-63 0 -107 34 -132 102c-25 -68 -67 -102 -128 -102zM179 33c33 0 58 19 75 58s26 96 26 173s-9 134 -26 171s-42 56 -75 56s-58 -19 -75 -58c-18 -39 -27 -96 -27 -173s9 -134 27 -171c17 -37 42 -56 75 -56z
M435 491c-61 0 -94 -62 -100 -187h197c-1 61 -9 107 -24 139s-39 48 -73 48z" />
    <glyph glyph-name="Racute" unicode="&#x154;" 
d="M108 724h172c81 0 140 -17 179 -50c38 -33 57 -83 57 -150c0 -43 -13 -81 -38 -114s-62 -55 -110 -66v-4c19 -1 34 -5 47 -12s23 -15 31 -25c8 -11 14 -22 19 -34c5 -13 9 -25 12 -37l65 -232h-68l-55 206c-6 22 -12 40 -18 53c-7 13 -15 24 -26 32c-11 7 -24 12 -40 15
c-17 3 -38 4 -63 4h-104v-310h-60v724zM272 362c26 0 50 4 73 12s42 19 59 33c16 14 29 31 38 51s14 42 14 66c0 22 -3 42 -9 60s-16 34 -30 47s-32 23 -55 30s-52 11 -86 11h-108v-310h104zM356 906h78l-119 -110h-54z" />
    <glyph glyph-name="racute" unicode="&#x155;" 
d="M476 348c-1 20 -4 38 -9 55s-12 31 -21 44s-21 23 -36 30s-33 10 -54 10c-17 0 -35 -4 -52 -11c-18 -8 -34 -20 -48 -35c-14 -16 -25 -36 -34 -59c-9 -24 -14 -52 -14 -83v-299h-56v524h52v-84c7 15 16 28 28 40s25 22 39 30s29 14 45 19c15 4 30 6 44 6
c54 0 96 -15 125 -44s44 -77 47 -143h-56zM385 724h75l-112 -123h-51z" />
    <glyph glyph-name="uni0156" unicode="&#x156;" 
d="M108 724h172c81 0 140 -17 179 -50c38 -33 57 -83 57 -150c0 -43 -13 -81 -38 -114s-62 -55 -110 -66v-4c19 -1 34 -5 47 -12s23 -15 31 -25c8 -11 14 -22 19 -34c5 -13 9 -25 12 -37l65 -232h-68l-55 206c-6 22 -12 40 -18 53c-7 13 -15 24 -26 32c-11 7 -24 12 -40 15
c-17 3 -38 4 -63 4h-104v-310h-60v724zM272 362c26 0 50 4 73 12s42 19 59 33c16 14 29 31 38 51s14 42 14 66c0 22 -3 42 -9 60s-16 34 -30 47s-32 23 -55 30s-52 11 -86 11h-108v-310h104zM301 -157h-32v88h80v-92l-46 -79h-33z" />
    <glyph glyph-name="uni0157" unicode="&#x157;" 
d="M476 348c-1 20 -4 38 -9 55s-12 31 -21 44s-21 23 -36 30s-33 10 -54 10c-17 0 -35 -4 -52 -11c-18 -8 -34 -20 -48 -35c-14 -16 -25 -36 -34 -59c-9 -24 -14 -52 -14 -83v-299h-56v524h52v-84c7 15 16 28 28 40s25 22 39 30s29 14 45 19c15 4 30 6 44 6
c54 0 96 -15 125 -44s44 -77 47 -143h-56zM173 -157h-32v88h80v-92l-46 -79h-33z" />
    <glyph glyph-name="Rcaron" unicode="&#x158;" 
d="M108 724h172c81 0 140 -17 179 -50c38 -33 57 -83 57 -150c0 -43 -13 -81 -38 -114s-62 -55 -110 -66v-4c19 -1 34 -5 47 -12s23 -15 31 -25c8 -11 14 -22 19 -34c5 -13 9 -25 12 -37l65 -232h-68l-55 206c-6 22 -12 40 -18 53c-7 13 -15 24 -26 32c-11 7 -24 12 -40 15
c-17 3 -38 4 -63 4h-104v-310h-60v724zM272 362c26 0 50 4 73 12s42 19 59 33c16 14 29 31 38 51s14 42 14 66c0 22 -3 42 -9 60s-16 34 -30 47s-32 23 -55 30s-52 11 -86 11h-108v-310h104zM171 906h57l67 -81l68 81h54l-89 -110h-68z" />
    <glyph glyph-name="rcaron" unicode="&#x159;" 
d="M476 348c-1 20 -4 38 -9 55s-12 31 -21 44s-21 23 -36 30s-33 10 -54 10c-17 0 -35 -4 -52 -11c-18 -8 -34 -20 -48 -35c-14 -16 -25 -36 -34 -59c-9 -24 -14 -52 -14 -83v-299h-56v524h52v-84c7 15 16 28 28 40s25 22 39 30s29 14 45 19c15 4 30 6 44 6
c54 0 96 -15 125 -44s44 -77 47 -143h-56zM350 633l70 91h55l-90 -123h-70l-91 123h55z" />
    <glyph glyph-name="Sacute" unicode="&#x15a;" 
d="M261 352c-23 7 -46 15 -67 26c-21 10 -40 23 -56 39s-29 35 -38 57c-10 22 -15 48 -15 78c0 27 5 52 15 75s24 42 43 59s41 30 67 39s55 14 87 14c33 0 63 -5 90 -15s51 -24 70 -43s33 -42 44 -69s16 -58 16 -92h-60c-1 29 -7 54 -16 76c-9 21 -21 39 -36 53
s-32 25 -51 32s-38 10 -57 10c-20 0 -39 -3 -57 -9c-19 -6 -35 -15 -49 -26c-14 -12 -25 -27 -33 -44c-9 -17 -13 -37 -13 -60c0 -21 4 -40 11 -55c7 -16 18 -30 31 -42s29 -22 47 -31s38 -16 59 -22l52 -15c25 -7 49 -16 72 -27c22 -11 41 -24 58 -40c17 -17 30 -37 40 -60
c9 -23 14 -51 14 -84c0 -27 -5 -52 -15 -75c-11 -23 -26 -44 -45 -61s-43 -31 -70 -40c-28 -10 -59 -15 -94 -15c-75 0 -133 21 -174 62s-62 100 -62 177h60c0 -61 16 -108 48 -141c31 -33 74 -50 128 -50c24 0 46 4 66 11s37 18 52 31c14 13 25 28 34 45c8 17 12 36 12 56
c0 23 -3 43 -10 60s-17 31 -30 44s-30 24 -49 33c-20 9 -42 17 -67 24zM353 906h78l-119 -110h-54z" />
    <glyph glyph-name="sacute" unicode="&#x15b;" 
d="M310 -15c-69 0 -121 15 -156 44c-36 29 -54 70 -55 123h60c0 -41 13 -71 40 -90c26 -19 63 -29 111 -29c41 0 74 9 98 28s36 44 36 75c0 23 -8 41 -24 54c-17 13 -37 23 -62 31c-25 7 -52 14 -81 21s-55 16 -80 27s-46 27 -62 47c-17 19 -25 46 -25 80c0 19 4 37 13 54
s21 33 38 46s37 24 61 32c23 7 50 11 80 11c58 0 103 -14 135 -42c32 -29 48 -68 49 -118h-56c-1 37 -13 65 -37 84s-56 28 -95 28s-70 -8 -93 -23c-24 -16 -36 -40 -36 -72c0 -25 8 -45 25 -58c16 -13 36 -24 61 -32s52 -15 81 -21s55 -14 80 -25s45 -25 62 -44
c16 -19 24 -46 24 -80c0 -23 -5 -44 -14 -63s-22 -34 -39 -47s-38 -23 -61 -30s-49 -11 -78 -11zM353 724h75l-112 -123h-51z" />
    <glyph glyph-name="Scircumflex" unicode="&#x15c;" 
d="M261 352c-23 7 -46 15 -67 26c-21 10 -40 23 -56 39s-29 35 -38 57c-10 22 -15 48 -15 78c0 27 5 52 15 75s24 42 43 59s41 30 67 39s55 14 87 14c33 0 63 -5 90 -15s51 -24 70 -43s33 -42 44 -69s16 -58 16 -92h-60c-1 29 -7 54 -16 76c-9 21 -21 39 -36 53
s-32 25 -51 32s-38 10 -57 10c-20 0 -39 -3 -57 -9c-19 -6 -35 -15 -49 -26c-14 -12 -25 -27 -33 -44c-9 -17 -13 -37 -13 -60c0 -21 4 -40 11 -55c7 -16 18 -30 31 -42s29 -22 47 -31s38 -16 59 -22l52 -15c25 -7 49 -16 72 -27c22 -11 41 -24 58 -40c17 -17 30 -37 40 -60
c9 -23 14 -51 14 -84c0 -27 -5 -52 -15 -75c-11 -23 -26 -44 -45 -61s-43 -31 -70 -40c-28 -10 -59 -15 -94 -15c-75 0 -133 21 -174 62s-62 100 -62 177h60c0 -61 16 -108 48 -141c31 -33 74 -50 128 -50c24 0 46 4 66 11s37 18 52 31c14 13 25 28 34 45c8 17 12 36 12 56
c0 23 -3 43 -10 60s-17 31 -30 44s-30 24 -49 33c-20 9 -42 17 -67 24zM423 796h-57l-67 81l-68 -81h-54l89 110h68z" />
    <glyph glyph-name="scircumflex" unicode="&#x15d;" 
d="M310 -15c-69 0 -121 15 -156 44c-36 29 -54 70 -55 123h60c0 -41 13 -71 40 -90c26 -19 63 -29 111 -29c41 0 74 9 98 28s36 44 36 75c0 23 -8 41 -24 54c-17 13 -37 23 -62 31c-25 7 -52 14 -81 21s-55 16 -80 27s-46 27 -62 47c-17 19 -25 46 -25 80c0 19 4 37 13 54
s21 33 38 46s37 24 61 32c23 7 50 11 80 11c58 0 103 -14 135 -42c32 -29 48 -68 49 -118h-56c-1 37 -13 65 -37 84s-56 28 -95 28s-70 -8 -93 -23c-24 -16 -36 -40 -36 -72c0 -25 8 -45 25 -58c16 -13 36 -24 61 -32s52 -15 81 -21s55 -14 80 -25s45 -25 62 -44
c16 -19 24 -46 24 -80c0 -23 -5 -44 -14 -63s-22 -34 -39 -47s-38 -23 -61 -30s-49 -11 -78 -11zM297 692l-70 -91h-55l90 123h70l91 -123h-55z" />
    <glyph glyph-name="Scedilla" unicode="&#x15e;" 
d="M261 352c-23 7 -46 15 -67 26c-21 10 -40 23 -56 39s-29 35 -38 57c-10 22 -15 48 -15 78c0 27 5 52 15 75s24 42 43 59s41 30 67 39s55 14 87 14c33 0 63 -5 90 -15s51 -24 70 -43s33 -42 44 -69s16 -58 16 -92h-60c-1 29 -7 54 -16 76c-9 21 -21 39 -36 53
s-32 25 -51 32s-38 10 -57 10c-20 0 -39 -3 -57 -9c-19 -6 -35 -15 -49 -26c-14 -12 -25 -27 -33 -44c-9 -17 -13 -37 -13 -60c0 -21 4 -40 11 -55c7 -16 18 -30 31 -42s29 -22 47 -31s38 -16 59 -22l52 -15c25 -7 49 -16 72 -27c22 -11 41 -24 58 -40c17 -17 30 -37 40 -60
c9 -23 14 -51 14 -84c0 -27 -5 -52 -15 -75c-11 -23 -26 -44 -45 -61s-43 -31 -70 -40c-28 -10 -59 -15 -94 -15c-75 0 -133 21 -174 62s-62 100 -62 177h60c0 -61 16 -108 48 -141c31 -33 74 -50 128 -50c24 0 46 4 66 11s37 18 52 31c14 13 25 28 34 45c8 17 12 36 12 56
c0 23 -3 43 -10 60s-17 31 -30 44s-30 24 -49 33c-20 9 -42 17 -67 24zM321 -30c19 -1 35 -8 47 -20c13 -14 19 -31 19 -52c0 -24 -8 -44 -25 -61s-41 -25 -72 -25c-5 0 -11 0 -17 1c-6 0 -12 1 -17 2v38c3 -1 7 -1 12 -1c4 -1 8 -1 13 -1c19 0 34 5 43 14s14 20 14 33
c0 12 -4 22 -12 31c-9 8 -23 12 -42 12c-5 0 -9 0 -12 -1v71h49v-41z" />
    <glyph glyph-name="scedilla" unicode="&#x15f;" 
d="M310 -15c-69 0 -121 15 -156 44c-36 29 -54 70 -55 123h60c0 -41 13 -71 40 -90c26 -19 63 -29 111 -29c41 0 74 9 98 28s36 44 36 75c0 23 -8 41 -24 54c-17 13 -37 23 -62 31c-25 7 -52 14 -81 21s-55 16 -80 27s-46 27 -62 47c-17 19 -25 46 -25 80c0 19 4 37 13 54
s21 33 38 46s37 24 61 32c23 7 50 11 80 11c58 0 103 -14 135 -42c32 -29 48 -68 49 -118h-56c-1 37 -13 65 -37 84s-56 28 -95 28s-70 -8 -93 -23c-24 -16 -36 -40 -36 -72c0 -25 8 -45 25 -58c16 -13 36 -24 61 -32s52 -15 81 -21s55 -14 80 -25s45 -25 62 -44
c16 -19 24 -46 24 -80c0 -23 -5 -44 -14 -63s-22 -34 -39 -47s-38 -23 -61 -30s-49 -11 -78 -11zM320 -30c19 -1 35 -8 47 -20c13 -14 19 -31 19 -52c0 -24 -8 -44 -25 -61s-41 -25 -72 -25c-5 0 -11 0 -17 1c-6 0 -12 1 -17 2v38c3 -1 7 -1 12 -1c4 -1 8 -1 13 -1
c19 0 34 5 43 14s14 20 14 33c0 12 -4 22 -12 31c-9 8 -23 12 -42 12c-5 0 -9 0 -12 -1v71h49v-41z" />
    <glyph glyph-name="Scaron" unicode="&#x160;" 
d="M261 352c-23 7 -46 15 -67 26c-21 10 -40 23 -56 39s-29 35 -38 57c-10 22 -15 48 -15 78c0 27 5 52 15 75s24 42 43 59s41 30 67 39s55 14 87 14c33 0 63 -5 90 -15s51 -24 70 -43s33 -42 44 -69s16 -58 16 -92h-60c-1 29 -7 54 -16 76c-9 21 -21 39 -36 53
s-32 25 -51 32s-38 10 -57 10c-20 0 -39 -3 -57 -9c-19 -6 -35 -15 -49 -26c-14 -12 -25 -27 -33 -44c-9 -17 -13 -37 -13 -60c0 -21 4 -40 11 -55c7 -16 18 -30 31 -42s29 -22 47 -31s38 -16 59 -22l52 -15c25 -7 49 -16 72 -27c22 -11 41 -24 58 -40c17 -17 30 -37 40 -60
c9 -23 14 -51 14 -84c0 -27 -5 -52 -15 -75c-11 -23 -26 -44 -45 -61s-43 -31 -70 -40c-28 -10 -59 -15 -94 -15c-75 0 -133 21 -174 62s-62 100 -62 177h60c0 -61 16 -108 48 -141c31 -33 74 -50 128 -50c24 0 46 4 66 11s37 18 52 31c14 13 25 28 34 45c8 17 12 36 12 56
c0 23 -3 43 -10 60s-17 31 -30 44s-30 24 -49 33c-20 9 -42 17 -67 24zM178 906h57l67 -81l68 81h54l-89 -110h-68z" />
    <glyph glyph-name="scaron" unicode="&#x161;" 
d="M310 -15c-69 0 -121 15 -156 44c-36 29 -54 70 -55 123h60c0 -41 13 -71 40 -90c26 -19 63 -29 111 -29c41 0 74 9 98 28s36 44 36 75c0 23 -8 41 -24 54c-17 13 -37 23 -62 31c-25 7 -52 14 -81 21s-55 16 -80 27s-46 27 -62 47c-17 19 -25 46 -25 80c0 19 4 37 13 54
s21 33 38 46s37 24 61 32c23 7 50 11 80 11c58 0 103 -14 135 -42c32 -29 48 -68 49 -118h-56c-1 37 -13 65 -37 84s-56 28 -95 28s-70 -8 -93 -23c-24 -16 -36 -40 -36 -72c0 -25 8 -45 25 -58c16 -13 36 -24 61 -32s52 -15 81 -21s55 -14 80 -25s45 -25 62 -44
c16 -19 24 -46 24 -80c0 -23 -5 -44 -14 -63s-22 -34 -39 -47s-38 -23 -61 -30s-49 -11 -78 -11zM298 633l70 91h55l-90 -123h-70l-91 123h55z" />
    <glyph glyph-name="uni0162" unicode="&#x162;" 
d="M328 -32c17 -3 31 -11 41 -24c9 -13 14 -29 14 -46c0 -24 -8 -44 -25 -61s-41 -25 -72 -25c-5 0 -11 0 -17 1c-6 0 -12 1 -17 2v38c3 -1 7 -1 12 -1c4 -1 8 -1 13 -1c19 0 34 5 43 14s14 20 14 33c0 12 -4 22 -12 31c-9 8 -23 12 -42 12h-5c-3 0 -5 0 -7 -1v733h-220v51
h504v-51h-224v-705z" />
    <glyph glyph-name="uni0163" unicode="&#x163;" 
d="M298 453v-277c0 -27 3 -49 9 -66s14 -31 24 -41c10 -11 22 -18 36 -22c14 -5 29 -7 45 -7c12 0 25 1 38 2s26 3 40 6v-48c-31 -5 -59 -8 -84 -8c-24 0 -46 3 -66 9c-20 5 -37 15 -52 29s-26 33 -34 56s-12 51 -12 86v281h-156v48h156v167h56v-167h180v-48h-180zM388 -30
c19 -1 35 -8 47 -20c13 -14 19 -31 19 -52c0 -24 -8 -44 -25 -61s-41 -25 -72 -25c-5 0 -11 0 -17 1c-6 0 -12 1 -17 2v38c3 -1 7 -1 12 -1c4 -1 8 -1 13 -1c19 0 34 5 43 14s14 20 14 33c0 12 -4 22 -12 31c-9 8 -23 12 -42 12c-5 0 -9 0 -12 -1v71h49v-41z" />
    <glyph glyph-name="Tcaron" unicode="&#x164;" 
d="M268 0v672h-220v52h504v-52h-224v-672h-60zM177 906h57l67 -81l68 81h54l-89 -110h-68z" />
    <glyph glyph-name="tcaron" unicode="&#x165;" 
d="M298 453v-277c0 -27 3 -49 9 -66s14 -31 24 -41c10 -11 22 -18 36 -22c14 -5 29 -7 45 -7c12 0 25 1 38 2s26 3 40 6v-48c-31 -5 -59 -8 -84 -8c-24 0 -46 3 -66 9c-20 5 -37 15 -52 29s-26 33 -34 56s-12 51 -12 86v281h-156v48h156v167h56v-167h180v-48h-180zM383 724
h55v-14l-24 -136h-41z" />
    <glyph glyph-name="Tbar" unicode="&#x166;" 
d="M269 347h-145v52h145v273h-220v52h504v-52h-224v-273h145v-52h-145v-347h-60v347z" />
    <glyph glyph-name="tbar" unicode="&#x167;" 
d="M304 294h180v-48h-180v-70c0 -27 3 -49 9 -66s14 -31 24 -41c10 -11 22 -18 36 -22c14 -5 29 -7 45 -7c12 0 25 1 38 2s26 3 40 6v-48c-31 -5 -59 -8 -84 -8c-24 0 -46 3 -66 9c-20 5 -37 15 -52 29s-26 33 -34 56s-12 51 -12 86v74h-156v48h156v159h-156v48h156v167h56
v-167h180v-48h-180v-159z" />
    <glyph glyph-name="Utilde" unicode="&#x168;" 
d="M300 -15c-43 0 -79 6 -108 18s-53 30 -70 54c-18 23 -31 52 -38 86c-8 34 -12 73 -12 117v464h60v-460c0 -75 13 -132 38 -170s68 -57 130 -57s106 18 131 55s37 93 37 168v464h60v-460c0 -44 -4 -83 -11 -118c-8 -35 -21 -64 -38 -87c-18 -24 -42 -42 -71 -55
s-65 -19 -108 -19zM365 806c-11 0 -23 3 -34 8s-22 10 -33 16c-11 5 -22 11 -32 16c-11 5 -20 7 -29 7c-10 0 -19 -3 -26 -10c-8 -7 -14 -19 -19 -36h-39c5 34 15 58 30 73s33 22 53 22c12 0 24 -2 36 -7c11 -5 23 -11 34 -16c11 -6 21 -11 31 -16c9 -5 18 -8 27 -8
c10 0 19 3 27 10c7 7 13 19 17 36h40c-5 -34 -15 -58 -30 -73s-33 -22 -53 -22z" />
    <glyph glyph-name="utilde" unicode="&#x169;" 
d="M439 524h56v-524h-52v84c-7 -16 -17 -30 -30 -42s-27 -22 -43 -30c-16 -9 -33 -15 -50 -19s-34 -6 -49 -6c-53 0 -95 17 -126 51c-31 33 -46 86 -46 158v328h56v-324c0 -23 2 -45 7 -65c4 -20 11 -37 21 -52c9 -15 22 -26 38 -35c15 -9 35 -13 58 -13c19 0 38 4 57 12
c19 7 37 19 52 35c15 15 27 35 37 59c9 23 14 51 14 83v300zM366 624c-11 0 -23 3 -34 8s-22 10 -33 16c-11 5 -21 11 -31 16s-19 7 -28 7c-10 0 -19 -3 -26 -10c-8 -7 -14 -19 -19 -36h-39c5 34 15 58 30 73s33 22 53 22c12 0 24 -2 35 -7s22 -11 33 -16
c11 -6 21 -11 31 -16s19 -8 27 -8c10 0 19 3 27 10c7 7 13 19 17 36h40c-5 -34 -15 -58 -30 -73s-33 -22 -53 -22z" />
    <glyph glyph-name="Umacron" unicode="&#x16a;" 
d="M300 -15c-43 0 -79 6 -108 18s-53 30 -70 54c-18 23 -31 52 -38 86c-8 34 -12 73 -12 117v464h60v-460c0 -75 13 -132 38 -170s68 -57 130 -57s106 18 131 55s37 93 37 168v464h60v-460c0 -44 -4 -83 -11 -118c-8 -35 -21 -64 -38 -87c-18 -24 -42 -42 -71 -55
s-65 -19 -108 -19zM176 874h249v-48h-249v48z" />
    <glyph glyph-name="umacron" unicode="&#x16b;" 
d="M439 524h56v-524h-52v84c-7 -16 -17 -30 -30 -42s-27 -22 -43 -30c-16 -9 -33 -15 -50 -19s-34 -6 -49 -6c-53 0 -95 17 -126 51c-31 33 -46 86 -46 158v328h56v-324c0 -23 2 -45 7 -65c4 -20 11 -37 21 -52c9 -15 22 -26 38 -35c15 -9 35 -13 58 -13c19 0 38 4 57 12
c19 7 37 19 52 35c15 15 27 35 37 59c9 23 14 51 14 83v300zM172 699h253v-48h-253v48z" />
    <glyph glyph-name="Ubreve" unicode="&#x16c;" 
d="M300 -15c-43 0 -79 6 -108 18s-53 30 -70 54c-18 23 -31 52 -38 86c-8 34 -12 73 -12 117v464h60v-460c0 -75 13 -132 38 -170s68 -57 130 -57s106 18 131 55s37 93 37 168v464h60v-460c0 -44 -4 -83 -11 -118c-8 -35 -21 -64 -38 -87c-18 -24 -42 -42 -71 -55
s-65 -19 -108 -19zM301 792c-38 0 -68 11 -90 33c-23 21 -34 48 -34 81h49c1 -21 8 -38 20 -52s30 -21 55 -21s43 7 55 21c11 14 18 31 19 52h50c-1 -33 -13 -60 -34 -81c-22 -22 -52 -33 -90 -33z" />
    <glyph glyph-name="ubreve" unicode="&#x16d;" 
d="M439 524h56v-524h-52v84c-7 -16 -17 -30 -30 -42s-27 -22 -43 -30c-16 -9 -33 -15 -50 -19s-34 -6 -49 -6c-53 0 -95 17 -126 51c-31 33 -46 86 -46 158v328h56v-324c0 -23 2 -45 7 -65c4 -20 11 -37 21 -52c9 -15 22 -26 38 -35c15 -9 35 -13 58 -13c19 0 38 4 57 12
c19 7 37 19 52 35c15 15 27 35 37 59c9 23 14 51 14 83v300zM296 599c-35 0 -64 11 -86 32c-23 21 -34 52 -34 93h48c0 -29 7 -50 20 -64s31 -21 52 -21s39 7 52 21s20 35 20 64h48c0 -41 -11 -72 -33 -93c-23 -21 -52 -32 -87 -32z" />
    <glyph glyph-name="Uring" unicode="&#x16e;" 
d="M300 -15c-43 0 -79 6 -108 18s-53 30 -70 54c-18 23 -31 52 -38 86c-8 34 -12 73 -12 117v464h60v-460c0 -75 13 -132 38 -170s68 -57 130 -57s106 18 131 55s37 93 37 168v464h60v-460c0 -44 -4 -83 -11 -118c-8 -35 -21 -64 -38 -87c-18 -24 -42 -42 -71 -55
s-65 -19 -108 -19zM301 740c-16 0 -30 3 -42 8c-13 5 -23 13 -31 22s-14 19 -18 30c-5 11 -7 23 -7 34s2 23 7 34c4 11 10 21 18 30s18 16 31 21c12 5 26 8 42 8s30 -3 43 -8c12 -5 22 -12 31 -21c8 -9 14 -19 19 -30c4 -11 6 -23 6 -34s-2 -23 -6 -34
c-5 -11 -11 -21 -19 -30c-9 -9 -19 -17 -31 -22c-13 -5 -27 -8 -43 -8zM301 778c17 0 31 5 41 16c10 10 15 23 15 40c0 16 -5 29 -15 40c-10 10 -24 15 -41 15s-30 -5 -40 -15c-10 -11 -15 -24 -15 -40c0 -17 5 -30 15 -40c10 -11 23 -16 40 -16z" />
    <glyph glyph-name="uring" unicode="&#x16f;" 
d="M439 524h56v-524h-52v84c-7 -16 -17 -30 -30 -42s-27 -22 -43 -30c-16 -9 -33 -15 -50 -19s-34 -6 -49 -6c-53 0 -95 17 -126 51c-31 33 -46 86 -46 158v328h56v-324c0 -23 2 -45 7 -65c4 -20 11 -37 21 -52c9 -15 22 -26 38 -35c15 -9 35 -13 58 -13c19 0 38 4 57 12
c19 7 37 19 52 35c15 15 27 35 37 59c9 23 14 51 14 83v300zM300 575c-16 0 -30 3 -42 8c-13 5 -23 13 -31 22s-14 19 -18 30c-5 11 -7 23 -7 34s2 23 7 34c4 11 10 21 18 30s18 16 31 21c12 5 26 8 42 8s30 -3 43 -8c12 -5 22 -12 31 -21c8 -9 14 -19 19 -30
c4 -11 6 -23 6 -34s-2 -23 -6 -34c-5 -11 -11 -21 -19 -30c-9 -9 -19 -17 -31 -22c-13 -5 -27 -8 -43 -8zM300 613c17 0 31 5 41 16c10 10 15 23 15 40c0 16 -5 29 -15 40c-10 10 -24 15 -41 15s-30 -5 -40 -15c-10 -11 -15 -24 -15 -40c0 -17 5 -30 15 -40
c10 -11 23 -16 40 -16z" />
    <glyph glyph-name="Uhungarumlaut" unicode="&#x170;" 
d="M300 -15c-43 0 -79 6 -108 18s-53 30 -70 54c-18 23 -31 52 -38 86c-8 34 -12 73 -12 117v464h60v-460c0 -75 13 -132 38 -170s68 -57 130 -57s106 18 131 55s37 93 37 168v464h60v-460c0 -44 -4 -83 -11 -118c-8 -35 -21 -64 -38 -87c-18 -24 -42 -42 -71 -55
s-65 -19 -108 -19zM265 906h71l-105 -110h-51zM449 906h72l-110 -110h-53z" />
    <glyph glyph-name="uhungarumlaut" unicode="&#x171;" 
d="M439 524h56v-524h-52v84c-7 -16 -17 -30 -30 -42s-27 -22 -43 -30c-16 -9 -33 -15 -50 -19s-34 -6 -49 -6c-53 0 -95 17 -126 51c-31 33 -46 86 -46 158v328h56v-324c0 -23 2 -45 7 -65c4 -20 11 -37 21 -52c9 -15 22 -26 38 -35c15 -9 35 -13 58 -13c19 0 38 4 57 12
c19 7 37 19 52 35c15 15 27 35 37 59c9 23 14 51 14 83v300zM441 724h68l-103 -123h-49zM270 724h69l-101 -123h-48z" />
    <glyph glyph-name="Uogonek" unicode="&#x172;" 
d="M528 724v-460c0 -64 -7 -116 -21 -155c-15 -40 -41 -71 -79 -94c-37 -22 -63 -43 -77 -62c-15 -20 -22 -36 -22 -49s5 -24 14 -33s19 -13 32 -13c5 0 12 1 21 2s15 3 19 5v-46c-7 -3 -14 -4 -23 -5s-16 -2 -22 -2c-25 0 -47 8 -64 25c-18 16 -27 36 -27 60
c0 13 5 28 14 44c9 15 23 31 42 46c-5 -1 -11 -1 -17 -1c-6 -1 -12 -1 -18 -1c-43 0 -79 6 -108 18s-53 30 -70 54c-18 23 -31 52 -38 86c-8 34 -12 73 -12 117v464h60v-460c0 -75 13 -132 38 -170s68 -57 130 -57s106 18 131 55s37 93 37 168v464h60z" />
    <glyph glyph-name="uogonek" unicode="&#x173;" 
d="M439 524h56v-524h-52v84c-7 -16 -17 -30 -30 -42s-27 -22 -43 -30c-16 -9 -33 -15 -50 -19s-34 -6 -49 -6c-53 0 -95 17 -126 51c-31 33 -46 86 -46 158v328h56v-324c0 -23 2 -45 7 -65c4 -20 11 -37 21 -52c9 -15 22 -26 38 -35c15 -9 35 -13 58 -13c19 0 38 4 57 12
c19 7 37 19 52 35c15 15 27 35 37 59c9 23 14 51 14 83v300zM454 -188c-25 0 -47 8 -64 25c-18 16 -27 36 -27 60c0 19 7 39 21 59c14 19 38 40 71 62l40 -18c-27 -16 -47 -32 -61 -48s-21 -32 -21 -48c0 -13 4 -24 13 -33s19 -13 32 -13c5 0 12 1 20 2c7 1 13 3 17 5v-46
c-7 -3 -14 -4 -21 -5s-14 -2 -20 -2z" />
    <glyph glyph-name="Wcircumflex" unicode="&#x174;" 
d="M402 0l-100 588h-4l-100 -588h-82l-92 724h62l76 -624h4l107 624h58l107 -624h4l76 624h58l-92 -724h-82zM422 796h-57l-67 81l-68 -81h-54l89 110h68z" />
    <glyph glyph-name="wcircumflex" unicode="&#x175;" 
d="M18 524h56l93 -424h8l100 424h54l100 -424h8l93 424h52l-116 -524h-70l-92 394h-8l-92 -394h-70zM297 692l-70 -91h-55l90 123h70l91 -123h-55z" />
    <glyph glyph-name="Ycircumflex" unicode="&#x176;" 
d="M266 0v300l-221 424h64l188 -364h8l196 364h60l-229 -424v-300h-66zM423 796h-57l-67 81l-68 -81h-54l89 110h68z" />
    <glyph glyph-name="ycircumflex" unicode="&#x177;" 
d="M73 524h68l104 -296c9 -26 19 -51 28 -76s18 -51 28 -76h8c21 51 39 100 56 148l104 300h64l-200 -524c-11 -29 -21 -54 -32 -77s-25 -43 -40 -59c-15 -17 -33 -29 -54 -38s-47 -14 -78 -14c-9 0 -18 0 -27 1s-19 2 -29 3v52c10 -2 20 -3 30 -3c9 -1 18 -1 26 -1
c20 0 37 3 51 8s26 14 37 25c10 11 19 26 28 43c8 17 16 38 24 62zM300 692l-70 -91h-55l90 123h70l91 -123h-55z" />
    <glyph glyph-name="Ydieresis" unicode="&#x178;" 
d="M266 0v300l-221 424h64l188 -364h8l196 364h60l-229 -424v-300h-66zM237 899v-91h-73v91h73zM438 899v-91h-73v91h73z" />
    <glyph glyph-name="Zacute" unicode="&#x179;" 
d="M71 0v56l378 616h-370v52h440v-52l-378 -620h398v-52h-468zM363 906h78l-119 -110h-54z" />
    <glyph glyph-name="zacute" unicode="&#x17a;" 
d="M103 0v50l317 424h-305v50h372v-50l-317 -424h329v-50h-396zM357 724h75l-112 -123h-51z" />
    <glyph glyph-name="Zdotaccent" unicode="&#x17b;" 
d="M71 0v56l378 616h-370v52h440v-52l-378 -620h398v-52h-468zM261 802v104h80v-104h-80z" />
    <glyph glyph-name="zdotaccent" unicode="&#x17c;" 
d="M103 0v50l317 424h-305v50h372v-50l-317 -424h329v-50h-396zM261 620v104h80v-104h-80z" />
    <glyph glyph-name="Zcaron" unicode="&#x17d;" 
d="M71 0v56l378 616h-370v52h440v-52l-378 -620h398v-52h-468zM178 906h57l67 -81l68 81h54l-89 -110h-68z" />
    <glyph glyph-name="zcaron" unicode="&#x17e;" 
d="M103 0v50l317 424h-305v50h372v-50l-317 -424h329v-50h-396zM302 633l70 91h55l-90 -123h-70l-91 123h55z" />
    <glyph glyph-name="longs" unicode="&#x17f;" 
d="M262 544c0 66 15 114 46 144c30 29 72 44 126 44c12 0 24 0 35 -1s24 -4 37 -7v-48c-13 2 -24 4 -35 6c-11 1 -22 2 -33 2c-19 0 -35 -2 -50 -6c-15 -5 -28 -12 -38 -23c-11 -11 -19 -26 -24 -44s-8 -40 -8 -67v-544h-56v544z" />
    <glyph glyph-name="uni018F" unicode="&#x18f;" 
d="M298 -15c-40 0 -75 9 -106 27s-56 43 -77 76s-37 72 -48 119c-11 46 -17 97 -17 154v16h436c-1 46 -6 88 -15 127c-9 38 -21 71 -36 98c-16 27 -35 48 -58 63s-49 22 -78 22c-44 0 -80 -15 -109 -46s-50 -73 -63 -127h-62c15 71 43 126 83 166c40 39 90 59 151 59
c79 0 141 -32 184 -96s65 -158 65 -282c0 -57 -6 -109 -17 -155s-28 -85 -49 -118s-47 -59 -78 -76c-31 -18 -67 -27 -106 -27zM299 37c28 0 53 7 75 21c22 13 41 33 57 58s29 55 38 91c9 35 14 75 16 118h-373c3 -40 8 -77 17 -112c8 -35 19 -66 34 -92s33 -46 56 -61
c22 -15 49 -23 80 -23z" />
    <glyph glyph-name="uni0190" unicode="&#x190;" 
d="M535 193c-5 -65 -28 -115 -67 -150c-39 -36 -93 -54 -160 -54c-33 0 -64 4 -92 13c-29 8 -53 20 -74 37s-37 37 -48 62c-12 25 -18 53 -18 86c0 21 3 41 9 62c6 20 15 38 28 55s28 31 47 43c18 11 40 19 65 23v3c-48 15 -82 37 -102 66c-21 29 -31 63 -31 104
c0 29 6 56 17 80c11 23 27 44 47 61c19 17 42 30 69 39c26 9 54 14 84 14c61 0 110 -17 148 -50c37 -34 58 -81 62 -140h-62c0 20 -3 39 -10 56s-17 32 -30 45s-29 23 -47 30s-38 11 -60 11c-21 0 -40 -3 -59 -9c-19 -7 -36 -16 -51 -29s-27 -28 -36 -47s-14 -40 -14 -65
c0 -23 4 -44 13 -62c9 -19 21 -34 37 -46c15 -13 34 -22 55 -29s45 -10 71 -10h45v-49h-48c-27 0 -51 -3 -74 -9c-23 -7 -43 -16 -60 -29s-30 -30 -39 -49c-10 -20 -15 -43 -15 -70c0 -43 15 -79 44 -107s71 -42 125 -42c21 0 42 3 62 9c19 6 37 15 53 28c15 12 28 28 38 48
c9 19 15 43 17 71h61z" />
    <glyph glyph-name="florin" unicode="&#x192;" 
d="M64 -80c7 -3 15 -4 24 -5s16 -1 21 -1c19 0 34 4 47 13s23 20 32 34s16 30 21 48c5 17 10 35 13 53l51 270h-115v47h124l25 140c5 31 12 61 20 90c7 29 20 55 37 76c12 15 28 28 48 38c20 9 43 14 69 14c20 0 38 -3 53 -8v-50c-9 3 -20 5 -31 6c-12 1 -21 1 -26 1
c-19 0 -35 -5 -47 -15c-13 -10 -23 -23 -30 -38c-8 -15 -14 -32 -18 -50c-5 -18 -8 -35 -11 -52l-26 -152h123v-47h-133l-48 -257c-6 -32 -13 -61 -20 -87c-8 -26 -18 -48 -30 -67c-13 -19 -29 -33 -48 -43c-19 -11 -44 -16 -73 -16c-8 0 -16 1 -25 2l-27 3v53z" />
    <glyph glyph-name="uni0194" unicode="&#x194;" 
d="M95 724l205 -433l205 433h60l-233 -489l27 -55c10 -21 20 -42 30 -62c10 -21 19 -40 27 -59s15 -38 20 -56s7 -35 7 -51c0 -17 -3 -34 -9 -51c-7 -17 -16 -32 -28 -45s-27 -24 -44 -32c-18 -8 -39 -12 -62 -12s-44 4 -61 12c-18 8 -33 19 -45 32s-21 28 -27 45
c-7 17 -10 34 -10 51c0 16 3 33 8 51s11 37 19 56s17 38 27 59c10 20 20 41 30 62l26 55l-232 489h60zM300 -140c25 0 45 9 62 26c16 17 24 40 24 70c0 11 -2 24 -7 41c-5 16 -12 33 -19 52c-7 18 -15 36 -24 55s-17 36 -25 51l-11 24l-11 -24c-8 -15 -16 -32 -25 -51
s-17 -37 -24 -55c-7 -19 -13 -36 -18 -52c-5 -17 -8 -30 -8 -41c0 -30 8 -53 25 -70c16 -17 36 -26 61 -26z" />
    <glyph glyph-name="uni0197" unicode="&#x197;" 
d="M330 347v-295h166v-52h-392v52h166v295h-130v51h130v274h-166v52h392v-52h-166v-274h130v-51h-130z" />
    <glyph glyph-name="uni019D" unicode="&#x19d;" 
d="M524 724v-724h-72l-316 616h-4c1 -48 2 -94 3 -137c1 -44 1 -89 1 -135v-367c0 -61 -12 -104 -37 -128c-25 -25 -59 -37 -104 -37c-11 0 -21 1 -30 2s-20 4 -33 7v52c11 -3 21 -5 30 -6s18 -2 27 -2c28 0 50 8 65 25s22 48 22 94v740h72l316 -608h4c-1 48 -1 94 -2 138
c-1 43 -2 88 -2 134v336h60z" />
    <glyph glyph-name="uni01B5" unicode="&#x1b5;" 
d="M240 333h-150v52h182l176 287h-370v52h440v-52l-175 -287h174v-52h-206l-171 -281h398v-52h-468v56z" />
    <glyph glyph-name="uni01B6" unicode="&#x1b6;" 
d="M242 234h-117v47h152l144 193h-305v50h372v-50l-144 -193h128v-47h-163l-138 -184h329v-50h-396v50z" />
    <glyph glyph-name="uni01CD" unicode="&#x1cd;" 
d="M439 228h-279l-74 -228h-64l244 724h68l244 -724h-64zM177 280h245l-120 368h-4zM177 906h57l67 -81l68 81h54l-89 -110h-68z" />
    <glyph glyph-name="uni01CE" unicode="&#x1ce;" 
d="M91 132c0 33 8 60 24 81s39 39 68 52s64 22 105 29c41 6 86 10 135 12v45c0 45 -10 79 -30 104c-20 24 -51 36 -94 36c-19 0 -36 -2 -52 -7s-30 -13 -42 -23s-21 -22 -28 -37s-10 -33 -10 -53h-56c0 25 5 48 14 69s22 38 39 53s37 26 60 34s48 12 75 12
c63 0 109 -16 138 -49c28 -33 42 -79 42 -136v-198c0 -27 1 -53 4 -78c2 -25 6 -51 12 -78h-56c-3 11 -6 24 -8 38c-3 13 -4 26 -4 38c-20 -32 -45 -54 -75 -67s-60 -20 -89 -20c-53 0 -94 12 -125 37s-47 60 -47 106zM271 33c27 0 50 5 69 15c19 9 35 23 48 40
c12 17 21 38 27 62c5 23 8 49 8 78v35c-42 -2 -80 -5 -113 -10s-62 -12 -85 -22c-24 -10 -42 -23 -55 -39s-19 -36 -19 -60c0 -33 12 -57 35 -74s51 -25 85 -25zM300 633l70 91h55l-90 -123h-70l-91 123h55z" />
    <glyph glyph-name="uni01CF" unicode="&#x1cf;" 
d="M104 724h392v-52h-166v-620h166v-52h-392v52h166v620h-166v52zM177 906h57l67 -81l68 81h54l-89 -110h-68z" />
    <glyph glyph-name="uni01D0" unicode="&#x1d0;" 
d="M137 501h216v-453h160v-48h-376v48h160v405h-160v48zM317 633l70 91h55l-90 -123h-70l-91 123h55z" />
    <glyph glyph-name="uni01D1" unicode="&#x1d1;" 
d="M300 37c30 0 57 8 80 24c23 15 43 37 59 66s28 63 37 103c8 39 12 83 12 131s-4 92 -12 132c-9 40 -21 74 -37 103s-36 51 -59 67s-50 24 -80 24s-57 -8 -80 -24s-43 -38 -59 -67s-28 -63 -36 -103c-9 -40 -13 -84 -13 -132s4 -92 13 -131c8 -40 20 -74 36 -103
s36 -51 59 -66c23 -16 50 -24 80 -24zM300 -15c-40 0 -76 9 -107 27c-31 17 -58 43 -79 76s-38 72 -49 118s-17 98 -17 155s6 108 17 155s28 87 49 120s48 58 79 76s67 27 107 27s76 -9 107 -27s58 -43 79 -76s38 -73 49 -120s17 -98 17 -155s-6 -109 -17 -155
s-28 -85 -49 -118s-48 -59 -79 -76c-31 -18 -67 -27 -107 -27zM177 906h57l67 -81l68 81h54l-89 -110h-68z" />
    <glyph glyph-name="uni01D2" unicode="&#x1d2;" 
d="M300 33c27 0 50 6 71 18c20 12 37 28 51 49s25 45 32 73s10 58 10 91s-4 63 -11 91c-8 27 -19 51 -33 72c-14 20 -31 36 -51 47c-21 11 -44 17 -69 17c-27 0 -50 -6 -70 -18c-21 -12 -38 -28 -52 -49s-24 -45 -31 -73s-11 -58 -11 -91s4 -63 12 -90c7 -28 18 -52 32 -72
c14 -21 31 -37 52 -48c20 -11 43 -17 68 -17zM300 -15c-35 0 -66 7 -93 20c-28 13 -52 31 -71 55c-19 23 -34 52 -44 86c-11 34 -16 72 -16 114s5 80 16 115c10 34 25 63 44 88c19 24 43 43 71 56c27 13 58 20 93 20c34 0 65 -6 93 -19c27 -13 51 -32 71 -55
c19 -24 34 -53 45 -87c10 -34 15 -72 15 -114s-5 -80 -16 -114c-11 -35 -26 -64 -45 -88c-19 -25 -43 -44 -70 -57c-28 -13 -59 -20 -93 -20zM300 633l70 91h55l-90 -123h-70l-91 123h55z" />
    <glyph glyph-name="uni01D3" unicode="&#x1d3;" 
d="M300 -15c-43 0 -79 6 -108 18s-53 30 -70 54c-18 23 -31 52 -38 86c-8 34 -12 73 -12 117v464h60v-460c0 -75 13 -132 38 -170s68 -57 130 -57s106 18 131 55s37 93 37 168v464h60v-460c0 -44 -4 -83 -11 -118c-8 -35 -21 -64 -38 -87c-18 -24 -42 -42 -71 -55
s-65 -19 -108 -19zM177 906h57l67 -81l68 81h54l-89 -110h-68z" />
    <glyph glyph-name="uni01D4" unicode="&#x1d4;" 
d="M439 524h56v-524h-52v84c-7 -16 -17 -30 -30 -42s-27 -22 -43 -30c-16 -9 -33 -15 -50 -19s-34 -6 -49 -6c-53 0 -95 17 -126 51c-31 33 -46 86 -46 158v328h56v-324c0 -23 2 -45 7 -65c4 -20 11 -37 21 -52c9 -15 22 -26 38 -35c15 -9 35 -13 58 -13c19 0 38 4 57 12
c19 7 37 19 52 35c15 15 27 35 37 59c9 23 14 51 14 83v300zM299 633l70 91h55l-90 -123h-70l-91 123h55z" />
    <glyph glyph-name="Gcaron" unicode="&#x1e6;" 
d="M470 527c-9 49 -27 87 -53 115c-26 27 -59 41 -99 41c-31 0 -58 -7 -82 -22c-25 -15 -45 -37 -62 -64c-17 -28 -29 -62 -38 -102s-14 -85 -14 -135c0 -45 4 -88 12 -127c7 -40 19 -75 34 -104s34 -53 57 -70c22 -17 48 -26 77 -26c21 0 41 5 62 16c20 11 38 26 55 47
c16 21 29 46 40 77c10 30 15 64 15 103v48h-148v52h204v-376h-48l-12 88c-8 -17 -18 -32 -31 -45s-26 -23 -41 -32s-31 -15 -47 -19c-17 -5 -33 -7 -49 -7c-39 0 -74 9 -104 27c-31 17 -56 42 -77 75s-36 72 -47 118s-16 98 -16 155s6 108 18 155c11 47 28 87 51 120
c22 33 49 59 82 77c32 18 68 27 109 27c59 0 106 -18 143 -54c37 -37 61 -89 73 -158h-64zM196 906h57l67 -81l68 81h54l-89 -110h-68z" />
    <glyph glyph-name="gcaron" unicode="&#x1e7;" 
d="M446 128c-19 -32 -44 -57 -73 -74s-61 -26 -95 -26c-63 0 -114 22 -151 66c-38 43 -57 107 -57 190c0 42 6 79 17 111c11 31 27 57 46 78s42 36 68 47c25 10 52 15 81 15c31 0 62 -7 92 -20c29 -14 53 -39 72 -75v84h52v-448c0 -45 -3 -85 -10 -118s-19 -61 -35 -82
c-17 -22 -38 -38 -65 -48c-27 -11 -59 -16 -98 -16c-56 0 -101 12 -136 37s-55 63 -60 115h60c6 -38 21 -65 46 -82s55 -26 90 -26c23 0 44 3 63 10c19 6 36 17 50 33c13 16 24 38 32 65c7 27 11 62 11 104v60zM282 487c-19 0 -38 -4 -56 -13c-19 -9 -35 -21 -49 -38
s-25 -39 -34 -64s-13 -55 -13 -88c0 -67 14 -118 43 -154c28 -36 64 -54 109 -54c26 0 49 5 69 16c20 10 37 24 50 43s24 41 31 66s10 53 10 83c0 28 -3 54 -10 79s-18 46 -31 65c-13 18 -30 32 -50 43s-43 16 -69 16zM308 633l70 91h55l-90 -123h-70l-91 123h55z" />
    <glyph glyph-name="uni01E8" unicode="&#x1e8;" 
d="M512 0l-340 368v-368h-60v724h60v-324l320 324h76l-332 -336l356 -388h-80zM198 906h57l67 -81l68 81h54l-89 -110h-68z" />
    <glyph glyph-name="uni01E9" unicode="&#x1e9;" 
d="M197 292l244 232h73l-256 -238l299 -286h-76l-284 273v-273h-56v724h56v-432zM48 906h58l65 -81l65 81h53l-88 -110h-66z" />
    <glyph glyph-name="uni01EA" unicode="&#x1ea;" 
d="M404 10c-34 -19 -58 -38 -71 -57c-14 -19 -21 -36 -21 -49s5 -24 14 -33s19 -13 32 -13c5 0 12 1 21 2s15 3 19 5v-46c-7 -3 -14 -4 -23 -5s-16 -2 -22 -2c-25 0 -47 8 -64 25c-18 16 -27 36 -27 60c0 13 4 28 13 43c8 15 22 31 41 46c-3 -1 -9 -1 -16 -1
c-40 0 -76 9 -107 27c-31 17 -58 43 -79 76s-38 72 -49 118s-17 98 -17 155s6 108 17 155s28 87 49 120s48 58 79 76s67 27 107 27s76 -9 107 -27s58 -43 79 -76s38 -73 49 -120s17 -98 17 -155c0 -87 -13 -161 -38 -221s-62 -103 -110 -130zM112 361c0 -48 4 -92 13 -131
c8 -40 20 -74 36 -103s36 -51 59 -66c23 -16 50 -24 80 -24s57 8 80 24c23 15 43 37 59 66s28 63 37 103c8 39 12 83 12 131s-4 92 -12 132c-9 40 -21 74 -37 103s-36 51 -59 67s-50 24 -80 24s-57 -8 -80 -24s-43 -38 -59 -67s-28 -63 -36 -103c-9 -40 -13 -84 -13 -132z
" />
    <glyph glyph-name="uni01EB" unicode="&#x1eb;" 
d="M389 3c-25 -13 -45 -29 -58 -48s-20 -36 -20 -51c0 -13 4 -24 13 -33s19 -13 32 -13c5 0 12 1 20 2c7 1 13 3 17 5v-46c-7 -3 -14 -4 -22 -5c-9 -1 -16 -2 -22 -2c-25 0 -46 8 -63 25c-17 16 -25 36 -25 60c0 15 4 29 12 44c7 14 20 29 37 44h-10c-35 0 -66 7 -93 20
c-28 13 -52 31 -71 55c-19 23 -34 52 -44 86c-11 34 -16 72 -16 114s5 80 16 115c10 34 25 63 44 88c19 24 43 43 71 56c27 13 58 20 93 20c34 0 65 -6 93 -19c27 -13 51 -32 71 -55c19 -24 34 -53 45 -87c10 -34 15 -72 15 -114c0 -65 -12 -119 -36 -163s-57 -77 -99 -98z
M136 260c0 -33 4 -63 12 -90c7 -28 18 -52 32 -72c14 -21 31 -37 52 -48c20 -11 43 -17 68 -17c27 0 50 6 71 18c20 12 37 28 51 49s25 45 32 73s10 58 10 91s-4 63 -11 91c-8 27 -19 51 -33 72c-14 20 -31 36 -51 47c-21 11 -44 17 -69 17c-27 0 -50 -6 -70 -18
c-21 -12 -38 -28 -52 -49s-24 -45 -31 -73s-11 -58 -11 -91z" />
    <glyph glyph-name="uni01F8" unicode="&#x1f8;" 
d="M464 724h60v-724h-72l-316 616h-4c1 -48 2 -94 3 -137c1 -44 1 -89 1 -135v-344h-60v724h72l316 -608h4c-1 48 -1 94 -2 138c-1 43 -2 88 -2 134v336zM278 796l-119 110h78l95 -110h-54z" />
    <glyph glyph-name="uni01F9" unicode="&#x1f9;" 
d="M157 440c7 16 17 30 30 42s27 22 43 31c16 8 33 14 50 18s34 6 49 6c53 0 95 -17 126 -50c31 -34 46 -87 46 -159v-328h-56v324c0 23 -2 44 -6 65c-5 20 -12 37 -21 52c-10 15 -23 26 -38 35c-16 9 -36 13 -59 13c-19 0 -37 -4 -56 -11s-35 -18 -50 -33s-28 -34 -38 -56
c-10 -23 -15 -49 -16 -80v-309h-56v524h52v-84zM168 724h75l88 -123h-52z" />
    <glyph glyph-name="Aringacute" unicode="&#x1fa;" 
d="M177 280h245l-120 368h-4zM300 731c17 0 31 5 41 16c10 10 15 23 15 40c0 16 -5 29 -15 40c-10 10 -24 15 -41 15s-30 -5 -40 -15c-10 -11 -15 -24 -15 -40c0 -17 5 -30 15 -40c10 -11 23 -16 40 -16zM287 879l77 98h70l-97 -103l6 -2c12 -5 22 -12 31 -21
c8 -9 14 -19 19 -30c4 -11 6 -23 6 -34s-2 -23 -6 -34c-5 -11 -11 -21 -19 -30c-9 -9 -19 -17 -31 -22h-1l236 -701h-64l-75 228h-279l-74 -228h-64l236 701c-13 5 -23 13 -31 22s-14 19 -18 30c-5 11 -7 23 -7 34s2 23 7 34c4 11 10 21 18 30s18 16 31 21c8 4 18 6 29 7z
" />
    <glyph glyph-name="aringacute" unicode="&#x1fb;" 
d="M271 33c27 0 50 5 69 15c19 9 35 23 48 40c12 17 21 38 27 62c5 23 8 49 8 78v35c-42 -2 -80 -5 -113 -10s-62 -12 -85 -22c-24 -10 -42 -23 -55 -39s-19 -36 -19 -60c0 -33 12 -57 35 -74s51 -25 85 -25zM296 613c17 0 31 5 41 16c10 10 15 23 15 40c0 16 -5 29 -15 40
c-10 10 -24 15 -41 15s-30 -5 -40 -15c-10 -11 -15 -24 -15 -40c0 -17 5 -30 15 -40c10 -11 23 -16 40 -16zM91 132c0 33 8 60 24 81s39 39 68 52s64 22 105 29c41 6 86 10 135 12v45c0 45 -10 79 -30 104c-20 24 -51 36 -94 36c-19 0 -36 -2 -52 -7s-30 -13 -42 -23
s-21 -22 -28 -37s-10 -33 -10 -53h-56c0 25 5 48 14 69s22 38 39 53s37 26 60 34s48 12 75 12c63 0 109 -16 138 -49c28 -33 42 -79 42 -136v-198c0 -27 1 -53 4 -78c2 -25 6 -51 12 -78h-56c-3 11 -6 24 -8 38c-3 13 -4 26 -4 38c-20 -32 -45 -54 -75 -67s-60 -20 -89 -20
c-53 0 -94 12 -125 37s-47 60 -47 106zM273 760l91 116h73l-114 -117c5 -1 11 -3 16 -5c12 -5 22 -12 31 -21c8 -9 14 -19 19 -30c4 -11 6 -23 6 -34s-2 -23 -6 -34c-5 -11 -11 -21 -19 -30c-9 -9 -19 -17 -31 -22c-13 -5 -27 -8 -43 -8s-30 3 -42 8c-13 5 -23 13 -31 22
s-14 19 -18 30c-5 11 -7 23 -7 34s2 23 7 34c4 11 10 21 18 30s18 16 31 21c5 3 12 5 19 6z" />
    <glyph glyph-name="AEacute" unicode="&#x1fc;" 
d="M373 398h190v-52h-185l29 -294h188v-52h-248l-23 256h-196l-93 -256h-64l272 724h328v-52h-224zM147 308h172l-32 364h-8zM372 906h78l-119 -110h-54z" />
    <glyph glyph-name="aeacute" unicode="&#x1fd;" 
d="M579 256h-253c0 -75 9 -131 27 -168s44 -55 78 -55c24 0 44 10 59 30s25 47 29 81h52c-9 -50 -25 -89 -47 -117s-53 -42 -93 -42c-64 0 -108 35 -133 104c-9 -29 -26 -54 -51 -74s-57 -30 -96 -30c-43 0 -76 12 -98 37c-23 24 -34 58 -34 102c0 58 22 100 66 127
s106 43 187 50v50c0 45 -7 79 -21 104c-15 24 -36 36 -64 36c-29 0 -53 -10 -71 -29c-18 -20 -27 -50 -27 -91h-54c0 51 14 92 41 123c27 30 63 45 109 45c33 0 59 -8 78 -23c19 -16 34 -38 43 -67c23 60 64 90 121 90c53 0 91 -22 116 -67c24 -45 36 -111 36 -200v-16z
M524 304c-1 61 -9 107 -24 139s-39 48 -73 48c-61 0 -94 -62 -100 -187h197zM272 257c-31 -3 -58 -7 -82 -12c-25 -5 -45 -13 -62 -23c-17 -11 -30 -24 -39 -40s-14 -35 -14 -58c0 -33 8 -57 23 -72s36 -23 61 -23c15 0 29 3 43 10c13 7 25 17 36 30s19 30 25 49s9 41 9 66
v73zM366 724h75l-112 -123h-51z" />
    <glyph glyph-name="Oslashacute" unicode="&#x1fe;" 
d="M483 640c23 -34 40 -74 52 -121c11 -47 17 -99 17 -158c0 -57 -6 -109 -17 -155s-28 -85 -49 -118s-48 -59 -79 -76c-31 -18 -67 -27 -107 -27c-30 0 -57 5 -82 15s-48 24 -67 43l-44 -73l-39 25l51 86c-23 33 -41 73 -53 120s-18 101 -18 160c0 57 6 108 17 155
s28 87 49 120s48 58 79 76s67 27 107 27c60 0 111 -21 152 -62l40 65l39 -23zM300 687c-30 0 -57 -8 -80 -24c-24 -16 -44 -38 -60 -67c-17 -29 -29 -63 -37 -103c-9 -40 -13 -84 -13 -132c0 -45 4 -85 11 -122s18 -70 31 -98l271 484c-33 41 -74 62 -123 62zM300 37
c30 0 57 8 81 24c23 15 43 37 60 66c16 29 28 63 37 103c8 39 12 83 12 131c0 91 -14 165 -41 221l-268 -487c15 -19 33 -33 53 -43s42 -15 66 -15zM362 906h78l-119 -110h-54z" />
    <glyph glyph-name="oslashacute" unicode="&#x1ff;" 
d="M464 465c19 -24 34 -53 45 -87s16 -72 16 -114s-5 -80 -16 -114c-11 -35 -26 -64 -45 -88c-19 -25 -43 -44 -70 -57c-28 -13 -59 -20 -93 -20c-54 0 -99 16 -136 47l-52 -72l-34 29l55 75c-38 49 -57 115 -57 196c0 42 5 80 16 115c10 34 25 63 44 88c19 24 43 43 71 56
c27 13 58 20 93 20c51 0 95 -14 131 -43l56 78l35 -27zM301 492c-27 0 -50 -6 -71 -18s-38 -28 -52 -49s-25 -45 -32 -73c-7 -29 -11 -59 -11 -92c0 -59 12 -109 35 -148l231 340c-13 13 -28 23 -45 30s-35 10 -55 10zM301 32c27 0 50 6 71 18s38 28 52 49s25 45 32 74
c7 28 11 58 11 91c0 30 -3 58 -10 84s-16 49 -28 69l-232 -341c28 -29 63 -44 104 -44zM356 724h75l-112 -123h-51z" />
    <glyph glyph-name="uni0218" unicode="&#x218;" 
d="M261 352c-23 7 -46 15 -67 26c-21 10 -40 23 -56 39s-29 35 -38 57c-10 22 -15 48 -15 78c0 27 5 52 15 75s24 42 43 59s41 30 67 39s55 14 87 14c33 0 63 -5 90 -15s51 -24 70 -43s33 -42 44 -69s16 -58 16 -92h-60c-1 29 -7 54 -16 76c-9 21 -21 39 -36 53
s-32 25 -51 32s-38 10 -57 10c-20 0 -39 -3 -57 -9c-19 -6 -35 -15 -49 -26c-14 -12 -25 -27 -33 -44c-9 -17 -13 -37 -13 -60c0 -21 4 -40 11 -55c7 -16 18 -30 31 -42s29 -22 47 -31s38 -16 59 -22l52 -15c25 -7 49 -16 72 -27c22 -11 41 -24 58 -40c17 -17 30 -37 40 -60
c9 -23 14 -51 14 -84c0 -27 -5 -52 -15 -75c-11 -23 -26 -44 -45 -61s-43 -31 -70 -40c-28 -10 -59 -15 -94 -15c-75 0 -133 21 -174 62s-62 100 -62 177h60c0 -61 16 -108 48 -141c31 -33 74 -50 128 -50c24 0 46 4 66 11s37 18 52 31c14 13 25 28 34 45c8 17 12 36 12 56
c0 23 -3 43 -10 60s-17 31 -30 44s-30 24 -49 33c-20 9 -42 17 -67 24zM294 -157h-32v88h80v-92l-46 -79h-33z" />
    <glyph glyph-name="uni0219" unicode="&#x219;" 
d="M310 -15c-69 0 -121 15 -156 44c-36 29 -54 70 -55 123h60c0 -41 13 -71 40 -90c26 -19 63 -29 111 -29c41 0 74 9 98 28s36 44 36 75c0 23 -8 41 -24 54c-17 13 -37 23 -62 31c-25 7 -52 14 -81 21s-55 16 -80 27s-46 27 -62 47c-17 19 -25 46 -25 80c0 19 4 37 13 54
s21 33 38 46s37 24 61 32c23 7 50 11 80 11c58 0 103 -14 135 -42c32 -29 48 -68 49 -118h-56c-1 37 -13 65 -37 84s-56 28 -95 28s-70 -8 -93 -23c-24 -16 -36 -40 -36 -72c0 -25 8 -45 25 -58c16 -13 36 -24 61 -32s52 -15 81 -21s55 -14 80 -25s45 -25 62 -44
c16 -19 24 -46 24 -80c0 -23 -5 -44 -14 -63s-22 -34 -39 -47s-38 -23 -61 -30s-49 -11 -78 -11zM295 -157h-32v88h80v-92l-46 -79h-33z" />
    <glyph glyph-name="uni021A" unicode="&#x21a;" 
d="M268 0v672h-220v52h504v-52h-224v-672h-60zM293 -157h-32v88h80v-92l-46 -79h-33z" />
    <glyph glyph-name="uni021B" unicode="&#x21b;" 
d="M298 453v-277c0 -27 3 -49 9 -66s14 -31 24 -41c10 -11 22 -18 36 -22c14 -5 29 -7 45 -7c12 0 25 1 38 2s26 3 40 6v-48c-31 -5 -59 -8 -84 -8c-24 0 -46 3 -66 9c-20 5 -37 15 -52 29s-26 33 -34 56s-12 51 -12 86v281h-156v48h156v167h56v-167h180v-48h-180zM357 -157
h-32v88h80v-92l-46 -79h-33z" />
    <glyph glyph-name="uni021E" unicode="&#x21e;" 
d="M524 0h-60v344h-328v-344h-60v724h60v-328h328v328h60v-724zM177 906h57l67 -81l68 81h54l-89 -110h-68z" />
    <glyph glyph-name="uni021F" unicode="&#x21f;" 
d="M161 448c8 15 18 28 31 39s27 20 43 28c15 7 31 13 48 17c16 3 31 5 46 5c53 0 95 -17 126 -50c31 -34 46 -87 46 -159v-328h-56v324c0 23 -2 44 -6 65c-5 20 -12 37 -21 52c-10 15 -23 26 -38 35c-16 9 -36 13 -59 13c-19 0 -37 -4 -56 -11s-35 -18 -50 -33
s-28 -34 -38 -56c-10 -23 -15 -49 -16 -80v-309h-56v724h56v-276zM12 906h58l65 -81l65 81h53l-88 -110h-66z" />
    <glyph glyph-name="uni022E" unicode="&#x22e;" 
d="M300 37c30 0 57 8 80 24c23 15 43 37 59 66s28 63 37 103c8 39 12 83 12 131s-4 92 -12 132c-9 40 -21 74 -37 103s-36 51 -59 67s-50 24 -80 24s-57 -8 -80 -24s-43 -38 -59 -67s-28 -63 -36 -103c-9 -40 -13 -84 -13 -132s4 -92 13 -131c8 -40 20 -74 36 -103
s36 -51 59 -66c23 -16 50 -24 80 -24zM300 -15c-40 0 -76 9 -107 27c-31 17 -58 43 -79 76s-38 72 -49 118s-17 98 -17 155s6 108 17 155s28 87 49 120s48 58 79 76s67 27 107 27s76 -9 107 -27s58 -43 79 -76s38 -73 49 -120s17 -98 17 -155s-6 -109 -17 -155
s-28 -85 -49 -118s-48 -59 -79 -76c-31 -18 -67 -27 -107 -27zM260 802v104h80v-104h-80z" />
    <glyph glyph-name="uni022F" unicode="&#x22f;" 
d="M300 33c27 0 50 6 71 18c20 12 37 28 51 49s25 45 32 73s10 58 10 91s-4 63 -11 91c-8 27 -19 51 -33 72c-14 20 -31 36 -51 47c-21 11 -44 17 -69 17c-27 0 -50 -6 -70 -18c-21 -12 -38 -28 -52 -49s-24 -45 -31 -73s-11 -58 -11 -91s4 -63 12 -90c7 -28 18 -52 32 -72
c14 -21 31 -37 52 -48c20 -11 43 -17 68 -17zM300 -15c-35 0 -66 7 -93 20c-28 13 -52 31 -71 55c-19 23 -34 52 -44 86c-11 34 -16 72 -16 114s5 80 16 115c10 34 25 63 44 88c19 24 43 43 71 56c27 13 58 20 93 20c34 0 65 -6 93 -19c27 -13 51 -32 71 -55
c19 -24 34 -53 45 -87c10 -34 15 -72 15 -114s-5 -80 -16 -114c-11 -35 -26 -64 -45 -88c-19 -25 -43 -44 -70 -57c-28 -13 -59 -20 -93 -20zM259 620v104h80v-104h-80z" />
    <glyph glyph-name="uni0232" unicode="&#x232;" 
d="M266 0v300l-221 424h64l188 -364h8l196 364h60l-229 -424v-300h-66zM177 874h249v-48h-249v48z" />
    <glyph glyph-name="uni0233" unicode="&#x233;" 
d="M73 524h68l104 -296c9 -26 19 -51 28 -76s18 -51 28 -76h8c21 51 39 100 56 148l104 300h64l-200 -524c-11 -29 -21 -54 -32 -77s-25 -43 -40 -59c-15 -17 -33 -29 -54 -38s-47 -14 -78 -14c-9 0 -18 0 -27 1s-19 2 -29 3v52c10 -2 20 -3 30 -3c9 -1 18 -1 26 -1
c20 0 37 3 51 8s26 14 37 25c10 11 19 26 28 43c8 17 16 38 24 62zM174 699h253v-48h-253v48z" />
    <glyph glyph-name="uni0237" unicode="&#x237;" 
d="M126 501h260v-513c0 -33 -4 -61 -13 -83c-9 -23 -22 -41 -38 -54c-16 -14 -35 -24 -56 -30s-44 -9 -69 -9c-13 0 -28 1 -44 2s-31 3 -44 6v52c12 -2 25 -4 38 -5c13 -2 25 -3 34 -3c48 0 83 11 104 32s32 51 32 92v465h-204v48z" />
    <glyph glyph-name="uni0244" unicode="&#x244;" 
d="M468 347h-336v-83c0 -75 13 -132 38 -170s68 -57 130 -57s106 18 131 55s37 93 37 168v87zM468 398v326h60v-326h72v-51h-72v-83c0 -44 -4 -83 -11 -118c-8 -35 -21 -64 -38 -87c-18 -24 -42 -42 -71 -55s-65 -19 -108 -19s-79 6 -108 18s-53 30 -70 54
c-18 23 -31 52 -38 86c-8 34 -12 73 -12 117v87h-72v51h72v326h60v-326h336z" />
    <glyph glyph-name="uni0259" unicode="&#x259;" 
d="M81 268h380c-1 33 -5 63 -13 91c-9 27 -20 51 -35 70s-32 35 -52 46c-21 11 -43 16 -68 16c-34 0 -64 -10 -89 -31s-44 -48 -55 -80h-60c13 50 38 89 75 117c36 28 79 42 129 42c34 0 65 -6 93 -18s52 -30 72 -53c20 -24 36 -53 47 -87s16 -73 16 -117
c0 -40 -5 -77 -16 -111s-26 -63 -45 -88s-43 -45 -70 -59c-28 -14 -59 -21 -93 -21c-66 0 -118 23 -157 68s-59 111 -59 199v16zM297 33c22 0 42 5 61 15c18 9 34 23 48 40c13 17 25 36 34 59s15 47 18 73h-316c4 -59 19 -104 46 -137s63 -50 109 -50z" />
    <glyph glyph-name="uni025B" unicode="&#x25b;" 
d="M289 -15c-25 0 -49 3 -71 9c-23 5 -42 14 -59 26s-31 27 -41 46s-15 41 -15 66c0 32 8 59 23 82c15 22 39 39 71 51v4c-30 7 -52 22 -65 44c-14 22 -21 47 -21 75c0 20 4 39 13 58c8 18 20 34 36 48s35 25 58 33s48 12 77 12c67 0 117 -14 150 -43s51 -72 54 -128h-53
c-1 37 -15 67 -42 90s-63 34 -107 34c-39 0 -70 -10 -94 -30c-24 -21 -36 -47 -36 -78c0 -28 10 -51 29 -69s51 -27 96 -27h47v-49h-50c-23 0 -43 -3 -60 -8s-30 -13 -40 -22c-11 -9 -18 -20 -23 -33s-7 -26 -7 -40c0 -35 13 -61 39 -78c25 -17 57 -26 96 -26
c51 0 90 13 117 39c26 25 40 58 43 97h53c0 -26 -5 -50 -14 -72c-9 -23 -23 -42 -41 -58c-19 -17 -42 -30 -69 -39s-59 -14 -94 -14z" />
    <glyph glyph-name="uni0263" unicode="&#x263;" 
d="M119 524l181 -313l181 313h64l-214 -367l24 -41c23 -41 41 -75 54 -103c12 -29 18 -56 18 -81c0 -16 -3 -31 -8 -46s-13 -27 -24 -38s-24 -20 -40 -26c-16 -7 -34 -10 -55 -10s-39 3 -55 10c-16 6 -29 15 -40 26s-19 23 -24 38s-8 30 -8 46c0 13 2 26 5 39s8 26 14 41
s14 31 23 48s19 35 30 56l23 41l-213 367h64zM300 -144c21 0 39 8 52 23s19 33 19 53c0 26 -6 51 -17 75s-26 51 -43 80l-11 19l-11 -19c-17 -29 -32 -56 -43 -80s-17 -49 -17 -75c0 -20 7 -38 20 -53s30 -23 51 -23z" />
    <glyph glyph-name="uni0268" unicode="&#x268;" 
d="M133 48h160v198h-143v48h143v159h-160v48h216v-207h138v-48h-138v-198h160v-48h-376v48zM277 620v104h80v-104h-80z" />
    <glyph glyph-name="uni0272" unicode="&#x272;" 
d="M161 -16c0 -64 -11 -109 -34 -134s-58 -38 -103 -38c-11 0 -21 1 -30 2s-20 4 -33 7v50c11 -3 21 -5 30 -6s18 -2 27 -2c28 0 50 8 65 25s22 48 22 94v542h52v-84c7 16 17 30 30 42s27 22 43 31c16 8 33 14 50 18s34 6 49 6c53 0 95 -17 126 -50c31 -34 46 -87 46 -159
v-328h-56v324c0 23 -2 44 -6 65c-5 20 -12 37 -21 52c-10 15 -23 26 -38 35c-16 9 -36 13 -59 13c-19 0 -38 -4 -57 -11c-19 -8 -36 -20 -51 -35c-15 -16 -28 -36 -37 -59c-10 -24 -15 -52 -15 -84v-316z" />
    <glyph glyph-name="uni0289" unicode="&#x289;" 
d="M497 310h84v-48h-84v-262h-52v84c-7 -16 -17 -30 -30 -42s-27 -22 -43 -30c-16 -9 -33 -15 -50 -19s-34 -6 -49 -6c-53 0 -95 17 -126 51c-31 33 -46 86 -46 158v66h-84v48h84v214h56v-214h284v214h56v-214zM441 262h-284v-62c0 -23 2 -45 7 -65c4 -20 11 -37 21 -52
c9 -15 22 -26 38 -35c15 -9 35 -13 58 -13c19 0 38 4 57 12c19 7 37 19 52 35c15 15 27 35 37 59c9 23 14 51 14 83v38z" />
    <glyph glyph-name="uni02BC" unicode="&#x2bc;" 
d="M299 632h-31v92h80v-92l-48 -95h-35z" />
    <glyph glyph-name="circumflex" unicode="&#x2c6;" 
d="M300 692l-70 -91h-55l90 123h70l91 -123h-55z" />
    <glyph glyph-name="caron" unicode="&#x2c7;" 
d="M301 633l70 91h55l-90 -123h-70l-91 123h55z" />
    <glyph glyph-name="uni02C9" unicode="&#x2c9;" 
d="M174 699h253v-48h-253v48z" />
    <glyph glyph-name="breve" unicode="&#x2d8;" 
d="M300 599c-35 0 -64 11 -86 32c-23 21 -34 52 -34 93h48c0 -29 7 -50 20 -64s31 -21 52 -21s39 7 52 21s20 35 20 64h48c0 -41 -11 -72 -33 -93c-23 -21 -52 -32 -87 -32z" />
    <glyph glyph-name="dotaccent" unicode="&#x2d9;" 
d="M260 620v104h80v-104h-80z" />
    <glyph glyph-name="ring" unicode="&#x2da;" 
d="M300 575c-16 0 -30 3 -42 8c-13 5 -23 13 -31 22s-14 19 -18 30c-5 11 -7 23 -7 34s2 23 7 34c4 11 10 21 18 30s18 16 31 21c12 5 26 8 42 8s30 -3 43 -8c12 -5 22 -12 31 -21c8 -9 14 -19 19 -30c4 -11 6 -23 6 -34s-2 -23 -6 -34c-5 -11 -11 -21 -19 -30
c-9 -9 -19 -17 -31 -22c-13 -5 -27 -8 -43 -8zM300 613c17 0 31 5 41 16c10 10 15 23 15 40c0 16 -5 29 -15 40c-10 10 -24 15 -41 15s-30 -5 -40 -15c-10 -11 -15 -24 -15 -40c0 -17 5 -30 15 -40c10 -11 23 -16 40 -16z" />
    <glyph glyph-name="ogonek" unicode="&#x2db;" 
d="M325 -188c-25 0 -47 8 -64 25c-18 16 -27 36 -27 60c0 19 7 39 21 59c14 19 38 40 71 62l40 -18c-27 -16 -47 -32 -61 -48s-21 -32 -21 -48c0 -13 4 -24 13 -33s19 -13 32 -13c5 0 12 1 20 2c7 1 13 3 17 5v-46c-7 -3 -14 -4 -21 -5s-14 -2 -20 -2z" />
    <glyph glyph-name="tilde" unicode="&#x2dc;" 
d="M364 624c-11 0 -23 3 -34 8s-22 10 -33 16c-11 5 -21 11 -31 16s-19 7 -28 7c-10 0 -19 -3 -26 -10c-8 -7 -14 -19 -19 -36h-39c5 34 15 58 30 73s33 22 53 22c12 0 24 -2 35 -7s22 -11 33 -16c11 -6 21 -11 31 -16s19 -8 27 -8c10 0 19 3 27 10c7 7 13 19 17 36h40
c-5 -34 -15 -58 -30 -73s-33 -22 -53 -22z" />
    <glyph glyph-name="hungarumlaut" unicode="&#x2dd;" 
d="M392 724h68l-103 -123h-49zM221 724h69l-101 -123h-48z" />
    <glyph glyph-name="gravecomb" unicode="&#x300;" horiz-adv-x="0" 
d="M-337 724h75l88 -123h-52z" />
    <glyph glyph-name="acutecomb" unicode="&#x301;" horiz-adv-x="0" 
d="M-243 724h75l-112 -123h-51z" />
    <glyph glyph-name="uni0302" unicode="&#x302;" horiz-adv-x="0" 
d="M-251 692l-70 -91h-55l90 123h70l91 -123h-55z" />
    <glyph glyph-name="tildecomb" unicode="&#x303;" horiz-adv-x="0" 
d="M-182 624c-11 0 -23 3 -34 8s-22 10 -33 16c-11 5 -21 11 -31 16s-19 7 -28 7c-10 0 -19 -3 -26 -10c-8 -7 -14 -19 -19 -36h-39c5 34 15 58 30 73s33 22 53 22c12 0 24 -2 35 -7s22 -11 33 -16c11 -6 21 -11 31 -16s19 -8 27 -8c10 0 19 3 27 10c7 7 13 19 17 36h40
c-5 -34 -15 -58 -30 -73s-33 -22 -53 -22z" />
    <glyph glyph-name="uni0304" unicode="&#x304;" horiz-adv-x="0" 
d="M-376 699h253v-48h-253v48z" />
    <glyph glyph-name="uni0306" unicode="&#x306;" horiz-adv-x="0" 
d="M-249 599c-35 0 -64 11 -86 32c-23 21 -34 52 -34 93h48c0 -29 7 -50 20 -64s31 -21 52 -21s39 7 52 21s20 35 20 64h48c0 -41 -11 -72 -33 -93c-23 -21 -52 -32 -87 -32z" />
    <glyph glyph-name="uni0307" unicode="&#x307;" horiz-adv-x="0" 
d="M-291 620v104h80v-104h-80z" />
    <glyph glyph-name="uni0308" unicode="&#x308;" horiz-adv-x="0" 
d="M-308 717v-91h-73v91h73zM-118 717v-91h-73v91h73z" />
    <glyph glyph-name="uni030A" unicode="&#x30a;" horiz-adv-x="0" 
d="M-249 575c-16 0 -30 3 -42 8c-13 5 -23 13 -31 22s-14 19 -18 30c-5 11 -7 23 -7 34s2 23 7 34c4 11 10 21 18 30s18 16 31 21c12 5 26 8 42 8s30 -3 43 -8c12 -5 22 -12 31 -21c8 -9 14 -19 19 -30c4 -11 6 -23 6 -34s-2 -23 -6 -34c-5 -11 -11 -21 -19 -30
c-9 -9 -19 -17 -31 -22c-13 -5 -27 -8 -43 -8zM-249 613c17 0 31 5 41 16c10 10 15 23 15 40c0 16 -5 29 -15 40c-10 10 -24 15 -41 15s-30 -5 -40 -15c-10 -11 -15 -24 -15 -40c0 -17 5 -30 15 -40c10 -11 23 -16 40 -16z" />
    <glyph glyph-name="uni030B" unicode="&#x30b;" horiz-adv-x="0" 
d="M-151 724h68l-103 -123h-49zM-322 724h69l-101 -123h-48z" />
    <glyph glyph-name="uni030C" unicode="&#x30c;" horiz-adv-x="0" 
d="M-250 633l70 91h55l-90 -123h-70l-91 123h55z" />
    <glyph glyph-name="uni0312" unicode="&#x312;" horiz-adv-x="0" 
d="M-244 694h32v-88h-80v92l46 79h33z" />
    <glyph glyph-name="uni0313" unicode="&#x313;" horiz-adv-x="0" 
d="M-267 632h-31v92h80v-92l-48 -95h-35z" />
    <glyph glyph-name="dotbelowcomb" unicode="&#x323;" horiz-adv-x="0" 
d="M-291 -188v104h80v-104h-80z" />
    <glyph glyph-name="uni0326" unicode="&#x326;" horiz-adv-x="0" 
d="M-257 -157h-32v88h80v-92l-46 -79h-33z" />
    <glyph glyph-name="uni0327" unicode="&#x327;" horiz-adv-x="0" 
d="M-208 -30c19 -1 35 -8 47 -20c13 -14 19 -31 19 -52c0 -24 -8 -44 -25 -61s-41 -25 -72 -25c-5 0 -11 0 -17 1c-6 0 -12 1 -17 2v38c3 -1 7 -1 12 -1c4 -1 8 -1 13 -1c19 0 34 5 43 14s14 20 14 33c0 12 -4 22 -12 31c-9 8 -23 12 -42 12c-5 0 -9 0 -12 -1v71h49v-41z
" />
    <glyph glyph-name="uni0328" unicode="&#x328;" horiz-adv-x="0" 
d="M-251 -188c-25 0 -47 8 -64 25c-18 16 -27 36 -27 60c0 19 7 39 21 59c14 19 38 40 71 62l40 -18c-27 -16 -47 -32 -61 -48s-21 -32 -21 -48c0 -13 4 -24 13 -33s19 -13 32 -13c5 0 12 1 20 2c7 1 13 3 17 5v-46c-7 -3 -14 -4 -21 -5s-14 -2 -20 -2z" />
    <glyph glyph-name="uni032E" unicode="&#x32e;" horiz-adv-x="0" 
d="M-249 -189c-36 0 -65 11 -87 32c-23 21 -34 52 -34 93h48c0 -29 7 -50 20 -64s31 -21 53 -21s40 7 53 21s20 35 20 64h48c0 -41 -11 -72 -33 -93c-23 -21 -52 -32 -88 -32z" />
    <glyph glyph-name="uni0331" unicode="&#x331;" horiz-adv-x="0" 
d="M-376 -104h253v-48h-253v48z" />
    <glyph glyph-name="anoteleia" unicode="&#x387;" 
d="M250 407h99v-105h-99v105z" />
    <glyph glyph-name="uni0394" unicode="&#x394;" 
d="M260 684h80l238 -642v-42h-556v42zM302 639h-4l-209 -587h422z" />
    <glyph glyph-name="uni03A9" unicode="&#x3a9;" 
d="M300 653c-35 0 -65 -7 -90 -21s-45 -33 -60 -56c-15 -24 -26 -52 -33 -83c-7 -32 -10 -66 -10 -101c0 -36 4 -71 11 -104s17 -64 30 -93s29 -54 48 -76c19 -23 40 -41 64 -55v-64h-227v55h158c-52 44 -89 93 -112 147s-35 113 -35 178c0 45 5 87 15 126s26 72 47 101
s47 51 80 68c32 16 70 24 114 24s82 -8 114 -24c32 -17 59 -39 80 -68s36 -62 47 -101c10 -39 15 -81 15 -126c0 -65 -11 -124 -34 -178s-61 -103 -113 -147h158v-55h-227v64c24 14 46 32 65 55c19 22 35 47 48 76s23 60 30 93s10 68 10 104c0 35 -3 69 -10 101
c-7 31 -19 59 -34 83c-15 23 -35 42 -59 56c-25 14 -55 21 -90 21z" />
    <glyph glyph-name="uni03BC" unicode="&#x3bc;" 
d="M101 524h57v-340c3 -44 16 -78 38 -101c21 -24 52 -36 92 -36c18 0 36 3 55 9c18 6 34 16 49 31c14 15 26 34 35 59s14 56 14 93v285h57v-524h-57v74c-18 -25 -40 -43 -65 -55c-25 -13 -53 -19 -83 -19c-25 0 -49 4 -73 13s-45 23 -62 42v-243h-57v712z" />
    <glyph glyph-name="pi" unicode="&#x3c0;" 
d="M131 475h-91v49h511v-49h-111v-302c0 -23 1 -42 3 -58c1 -17 5 -30 11 -41c5 -11 13 -19 23 -24s24 -8 41 -8c10 0 21 1 33 3v-45c-10 -1 -19 -2 -28 -3s-17 -2 -25 -2c-41 0 -70 11 -89 34c-19 22 -28 60 -28 115v331h-191v-475h-59v475z" />
    <glyph glyph-name="uni1E02" unicode="&#x1e02;" 
d="M103 724h184c31 0 60 -3 88 -8c27 -6 52 -16 73 -30c21 -15 37 -34 49 -58c12 -25 18 -55 18 -92c0 -36 -11 -69 -33 -99c-22 -31 -54 -52 -95 -63v-4c48 -8 85 -26 110 -55s38 -67 38 -115c0 -39 -7 -72 -20 -97c-14 -26 -32 -46 -55 -61s-49 -26 -78 -32
c-29 -7 -60 -10 -91 -10h-188v724zM291 48c57 0 100 11 131 34c30 23 45 62 45 118c0 20 -3 39 -8 57c-5 17 -15 33 -29 46c-15 13 -34 24 -59 32c-25 7 -57 11 -96 11h-112v-298h128zM275 394c25 0 49 3 71 8s41 13 57 24s29 26 38 44s14 40 14 66c0 48 -14 83 -41 106
s-71 34 -131 34h-120v-282h112zM255 802v104h80v-104h-80z" />
    <glyph glyph-name="uni1E03" unicode="&#x1e03;" 
d="M100 0v724h56v-285c19 32 43 56 71 72s59 24 93 24c31 0 60 -6 87 -17s50 -28 69 -51s33 -52 44 -86c11 -35 16 -75 16 -121c0 -47 -6 -88 -18 -122s-28 -62 -48 -84c-21 -22 -44 -38 -71 -49s-54 -16 -83 -16c-15 0 -31 2 -46 5c-16 3 -31 9 -46 17s-28 19 -40 32
c-13 13 -23 30 -32 49v-92h-52zM316 37c19 0 39 5 58 14s37 22 52 41c15 18 27 41 36 69s14 61 14 99s-4 71 -12 100c-9 28 -20 52 -34 71c-15 19 -32 33 -51 42c-20 9 -41 14 -63 14c-26 0 -49 -6 -69 -17s-37 -27 -50 -47c-13 -21 -23 -45 -30 -72c-7 -28 -11 -58 -11 -91
c0 -31 4 -59 11 -86s17 -51 30 -71c13 -21 30 -37 50 -48c20 -12 43 -18 69 -18zM282 620v104h80v-104h-80z" />
    <glyph glyph-name="uni1E0A" unicode="&#x1e0a;" 
d="M80 724h160c48 0 92 -7 131 -22s73 -38 101 -68s50 -67 65 -112s23 -98 23 -158c0 -55 -7 -105 -22 -150s-37 -84 -64 -115c-28 -32 -62 -56 -101 -73s-84 -26 -133 -26h-160v724zM240 48c41 0 77 8 109 23s59 37 81 65c21 27 38 60 49 99s17 82 17 129
c0 103 -22 181 -67 232s-108 76 -189 76h-100v-624h100zM244 802v104h80v-104h-80z" />
    <glyph glyph-name="uni1E0B" unicode="&#x1e0b;" 
d="M448 0v89c-20 -35 -44 -60 -73 -76s-61 -24 -95 -24c-31 0 -60 6 -87 17s-49 29 -68 52s-34 51 -45 86c-11 34 -16 74 -16 120c0 47 6 87 18 122c12 34 28 62 49 84c20 22 43 38 70 49s54 16 83 16c32 0 62 -7 89 -20c27 -14 51 -39 71 -75v284h56v-724h-52zM284 487
c-19 0 -39 -4 -58 -13s-36 -23 -51 -41c-15 -19 -28 -42 -37 -70s-14 -61 -14 -99s4 -71 13 -99c8 -29 19 -52 34 -71c14 -19 31 -34 51 -43c19 -9 40 -14 62 -14c25 0 48 6 67 17s36 26 50 45c13 19 24 42 31 69c7 26 11 55 12 86v19c-1 30 -5 58 -12 84s-18 49 -31 68
c-14 19 -31 35 -50 46s-42 16 -67 16zM236 620v104h80v-104h-80z" />
    <glyph glyph-name="uni1E0C" unicode="&#x1e0c;" 
d="M80 724h160c48 0 92 -7 131 -22s73 -38 101 -68s50 -67 65 -112s23 -98 23 -158c0 -55 -7 -105 -22 -150s-37 -84 -64 -115c-28 -32 -62 -56 -101 -73s-84 -26 -133 -26h-160v724zM240 48c41 0 77 8 109 23s59 37 81 65c21 27 38 60 49 99s17 82 17 129
c0 103 -22 181 -67 232s-108 76 -189 76h-100v-624h100zM239 -188v104h80v-104h-80z" />
    <glyph glyph-name="uni1E0D" unicode="&#x1e0d;" 
d="M448 0v89c-20 -35 -44 -60 -73 -76s-61 -24 -95 -24c-31 0 -60 6 -87 17s-49 29 -68 52s-34 51 -45 86c-11 34 -16 74 -16 120c0 47 6 87 18 122c12 34 28 62 49 84c20 22 43 38 70 49s54 16 83 16c32 0 62 -7 89 -20c27 -14 51 -39 71 -75v284h56v-724h-52zM284 487
c-19 0 -39 -4 -58 -13s-36 -23 -51 -41c-15 -19 -28 -42 -37 -70s-14 -61 -14 -99s4 -71 13 -99c8 -29 19 -52 34 -71c14 -19 31 -34 51 -43c19 -9 40 -14 62 -14c25 0 48 6 67 17s36 26 50 45c13 19 24 42 31 69c7 26 11 55 12 86v19c-1 30 -5 58 -12 84s-18 49 -31 68
c-14 19 -31 35 -50 46s-42 16 -67 16zM249 -188v104h80v-104h-80z" />
    <glyph glyph-name="uni1E0E" unicode="&#x1e0e;" 
d="M80 724h160c48 0 92 -7 131 -22s73 -38 101 -68s50 -67 65 -112s23 -98 23 -158c0 -55 -7 -105 -22 -150s-37 -84 -64 -115c-28 -32 -62 -56 -101 -73s-84 -26 -133 -26h-160v724zM240 48c41 0 77 8 109 23s59 37 81 65c21 27 38 60 49 99s17 82 17 129
c0 103 -22 181 -67 232s-108 76 -189 76h-100v-624h100zM126 -104h249v-48h-249v48z" />
    <glyph glyph-name="uni1E0F" unicode="&#x1e0f;" 
d="M448 0v89c-20 -35 -44 -60 -73 -76s-61 -24 -95 -24c-31 0 -60 6 -87 17s-49 29 -68 52s-34 51 -45 86c-11 34 -16 74 -16 120c0 47 6 87 18 122c12 34 28 62 49 84c20 22 43 38 70 49s54 16 83 16c32 0 62 -7 89 -20c27 -14 51 -39 71 -75v284h56v-724h-52zM284 487
c-19 0 -39 -4 -58 -13s-36 -23 -51 -41c-15 -19 -28 -42 -37 -70s-14 -61 -14 -99s4 -71 13 -99c8 -29 19 -52 34 -71c14 -19 31 -34 51 -43c19 -9 40 -14 62 -14c25 0 48 6 67 17s36 26 50 45c13 19 24 42 31 69c7 26 11 55 12 86v19c-1 30 -5 58 -12 84s-18 49 -31 68
c-14 19 -31 35 -50 46s-42 16 -67 16zM164 -104h253v-48h-253v48z" />
    <glyph glyph-name="uni1E10" unicode="&#x1e10;" 
d="M80 724h160c48 0 92 -7 131 -22s73 -38 101 -68s50 -67 65 -112s23 -98 23 -158c0 -55 -7 -105 -22 -150s-37 -84 -64 -115c-28 -32 -62 -56 -101 -73s-84 -26 -133 -26h-160v724zM240 48c41 0 77 8 109 23s59 37 81 65c21 27 38 60 49 99s17 82 17 129
c0 103 -22 181 -67 232s-108 76 -189 76h-100v-624h100zM243 -157h-32v88h80v-92l-46 -79h-33z" />
    <glyph glyph-name="uni1E11" unicode="&#x1e11;" 
d="M448 0v89c-20 -35 -44 -60 -73 -76s-61 -24 -95 -24c-31 0 -60 6 -87 17s-49 29 -68 52s-34 51 -45 86c-11 34 -16 74 -16 120c0 47 6 87 18 122c12 34 28 62 49 84c20 22 43 38 70 49s54 16 83 16c32 0 62 -7 89 -20c27 -14 51 -39 71 -75v284h56v-724h-52zM284 487
c-19 0 -39 -4 -58 -13s-36 -23 -51 -41c-15 -19 -28 -42 -37 -70s-14 -61 -14 -99s4 -71 13 -99c8 -29 19 -52 34 -71c14 -19 31 -34 51 -43c19 -9 40 -14 62 -14c25 0 48 6 67 17s36 26 50 45c13 19 24 42 31 69c7 26 11 55 12 86v19c-1 30 -5 58 -12 84s-18 49 -31 68
c-14 19 -31 35 -50 46s-42 16 -67 16zM283 -157h-32v88h80v-92l-46 -79h-33z" />
    <glyph glyph-name="uni1E1E" unicode="&#x1e1e;" 
d="M137 0v724h384v-52h-324v-286h308v-52h-308v-334h-60zM290 802v104h80v-104h-80z" />
    <glyph glyph-name="uni1E1F" unicode="&#x1e1f;" 
d="M258 501v43c0 66 15 114 46 144c30 29 72 44 126 44c12 0 24 0 35 -1s24 -4 37 -7v-48c-13 2 -24 4 -35 6c-11 1 -22 2 -33 2c-19 0 -35 -2 -50 -6c-15 -5 -28 -12 -38 -23c-11 -11 -19 -26 -24 -44s-8 -40 -8 -67v-43h180v-48h-180v-453h-56v453h-164v48h164zM344 802
v104h80v-104h-80z" />
    <glyph glyph-name="uni1E20" unicode="&#x1e20;" 
d="M470 527c-9 49 -27 87 -53 115c-26 27 -59 41 -99 41c-31 0 -58 -7 -82 -22c-25 -15 -45 -37 -62 -64c-17 -28 -29 -62 -38 -102s-14 -85 -14 -135c0 -45 4 -88 12 -127c7 -40 19 -75 34 -104s34 -53 57 -70c22 -17 48 -26 77 -26c21 0 41 5 62 16c20 11 38 26 55 47
c16 21 29 46 40 77c10 30 15 64 15 103v48h-148v52h204v-376h-48l-12 88c-8 -17 -18 -32 -31 -45s-26 -23 -41 -32s-31 -15 -47 -19c-17 -5 -33 -7 -49 -7c-39 0 -74 9 -104 27c-31 17 -56 42 -77 75s-36 72 -47 118s-16 98 -16 155s6 108 18 155c11 47 28 87 51 120
c22 33 49 59 82 77c32 18 68 27 109 27c59 0 106 -18 143 -54c37 -37 61 -89 73 -158h-64zM195 874h249v-48h-249v48z" />
    <glyph glyph-name="uni1E21" unicode="&#x1e21;" 
d="M446 128c-19 -32 -44 -57 -73 -74s-61 -26 -95 -26c-63 0 -114 22 -151 66c-38 43 -57 107 -57 190c0 42 6 79 17 111c11 31 27 57 46 78s42 36 68 47c25 10 52 15 81 15c31 0 62 -7 92 -20c29 -14 53 -39 72 -75v84h52v-448c0 -45 -3 -85 -10 -118s-19 -61 -35 -82
c-17 -22 -38 -38 -65 -48c-27 -11 -59 -16 -98 -16c-56 0 -101 12 -136 37s-55 63 -60 115h60c6 -38 21 -65 46 -82s55 -26 90 -26c23 0 44 3 63 10c19 6 36 17 50 33c13 16 24 38 32 65c7 27 11 62 11 104v60zM282 487c-19 0 -38 -4 -56 -13c-19 -9 -35 -21 -49 -38
s-25 -39 -34 -64s-13 -55 -13 -88c0 -67 14 -118 43 -154c28 -36 64 -54 109 -54c26 0 49 5 69 16c20 10 37 24 50 43s24 41 31 66s10 53 10 83c0 28 -3 54 -10 79s-18 46 -31 65c-13 18 -30 32 -50 43s-43 16 -69 16zM181 699h253v-48h-253v48z" />
    <glyph glyph-name="uni1E22" unicode="&#x1e22;" 
d="M524 0h-60v344h-328v-344h-60v724h60v-328h328v328h60v-724zM260 802v104h80v-104h-80z" />
    <glyph glyph-name="uni1E23" unicode="&#x1e23;" 
d="M161 448c8 15 18 28 31 39s27 20 43 28c15 7 31 13 48 17c16 3 31 5 46 5c53 0 95 -17 126 -50c31 -34 46 -87 46 -159v-328h-56v324c0 23 -2 44 -6 65c-5 20 -12 37 -21 52c-10 15 -23 26 -38 35c-16 9 -36 13 -59 13c-19 0 -37 -4 -56 -11s-35 -18 -50 -33
s-28 -34 -38 -56c-10 -23 -15 -49 -16 -80v-309h-56v724h56v-276zM276 620v104h80v-104h-80z" />
    <glyph glyph-name="uni1E24" unicode="&#x1e24;" 
d="M524 0h-60v344h-328v-344h-60v724h60v-328h328v328h60v-724zM258 -188v104h80v-104h-80z" />
    <glyph glyph-name="uni1E25" unicode="&#x1e25;" 
d="M161 448c8 15 18 28 31 39s27 20 43 28c15 7 31 13 48 17c16 3 31 5 46 5c53 0 95 -17 126 -50c31 -34 46 -87 46 -159v-328h-56v324c0 23 -2 44 -6 65c-5 20 -12 37 -21 52c-10 15 -23 26 -38 35c-16 9 -36 13 -59 13c-19 0 -37 -4 -56 -11s-35 -18 -50 -33
s-28 -34 -38 -56c-10 -23 -15 -49 -16 -80v-309h-56v724h56v-276zM262 -188v104h80v-104h-80z" />
    <glyph glyph-name="uni1E2A" unicode="&#x1e2a;" 
d="M524 0h-60v344h-328v-344h-60v724h60v-328h328v328h60v-724zM300 -189c-39 0 -69 11 -91 34s-33 53 -33 91h48c1 -26 8 -46 21 -61s31 -23 55 -23s42 8 55 23c12 15 19 35 20 61h50c-1 -38 -13 -68 -35 -91s-52 -34 -90 -34z" />
    <glyph glyph-name="uni1E2B" unicode="&#x1e2b;" 
d="M161 448c8 15 18 28 31 39s27 20 43 28c15 7 31 13 48 17c16 3 31 5 46 5c53 0 95 -17 126 -50c31 -34 46 -87 46 -159v-328h-56v324c0 23 -2 44 -6 65c-5 20 -12 37 -21 52c-10 15 -23 26 -38 35c-16 9 -36 13 -59 13c-19 0 -37 -4 -56 -11s-35 -18 -50 -33
s-28 -34 -38 -56c-10 -23 -15 -49 -16 -80v-309h-56v724h56v-276zM304 -189c-36 0 -65 11 -87 32c-23 21 -34 52 -34 93h48c0 -29 7 -50 20 -64s31 -21 53 -21s40 7 53 21s20 35 20 64h48c0 -41 -11 -72 -33 -93c-23 -21 -52 -32 -88 -32z" />
    <glyph glyph-name="uni1E36" unicode="&#x1e36;" 
d="M154 0v724h60v-672h328v-52h-388zM301 -188v104h80v-104h-80z" />
    <glyph glyph-name="uni1E37" unicode="&#x1e37;" 
d="M118 724h216v-676h160v-48h-376v48h160v628h-160v48zM265 -188v104h80v-104h-80z" />
    <glyph glyph-name="uni1E38" unicode="&#x1e38;" 
d="M154 0v724h60v-672h328v-52h-388zM305 -188v104h80v-104h-80zM61 874h249v-48h-249v48z" />
    <glyph glyph-name="uni1E39" unicode="&#x1e39;" 
d="M118 724h216v-676h160v-48h-376v48h160v628h-160v48zM265 -188v104h80v-104h-80zM181 874h249v-48h-249v48z" />
    <glyph glyph-name="uni1E3A" unicode="&#x1e3a;" 
d="M154 0v724h60v-672h328v-52h-388zM218 -104h249v-48h-249v48z" />
    <glyph glyph-name="uni1E3B" unicode="&#x1e3b;" 
d="M118 724h216v-676h160v-48h-376v48h160v628h-160v48zM180 -104h253v-48h-253v48z" />
    <glyph glyph-name="uni1E3E" unicode="&#x1e3e;" 
d="M306 139l151 585h76v-724h-56l2 595h-6l-153 -595h-40l-153 595h-6l2 -595h-56v724h80l151 -585h8zM362 906h78l-119 -110h-54z" />
    <glyph glyph-name="uni1E3F" unicode="&#x1e3f;" 
d="M116 0h-52v524h44v-64c7 24 21 43 41 56c19 13 40 19 63 19s44 -5 63 -16s33 -29 42 -54c9 21 24 38 45 51s41 19 62 19c16 0 31 -2 45 -7s26 -13 37 -24s19 -26 25 -44c6 -19 9 -41 9 -68v-392h-52v388c0 28 -6 52 -18 71c-13 19 -32 28 -58 28c-25 0 -45 -12 -60 -36
c-16 -25 -24 -60 -24 -106v-345h-52v388c0 28 -6 52 -18 71c-13 19 -32 28 -58 28c-25 0 -46 -12 -61 -37s-23 -62 -23 -110v-340zM356 724h75l-112 -123h-51z" />
    <glyph glyph-name="uni1E40" unicode="&#x1e40;" 
d="M306 139l151 585h76v-724h-56l2 595h-6l-153 -595h-40l-153 595h-6l2 -595h-56v724h80l151 -585h8zM260 802v104h80v-104h-80z" />
    <glyph glyph-name="uni1E41" unicode="&#x1e41;" 
d="M116 0h-52v524h44v-64c7 24 21 43 41 56c19 13 40 19 63 19s44 -5 63 -16s33 -29 42 -54c9 21 24 38 45 51s41 19 62 19c16 0 31 -2 45 -7s26 -13 37 -24s19 -26 25 -44c6 -19 9 -41 9 -68v-392h-52v388c0 28 -6 52 -18 71c-13 19 -32 28 -58 28c-25 0 -45 -12 -60 -36
c-16 -25 -24 -60 -24 -106v-345h-52v388c0 28 -6 52 -18 71c-13 19 -32 28 -58 28c-25 0 -46 -12 -61 -37s-23 -62 -23 -110v-340zM260 620v104h80v-104h-80z" />
    <glyph glyph-name="uni1E42" unicode="&#x1e42;" 
d="M306 139l151 585h76v-724h-56l2 595h-6l-153 -595h-40l-153 595h-6l2 -595h-56v724h80l151 -585h8zM259 -188v104h80v-104h-80z" />
    <glyph glyph-name="uni1E43" unicode="&#x1e43;" 
d="M116 0h-52v524h44v-64c7 24 21 43 41 56c19 13 40 19 63 19s44 -5 63 -16s33 -29 42 -54c9 21 24 38 45 51s41 19 62 19c16 0 31 -2 45 -7s26 -13 37 -24s19 -26 25 -44c6 -19 9 -41 9 -68v-392h-52v388c0 28 -6 52 -18 71c-13 19 -32 28 -58 28c-25 0 -45 -12 -60 -36
c-16 -25 -24 -60 -24 -106v-345h-52v388c0 28 -6 52 -18 71c-13 19 -32 28 -58 28c-25 0 -46 -12 -61 -37s-23 -62 -23 -110v-340zM261 -188v104h80v-104h-80z" />
    <glyph glyph-name="uni1E44" unicode="&#x1e44;" 
d="M464 724h60v-724h-72l-316 616h-4c1 -48 2 -94 3 -137c1 -44 1 -89 1 -135v-344h-60v724h72l316 -608h4c-1 48 -1 94 -2 138c-1 43 -2 88 -2 134v336zM260 802v104h80v-104h-80z" />
    <glyph glyph-name="uni1E45" unicode="&#x1e45;" 
d="M157 440c7 16 17 30 30 42s27 22 43 31c16 8 33 14 50 18s34 6 49 6c53 0 95 -17 126 -50c31 -34 46 -87 46 -159v-328h-56v324c0 23 -2 44 -6 65c-5 20 -12 37 -21 52c-10 15 -23 26 -38 35c-16 9 -36 13 -59 13c-19 0 -37 -4 -56 -11s-35 -18 -50 -33s-28 -34 -38 -56
c-10 -23 -15 -49 -16 -80v-309h-56v524h52v-84zM262 620v104h80v-104h-80z" />
    <glyph glyph-name="uni1E46" unicode="&#x1e46;" 
d="M464 724h60v-724h-72l-316 616h-4c1 -48 2 -94 3 -137c1 -44 1 -89 1 -135v-344h-60v724h72l316 -608h4c-1 48 -1 94 -2 138c-1 43 -2 88 -2 134v336zM259 -188v104h80v-104h-80z" />
    <glyph glyph-name="uni1E47" unicode="&#x1e47;" 
d="M157 440c7 16 17 30 30 42s27 22 43 31c16 8 33 14 50 18s34 6 49 6c53 0 95 -17 126 -50c31 -34 46 -87 46 -159v-328h-56v324c0 23 -2 44 -6 65c-5 20 -12 37 -21 52c-10 15 -23 26 -38 35c-16 9 -36 13 -59 13c-19 0 -37 -4 -56 -11s-35 -18 -50 -33s-28 -34 -38 -56
c-10 -23 -15 -49 -16 -80v-309h-56v524h52v-84zM262 -188v104h80v-104h-80z" />
    <glyph glyph-name="uni1E48" unicode="&#x1e48;" 
d="M464 724h60v-724h-72l-316 616h-4c1 -48 2 -94 3 -137c1 -44 1 -89 1 -135v-344h-60v724h72l316 -608h4c-1 48 -1 94 -2 138c-1 43 -2 88 -2 134v336zM176 -104h249v-48h-249v48z" />
    <glyph glyph-name="uni1E49" unicode="&#x1e49;" 
d="M157 440c7 16 17 30 30 42s27 22 43 31c16 8 33 14 50 18s34 6 49 6c53 0 95 -17 126 -50c31 -34 46 -87 46 -159v-328h-56v324c0 23 -2 44 -6 65c-5 20 -12 37 -21 52c-10 15 -23 26 -38 35c-16 9 -36 13 -59 13c-19 0 -37 -4 -56 -11s-35 -18 -50 -33s-28 -34 -38 -56
c-10 -23 -15 -49 -16 -80v-309h-56v524h52v-84zM175 -104h253v-48h-253v48z" />
    <glyph glyph-name="uni1E56" unicode="&#x1e56;" 
d="M117 0v724h174c31 0 63 -3 94 -9c31 -7 60 -18 85 -34c25 -17 45 -39 60 -68s23 -66 23 -111s-8 -82 -23 -111s-35 -51 -60 -67c-25 -17 -54 -28 -85 -34c-31 -7 -63 -10 -94 -10h-114v-280h-60zM289 332c25 0 49 2 73 7s45 13 64 26s34 30 46 52c11 22 17 50 17 85
s-6 63 -17 85c-12 22 -27 39 -46 52s-40 21 -64 26s-48 7 -73 7h-112v-340h112zM293 802v104h80v-104h-80z" />
    <glyph glyph-name="uni1E57" unicode="&#x1e57;" 
d="M152 524v-89c18 33 42 58 72 75s62 25 96 25c31 0 60 -6 87 -17s50 -28 69 -51s33 -52 44 -86c11 -35 16 -75 16 -121c0 -47 -6 -88 -18 -122s-28 -62 -48 -84c-21 -22 -44 -38 -71 -49s-54 -16 -83 -16c-15 0 -31 2 -46 5c-16 3 -31 9 -45 16s-27 17 -39 30
s-22 29 -30 48v-276h-56v712h52zM316 37c19 0 39 5 58 14s37 22 52 41c15 18 27 41 36 69s14 61 14 99s-4 71 -12 100c-9 28 -20 52 -34 71c-15 19 -32 33 -51 42c-20 9 -41 14 -63 14c-25 0 -48 -5 -67 -16c-20 -11 -37 -27 -50 -46c-14 -19 -24 -42 -31 -69
s-11 -56 -12 -87v-9c0 -31 4 -59 11 -86s17 -51 30 -71c13 -21 30 -37 50 -48c20 -12 43 -18 69 -18zM282 620v104h80v-104h-80z" />
    <glyph glyph-name="uni1E5A" unicode="&#x1e5a;" 
d="M108 724h172c81 0 140 -17 179 -50c38 -33 57 -83 57 -150c0 -43 -13 -81 -38 -114s-62 -55 -110 -66v-4c19 -1 34 -5 47 -12s23 -15 31 -25c8 -11 14 -22 19 -34c5 -13 9 -25 12 -37l65 -232h-68l-55 206c-6 22 -12 40 -18 53c-7 13 -15 24 -26 32c-11 7 -24 12 -40 15
c-17 3 -38 4 -63 4h-104v-310h-60v724zM272 362c26 0 50 4 73 12s42 19 59 33c16 14 29 31 38 51s14 42 14 66c0 22 -3 42 -9 60s-16 34 -30 47s-32 23 -55 30s-52 11 -86 11h-108v-310h104zM267 -188v104h80v-104h-80z" />
    <glyph glyph-name="uni1E5B" unicode="&#x1e5b;" 
d="M476 348c-1 20 -4 38 -9 55s-12 31 -21 44s-21 23 -36 30s-33 10 -54 10c-17 0 -35 -4 -52 -11c-18 -8 -34 -20 -48 -35c-14 -16 -25 -36 -34 -59c-9 -24 -14 -52 -14 -83v-299h-56v524h52v-84c7 15 16 28 28 40s25 22 39 30s29 14 45 19c15 4 30 6 44 6
c54 0 96 -15 125 -44s44 -77 47 -143h-56zM139 -188v104h80v-104h-80z" />
    <glyph glyph-name="uni1E5C" unicode="&#x1e5c;" 
d="M108 724h172c81 0 140 -17 179 -50c38 -33 57 -83 57 -150c0 -43 -13 -81 -38 -114s-62 -55 -110 -66v-4c19 -1 34 -5 47 -12s23 -15 31 -25c8 -11 14 -22 19 -34c5 -13 9 -25 12 -37l65 -232h-68l-55 206c-6 22 -12 40 -18 53c-7 13 -15 24 -26 32c-11 7 -24 12 -40 15
c-17 3 -38 4 -63 4h-104v-310h-60v724zM272 362c26 0 50 4 73 12s42 19 59 33c16 14 29 31 38 51s14 42 14 66c0 22 -3 42 -9 60s-16 34 -30 47s-32 23 -55 30s-52 11 -86 11h-108v-310h104zM267 -188v104h80v-104h-80zM170 874h249v-48h-249v48z" />
    <glyph glyph-name="uni1E5D" unicode="&#x1e5d;" 
d="M476 348c-1 20 -4 38 -9 55s-12 31 -21 44s-21 23 -36 30s-33 10 -54 10c-17 0 -35 -4 -52 -11c-18 -8 -34 -20 -48 -35c-14 -16 -25 -36 -34 -59c-9 -24 -14 -52 -14 -83v-299h-56v524h52v-84c7 15 16 28 28 40s25 22 39 30s29 14 45 19c15 4 30 6 44 6
c54 0 96 -15 125 -44s44 -77 47 -143h-56zM139 -188v104h80v-104h-80zM223 699h253v-48h-253v48z" />
    <glyph glyph-name="uni1E5E" unicode="&#x1e5e;" 
d="M108 724h172c81 0 140 -17 179 -50c38 -33 57 -83 57 -150c0 -43 -13 -81 -38 -114s-62 -55 -110 -66v-4c19 -1 34 -5 47 -12s23 -15 31 -25c8 -11 14 -22 19 -34c5 -13 9 -25 12 -37l65 -232h-68l-55 206c-6 22 -12 40 -18 53c-7 13 -15 24 -26 32c-11 7 -24 12 -40 15
c-17 3 -38 4 -63 4h-104v-310h-60v724zM272 362c26 0 50 4 73 12s42 19 59 33c16 14 29 31 38 51s14 42 14 66c0 22 -3 42 -9 60s-16 34 -30 47s-32 23 -55 30s-52 11 -86 11h-108v-310h104zM184 -104h249v-48h-249v48z" />
    <glyph glyph-name="uni1E5F" unicode="&#x1e5f;" 
d="M476 348c-1 20 -4 38 -9 55s-12 31 -21 44s-21 23 -36 30s-33 10 -54 10c-17 0 -35 -4 -52 -11c-18 -8 -34 -20 -48 -35c-14 -16 -25 -36 -34 -59c-9 -24 -14 -52 -14 -83v-299h-56v524h52v-84c7 15 16 28 28 40s25 22 39 30s29 14 45 19c15 4 30 6 44 6
c54 0 96 -15 125 -44s44 -77 47 -143h-56zM54 -104h253v-48h-253v48z" />
    <glyph glyph-name="uni1E60" unicode="&#x1e60;" 
d="M261 352c-23 7 -46 15 -67 26c-21 10 -40 23 -56 39s-29 35 -38 57c-10 22 -15 48 -15 78c0 27 5 52 15 75s24 42 43 59s41 30 67 39s55 14 87 14c33 0 63 -5 90 -15s51 -24 70 -43s33 -42 44 -69s16 -58 16 -92h-60c-1 29 -7 54 -16 76c-9 21 -21 39 -36 53
s-32 25 -51 32s-38 10 -57 10c-20 0 -39 -3 -57 -9c-19 -6 -35 -15 -49 -26c-14 -12 -25 -27 -33 -44c-9 -17 -13 -37 -13 -60c0 -21 4 -40 11 -55c7 -16 18 -30 31 -42s29 -22 47 -31s38 -16 59 -22l52 -15c25 -7 49 -16 72 -27c22 -11 41 -24 58 -40c17 -17 30 -37 40 -60
c9 -23 14 -51 14 -84c0 -27 -5 -52 -15 -75c-11 -23 -26 -44 -45 -61s-43 -31 -70 -40c-28 -10 -59 -15 -94 -15c-75 0 -133 21 -174 62s-62 100 -62 177h60c0 -61 16 -108 48 -141c31 -33 74 -50 128 -50c24 0 46 4 66 11s37 18 52 31c14 13 25 28 34 45c8 17 12 36 12 56
c0 23 -3 43 -10 60s-17 31 -30 44s-30 24 -49 33c-20 9 -42 17 -67 24zM261 802v104h80v-104h-80z" />
    <glyph glyph-name="uni1E61" unicode="&#x1e61;" 
d="M310 -15c-69 0 -121 15 -156 44c-36 29 -54 70 -55 123h60c0 -41 13 -71 40 -90c26 -19 63 -29 111 -29c41 0 74 9 98 28s36 44 36 75c0 23 -8 41 -24 54c-17 13 -37 23 -62 31c-25 7 -52 14 -81 21s-55 16 -80 27s-46 27 -62 47c-17 19 -25 46 -25 80c0 19 4 37 13 54
s21 33 38 46s37 24 61 32c23 7 50 11 80 11c58 0 103 -14 135 -42c32 -29 48 -68 49 -118h-56c-1 37 -13 65 -37 84s-56 28 -95 28s-70 -8 -93 -23c-24 -16 -36 -40 -36 -72c0 -25 8 -45 25 -58c16 -13 36 -24 61 -32s52 -15 81 -21s55 -14 80 -25s45 -25 62 -44
c16 -19 24 -46 24 -80c0 -23 -5 -44 -14 -63s-22 -34 -39 -47s-38 -23 -61 -30s-49 -11 -78 -11zM261 620v104h80v-104h-80z" />
    <glyph glyph-name="uni1E62" unicode="&#x1e62;" 
d="M261 352c-23 7 -46 15 -67 26c-21 10 -40 23 -56 39s-29 35 -38 57c-10 22 -15 48 -15 78c0 27 5 52 15 75s24 42 43 59s41 30 67 39s55 14 87 14c33 0 63 -5 90 -15s51 -24 70 -43s33 -42 44 -69s16 -58 16 -92h-60c-1 29 -7 54 -16 76c-9 21 -21 39 -36 53
s-32 25 -51 32s-38 10 -57 10c-20 0 -39 -3 -57 -9c-19 -6 -35 -15 -49 -26c-14 -12 -25 -27 -33 -44c-9 -17 -13 -37 -13 -60c0 -21 4 -40 11 -55c7 -16 18 -30 31 -42s29 -22 47 -31s38 -16 59 -22l52 -15c25 -7 49 -16 72 -27c22 -11 41 -24 58 -40c17 -17 30 -37 40 -60
c9 -23 14 -51 14 -84c0 -27 -5 -52 -15 -75c-11 -23 -26 -44 -45 -61s-43 -31 -70 -40c-28 -10 -59 -15 -94 -15c-75 0 -133 21 -174 62s-62 100 -62 177h60c0 -61 16 -108 48 -141c31 -33 74 -50 128 -50c24 0 46 4 66 11s37 18 52 31c14 13 25 28 34 45c8 17 12 36 12 56
c0 23 -3 43 -10 60s-17 31 -30 44s-30 24 -49 33c-20 9 -42 17 -67 24zM255 -188v104h80v-104h-80z" />
    <glyph glyph-name="uni1E63" unicode="&#x1e63;" 
d="M310 -15c-69 0 -121 15 -156 44c-36 29 -54 70 -55 123h60c0 -41 13 -71 40 -90c26 -19 63 -29 111 -29c41 0 74 9 98 28s36 44 36 75c0 23 -8 41 -24 54c-17 13 -37 23 -62 31c-25 7 -52 14 -81 21s-55 16 -80 27s-46 27 -62 47c-17 19 -25 46 -25 80c0 19 4 37 13 54
s21 33 38 46s37 24 61 32c23 7 50 11 80 11c58 0 103 -14 135 -42c32 -29 48 -68 49 -118h-56c-1 37 -13 65 -37 84s-56 28 -95 28s-70 -8 -93 -23c-24 -16 -36 -40 -36 -72c0 -25 8 -45 25 -58c16 -13 36 -24 61 -32s52 -15 81 -21s55 -14 80 -25s45 -25 62 -44
c16 -19 24 -46 24 -80c0 -23 -5 -44 -14 -63s-22 -34 -39 -47s-38 -23 -61 -30s-49 -11 -78 -11zM251 -188v104h80v-104h-80z" />
    <glyph glyph-name="uni1E6A" unicode="&#x1e6a;" 
d="M268 0v672h-220v52h504v-52h-224v-672h-60zM260 802v104h80v-104h-80z" />
    <glyph glyph-name="uni1E6B" unicode="&#x1e6b;" 
d="M298 453v-277c0 -27 3 -49 9 -66s14 -31 24 -41c10 -11 22 -18 36 -22c14 -5 29 -7 45 -7c12 0 25 1 38 2s26 3 40 6v-48c-31 -5 -59 -8 -84 -8c-24 0 -46 3 -66 9c-20 5 -37 15 -52 29s-26 33 -34 56s-12 51 -12 86v281h-156v48h156v167h56v-167h180v-48h-180zM229 746
v104h80v-104h-80z" />
    <glyph glyph-name="uni1E6C" unicode="&#x1e6c;" 
d="M268 0v672h-220v52h504v-52h-224v-672h-60zM258 -188v104h80v-104h-80z" />
    <glyph glyph-name="uni1E6D" unicode="&#x1e6d;" 
d="M298 453v-277c0 -27 3 -49 9 -66s14 -31 24 -41c10 -11 22 -18 36 -22c14 -5 29 -7 45 -7c12 0 25 1 38 2s26 3 40 6v-48c-31 -5 -59 -8 -84 -8c-24 0 -46 3 -66 9c-20 5 -37 15 -52 29s-26 33 -34 56s-12 51 -12 86v281h-156v48h156v167h56v-167h180v-48h-180zM313 -188
v104h80v-104h-80z" />
    <glyph glyph-name="uni1E6E" unicode="&#x1e6e;" 
d="M268 0v672h-220v52h504v-52h-224v-672h-60zM175 -104h249v-48h-249v48z" />
    <glyph glyph-name="uni1E6F" unicode="&#x1e6f;" 
d="M298 453v-277c0 -27 3 -49 9 -66s14 -31 24 -41c10 -11 22 -18 36 -22c14 -5 29 -7 45 -7c12 0 25 1 38 2s26 3 40 6v-48c-31 -5 -59 -8 -84 -8c-24 0 -46 3 -66 9c-20 5 -37 15 -52 29s-26 33 -34 56s-12 51 -12 86v281h-156v48h156v167h56v-167h180v-48h-180zM239 -104
h253v-48h-253v48z" />
    <glyph glyph-name="uni1E7C" unicode="&#x1e7c;" 
d="M263 0l-232 724h68l200 -644h4l204 644h60l-228 -724h-76zM364 806c-11 0 -23 3 -34 8s-22 10 -33 16c-11 5 -22 11 -32 16c-11 5 -20 7 -29 7c-10 0 -19 -3 -26 -10c-8 -7 -14 -19 -19 -36h-39c5 34 15 58 30 73s33 22 53 22c12 0 24 -2 36 -7c11 -5 23 -11 34 -16
c11 -6 21 -11 31 -16c9 -5 18 -8 27 -8c10 0 19 3 27 10c7 7 13 19 17 36h40c-5 -34 -15 -58 -30 -73s-33 -22 -53 -22z" />
    <glyph glyph-name="uni1E7D" unicode="&#x1e7d;" 
d="M266 0l-196 524h68l104 -296c9 -26 19 -51 28 -76s18 -51 28 -76h8c21 51 39 100 56 148l104 300h64l-196 -524h-68zM367 624c-11 0 -23 3 -34 8s-22 10 -33 16c-11 5 -21 11 -31 16s-19 7 -28 7c-10 0 -19 -3 -26 -10c-8 -7 -14 -19 -19 -36h-39c5 34 15 58 30 73
s33 22 53 22c12 0 24 -2 35 -7s22 -11 33 -16c11 -6 21 -11 31 -16s19 -8 27 -8c10 0 19 3 27 10c7 7 13 19 17 36h40c-5 -34 -15 -58 -30 -73s-33 -22 -53 -22z" />
    <glyph glyph-name="Wgrave" unicode="&#x1e80;" 
d="M402 0l-100 588h-4l-100 -588h-82l-92 724h62l76 -624h4l107 624h58l107 -624h4l76 624h58l-92 -724h-82zM278 796l-119 110h78l95 -110h-54z" />
    <glyph glyph-name="wgrave" unicode="&#x1e81;" 
d="M18 524h56l93 -424h8l100 424h54l100 -424h8l93 424h52l-116 -524h-70l-92 394h-8l-92 -394h-70zM163 724h75l88 -123h-52z" />
    <glyph glyph-name="Wacute" unicode="&#x1e82;" 
d="M402 0l-100 588h-4l-100 -588h-82l-92 724h62l76 -624h4l107 624h58l107 -624h4l76 624h58l-92 -724h-82zM362 906h78l-119 -110h-54z" />
    <glyph glyph-name="wacute" unicode="&#x1e83;" 
d="M18 524h56l93 -424h8l100 424h54l100 -424h8l93 424h52l-116 -524h-70l-92 394h-8l-92 -394h-70zM353 724h75l-112 -123h-51z" />
    <glyph glyph-name="Wdieresis" unicode="&#x1e84;" 
d="M402 0l-100 588h-4l-100 -588h-82l-92 724h62l76 -624h4l107 624h58l107 -624h4l76 624h58l-92 -724h-82zM236 899v-91h-73v91h73zM437 899v-91h-73v91h73z" />
    <glyph glyph-name="wdieresis" unicode="&#x1e85;" 
d="M18 524h56l93 -424h8l100 424h54l100 -424h8l93 424h52l-116 -524h-70l-92 394h-8l-92 -394h-70zM240 717v-91h-73v91h73zM430 717v-91h-73v91h73z" />
    <glyph glyph-name="uni1E8A" unicode="&#x1e8a;" 
d="M38 0l230 371l-218 353h68l183 -299l185 299h64l-218 -349l230 -375h-64l-199 322l-201 -322h-60zM261 802v104h80v-104h-80z" />
    <glyph glyph-name="uni1E8B" unicode="&#x1e8b;" 
d="M335 268l199 -268h-72l-163 220l-165 -220h-68l199 266l-191 258h72l155 -210l157 210h68zM258 620v104h80v-104h-80z" />
    <glyph glyph-name="uni1E92" unicode="&#x1e92;" 
d="M71 0v56l378 616h-370v52h440v-52l-378 -620h398v-52h-468zM264 -188v104h80v-104h-80z" />
    <glyph glyph-name="uni1E93" unicode="&#x1e93;" 
d="M103 0v50l317 424h-305v50h372v-50l-317 -424h329v-50h-396zM260 -188v104h80v-104h-80z" />
    <glyph glyph-name="uni1E97" unicode="&#x1e97;" 
d="M298 453v-277c0 -27 3 -49 9 -66s14 -31 24 -41c10 -11 22 -18 36 -22c14 -5 29 -7 45 -7c12 0 25 1 38 2s26 3 40 6v-48c-31 -5 -59 -8 -84 -8c-24 0 -46 3 -66 9c-20 5 -37 15 -52 29s-26 33 -34 56s-12 51 -12 86v281h-156v48h156v167h56v-167h180v-48h-180zM234 844
v-91h-73v91h73zM380 844v-91h-73v91h73z" />
    <glyph glyph-name="uni1E9E" unicode="&#x1e9e;" 
d="M380 673h-260v-673h-60v726h445v-49h-1c-30 -9 -56 -18 -78 -26c-23 -9 -41 -20 -56 -31c-15 -12 -27 -26 -34 -41c-7 -16 -11 -34 -11 -55c0 -19 3 -35 10 -49s16 -27 27 -38s25 -22 40 -31s30 -19 46 -28c19 -11 37 -22 56 -34s36 -26 51 -42s27 -35 36 -56
s14 -46 14 -75c0 -25 -5 -48 -14 -70c-10 -22 -24 -41 -41 -58c-18 -17 -39 -30 -64 -39c-25 -10 -53 -15 -83 -15c-67 0 -118 17 -152 51s-52 80 -54 138h57c1 -43 15 -76 40 -101s61 -38 109 -38c20 0 39 3 56 10c17 6 32 15 45 26s23 25 30 41s11 34 11 53
c0 23 -4 42 -11 59c-8 17 -18 31 -31 44s-28 24 -45 35l-51 30c-18 10 -35 21 -52 32s-33 23 -46 38c-14 14 -25 31 -33 50s-12 41 -12 67c0 19 3 37 10 53s16 30 27 42s23 22 37 31c14 8 28 14 42 19v4z" />
    <glyph glyph-name="uni1EA0" unicode="&#x1ea0;" 
d="M439 228h-279l-74 -228h-64l244 724h68l244 -724h-64zM177 280h245l-120 368h-4zM259 -188v104h80v-104h-80z" />
    <glyph glyph-name="uni1EA1" unicode="&#x1ea1;" 
d="M91 132c0 33 8 60 24 81s39 39 68 52s64 22 105 29c41 6 86 10 135 12v45c0 45 -10 79 -30 104c-20 24 -51 36 -94 36c-19 0 -36 -2 -52 -7s-30 -13 -42 -23s-21 -22 -28 -37s-10 -33 -10 -53h-56c0 25 5 48 14 69s22 38 39 53s37 26 60 34s48 12 75 12
c63 0 109 -16 138 -49c28 -33 42 -79 42 -136v-198c0 -27 1 -53 4 -78c2 -25 6 -51 12 -78h-56c-3 11 -6 24 -8 38c-3 13 -4 26 -4 38c-20 -32 -45 -54 -75 -67s-60 -20 -89 -20c-53 0 -94 12 -125 37s-47 60 -47 106zM271 33c27 0 50 5 69 15c19 9 35 23 48 40
c12 17 21 38 27 62c5 23 8 49 8 78v35c-42 -2 -80 -5 -113 -10s-62 -12 -85 -22c-24 -10 -42 -23 -55 -39s-19 -36 -19 -60c0 -33 12 -57 35 -74s51 -25 85 -25zM244 -188v104h80v-104h-80z" />
    <glyph glyph-name="uni1EB8" unicode="&#x1eb8;" 
d="M129 0v724h372v-52h-312v-274h296v-52h-296v-294h328v-52h-388zM286 -188v104h80v-104h-80z" />
    <glyph glyph-name="uni1EB9" unicode="&#x1eb9;" 
d="M520 256h-380c0 -33 4 -64 13 -91c8 -27 20 -51 35 -70s32 -34 53 -45c20 -11 42 -17 67 -17c34 0 64 11 89 32s44 47 55 79h60c-13 -50 -38 -89 -74 -117c-37 -28 -80 -42 -130 -42c-34 0 -65 6 -93 18s-52 30 -72 54c-20 23 -35 52 -46 86s-17 73 -17 117
c0 40 5 77 16 111s26 64 45 89s43 44 71 58c27 14 58 21 92 21c66 0 119 -22 158 -67s58 -112 58 -200v-16zM304 491c-22 0 -42 -5 -60 -14c-19 -10 -35 -23 -48 -40c-14 -17 -25 -37 -34 -60s-16 -47 -19 -73h316c-5 59 -20 105 -46 138c-27 33 -63 49 -109 49zM263 -188
v104h80v-104h-80z" />
    <glyph glyph-name="uni1EBC" unicode="&#x1ebc;" 
d="M129 0v724h372v-52h-312v-274h296v-52h-296v-294h328v-52h-388zM388 806c-11 0 -23 3 -34 8s-22 10 -33 16c-11 5 -22 11 -32 16c-11 5 -20 7 -29 7c-10 0 -19 -3 -26 -10c-8 -7 -14 -19 -19 -36h-39c5 34 15 58 30 73s33 22 53 22c12 0 24 -2 36 -7c11 -5 23 -11 34 -16
c11 -6 21 -11 31 -16c9 -5 18 -8 27 -8c10 0 19 3 27 10c7 7 13 19 17 36h40c-5 -34 -15 -58 -30 -73s-33 -22 -53 -22z" />
    <glyph glyph-name="uni1EBD" unicode="&#x1ebd;" 
d="M520 256h-380c0 -33 4 -64 13 -91c8 -27 20 -51 35 -70s32 -34 53 -45c20 -11 42 -17 67 -17c34 0 64 11 89 32s44 47 55 79h60c-13 -50 -38 -89 -74 -117c-37 -28 -80 -42 -130 -42c-34 0 -65 6 -93 18s-52 30 -72 54c-20 23 -35 52 -46 86s-17 73 -17 117
c0 40 5 77 16 111s26 64 45 89s43 44 71 58c27 14 58 21 92 21c66 0 119 -22 158 -67s58 -112 58 -200v-16zM304 491c-22 0 -42 -5 -60 -14c-19 -10 -35 -23 -48 -40c-14 -17 -25 -37 -34 -60s-16 -47 -19 -73h316c-5 59 -20 105 -46 138c-27 33 -63 49 -109 49zM371 624
c-11 0 -23 3 -34 8s-22 10 -33 16c-11 5 -21 11 -31 16s-19 7 -28 7c-10 0 -19 -3 -26 -10c-8 -7 -14 -19 -19 -36h-39c5 34 15 58 30 73s33 22 53 22c12 0 24 -2 35 -7s22 -11 33 -16c11 -6 21 -11 31 -16s19 -8 27 -8c10 0 19 3 27 10c7 7 13 19 17 36h40
c-5 -34 -15 -58 -30 -73s-33 -22 -53 -22z" />
    <glyph glyph-name="uni1ECA" unicode="&#x1eca;" 
d="M104 724h392v-52h-166v-620h166v-52h-392v52h166v620h-166v52zM259 -188v104h80v-104h-80z" />
    <glyph glyph-name="uni1ECB" unicode="&#x1ecb;" 
d="M137 501h216v-453h160v-48h-376v48h160v405h-160v48zM281 620v104h80v-104h-80zM284 -188v104h80v-104h-80z" />
    <glyph glyph-name="uni1ECC" unicode="&#x1ecc;" 
d="M300 37c30 0 57 8 80 24c23 15 43 37 59 66s28 63 37 103c8 39 12 83 12 131s-4 92 -12 132c-9 40 -21 74 -37 103s-36 51 -59 67s-50 24 -80 24s-57 -8 -80 -24s-43 -38 -59 -67s-28 -63 -36 -103c-9 -40 -13 -84 -13 -132s4 -92 13 -131c8 -40 20 -74 36 -103
s36 -51 59 -66c23 -16 50 -24 80 -24zM300 -15c-40 0 -76 9 -107 27c-31 17 -58 43 -79 76s-38 72 -49 118s-17 98 -17 155s6 108 17 155s28 87 49 120s48 58 79 76s67 27 107 27s76 -9 107 -27s58 -43 79 -76s38 -73 49 -120s17 -98 17 -155s-6 -109 -17 -155
s-28 -85 -49 -118s-48 -59 -79 -76c-31 -18 -67 -27 -107 -27zM259 -188v104h80v-104h-80z" />
    <glyph glyph-name="uni1ECD" unicode="&#x1ecd;" 
d="M300 33c27 0 50 6 71 18c20 12 37 28 51 49s25 45 32 73s10 58 10 91s-4 63 -11 91c-8 27 -19 51 -33 72c-14 20 -31 36 -51 47c-21 11 -44 17 -69 17c-27 0 -50 -6 -70 -18c-21 -12 -38 -28 -52 -49s-24 -45 -31 -73s-11 -58 -11 -91s4 -63 12 -90c7 -28 18 -52 32 -72
c14 -21 31 -37 52 -48c20 -11 43 -17 68 -17zM300 -15c-35 0 -66 7 -93 20c-28 13 -52 31 -71 55c-19 23 -34 52 -44 86c-11 34 -16 72 -16 114s5 80 16 115c10 34 25 63 44 88c19 24 43 43 71 56c27 13 58 20 93 20c34 0 65 -6 93 -19c27 -13 51 -32 71 -55
c19 -24 34 -53 45 -87c10 -34 15 -72 15 -114s-5 -80 -16 -114c-11 -35 -26 -64 -45 -88c-19 -25 -43 -44 -70 -57c-28 -13 -59 -20 -93 -20zM258 -188v104h80v-104h-80z" />
    <glyph glyph-name="uni1EE4" unicode="&#x1ee4;" 
d="M300 -15c-43 0 -79 6 -108 18s-53 30 -70 54c-18 23 -31 52 -38 86c-8 34 -12 73 -12 117v464h60v-460c0 -75 13 -132 38 -170s68 -57 130 -57s106 18 131 55s37 93 37 168v464h60v-460c0 -44 -4 -83 -11 -118c-8 -35 -21 -64 -38 -87c-18 -24 -42 -42 -71 -55
s-65 -19 -108 -19zM259 -188v104h80v-104h-80z" />
    <glyph glyph-name="uni1EE5" unicode="&#x1ee5;" 
d="M439 524h56v-524h-52v84c-7 -16 -17 -30 -30 -42s-27 -22 -43 -30c-16 -9 -33 -15 -50 -19s-34 -6 -49 -6c-53 0 -95 17 -126 51c-31 33 -46 86 -46 158v328h56v-324c0 -23 2 -45 7 -65c4 -20 11 -37 21 -52c9 -15 22 -26 38 -35c15 -9 35 -13 58 -13c19 0 38 4 57 12
c19 7 37 19 52 35c15 15 27 35 37 59c9 23 14 51 14 83v300zM250 -188v104h80v-104h-80z" />
    <glyph glyph-name="Ygrave" unicode="&#x1ef2;" 
d="M266 0v300l-221 424h64l188 -364h8l196 364h60l-229 -424v-300h-66zM279 796l-119 110h78l95 -110h-54z" />
    <glyph glyph-name="ygrave" unicode="&#x1ef3;" 
d="M73 524h68l104 -296c9 -26 19 -51 28 -76s18 -51 28 -76h8c21 51 39 100 56 148l104 300h64l-200 -524c-11 -29 -21 -54 -32 -77s-25 -43 -40 -59c-15 -17 -33 -29 -54 -38s-47 -14 -78 -14c-9 0 -18 0 -27 1s-19 2 -29 3v52c10 -2 20 -3 30 -3c9 -1 18 -1 26 -1
c20 0 37 3 51 8s26 14 37 25c10 11 19 26 28 43c8 17 16 38 24 62zM166 724h75l88 -123h-52z" />
    <glyph glyph-name="uni1EF8" unicode="&#x1ef8;" 
d="M266 0v300l-221 424h64l188 -364h8l196 364h60l-229 -424v-300h-66zM366 806c-11 0 -23 3 -34 8s-22 10 -33 16c-11 5 -22 11 -32 16c-11 5 -20 7 -29 7c-10 0 -19 -3 -26 -10c-8 -7 -14 -19 -19 -36h-39c5 34 15 58 30 73s33 22 53 22c12 0 24 -2 36 -7
c11 -5 23 -11 34 -16c11 -6 21 -11 31 -16c9 -5 18 -8 27 -8c10 0 19 3 27 10c7 7 13 19 17 36h40c-5 -34 -15 -58 -30 -73s-33 -22 -53 -22z" />
    <glyph glyph-name="uni1EF9" unicode="&#x1ef9;" 
d="M73 524h68l104 -296c9 -26 19 -51 28 -76s18 -51 28 -76h8c21 51 39 100 56 148l104 300h64l-200 -524c-11 -29 -21 -54 -32 -77s-25 -43 -40 -59c-15 -17 -33 -29 -54 -38s-47 -14 -78 -14c-9 0 -18 0 -27 1s-19 2 -29 3v52c10 -2 20 -3 30 -3c9 -1 18 -1 26 -1
c20 0 37 3 51 8s26 14 37 25c10 11 19 26 28 43c8 17 16 38 24 62zM368 624c-11 0 -23 3 -34 8s-22 10 -33 16c-11 5 -21 11 -31 16s-19 7 -28 7c-10 0 -19 -3 -26 -10c-8 -7 -14 -19 -19 -36h-39c5 34 15 58 30 73s33 22 53 22c12 0 24 -2 35 -7s22 -11 33 -16
c11 -6 21 -11 31 -16s19 -8 27 -8c10 0 19 3 27 10c7 7 13 19 17 36h40c-5 -34 -15 -58 -30 -73s-33 -22 -53 -22z" />
    <glyph glyph-name="uni2000" unicode="&#x2000;" 
 />
    <glyph glyph-name="uni2001" unicode="&#x2001;" 
 />
    <glyph glyph-name="uni2002" unicode="&#x2002;" 
 />
    <glyph glyph-name="uni2003" unicode="&#x2003;" 
 />
    <glyph glyph-name="uni2004" unicode="&#x2004;" 
 />
    <glyph glyph-name="uni2005" unicode="&#x2005;" 
 />
    <glyph glyph-name="uni2006" unicode="&#x2006;" 
 />
    <glyph glyph-name="uni2007" unicode="&#x2007;" 
 />
    <glyph glyph-name="uni2008" unicode="&#x2008;" 
 />
    <glyph glyph-name="uni2009" unicode="&#x2009;" 
 />
    <glyph glyph-name="uni200A" unicode="&#x200a;" 
 />
    <glyph glyph-name="uni200B" unicode="&#x200b;" horiz-adv-x="0" 
 />
    <glyph glyph-name="figuredash" unicode="&#x2012;" 
d="M80 308h439v-50h-439v50z" />
    <glyph glyph-name="endash" unicode="&#x2013;" 
d="M80 308h439v-50h-439v50z" />
    <glyph glyph-name="emdash" unicode="&#x2014;" 
d="M28 308h544v-50h-544v50z" />
    <glyph glyph-name="uni2015" unicode="&#x2015;" 
d="M28 308h544v-50h-544v50z" />
    <glyph glyph-name="quoteleft" unicode="&#x2018;" 
d="M298 567h51v-97h-99v107l48 147h40z" />
    <glyph glyph-name="quoteright" unicode="&#x2019;" 
d="M306 627h-51v97h99v-107l-48 -147h-40z" />
    <glyph glyph-name="quotesinglbase" unicode="&#x201a;" 
d="M301 8h-51v97h99v-107l-48 -147h-40z" />
    <glyph glyph-name="quotereversed" unicode="&#x201b;" 
d="M246 617v107h99v-97h-51l40 -157h-41z" />
    <glyph glyph-name="quotedblleft" unicode="&#x201c;" 
d="M161 577l47 147h41l-40 -156h51v-98h-99v107zM338 575l47 149h41l-40 -156h51v-98h-99v105z" />
    <glyph glyph-name="quotedblright" unicode="&#x201d;" 
d="M266 619l-47 -149h-41l40 156h-51v98h99v-105zM443 617l-47 -147h-41l40 156h-51v98h99v-107z" />
    <glyph glyph-name="quotedblbase" unicode="&#x201e;" 
d="M261 0l-47 -149h-41l40 156h-51v98h99v-105zM438 -2l-47 -147h-41l40 156h-51v98h99v-107z" />
    <glyph glyph-name="uni201F" unicode="&#x201f;" 
d="M160 617v107h99v-97h-51l40 -157h-41zM332 619v105h99v-97h-51l40 -157h-41z" />
    <glyph glyph-name="dagger" unicode="&#x2020;" 
d="M272 471h-182v50h182v205h57v-205h180v-50h-180v-472h-57v472z" />
    <glyph glyph-name="daggerdbl" unicode="&#x2021;" 
d="M273 94h-182v51h182v326h-182v50h182v205h57v-205h180v-50h-180v-326h180v-51h-180v-209h-57v209z" />
    <glyph glyph-name="bullet" unicode="&#x2022;" 
d="M301 257c-28 0 -51 9 -69 28c-19 18 -28 41 -28 69s9 51 28 69c18 18 41 27 69 27s51 -9 69 -27c17 -18 26 -41 26 -69s-9 -51 -26 -69c-18 -19 -41 -28 -69 -28z" />
    <glyph glyph-name="ellipsis" unicode="&#x2026;" 
d="M50 105h99v-105h-99v105zM250 105h99v-105h-99v105zM450 105h99v-105h-99v105z" />
    <glyph glyph-name="perthousand" unicode="&#x2030;" 
d="M169 508c23 0 43 9 59 26c15 17 23 39 23 67s-8 51 -23 68c-16 17 -36 25 -59 25s-43 -8 -58 -25c-16 -17 -24 -40 -24 -68s8 -50 24 -67c15 -17 35 -26 58 -26zM169 470c-36 0 -66 12 -91 35s-37 55 -37 96s12 74 37 97s55 34 91 34s66 -11 91 -34s37 -56 37 -97
s-12 -73 -37 -96s-55 -35 -91 -35zM173 28c23 0 43 9 59 26c15 17 23 39 23 67s-8 51 -23 68c-16 17 -36 25 -59 25s-43 -8 -58 -25c-16 -17 -24 -40 -24 -68s8 -50 24 -67c15 -17 35 -26 58 -26zM173 -10c-36 0 -66 12 -91 35s-37 55 -37 96s12 74 37 97s55 34 91 34
s66 -11 91 -34s37 -56 37 -97s-12 -73 -37 -96s-55 -35 -91 -35zM457 28c23 0 43 9 59 26c15 17 23 39 23 67s-8 51 -23 68c-16 17 -36 25 -59 25s-43 -8 -58 -25c-16 -17 -24 -40 -24 -68s8 -50 24 -67c15 -17 35 -26 58 -26zM457 -10c-36 0 -66 12 -91 35s-37 55 -37 96
s12 74 37 97s55 34 91 34s66 -11 91 -34s37 -56 37 -97s-12 -73 -37 -96s-55 -35 -91 -35zM543 595l-484 -344l-20 28l484 344z" />
    <glyph glyph-name="minute" unicode="&#x2032;" 
d="M254 724h90l-21 -244h-46z" />
    <glyph glyph-name="second" unicode="&#x2033;" 
d="M154 724h90l-21 -244h-46zM354 724h90l-21 -244h-46z" />
    <glyph glyph-name="guilsinglleft" unicode="&#x2039;" 
d="M196 274l136 198h58l-131 -198l131 -204h-58z" />
    <glyph glyph-name="guilsinglright" unicode="&#x203a;" 
d="M210 70l131 204l-131 198h58l136 -198l-136 -204h-58z" />
    <glyph glyph-name="fraction" unicode="&#x2044;" horiz-adv-x="0" 
d="M238 538l-432 -408l-24 28l432 408z" />
    <glyph glyph-name="uni2070" unicode="&#x2070;" 
d="M300 584c28 0 50 12 66 36c16 23 24 54 24 92s-8 70 -24 95s-38 37 -66 37s-50 -12 -66 -35c-16 -24 -24 -55 -24 -93s8 -69 24 -94s38 -38 66 -38zM300 544c-40 0 -73 15 -99 44s-39 71 -39 128s13 99 39 127c26 27 59 41 99 41s73 -14 99 -43s39 -72 39 -129
s-13 -99 -39 -126c-26 -28 -59 -42 -99 -42z" />
    <glyph glyph-name="uni2074" unicode="&#x2074;" 
d="M429 624h-53v-72h-46v72h-168v37l159 215h55v-210h53v-42zM330 666v152h-4l-110 -152h114z" />
    <glyph glyph-name="uni2075" unicode="&#x2075;" 
d="M198 876h208v-44h-168l-13 -98c13 13 27 22 42 27s31 7 49 7c32 0 59 -9 81 -27c22 -19 33 -46 33 -81c0 -40 -12 -69 -35 -88s-54 -28 -93 -28c-31 0 -59 7 -82 22s-39 38 -46 70h48c5 -17 15 -29 29 -38s31 -14 51 -14c23 0 42 6 57 19c15 12 23 31 23 57
c0 23 -8 40 -23 51s-33 17 -54 17c-23 0 -39 -4 -50 -11c-11 -8 -22 -19 -33 -34l-44 5z" />
    <glyph glyph-name="uni2076" unicode="&#x2076;" 
d="M215 720c9 14 22 25 39 33c17 7 36 11 57 11c36 0 65 -9 87 -27s33 -46 33 -85c0 -36 -11 -63 -33 -81c-23 -18 -53 -27 -91 -27c-48 0 -83 13 -105 40c-22 26 -33 64 -33 114c0 27 3 53 8 76s12 42 23 59c11 16 25 29 42 38s37 13 61 13c35 0 63 -9 86 -26
c22 -18 35 -40 38 -66h-48c-3 18 -12 32 -27 41s-31 13 -49 13c-29 0 -51 -12 -64 -35s-21 -54 -24 -91zM307 582c21 0 40 6 56 19c16 12 24 29 24 51c0 23 -7 42 -22 55s-34 19 -58 19s-44 -6 -59 -19s-23 -32 -23 -55c0 -20 8 -37 24 -50s35 -20 58 -20z" />
    <glyph glyph-name="uni2077" unicode="&#x2077;" 
d="M243 552c9 46 24 94 44 143c19 49 44 95 74 137h-178v44h238v-36c-32 -40 -59 -85 -80 -135s-37 -101 -46 -153h-52z" />
    </font>
</defs>
</svg>
